G04 #@! TF.GenerationSoftware,KiCad,Pcbnew,(5.1.10-1-10_14)*
G04 #@! TF.CreationDate,2021-12-05T14:44:45+09:00*
G04 #@! TF.ProjectId,KZ80-MSXMEM,4b5a3830-2d4d-4535-984d-454d2e6b6963,rev?*
G04 #@! TF.SameCoordinates,PX8f0d180PY7735940*
G04 #@! TF.FileFunction,Legend,Bot*
G04 #@! TF.FilePolarity,Positive*
%FSLAX46Y46*%
G04 Gerber Fmt 4.6, Leading zero omitted, Abs format (unit mm)*
G04 Created by KiCad (PCBNEW (5.1.10-1-10_14)) date 2021-12-05 14:44:45*
%MOMM*%
%LPD*%
G01*
G04 APERTURE LIST*
%ADD10O,2.502000X1.702000*%
%ADD11C,3.302000*%
%ADD12O,1.802000X1.802000*%
%ADD13C,1.702000*%
%ADD14C,0.902000*%
G04 APERTURE END LIST*
%LPC*%
D10*
X51240000Y48500000D03*
X36000000Y15480000D03*
X51240000Y45960000D03*
X36000000Y18020000D03*
X51240000Y43420000D03*
X36000000Y20560000D03*
X51240000Y40880000D03*
X36000000Y23100000D03*
X51240000Y38340000D03*
X36000000Y25640000D03*
X51240000Y35800000D03*
X36000000Y28180000D03*
X51240000Y33260000D03*
X36000000Y30720000D03*
X51240000Y30720000D03*
X36000000Y33260000D03*
X51240000Y28180000D03*
X36000000Y35800000D03*
X51240000Y25640000D03*
X36000000Y38340000D03*
X51240000Y23100000D03*
X36000000Y40880000D03*
X51240000Y20560000D03*
X36000000Y43420000D03*
X51240000Y18020000D03*
X36000000Y45960000D03*
X51240000Y15480000D03*
G36*
G01*
X34749000Y47700000D02*
X34749000Y49300000D01*
G75*
G02*
X34800000Y49351000I51000J0D01*
G01*
X37200000Y49351000D01*
G75*
G02*
X37251000Y49300000I0J-51000D01*
G01*
X37251000Y47700000D01*
G75*
G02*
X37200000Y47649000I-51000J0D01*
G01*
X34800000Y47649000D01*
G75*
G02*
X34749000Y47700000I0J51000D01*
G01*
G37*
X73240000Y48500000D03*
X58000000Y15480000D03*
X73240000Y45960000D03*
X58000000Y18020000D03*
X73240000Y43420000D03*
X58000000Y20560000D03*
X73240000Y40880000D03*
X58000000Y23100000D03*
X73240000Y38340000D03*
X58000000Y25640000D03*
X73240000Y35800000D03*
X58000000Y28180000D03*
X73240000Y33260000D03*
X58000000Y30720000D03*
X73240000Y30720000D03*
X58000000Y33260000D03*
X73240000Y28180000D03*
X58000000Y35800000D03*
X73240000Y25640000D03*
X58000000Y38340000D03*
X73240000Y23100000D03*
X58000000Y40880000D03*
X73240000Y20560000D03*
X58000000Y43420000D03*
X73240000Y18020000D03*
X58000000Y45960000D03*
X73240000Y15480000D03*
G36*
G01*
X56749000Y47700000D02*
X56749000Y49300000D01*
G75*
G02*
X56800000Y49351000I51000J0D01*
G01*
X59200000Y49351000D01*
G75*
G02*
X59251000Y49300000I0J-51000D01*
G01*
X59251000Y47700000D01*
G75*
G02*
X59200000Y47649000I-51000J0D01*
G01*
X56800000Y47649000D01*
G75*
G02*
X56749000Y47700000I0J51000D01*
G01*
G37*
X30620000Y48500000D03*
X23000000Y33260000D03*
X30620000Y45960000D03*
X23000000Y35800000D03*
X30620000Y43420000D03*
X23000000Y38340000D03*
X30620000Y40880000D03*
X23000000Y40880000D03*
X30620000Y38340000D03*
X23000000Y43420000D03*
X30620000Y35800000D03*
X23000000Y45960000D03*
X30620000Y33260000D03*
G36*
G01*
X21749000Y47700000D02*
X21749000Y49300000D01*
G75*
G02*
X21800000Y49351000I51000J0D01*
G01*
X24200000Y49351000D01*
G75*
G02*
X24251000Y49300000I0J-51000D01*
G01*
X24251000Y47700000D01*
G75*
G02*
X24200000Y47649000I-51000J0D01*
G01*
X21800000Y47649000D01*
G75*
G02*
X21749000Y47700000I0J51000D01*
G01*
G37*
D11*
X94500000Y4500000D03*
X5500000Y4500000D03*
X94500000Y70500000D03*
X5500000Y70500000D03*
D12*
X92000000Y22840000D03*
X92000000Y25380000D03*
X92000000Y27920000D03*
X92000000Y30460000D03*
G36*
G01*
X91099000Y32150000D02*
X91099000Y33850000D01*
G75*
G02*
X91150000Y33901000I51000J0D01*
G01*
X92850000Y33901000D01*
G75*
G02*
X92901000Y33850000I0J-51000D01*
G01*
X92901000Y32150000D01*
G75*
G02*
X92850000Y32099000I-51000J0D01*
G01*
X91150000Y32099000D01*
G75*
G02*
X91099000Y32150000I0J51000D01*
G01*
G37*
X74260000Y65040000D03*
X74260000Y62500000D03*
X71720000Y65040000D03*
X71720000Y62500000D03*
X69180000Y65040000D03*
X69180000Y62500000D03*
X66640000Y65040000D03*
X66640000Y62500000D03*
X64100000Y65040000D03*
X64100000Y62500000D03*
X61560000Y65040000D03*
X61560000Y62500000D03*
X59020000Y65040000D03*
X59020000Y62500000D03*
X56480000Y65040000D03*
X56480000Y62500000D03*
X53940000Y65040000D03*
X53940000Y62500000D03*
X51400000Y65040000D03*
X51400000Y62500000D03*
X48860000Y65040000D03*
X48860000Y62500000D03*
X46320000Y65040000D03*
X46320000Y62500000D03*
X43780000Y65040000D03*
X43780000Y62500000D03*
X41240000Y65040000D03*
X41240000Y62500000D03*
X38700000Y65040000D03*
X38700000Y62500000D03*
X36160000Y65040000D03*
X36160000Y62500000D03*
X33620000Y65040000D03*
X33620000Y62500000D03*
X31080000Y65040000D03*
X31080000Y62500000D03*
X28540000Y65040000D03*
X28540000Y62500000D03*
X26000000Y65040000D03*
G36*
G01*
X26850000Y61599000D02*
X25150000Y61599000D01*
G75*
G02*
X25099000Y61650000I0J51000D01*
G01*
X25099000Y63350000D01*
G75*
G02*
X25150000Y63401000I51000J0D01*
G01*
X26850000Y63401000D01*
G75*
G02*
X26901000Y63350000I0J-51000D01*
G01*
X26901000Y61650000D01*
G75*
G02*
X26850000Y61599000I-51000J0D01*
G01*
G37*
D13*
X51500000Y51500000D03*
X49000000Y51500000D03*
X73500000Y51500000D03*
X71000000Y51500000D03*
X13500000Y65000000D03*
G36*
G01*
X14300000Y61649000D02*
X12700000Y61649000D01*
G75*
G02*
X12649000Y61700000I0J51000D01*
G01*
X12649000Y63300000D01*
G75*
G02*
X12700000Y63351000I51000J0D01*
G01*
X14300000Y63351000D01*
G75*
G02*
X14351000Y63300000I0J-51000D01*
G01*
X14351000Y61700000D01*
G75*
G02*
X14300000Y61649000I-51000J0D01*
G01*
G37*
X31000000Y51500000D03*
X28500000Y51500000D03*
D14*
X59360600Y54594100D03*
X59791400Y57633300D03*
X49744700Y26562100D03*
X43191000Y33376700D03*
M02*
