G04 #@! TF.GenerationSoftware,KiCad,Pcbnew,(5.1.10-1-10_14)*
G04 #@! TF.CreationDate,2021-12-05T14:44:45+09:00*
G04 #@! TF.ProjectId,KZ80-MSXMEM,4b5a3830-2d4d-4535-984d-454d2e6b6963,rev?*
G04 #@! TF.SameCoordinates,PX8f0d180PY7735940*
G04 #@! TF.FileFunction,Copper,L1,Top*
G04 #@! TF.FilePolarity,Positive*
%FSLAX46Y46*%
G04 Gerber Fmt 4.6, Leading zero omitted, Abs format (unit mm)*
G04 Created by KiCad (PCBNEW (5.1.10-1-10_14)) date 2021-12-05 14:44:45*
%MOMM*%
%LPD*%
G01*
G04 APERTURE LIST*
G04 #@! TA.AperFunction,ComponentPad*
%ADD10O,2.400000X1.600000*%
G04 #@! TD*
G04 #@! TA.AperFunction,ComponentPad*
%ADD11R,2.400000X1.600000*%
G04 #@! TD*
G04 #@! TA.AperFunction,ComponentPad*
%ADD12O,1.700000X1.700000*%
G04 #@! TD*
G04 #@! TA.AperFunction,ComponentPad*
%ADD13R,1.700000X1.700000*%
G04 #@! TD*
G04 #@! TA.AperFunction,ComponentPad*
%ADD14C,1.600000*%
G04 #@! TD*
G04 #@! TA.AperFunction,ComponentPad*
%ADD15R,1.600000X1.600000*%
G04 #@! TD*
G04 #@! TA.AperFunction,ViaPad*
%ADD16C,0.800000*%
G04 #@! TD*
G04 #@! TA.AperFunction,Conductor*
%ADD17C,0.600000*%
G04 #@! TD*
G04 #@! TA.AperFunction,Conductor*
%ADD18C,0.250000*%
G04 #@! TD*
G04 #@! TA.AperFunction,Conductor*
%ADD19C,0.254000*%
G04 #@! TD*
G04 #@! TA.AperFunction,Conductor*
%ADD20C,0.100000*%
G04 #@! TD*
G04 APERTURE END LIST*
D10*
X51240000Y48500000D03*
X36000000Y15480000D03*
X51240000Y45960000D03*
X36000000Y18020000D03*
X51240000Y43420000D03*
X36000000Y20560000D03*
X51240000Y40880000D03*
X36000000Y23100000D03*
X51240000Y38340000D03*
X36000000Y25640000D03*
X51240000Y35800000D03*
X36000000Y28180000D03*
X51240000Y33260000D03*
X36000000Y30720000D03*
X51240000Y30720000D03*
X36000000Y33260000D03*
X51240000Y28180000D03*
X36000000Y35800000D03*
X51240000Y25640000D03*
X36000000Y38340000D03*
X51240000Y23100000D03*
X36000000Y40880000D03*
X51240000Y20560000D03*
X36000000Y43420000D03*
X51240000Y18020000D03*
X36000000Y45960000D03*
X51240000Y15480000D03*
D11*
X36000000Y48500000D03*
D10*
X73240000Y48500000D03*
X58000000Y15480000D03*
X73240000Y45960000D03*
X58000000Y18020000D03*
X73240000Y43420000D03*
X58000000Y20560000D03*
X73240000Y40880000D03*
X58000000Y23100000D03*
X73240000Y38340000D03*
X58000000Y25640000D03*
X73240000Y35800000D03*
X58000000Y28180000D03*
X73240000Y33260000D03*
X58000000Y30720000D03*
X73240000Y30720000D03*
X58000000Y33260000D03*
X73240000Y28180000D03*
X58000000Y35800000D03*
X73240000Y25640000D03*
X58000000Y38340000D03*
X73240000Y23100000D03*
X58000000Y40880000D03*
X73240000Y20560000D03*
X58000000Y43420000D03*
X73240000Y18020000D03*
X58000000Y45960000D03*
X73240000Y15480000D03*
D11*
X58000000Y48500000D03*
D10*
X30620000Y48500000D03*
X23000000Y33260000D03*
X30620000Y45960000D03*
X23000000Y35800000D03*
X30620000Y43420000D03*
X23000000Y38340000D03*
X30620000Y40880000D03*
X23000000Y40880000D03*
X30620000Y38340000D03*
X23000000Y43420000D03*
X30620000Y35800000D03*
X23000000Y45960000D03*
X30620000Y33260000D03*
D11*
X23000000Y48500000D03*
D12*
X92000000Y22840000D03*
X92000000Y25380000D03*
X92000000Y27920000D03*
X92000000Y30460000D03*
D13*
X92000000Y33000000D03*
D12*
X74260000Y65040000D03*
X74260000Y62500000D03*
X71720000Y65040000D03*
X71720000Y62500000D03*
X69180000Y65040000D03*
X69180000Y62500000D03*
X66640000Y65040000D03*
X66640000Y62500000D03*
X64100000Y65040000D03*
X64100000Y62500000D03*
X61560000Y65040000D03*
X61560000Y62500000D03*
X59020000Y65040000D03*
X59020000Y62500000D03*
X56480000Y65040000D03*
X56480000Y62500000D03*
X53940000Y65040000D03*
X53940000Y62500000D03*
X51400000Y65040000D03*
X51400000Y62500000D03*
X48860000Y65040000D03*
X48860000Y62500000D03*
X46320000Y65040000D03*
X46320000Y62500000D03*
X43780000Y65040000D03*
X43780000Y62500000D03*
X41240000Y65040000D03*
X41240000Y62500000D03*
X38700000Y65040000D03*
X38700000Y62500000D03*
X36160000Y65040000D03*
X36160000Y62500000D03*
X33620000Y65040000D03*
X33620000Y62500000D03*
X31080000Y65040000D03*
X31080000Y62500000D03*
X28540000Y65040000D03*
X28540000Y62500000D03*
X26000000Y65040000D03*
D13*
X26000000Y62500000D03*
D14*
X51500000Y51500000D03*
X49000000Y51500000D03*
X73500000Y51500000D03*
X71000000Y51500000D03*
X13500000Y65000000D03*
D15*
X13500000Y62500000D03*
D14*
X31000000Y51500000D03*
X28500000Y51500000D03*
D16*
X59360600Y54594100D03*
X59791400Y57633300D03*
X49744700Y26562100D03*
X43191000Y33376700D03*
D17*
X31000000Y51500000D02*
X32300400Y52800400D01*
X32300400Y52800400D02*
X50199600Y52800400D01*
X50199600Y52800400D02*
X51500000Y51500000D01*
X73500000Y51500000D02*
X72199600Y52800400D01*
X72199600Y52800400D02*
X52800400Y52800400D01*
X52800400Y52800400D02*
X51500000Y51500000D01*
X28540000Y62500000D02*
X26000000Y62500000D01*
X26000000Y62500000D02*
X13500000Y62500000D01*
X28500000Y51500000D02*
X29800400Y50199600D01*
X29800400Y50199600D02*
X47699600Y50199600D01*
X47699600Y50199600D02*
X49000000Y51500000D01*
X36000000Y15480000D02*
X37700300Y15480000D01*
X58000000Y15480000D02*
X56299700Y15480000D01*
X56299700Y15480000D02*
X54989600Y14169900D01*
X54989600Y14169900D02*
X39010400Y14169900D01*
X39010400Y14169900D02*
X37700300Y15480000D01*
X71000000Y51500000D02*
X69675300Y50175300D01*
X69675300Y50175300D02*
X50324700Y50175300D01*
X50324700Y50175300D02*
X49000000Y51500000D01*
X28540000Y65040000D02*
X26000000Y65040000D01*
X13500000Y65000000D02*
X25960000Y65000000D01*
X25960000Y65000000D02*
X26000000Y65040000D01*
D18*
X29094700Y43420000D02*
X27336000Y45178700D01*
X27336000Y45178700D02*
X27336000Y51948400D01*
X27336000Y51948400D02*
X29140100Y53752500D01*
X29140100Y53752500D02*
X62094700Y53752500D01*
X62094700Y53752500D02*
X70450000Y62107800D01*
X70450000Y62107800D02*
X70450000Y62931000D01*
X70450000Y62931000D02*
X71383700Y63864700D01*
X71383700Y63864700D02*
X72276800Y63864700D01*
X72276800Y63864700D02*
X73084700Y64672600D01*
X73084700Y64672600D02*
X73084700Y65040000D01*
X29094700Y43420000D02*
X29094700Y39865300D01*
X29094700Y39865300D02*
X30620000Y38340000D01*
X30620000Y43420000D02*
X29094700Y43420000D01*
X74260000Y65040000D02*
X73084700Y65040000D01*
X36000000Y48500000D02*
X37525300Y48500000D01*
X58000000Y48500000D02*
X56474700Y48500000D01*
X56474700Y48500000D02*
X55349400Y47374700D01*
X55349400Y47374700D02*
X38650600Y47374700D01*
X38650600Y47374700D02*
X37525300Y48500000D01*
X74260000Y61324700D02*
X74632800Y60951900D01*
X74632800Y60951900D02*
X74632800Y51038200D01*
X74632800Y51038200D02*
X73369800Y49775200D01*
X73369800Y49775200D02*
X71939900Y49775200D01*
X71939900Y49775200D02*
X70664700Y48500000D01*
X70664700Y48500000D02*
X58000000Y48500000D01*
X74260000Y62500000D02*
X74260000Y61324700D01*
X73240000Y43420000D02*
X71714700Y43420000D01*
X71714700Y43420000D02*
X70587000Y44547700D01*
X70587000Y44547700D02*
X56965500Y44547700D01*
X56965500Y44547700D02*
X55837800Y43420000D01*
X55837800Y43420000D02*
X51240000Y43420000D01*
X58000000Y45960000D02*
X59525300Y45960000D01*
X71720000Y62500000D02*
X72895300Y62500000D01*
X72895300Y62500000D02*
X72895300Y62867300D01*
X72895300Y62867300D02*
X73704500Y63676500D01*
X73704500Y63676500D02*
X74780600Y63676500D01*
X74780600Y63676500D02*
X75442000Y63015100D01*
X75442000Y63015100D02*
X75442000Y48674900D01*
X75442000Y48674900D02*
X74141700Y47374600D01*
X74141700Y47374600D02*
X60939900Y47374600D01*
X60939900Y47374600D02*
X59525300Y45960000D01*
X36000000Y45960000D02*
X37525300Y45960000D01*
X58000000Y45960000D02*
X55837800Y45960000D01*
X55837800Y45960000D02*
X54703700Y44825900D01*
X54703700Y44825900D02*
X38659400Y44825900D01*
X38659400Y44825900D02*
X37525300Y45960000D01*
X73240000Y35800000D02*
X74765300Y35800000D01*
X69180000Y65040000D02*
X70355300Y65040000D01*
X70355300Y65040000D02*
X70355300Y65407300D01*
X70355300Y65407300D02*
X71190300Y66242300D01*
X71190300Y66242300D02*
X74724000Y66242300D01*
X74724000Y66242300D02*
X75897800Y65068500D01*
X75897800Y65068500D02*
X75897800Y36932500D01*
X75897800Y36932500D02*
X74765300Y35800000D01*
X73240000Y35800000D02*
X71714700Y35800000D01*
X71714700Y35800000D02*
X70537200Y36977500D01*
X70537200Y36977500D02*
X57015300Y36977500D01*
X57015300Y36977500D02*
X55837800Y35800000D01*
X55837800Y35800000D02*
X51240000Y35800000D01*
X73240000Y30720000D02*
X71714700Y30720000D01*
X71714700Y30720000D02*
X70541200Y31893500D01*
X70541200Y31893500D02*
X57011300Y31893500D01*
X57011300Y31893500D02*
X55837800Y30720000D01*
X55837800Y30720000D02*
X51240000Y30720000D01*
X73240000Y38340000D02*
X71714700Y38340000D01*
X71714700Y38340000D02*
X70541200Y39513500D01*
X70541200Y39513500D02*
X57011300Y39513500D01*
X57011300Y39513500D02*
X55837800Y38340000D01*
X55837800Y38340000D02*
X51240000Y38340000D01*
X73240000Y40880000D02*
X71714700Y40880000D01*
X71714700Y40880000D02*
X70541200Y42053500D01*
X70541200Y42053500D02*
X57011300Y42053500D01*
X57011300Y42053500D02*
X55837800Y40880000D01*
X55837800Y40880000D02*
X51240000Y40880000D01*
X64100000Y65040000D02*
X64100000Y63864700D01*
X64100000Y63864700D02*
X64467300Y63864700D01*
X64467300Y63864700D02*
X65285700Y63046300D01*
X65285700Y63046300D02*
X65285700Y60519200D01*
X65285700Y60519200D02*
X59360600Y54594100D01*
X36000000Y43420000D02*
X37525300Y43420000D01*
X58000000Y43420000D02*
X56474700Y43420000D01*
X56474700Y43420000D02*
X55317400Y42262700D01*
X55317400Y42262700D02*
X38682600Y42262700D01*
X38682600Y42262700D02*
X37525300Y43420000D01*
X64100000Y61324700D02*
X63482800Y61324700D01*
X63482800Y61324700D02*
X59791400Y57633300D01*
X64100000Y62500000D02*
X64100000Y61324700D01*
X36000000Y40880000D02*
X37525300Y40880000D01*
X58000000Y40880000D02*
X56474700Y40880000D01*
X56474700Y40880000D02*
X55317400Y39722700D01*
X55317400Y39722700D02*
X38682600Y39722700D01*
X38682600Y39722700D02*
X37525300Y40880000D01*
X36000000Y38340000D02*
X37525300Y38340000D01*
X58000000Y38340000D02*
X56474700Y38340000D01*
X56474700Y38340000D02*
X55325400Y37190700D01*
X55325400Y37190700D02*
X38674600Y37190700D01*
X38674600Y37190700D02*
X37525300Y38340000D01*
X36000000Y35800000D02*
X37525300Y35800000D01*
X58000000Y35800000D02*
X56474700Y35800000D01*
X56474700Y35800000D02*
X55325400Y34650700D01*
X55325400Y34650700D02*
X38674600Y34650700D01*
X38674600Y34650700D02*
X37525300Y35800000D01*
X36000000Y33260000D02*
X37525300Y33260000D01*
X58000000Y33260000D02*
X56474700Y33260000D01*
X56474700Y33260000D02*
X55317400Y32102700D01*
X55317400Y32102700D02*
X38682600Y32102700D01*
X38682600Y32102700D02*
X37525300Y33260000D01*
X58000000Y30720000D02*
X56474700Y30720000D01*
X56474700Y30720000D02*
X55340400Y29585700D01*
X55340400Y29585700D02*
X49745800Y29585700D01*
X49745800Y29585700D02*
X48611500Y30720000D01*
X48611500Y30720000D02*
X36000000Y30720000D01*
X56474700Y28180000D02*
X55300600Y27005900D01*
X55300600Y27005900D02*
X50353900Y27005900D01*
X50353900Y27005900D02*
X49800700Y27559100D01*
X49800700Y27559100D02*
X38146200Y27559100D01*
X38146200Y27559100D02*
X37525300Y28180000D01*
X36000000Y28180000D02*
X37525300Y28180000D01*
X58000000Y28180000D02*
X56474700Y28180000D01*
X36000000Y25640000D02*
X37525300Y25640000D01*
X49744700Y26562100D02*
X38447400Y26562100D01*
X38447400Y26562100D02*
X37525300Y25640000D01*
X73240000Y33260000D02*
X71714700Y33260000D01*
X51240000Y33260000D02*
X55064700Y33260000D01*
X55064700Y33260000D02*
X56214000Y34409300D01*
X56214000Y34409300D02*
X70565400Y34409300D01*
X70565400Y34409300D02*
X71714700Y33260000D01*
X73240000Y25640000D02*
X71714700Y25640000D01*
X51240000Y25640000D02*
X52765300Y25640000D01*
X52765300Y25640000D02*
X53895600Y24509700D01*
X53895600Y24509700D02*
X70584400Y24509700D01*
X70584400Y24509700D02*
X71714700Y25640000D01*
X73240000Y20560000D02*
X71714700Y20560000D01*
X51240000Y20560000D02*
X52765300Y20560000D01*
X52765300Y20560000D02*
X53930800Y19394500D01*
X53930800Y19394500D02*
X70549200Y19394500D01*
X70549200Y19394500D02*
X71714700Y20560000D01*
X51240000Y15480000D02*
X52765300Y15480000D01*
X73240000Y15480000D02*
X71714700Y15480000D01*
X71714700Y15480000D02*
X70524200Y16670500D01*
X70524200Y16670500D02*
X53955800Y16670500D01*
X53955800Y16670500D02*
X52765300Y15480000D01*
X36000000Y18020000D02*
X37525300Y18020000D01*
X37525300Y18020000D02*
X38708800Y19203500D01*
X38708800Y19203500D02*
X52506000Y19203500D01*
X52506000Y19203500D02*
X53689500Y18020000D01*
X53689500Y18020000D02*
X58000000Y18020000D01*
X58000000Y20560000D02*
X56474700Y20560000D01*
X36000000Y20560000D02*
X37525300Y20560000D01*
X37525300Y20560000D02*
X38674600Y21709300D01*
X38674600Y21709300D02*
X55325400Y21709300D01*
X55325400Y21709300D02*
X56474700Y20560000D01*
X36000000Y23100000D02*
X37525300Y23100000D01*
X37525300Y23100000D02*
X38659400Y24234100D01*
X38659400Y24234100D02*
X53437500Y24234100D01*
X53437500Y24234100D02*
X54571600Y23100000D01*
X54571600Y23100000D02*
X58000000Y23100000D01*
X92000000Y33000000D02*
X92000000Y31824700D01*
X92000000Y31824700D02*
X91647000Y31824700D01*
X91647000Y31824700D02*
X73357800Y13535500D01*
X73357800Y13535500D02*
X35889300Y13535500D01*
X35889300Y13535500D02*
X34063700Y15361100D01*
X34063700Y15361100D02*
X34063700Y26936600D01*
X34063700Y26936600D02*
X23000000Y38000300D01*
X23000000Y38000300D02*
X23000000Y38340000D01*
X30620000Y40880000D02*
X32145300Y40880000D01*
X32145300Y40880000D02*
X32145300Y37589800D01*
X32145300Y37589800D02*
X35060500Y34674600D01*
X35060500Y34674600D02*
X36747600Y34674600D01*
X36747600Y34674600D02*
X38045500Y33376700D01*
X38045500Y33376700D02*
X43191000Y33376700D01*
X24525300Y43420000D02*
X24525300Y37190500D01*
X24525300Y37190500D02*
X32121200Y29594600D01*
X32121200Y29594600D02*
X48300100Y29594600D01*
X48300100Y29594600D02*
X49714700Y28180000D01*
X51240000Y28180000D02*
X49714700Y28180000D01*
X23000000Y43420000D02*
X24525300Y43420000D01*
X24525300Y45960000D02*
X27597100Y42888200D01*
X27597100Y42888200D02*
X27465300Y42756400D01*
X27465300Y42756400D02*
X27465300Y42383200D01*
X27465300Y42383200D02*
X28644400Y41204100D01*
X28644400Y41204100D02*
X28644400Y38995800D01*
X28644400Y38995800D02*
X29094700Y38545500D01*
X29094700Y38545500D02*
X29094700Y33260000D01*
X23000000Y45960000D02*
X24525300Y45960000D01*
X30620000Y33260000D02*
X29094700Y33260000D01*
D19*
X99340001Y660000D02*
X660000Y660000D01*
X660000Y4720128D01*
X3265000Y4720128D01*
X3265000Y4279872D01*
X3350890Y3848075D01*
X3519369Y3441331D01*
X3763962Y3075271D01*
X4075271Y2763962D01*
X4441331Y2519369D01*
X4848075Y2350890D01*
X5279872Y2265000D01*
X5720128Y2265000D01*
X6151925Y2350890D01*
X6558669Y2519369D01*
X6924729Y2763962D01*
X7236038Y3075271D01*
X7480631Y3441331D01*
X7649110Y3848075D01*
X7735000Y4279872D01*
X7735000Y4720128D01*
X92265000Y4720128D01*
X92265000Y4279872D01*
X92350890Y3848075D01*
X92519369Y3441331D01*
X92763962Y3075271D01*
X93075271Y2763962D01*
X93441331Y2519369D01*
X93848075Y2350890D01*
X94279872Y2265000D01*
X94720128Y2265000D01*
X95151925Y2350890D01*
X95558669Y2519369D01*
X95924729Y2763962D01*
X96236038Y3075271D01*
X96480631Y3441331D01*
X96649110Y3848075D01*
X96735000Y4279872D01*
X96735000Y4720128D01*
X96649110Y5151925D01*
X96480631Y5558669D01*
X96236038Y5924729D01*
X95924729Y6236038D01*
X95558669Y6480631D01*
X95151925Y6649110D01*
X94720128Y6735000D01*
X94279872Y6735000D01*
X93848075Y6649110D01*
X93441331Y6480631D01*
X93075271Y6236038D01*
X92763962Y5924729D01*
X92519369Y5558669D01*
X92350890Y5151925D01*
X92265000Y4720128D01*
X7735000Y4720128D01*
X7649110Y5151925D01*
X7480631Y5558669D01*
X7236038Y5924729D01*
X6924729Y6236038D01*
X6558669Y6480631D01*
X6151925Y6649110D01*
X5720128Y6735000D01*
X5279872Y6735000D01*
X4848075Y6649110D01*
X4441331Y6480631D01*
X4075271Y6236038D01*
X3763962Y5924729D01*
X3519369Y5558669D01*
X3350890Y5151925D01*
X3265000Y4720128D01*
X660000Y4720128D01*
X660000Y32910961D01*
X21208096Y32910961D01*
X21225633Y32828182D01*
X21336285Y32568354D01*
X21495500Y32335105D01*
X21697161Y32137399D01*
X21933517Y31982834D01*
X22195486Y31877350D01*
X22473000Y31825000D01*
X22873000Y31825000D01*
X22873000Y33133000D01*
X23127000Y33133000D01*
X23127000Y31825000D01*
X23527000Y31825000D01*
X23804514Y31877350D01*
X24066483Y31982834D01*
X24302839Y32137399D01*
X24504500Y32335105D01*
X24663715Y32568354D01*
X24774367Y32828182D01*
X24791904Y32910961D01*
X24669915Y33133000D01*
X23127000Y33133000D01*
X22873000Y33133000D01*
X21330085Y33133000D01*
X21208096Y32910961D01*
X660000Y32910961D01*
X660000Y63300000D01*
X12061928Y63300000D01*
X12061928Y61700000D01*
X12074188Y61575518D01*
X12110498Y61455820D01*
X12169463Y61345506D01*
X12248815Y61248815D01*
X12345506Y61169463D01*
X12455820Y61110498D01*
X12575518Y61074188D01*
X12700000Y61061928D01*
X14300000Y61061928D01*
X14424482Y61074188D01*
X14544180Y61110498D01*
X14654494Y61169463D01*
X14751185Y61248815D01*
X14830537Y61345506D01*
X14889502Y61455820D01*
X14922621Y61565000D01*
X24520299Y61565000D01*
X24524188Y61525518D01*
X24560498Y61405820D01*
X24619463Y61295506D01*
X24698815Y61198815D01*
X24795506Y61119463D01*
X24905820Y61060498D01*
X25025518Y61024188D01*
X25150000Y61011928D01*
X26850000Y61011928D01*
X26974482Y61024188D01*
X27094180Y61060498D01*
X27204494Y61119463D01*
X27301185Y61198815D01*
X27380537Y61295506D01*
X27439502Y61405820D01*
X27461513Y61478380D01*
X27593368Y61346525D01*
X27836589Y61184010D01*
X28106842Y61072068D01*
X28393740Y61015000D01*
X28686260Y61015000D01*
X28973158Y61072068D01*
X29243411Y61184010D01*
X29486632Y61346525D01*
X29693475Y61553368D01*
X29810000Y61727760D01*
X29926525Y61553368D01*
X30133368Y61346525D01*
X30376589Y61184010D01*
X30646842Y61072068D01*
X30933740Y61015000D01*
X31226260Y61015000D01*
X31513158Y61072068D01*
X31783411Y61184010D01*
X32026632Y61346525D01*
X32233475Y61553368D01*
X32350000Y61727760D01*
X32466525Y61553368D01*
X32673368Y61346525D01*
X32916589Y61184010D01*
X33186842Y61072068D01*
X33473740Y61015000D01*
X33766260Y61015000D01*
X34053158Y61072068D01*
X34323411Y61184010D01*
X34566632Y61346525D01*
X34773475Y61553368D01*
X34890000Y61727760D01*
X35006525Y61553368D01*
X35213368Y61346525D01*
X35456589Y61184010D01*
X35726842Y61072068D01*
X36013740Y61015000D01*
X36306260Y61015000D01*
X36593158Y61072068D01*
X36863411Y61184010D01*
X37106632Y61346525D01*
X37313475Y61553368D01*
X37430000Y61727760D01*
X37546525Y61553368D01*
X37753368Y61346525D01*
X37996589Y61184010D01*
X38266842Y61072068D01*
X38553740Y61015000D01*
X38846260Y61015000D01*
X39133158Y61072068D01*
X39403411Y61184010D01*
X39646632Y61346525D01*
X39853475Y61553368D01*
X39970000Y61727760D01*
X40086525Y61553368D01*
X40293368Y61346525D01*
X40536589Y61184010D01*
X40806842Y61072068D01*
X41093740Y61015000D01*
X41386260Y61015000D01*
X41673158Y61072068D01*
X41943411Y61184010D01*
X42186632Y61346525D01*
X42393475Y61553368D01*
X42510000Y61727760D01*
X42626525Y61553368D01*
X42833368Y61346525D01*
X43076589Y61184010D01*
X43346842Y61072068D01*
X43633740Y61015000D01*
X43926260Y61015000D01*
X44213158Y61072068D01*
X44483411Y61184010D01*
X44726632Y61346525D01*
X44933475Y61553368D01*
X45050000Y61727760D01*
X45166525Y61553368D01*
X45373368Y61346525D01*
X45616589Y61184010D01*
X45886842Y61072068D01*
X46173740Y61015000D01*
X46466260Y61015000D01*
X46753158Y61072068D01*
X47023411Y61184010D01*
X47266632Y61346525D01*
X47473475Y61553368D01*
X47590000Y61727760D01*
X47706525Y61553368D01*
X47913368Y61346525D01*
X48156589Y61184010D01*
X48426842Y61072068D01*
X48713740Y61015000D01*
X49006260Y61015000D01*
X49293158Y61072068D01*
X49563411Y61184010D01*
X49806632Y61346525D01*
X50013475Y61553368D01*
X50130000Y61727760D01*
X50246525Y61553368D01*
X50453368Y61346525D01*
X50696589Y61184010D01*
X50966842Y61072068D01*
X51253740Y61015000D01*
X51546260Y61015000D01*
X51833158Y61072068D01*
X52103411Y61184010D01*
X52346632Y61346525D01*
X52553475Y61553368D01*
X52670000Y61727760D01*
X52786525Y61553368D01*
X52993368Y61346525D01*
X53236589Y61184010D01*
X53506842Y61072068D01*
X53793740Y61015000D01*
X54086260Y61015000D01*
X54373158Y61072068D01*
X54643411Y61184010D01*
X54886632Y61346525D01*
X55093475Y61553368D01*
X55210000Y61727760D01*
X55326525Y61553368D01*
X55533368Y61346525D01*
X55776589Y61184010D01*
X56046842Y61072068D01*
X56333740Y61015000D01*
X56626260Y61015000D01*
X56913158Y61072068D01*
X57183411Y61184010D01*
X57426632Y61346525D01*
X57633475Y61553368D01*
X57750000Y61727760D01*
X57866525Y61553368D01*
X58073368Y61346525D01*
X58316589Y61184010D01*
X58586842Y61072068D01*
X58873740Y61015000D01*
X59166260Y61015000D01*
X59453158Y61072068D01*
X59723411Y61184010D01*
X59966632Y61346525D01*
X60173475Y61553368D01*
X60290000Y61727760D01*
X60406525Y61553368D01*
X60613368Y61346525D01*
X60856589Y61184010D01*
X61126842Y61072068D01*
X61413740Y61015000D01*
X61706260Y61015000D01*
X61993158Y61072068D01*
X62263411Y61184010D01*
X62275156Y61191858D01*
X59751599Y58668300D01*
X59689461Y58668300D01*
X59489502Y58628526D01*
X59301144Y58550505D01*
X59131626Y58437237D01*
X58987463Y58293074D01*
X58874195Y58123556D01*
X58796174Y57935198D01*
X58756400Y57735239D01*
X58756400Y57531361D01*
X58796174Y57331402D01*
X58874195Y57143044D01*
X58987463Y56973526D01*
X59131626Y56829363D01*
X59301144Y56716095D01*
X59489502Y56638074D01*
X59689461Y56598300D01*
X59893339Y56598300D01*
X60093298Y56638074D01*
X60281656Y56716095D01*
X60451174Y56829363D01*
X60595337Y56973526D01*
X60708605Y57143044D01*
X60786626Y57331402D01*
X60826400Y57531361D01*
X60826400Y57593499D01*
X63797602Y60564700D01*
X64062667Y60564700D01*
X64100000Y60561023D01*
X64248986Y60575697D01*
X64275411Y60583713D01*
X59320799Y55629100D01*
X59258661Y55629100D01*
X59058702Y55589326D01*
X58870344Y55511305D01*
X58700826Y55398037D01*
X58556663Y55253874D01*
X58443395Y55084356D01*
X58365374Y54895998D01*
X58325600Y54696039D01*
X58325600Y54512500D01*
X29177425Y54512500D01*
X29140100Y54516176D01*
X29102775Y54512500D01*
X29102767Y54512500D01*
X28991114Y54501503D01*
X28847853Y54458046D01*
X28715824Y54387474D01*
X28600099Y54292501D01*
X28576301Y54263503D01*
X26824998Y52512199D01*
X26796000Y52488401D01*
X26772202Y52459403D01*
X26772201Y52459402D01*
X26701026Y52372676D01*
X26630454Y52240646D01*
X26586998Y52097385D01*
X26572324Y51948400D01*
X26576001Y51911068D01*
X26576000Y45216023D01*
X26572324Y45178700D01*
X26576000Y45141378D01*
X26576000Y45141368D01*
X26586997Y45029715D01*
X26611647Y44948455D01*
X25089104Y46470997D01*
X25065301Y46500001D01*
X24949576Y46594974D01*
X24817547Y46665546D01*
X24674286Y46709003D01*
X24624139Y46713942D01*
X24598932Y46761101D01*
X24419608Y46979608D01*
X24306518Y47072419D01*
X24324482Y47074188D01*
X24444180Y47110498D01*
X24554494Y47169463D01*
X24651185Y47248815D01*
X24730537Y47345506D01*
X24789502Y47455820D01*
X24825812Y47575518D01*
X24838072Y47700000D01*
X24838072Y49300000D01*
X24825812Y49424482D01*
X24789502Y49544180D01*
X24730537Y49654494D01*
X24651185Y49751185D01*
X24554494Y49830537D01*
X24444180Y49889502D01*
X24324482Y49925812D01*
X24200000Y49938072D01*
X21800000Y49938072D01*
X21675518Y49925812D01*
X21555820Y49889502D01*
X21445506Y49830537D01*
X21348815Y49751185D01*
X21269463Y49654494D01*
X21210498Y49544180D01*
X21174188Y49424482D01*
X21161928Y49300000D01*
X21161928Y47700000D01*
X21174188Y47575518D01*
X21210498Y47455820D01*
X21269463Y47345506D01*
X21348815Y47248815D01*
X21445506Y47169463D01*
X21555820Y47110498D01*
X21675518Y47074188D01*
X21693482Y47072419D01*
X21580392Y46979608D01*
X21401068Y46761101D01*
X21267818Y46511808D01*
X21185764Y46241309D01*
X21158057Y45960000D01*
X21185764Y45678691D01*
X21267818Y45408192D01*
X21401068Y45158899D01*
X21580392Y44940392D01*
X21798899Y44761068D01*
X21931858Y44690000D01*
X21798899Y44618932D01*
X21580392Y44439608D01*
X21401068Y44221101D01*
X21267818Y43971808D01*
X21185764Y43701309D01*
X21158057Y43420000D01*
X21185764Y43138691D01*
X21267818Y42868192D01*
X21401068Y42618899D01*
X21580392Y42400392D01*
X21798899Y42221068D01*
X21931858Y42150000D01*
X21798899Y42078932D01*
X21580392Y41899608D01*
X21401068Y41681101D01*
X21267818Y41431808D01*
X21185764Y41161309D01*
X21158057Y40880000D01*
X21185764Y40598691D01*
X21267818Y40328192D01*
X21401068Y40078899D01*
X21580392Y39860392D01*
X21798899Y39681068D01*
X21931858Y39610000D01*
X21798899Y39538932D01*
X21580392Y39359608D01*
X21401068Y39141101D01*
X21267818Y38891808D01*
X21185764Y38621309D01*
X21158057Y38340000D01*
X21185764Y38058691D01*
X21267818Y37788192D01*
X21401068Y37538899D01*
X21580392Y37320392D01*
X21798899Y37141068D01*
X21931858Y37070000D01*
X21798899Y36998932D01*
X21580392Y36819608D01*
X21401068Y36601101D01*
X21267818Y36351808D01*
X21185764Y36081309D01*
X21158057Y35800000D01*
X21185764Y35518691D01*
X21267818Y35248192D01*
X21401068Y34998899D01*
X21580392Y34780392D01*
X21798899Y34601068D01*
X21926741Y34532735D01*
X21697161Y34382601D01*
X21495500Y34184895D01*
X21336285Y33951646D01*
X21225633Y33691818D01*
X21208096Y33609039D01*
X21330085Y33387000D01*
X22873000Y33387000D01*
X22873000Y33407000D01*
X23127000Y33407000D01*
X23127000Y33387000D01*
X24669915Y33387000D01*
X24791904Y33609039D01*
X24774367Y33691818D01*
X24663715Y33951646D01*
X24504500Y34184895D01*
X24302839Y34382601D01*
X24073259Y34532735D01*
X24201101Y34601068D01*
X24419608Y34780392D01*
X24598932Y34998899D01*
X24713067Y35212431D01*
X33303701Y26621797D01*
X33303700Y15398422D01*
X33300024Y15361100D01*
X33303700Y15323778D01*
X33303700Y15323768D01*
X33314697Y15212115D01*
X33358154Y15068854D01*
X33428726Y14936824D01*
X33468571Y14888274D01*
X33523699Y14821099D01*
X33552703Y14797296D01*
X35325501Y13024497D01*
X35349299Y12995499D01*
X35465024Y12900526D01*
X35597053Y12829954D01*
X35740314Y12786497D01*
X35851967Y12775500D01*
X35851976Y12775500D01*
X35889299Y12771824D01*
X35926622Y12775500D01*
X73320478Y12775500D01*
X73357800Y12771824D01*
X73395122Y12775500D01*
X73395133Y12775500D01*
X73506786Y12786497D01*
X73650047Y12829954D01*
X73782076Y12900526D01*
X73897801Y12995499D01*
X73921604Y13024503D01*
X90675130Y29778028D01*
X90684010Y29756589D01*
X90846525Y29513368D01*
X91053368Y29306525D01*
X91227760Y29190000D01*
X91053368Y29073475D01*
X90846525Y28866632D01*
X90684010Y28623411D01*
X90572068Y28353158D01*
X90515000Y28066260D01*
X90515000Y27773740D01*
X90572068Y27486842D01*
X90684010Y27216589D01*
X90846525Y26973368D01*
X91053368Y26766525D01*
X91227760Y26650000D01*
X91053368Y26533475D01*
X90846525Y26326632D01*
X90684010Y26083411D01*
X90572068Y25813158D01*
X90515000Y25526260D01*
X90515000Y25233740D01*
X90572068Y24946842D01*
X90684010Y24676589D01*
X90846525Y24433368D01*
X91053368Y24226525D01*
X91227760Y24110000D01*
X91053368Y23993475D01*
X90846525Y23786632D01*
X90684010Y23543411D01*
X90572068Y23273158D01*
X90515000Y22986260D01*
X90515000Y22693740D01*
X90572068Y22406842D01*
X90684010Y22136589D01*
X90846525Y21893368D01*
X91053368Y21686525D01*
X91296589Y21524010D01*
X91566842Y21412068D01*
X91853740Y21355000D01*
X92146260Y21355000D01*
X92433158Y21412068D01*
X92703411Y21524010D01*
X92946632Y21686525D01*
X93153475Y21893368D01*
X93315990Y22136589D01*
X93427932Y22406842D01*
X93485000Y22693740D01*
X93485000Y22986260D01*
X93427932Y23273158D01*
X93315990Y23543411D01*
X93153475Y23786632D01*
X92946632Y23993475D01*
X92772240Y24110000D01*
X92946632Y24226525D01*
X93153475Y24433368D01*
X93315990Y24676589D01*
X93427932Y24946842D01*
X93485000Y25233740D01*
X93485000Y25526260D01*
X93427932Y25813158D01*
X93315990Y26083411D01*
X93153475Y26326632D01*
X92946632Y26533475D01*
X92772240Y26650000D01*
X92946632Y26766525D01*
X93153475Y26973368D01*
X93315990Y27216589D01*
X93427932Y27486842D01*
X93485000Y27773740D01*
X93485000Y28066260D01*
X93427932Y28353158D01*
X93315990Y28623411D01*
X93153475Y28866632D01*
X92946632Y29073475D01*
X92772240Y29190000D01*
X92946632Y29306525D01*
X93153475Y29513368D01*
X93315990Y29756589D01*
X93427932Y30026842D01*
X93485000Y30313740D01*
X93485000Y30606260D01*
X93427932Y30893158D01*
X93315990Y31163411D01*
X93153475Y31406632D01*
X93021620Y31538487D01*
X93094180Y31560498D01*
X93204494Y31619463D01*
X93301185Y31698815D01*
X93380537Y31795506D01*
X93439502Y31905820D01*
X93475812Y32025518D01*
X93488072Y32150000D01*
X93488072Y33850000D01*
X93475812Y33974482D01*
X93439502Y34094180D01*
X93380537Y34204494D01*
X93301185Y34301185D01*
X93204494Y34380537D01*
X93094180Y34439502D01*
X92974482Y34475812D01*
X92850000Y34488072D01*
X91150000Y34488072D01*
X91025518Y34475812D01*
X90905820Y34439502D01*
X90795506Y34380537D01*
X90698815Y34301185D01*
X90619463Y34204494D01*
X90560498Y34094180D01*
X90524188Y33974482D01*
X90511928Y33850000D01*
X90511928Y32150000D01*
X90524188Y32025518D01*
X90560498Y31905820D01*
X90592830Y31845332D01*
X74904998Y16157500D01*
X74838932Y16281101D01*
X74659608Y16499608D01*
X74441101Y16678932D01*
X74308142Y16750000D01*
X74441101Y16821068D01*
X74659608Y17000392D01*
X74838932Y17218899D01*
X74972182Y17468192D01*
X75054236Y17738691D01*
X75081943Y18020000D01*
X75054236Y18301309D01*
X74972182Y18571808D01*
X74838932Y18821101D01*
X74659608Y19039608D01*
X74441101Y19218932D01*
X74308142Y19290000D01*
X74441101Y19361068D01*
X74659608Y19540392D01*
X74838932Y19758899D01*
X74972182Y20008192D01*
X75054236Y20278691D01*
X75081943Y20560000D01*
X75054236Y20841309D01*
X74972182Y21111808D01*
X74838932Y21361101D01*
X74659608Y21579608D01*
X74441101Y21758932D01*
X74308142Y21830000D01*
X74441101Y21901068D01*
X74659608Y22080392D01*
X74838932Y22298899D01*
X74972182Y22548192D01*
X75054236Y22818691D01*
X75081943Y23100000D01*
X75054236Y23381309D01*
X74972182Y23651808D01*
X74838932Y23901101D01*
X74659608Y24119608D01*
X74441101Y24298932D01*
X74308142Y24370000D01*
X74441101Y24441068D01*
X74659608Y24620392D01*
X74838932Y24838899D01*
X74972182Y25088192D01*
X75054236Y25358691D01*
X75081943Y25640000D01*
X75054236Y25921309D01*
X74972182Y26191808D01*
X74838932Y26441101D01*
X74659608Y26659608D01*
X74441101Y26838932D01*
X74308142Y26910000D01*
X74441101Y26981068D01*
X74659608Y27160392D01*
X74838932Y27378899D01*
X74972182Y27628192D01*
X75054236Y27898691D01*
X75081943Y28180000D01*
X75054236Y28461309D01*
X74972182Y28731808D01*
X74838932Y28981101D01*
X74659608Y29199608D01*
X74441101Y29378932D01*
X74308142Y29450000D01*
X74441101Y29521068D01*
X74659608Y29700392D01*
X74838932Y29918899D01*
X74972182Y30168192D01*
X75054236Y30438691D01*
X75081943Y30720000D01*
X75054236Y31001309D01*
X74972182Y31271808D01*
X74838932Y31521101D01*
X74659608Y31739608D01*
X74441101Y31918932D01*
X74308142Y31990000D01*
X74441101Y32061068D01*
X74659608Y32240392D01*
X74838932Y32458899D01*
X74972182Y32708192D01*
X75054236Y32978691D01*
X75081943Y33260000D01*
X75054236Y33541309D01*
X74972182Y33811808D01*
X74838932Y34061101D01*
X74659608Y34279608D01*
X74441101Y34458932D01*
X74308142Y34530000D01*
X74441101Y34601068D01*
X74659608Y34780392D01*
X74838932Y34998899D01*
X74864139Y35046058D01*
X74914286Y35050997D01*
X75057547Y35094454D01*
X75189576Y35165026D01*
X75305301Y35259999D01*
X75329104Y35289002D01*
X76408803Y36368701D01*
X76437801Y36392499D01*
X76532774Y36508224D01*
X76603346Y36640253D01*
X76646803Y36783514D01*
X76657800Y36895167D01*
X76657800Y36895177D01*
X76661476Y36932500D01*
X76657800Y36969823D01*
X76657800Y65031177D01*
X76661476Y65068500D01*
X76657800Y65105823D01*
X76657800Y65105833D01*
X76646803Y65217486D01*
X76603346Y65360747D01*
X76570818Y65421602D01*
X76532774Y65492777D01*
X76461599Y65579503D01*
X76437801Y65608501D01*
X76408804Y65632298D01*
X75287804Y66753297D01*
X75264001Y66782301D01*
X75148276Y66877274D01*
X75016247Y66947846D01*
X74872986Y66991303D01*
X74761333Y67002300D01*
X74761322Y67002300D01*
X74724000Y67005976D01*
X74686678Y67002300D01*
X71227622Y67002300D01*
X71190299Y67005976D01*
X71152976Y67002300D01*
X71152967Y67002300D01*
X71041314Y66991303D01*
X70898053Y66947846D01*
X70766024Y66877274D01*
X70650299Y66782301D01*
X70626501Y66753302D01*
X70090690Y66217491D01*
X69883411Y66355990D01*
X69613158Y66467932D01*
X69326260Y66525000D01*
X69033740Y66525000D01*
X68746842Y66467932D01*
X68476589Y66355990D01*
X68233368Y66193475D01*
X68026525Y65986632D01*
X67910000Y65812240D01*
X67793475Y65986632D01*
X67586632Y66193475D01*
X67343411Y66355990D01*
X67073158Y66467932D01*
X66786260Y66525000D01*
X66493740Y66525000D01*
X66206842Y66467932D01*
X65936589Y66355990D01*
X65693368Y66193475D01*
X65486525Y65986632D01*
X65370000Y65812240D01*
X65253475Y65986632D01*
X65046632Y66193475D01*
X64803411Y66355990D01*
X64533158Y66467932D01*
X64246260Y66525000D01*
X63953740Y66525000D01*
X63666842Y66467932D01*
X63396589Y66355990D01*
X63153368Y66193475D01*
X62946525Y65986632D01*
X62830000Y65812240D01*
X62713475Y65986632D01*
X62506632Y66193475D01*
X62263411Y66355990D01*
X61993158Y66467932D01*
X61706260Y66525000D01*
X61413740Y66525000D01*
X61126842Y66467932D01*
X60856589Y66355990D01*
X60613368Y66193475D01*
X60406525Y65986632D01*
X60290000Y65812240D01*
X60173475Y65986632D01*
X59966632Y66193475D01*
X59723411Y66355990D01*
X59453158Y66467932D01*
X59166260Y66525000D01*
X58873740Y66525000D01*
X58586842Y66467932D01*
X58316589Y66355990D01*
X58073368Y66193475D01*
X57866525Y65986632D01*
X57750000Y65812240D01*
X57633475Y65986632D01*
X57426632Y66193475D01*
X57183411Y66355990D01*
X56913158Y66467932D01*
X56626260Y66525000D01*
X56333740Y66525000D01*
X56046842Y66467932D01*
X55776589Y66355990D01*
X55533368Y66193475D01*
X55326525Y65986632D01*
X55210000Y65812240D01*
X55093475Y65986632D01*
X54886632Y66193475D01*
X54643411Y66355990D01*
X54373158Y66467932D01*
X54086260Y66525000D01*
X53793740Y66525000D01*
X53506842Y66467932D01*
X53236589Y66355990D01*
X52993368Y66193475D01*
X52786525Y65986632D01*
X52670000Y65812240D01*
X52553475Y65986632D01*
X52346632Y66193475D01*
X52103411Y66355990D01*
X51833158Y66467932D01*
X51546260Y66525000D01*
X51253740Y66525000D01*
X50966842Y66467932D01*
X50696589Y66355990D01*
X50453368Y66193475D01*
X50246525Y65986632D01*
X50130000Y65812240D01*
X50013475Y65986632D01*
X49806632Y66193475D01*
X49563411Y66355990D01*
X49293158Y66467932D01*
X49006260Y66525000D01*
X48713740Y66525000D01*
X48426842Y66467932D01*
X48156589Y66355990D01*
X47913368Y66193475D01*
X47706525Y65986632D01*
X47590000Y65812240D01*
X47473475Y65986632D01*
X47266632Y66193475D01*
X47023411Y66355990D01*
X46753158Y66467932D01*
X46466260Y66525000D01*
X46173740Y66525000D01*
X45886842Y66467932D01*
X45616589Y66355990D01*
X45373368Y66193475D01*
X45166525Y65986632D01*
X45050000Y65812240D01*
X44933475Y65986632D01*
X44726632Y66193475D01*
X44483411Y66355990D01*
X44213158Y66467932D01*
X43926260Y66525000D01*
X43633740Y66525000D01*
X43346842Y66467932D01*
X43076589Y66355990D01*
X42833368Y66193475D01*
X42626525Y65986632D01*
X42510000Y65812240D01*
X42393475Y65986632D01*
X42186632Y66193475D01*
X41943411Y66355990D01*
X41673158Y66467932D01*
X41386260Y66525000D01*
X41093740Y66525000D01*
X40806842Y66467932D01*
X40536589Y66355990D01*
X40293368Y66193475D01*
X40086525Y65986632D01*
X39970000Y65812240D01*
X39853475Y65986632D01*
X39646632Y66193475D01*
X39403411Y66355990D01*
X39133158Y66467932D01*
X38846260Y66525000D01*
X38553740Y66525000D01*
X38266842Y66467932D01*
X37996589Y66355990D01*
X37753368Y66193475D01*
X37546525Y65986632D01*
X37430000Y65812240D01*
X37313475Y65986632D01*
X37106632Y66193475D01*
X36863411Y66355990D01*
X36593158Y66467932D01*
X36306260Y66525000D01*
X36013740Y66525000D01*
X35726842Y66467932D01*
X35456589Y66355990D01*
X35213368Y66193475D01*
X35006525Y65986632D01*
X34890000Y65812240D01*
X34773475Y65986632D01*
X34566632Y66193475D01*
X34323411Y66355990D01*
X34053158Y66467932D01*
X33766260Y66525000D01*
X33473740Y66525000D01*
X33186842Y66467932D01*
X32916589Y66355990D01*
X32673368Y66193475D01*
X32466525Y65986632D01*
X32350000Y65812240D01*
X32233475Y65986632D01*
X32026632Y66193475D01*
X31783411Y66355990D01*
X31513158Y66467932D01*
X31226260Y66525000D01*
X30933740Y66525000D01*
X30646842Y66467932D01*
X30376589Y66355990D01*
X30133368Y66193475D01*
X29926525Y65986632D01*
X29804805Y65804466D01*
X29735178Y65921355D01*
X29540269Y66137588D01*
X29306920Y66311641D01*
X29044099Y66436825D01*
X28896890Y66481476D01*
X28667000Y66360155D01*
X28667000Y65167000D01*
X28687000Y65167000D01*
X28687000Y64913000D01*
X28667000Y64913000D01*
X28667000Y64893000D01*
X28413000Y64893000D01*
X28413000Y64913000D01*
X26127000Y64913000D01*
X26127000Y64893000D01*
X25873000Y64893000D01*
X25873000Y64913000D01*
X24679186Y64913000D01*
X24558519Y64683109D01*
X24655843Y64408748D01*
X24804822Y64158645D01*
X24981626Y63962498D01*
X24905820Y63939502D01*
X24795506Y63880537D01*
X24698815Y63801185D01*
X24619463Y63704494D01*
X24560498Y63594180D01*
X24524188Y63474482D01*
X24520299Y63435000D01*
X14922621Y63435000D01*
X14889502Y63544180D01*
X14830537Y63654494D01*
X14751185Y63751185D01*
X14654494Y63830537D01*
X14544180Y63889502D01*
X14424482Y63925812D01*
X14300000Y63938072D01*
X14292785Y63938072D01*
X14313097Y64007298D01*
X13500000Y64820395D01*
X12686903Y64007298D01*
X12707215Y63938072D01*
X12700000Y63938072D01*
X12575518Y63925812D01*
X12455820Y63889502D01*
X12345506Y63830537D01*
X12248815Y63751185D01*
X12169463Y63654494D01*
X12110498Y63544180D01*
X12074188Y63424482D01*
X12061928Y63300000D01*
X660000Y63300000D01*
X660000Y64929488D01*
X12059783Y64929488D01*
X12101213Y64649870D01*
X12196397Y64383708D01*
X12263329Y64258486D01*
X12507298Y64186903D01*
X13320395Y65000000D01*
X13679605Y65000000D01*
X14492702Y64186903D01*
X14736671Y64258486D01*
X14857571Y64513996D01*
X14926300Y64788184D01*
X14940217Y65070512D01*
X14898787Y65350130D01*
X14882065Y65396891D01*
X24558519Y65396891D01*
X24679186Y65167000D01*
X25873000Y65167000D01*
X25873000Y66360155D01*
X26127000Y66360155D01*
X26127000Y65167000D01*
X28413000Y65167000D01*
X28413000Y66360155D01*
X28183110Y66481476D01*
X28035901Y66436825D01*
X27773080Y66311641D01*
X27539731Y66137588D01*
X27344822Y65921355D01*
X27270000Y65795745D01*
X27195178Y65921355D01*
X27000269Y66137588D01*
X26766920Y66311641D01*
X26504099Y66436825D01*
X26356890Y66481476D01*
X26127000Y66360155D01*
X25873000Y66360155D01*
X25643110Y66481476D01*
X25495901Y66436825D01*
X25233080Y66311641D01*
X24999731Y66137588D01*
X24804822Y65921355D01*
X24655843Y65671252D01*
X24558519Y65396891D01*
X14882065Y65396891D01*
X14803603Y65616292D01*
X14736671Y65741514D01*
X14492702Y65813097D01*
X13679605Y65000000D01*
X13320395Y65000000D01*
X12507298Y65813097D01*
X12263329Y65741514D01*
X12142429Y65486004D01*
X12073700Y65211816D01*
X12059783Y64929488D01*
X660000Y64929488D01*
X660000Y65992702D01*
X12686903Y65992702D01*
X13500000Y65179605D01*
X14313097Y65992702D01*
X14241514Y66236671D01*
X13986004Y66357571D01*
X13711816Y66426300D01*
X13429488Y66440217D01*
X13149870Y66398787D01*
X12883708Y66303603D01*
X12758486Y66236671D01*
X12686903Y65992702D01*
X660000Y65992702D01*
X660000Y70720128D01*
X3265000Y70720128D01*
X3265000Y70279872D01*
X3350890Y69848075D01*
X3519369Y69441331D01*
X3763962Y69075271D01*
X4075271Y68763962D01*
X4441331Y68519369D01*
X4848075Y68350890D01*
X5279872Y68265000D01*
X5720128Y68265000D01*
X6151925Y68350890D01*
X6558669Y68519369D01*
X6924729Y68763962D01*
X7236038Y69075271D01*
X7480631Y69441331D01*
X7649110Y69848075D01*
X7735000Y70279872D01*
X7735000Y70720128D01*
X92265000Y70720128D01*
X92265000Y70279872D01*
X92350890Y69848075D01*
X92519369Y69441331D01*
X92763962Y69075271D01*
X93075271Y68763962D01*
X93441331Y68519369D01*
X93848075Y68350890D01*
X94279872Y68265000D01*
X94720128Y68265000D01*
X95151925Y68350890D01*
X95558669Y68519369D01*
X95924729Y68763962D01*
X96236038Y69075271D01*
X96480631Y69441331D01*
X96649110Y69848075D01*
X96735000Y70279872D01*
X96735000Y70720128D01*
X96649110Y71151925D01*
X96480631Y71558669D01*
X96236038Y71924729D01*
X95924729Y72236038D01*
X95558669Y72480631D01*
X95151925Y72649110D01*
X94720128Y72735000D01*
X94279872Y72735000D01*
X93848075Y72649110D01*
X93441331Y72480631D01*
X93075271Y72236038D01*
X92763962Y71924729D01*
X92519369Y71558669D01*
X92350890Y71151925D01*
X92265000Y70720128D01*
X7735000Y70720128D01*
X7649110Y71151925D01*
X7480631Y71558669D01*
X7236038Y71924729D01*
X6924729Y72236038D01*
X6558669Y72480631D01*
X6151925Y72649110D01*
X5720128Y72735000D01*
X5279872Y72735000D01*
X4848075Y72649110D01*
X4441331Y72480631D01*
X4075271Y72236038D01*
X3763962Y71924729D01*
X3519369Y71558669D01*
X3350890Y71151925D01*
X3265000Y70720128D01*
X660000Y70720128D01*
X660000Y74340000D01*
X99340000Y74340000D01*
X99340001Y660000D01*
G04 #@! TA.AperFunction,Conductor*
D20*
G36*
X99340001Y660000D02*
G01*
X660000Y660000D01*
X660000Y4720128D01*
X3265000Y4720128D01*
X3265000Y4279872D01*
X3350890Y3848075D01*
X3519369Y3441331D01*
X3763962Y3075271D01*
X4075271Y2763962D01*
X4441331Y2519369D01*
X4848075Y2350890D01*
X5279872Y2265000D01*
X5720128Y2265000D01*
X6151925Y2350890D01*
X6558669Y2519369D01*
X6924729Y2763962D01*
X7236038Y3075271D01*
X7480631Y3441331D01*
X7649110Y3848075D01*
X7735000Y4279872D01*
X7735000Y4720128D01*
X92265000Y4720128D01*
X92265000Y4279872D01*
X92350890Y3848075D01*
X92519369Y3441331D01*
X92763962Y3075271D01*
X93075271Y2763962D01*
X93441331Y2519369D01*
X93848075Y2350890D01*
X94279872Y2265000D01*
X94720128Y2265000D01*
X95151925Y2350890D01*
X95558669Y2519369D01*
X95924729Y2763962D01*
X96236038Y3075271D01*
X96480631Y3441331D01*
X96649110Y3848075D01*
X96735000Y4279872D01*
X96735000Y4720128D01*
X96649110Y5151925D01*
X96480631Y5558669D01*
X96236038Y5924729D01*
X95924729Y6236038D01*
X95558669Y6480631D01*
X95151925Y6649110D01*
X94720128Y6735000D01*
X94279872Y6735000D01*
X93848075Y6649110D01*
X93441331Y6480631D01*
X93075271Y6236038D01*
X92763962Y5924729D01*
X92519369Y5558669D01*
X92350890Y5151925D01*
X92265000Y4720128D01*
X7735000Y4720128D01*
X7649110Y5151925D01*
X7480631Y5558669D01*
X7236038Y5924729D01*
X6924729Y6236038D01*
X6558669Y6480631D01*
X6151925Y6649110D01*
X5720128Y6735000D01*
X5279872Y6735000D01*
X4848075Y6649110D01*
X4441331Y6480631D01*
X4075271Y6236038D01*
X3763962Y5924729D01*
X3519369Y5558669D01*
X3350890Y5151925D01*
X3265000Y4720128D01*
X660000Y4720128D01*
X660000Y32910961D01*
X21208096Y32910961D01*
X21225633Y32828182D01*
X21336285Y32568354D01*
X21495500Y32335105D01*
X21697161Y32137399D01*
X21933517Y31982834D01*
X22195486Y31877350D01*
X22473000Y31825000D01*
X22873000Y31825000D01*
X22873000Y33133000D01*
X23127000Y33133000D01*
X23127000Y31825000D01*
X23527000Y31825000D01*
X23804514Y31877350D01*
X24066483Y31982834D01*
X24302839Y32137399D01*
X24504500Y32335105D01*
X24663715Y32568354D01*
X24774367Y32828182D01*
X24791904Y32910961D01*
X24669915Y33133000D01*
X23127000Y33133000D01*
X22873000Y33133000D01*
X21330085Y33133000D01*
X21208096Y32910961D01*
X660000Y32910961D01*
X660000Y63300000D01*
X12061928Y63300000D01*
X12061928Y61700000D01*
X12074188Y61575518D01*
X12110498Y61455820D01*
X12169463Y61345506D01*
X12248815Y61248815D01*
X12345506Y61169463D01*
X12455820Y61110498D01*
X12575518Y61074188D01*
X12700000Y61061928D01*
X14300000Y61061928D01*
X14424482Y61074188D01*
X14544180Y61110498D01*
X14654494Y61169463D01*
X14751185Y61248815D01*
X14830537Y61345506D01*
X14889502Y61455820D01*
X14922621Y61565000D01*
X24520299Y61565000D01*
X24524188Y61525518D01*
X24560498Y61405820D01*
X24619463Y61295506D01*
X24698815Y61198815D01*
X24795506Y61119463D01*
X24905820Y61060498D01*
X25025518Y61024188D01*
X25150000Y61011928D01*
X26850000Y61011928D01*
X26974482Y61024188D01*
X27094180Y61060498D01*
X27204494Y61119463D01*
X27301185Y61198815D01*
X27380537Y61295506D01*
X27439502Y61405820D01*
X27461513Y61478380D01*
X27593368Y61346525D01*
X27836589Y61184010D01*
X28106842Y61072068D01*
X28393740Y61015000D01*
X28686260Y61015000D01*
X28973158Y61072068D01*
X29243411Y61184010D01*
X29486632Y61346525D01*
X29693475Y61553368D01*
X29810000Y61727760D01*
X29926525Y61553368D01*
X30133368Y61346525D01*
X30376589Y61184010D01*
X30646842Y61072068D01*
X30933740Y61015000D01*
X31226260Y61015000D01*
X31513158Y61072068D01*
X31783411Y61184010D01*
X32026632Y61346525D01*
X32233475Y61553368D01*
X32350000Y61727760D01*
X32466525Y61553368D01*
X32673368Y61346525D01*
X32916589Y61184010D01*
X33186842Y61072068D01*
X33473740Y61015000D01*
X33766260Y61015000D01*
X34053158Y61072068D01*
X34323411Y61184010D01*
X34566632Y61346525D01*
X34773475Y61553368D01*
X34890000Y61727760D01*
X35006525Y61553368D01*
X35213368Y61346525D01*
X35456589Y61184010D01*
X35726842Y61072068D01*
X36013740Y61015000D01*
X36306260Y61015000D01*
X36593158Y61072068D01*
X36863411Y61184010D01*
X37106632Y61346525D01*
X37313475Y61553368D01*
X37430000Y61727760D01*
X37546525Y61553368D01*
X37753368Y61346525D01*
X37996589Y61184010D01*
X38266842Y61072068D01*
X38553740Y61015000D01*
X38846260Y61015000D01*
X39133158Y61072068D01*
X39403411Y61184010D01*
X39646632Y61346525D01*
X39853475Y61553368D01*
X39970000Y61727760D01*
X40086525Y61553368D01*
X40293368Y61346525D01*
X40536589Y61184010D01*
X40806842Y61072068D01*
X41093740Y61015000D01*
X41386260Y61015000D01*
X41673158Y61072068D01*
X41943411Y61184010D01*
X42186632Y61346525D01*
X42393475Y61553368D01*
X42510000Y61727760D01*
X42626525Y61553368D01*
X42833368Y61346525D01*
X43076589Y61184010D01*
X43346842Y61072068D01*
X43633740Y61015000D01*
X43926260Y61015000D01*
X44213158Y61072068D01*
X44483411Y61184010D01*
X44726632Y61346525D01*
X44933475Y61553368D01*
X45050000Y61727760D01*
X45166525Y61553368D01*
X45373368Y61346525D01*
X45616589Y61184010D01*
X45886842Y61072068D01*
X46173740Y61015000D01*
X46466260Y61015000D01*
X46753158Y61072068D01*
X47023411Y61184010D01*
X47266632Y61346525D01*
X47473475Y61553368D01*
X47590000Y61727760D01*
X47706525Y61553368D01*
X47913368Y61346525D01*
X48156589Y61184010D01*
X48426842Y61072068D01*
X48713740Y61015000D01*
X49006260Y61015000D01*
X49293158Y61072068D01*
X49563411Y61184010D01*
X49806632Y61346525D01*
X50013475Y61553368D01*
X50130000Y61727760D01*
X50246525Y61553368D01*
X50453368Y61346525D01*
X50696589Y61184010D01*
X50966842Y61072068D01*
X51253740Y61015000D01*
X51546260Y61015000D01*
X51833158Y61072068D01*
X52103411Y61184010D01*
X52346632Y61346525D01*
X52553475Y61553368D01*
X52670000Y61727760D01*
X52786525Y61553368D01*
X52993368Y61346525D01*
X53236589Y61184010D01*
X53506842Y61072068D01*
X53793740Y61015000D01*
X54086260Y61015000D01*
X54373158Y61072068D01*
X54643411Y61184010D01*
X54886632Y61346525D01*
X55093475Y61553368D01*
X55210000Y61727760D01*
X55326525Y61553368D01*
X55533368Y61346525D01*
X55776589Y61184010D01*
X56046842Y61072068D01*
X56333740Y61015000D01*
X56626260Y61015000D01*
X56913158Y61072068D01*
X57183411Y61184010D01*
X57426632Y61346525D01*
X57633475Y61553368D01*
X57750000Y61727760D01*
X57866525Y61553368D01*
X58073368Y61346525D01*
X58316589Y61184010D01*
X58586842Y61072068D01*
X58873740Y61015000D01*
X59166260Y61015000D01*
X59453158Y61072068D01*
X59723411Y61184010D01*
X59966632Y61346525D01*
X60173475Y61553368D01*
X60290000Y61727760D01*
X60406525Y61553368D01*
X60613368Y61346525D01*
X60856589Y61184010D01*
X61126842Y61072068D01*
X61413740Y61015000D01*
X61706260Y61015000D01*
X61993158Y61072068D01*
X62263411Y61184010D01*
X62275156Y61191858D01*
X59751599Y58668300D01*
X59689461Y58668300D01*
X59489502Y58628526D01*
X59301144Y58550505D01*
X59131626Y58437237D01*
X58987463Y58293074D01*
X58874195Y58123556D01*
X58796174Y57935198D01*
X58756400Y57735239D01*
X58756400Y57531361D01*
X58796174Y57331402D01*
X58874195Y57143044D01*
X58987463Y56973526D01*
X59131626Y56829363D01*
X59301144Y56716095D01*
X59489502Y56638074D01*
X59689461Y56598300D01*
X59893339Y56598300D01*
X60093298Y56638074D01*
X60281656Y56716095D01*
X60451174Y56829363D01*
X60595337Y56973526D01*
X60708605Y57143044D01*
X60786626Y57331402D01*
X60826400Y57531361D01*
X60826400Y57593499D01*
X63797602Y60564700D01*
X64062667Y60564700D01*
X64100000Y60561023D01*
X64248986Y60575697D01*
X64275411Y60583713D01*
X59320799Y55629100D01*
X59258661Y55629100D01*
X59058702Y55589326D01*
X58870344Y55511305D01*
X58700826Y55398037D01*
X58556663Y55253874D01*
X58443395Y55084356D01*
X58365374Y54895998D01*
X58325600Y54696039D01*
X58325600Y54512500D01*
X29177425Y54512500D01*
X29140100Y54516176D01*
X29102775Y54512500D01*
X29102767Y54512500D01*
X28991114Y54501503D01*
X28847853Y54458046D01*
X28715824Y54387474D01*
X28600099Y54292501D01*
X28576301Y54263503D01*
X26824998Y52512199D01*
X26796000Y52488401D01*
X26772202Y52459403D01*
X26772201Y52459402D01*
X26701026Y52372676D01*
X26630454Y52240646D01*
X26586998Y52097385D01*
X26572324Y51948400D01*
X26576001Y51911068D01*
X26576000Y45216023D01*
X26572324Y45178700D01*
X26576000Y45141378D01*
X26576000Y45141368D01*
X26586997Y45029715D01*
X26611647Y44948455D01*
X25089104Y46470997D01*
X25065301Y46500001D01*
X24949576Y46594974D01*
X24817547Y46665546D01*
X24674286Y46709003D01*
X24624139Y46713942D01*
X24598932Y46761101D01*
X24419608Y46979608D01*
X24306518Y47072419D01*
X24324482Y47074188D01*
X24444180Y47110498D01*
X24554494Y47169463D01*
X24651185Y47248815D01*
X24730537Y47345506D01*
X24789502Y47455820D01*
X24825812Y47575518D01*
X24838072Y47700000D01*
X24838072Y49300000D01*
X24825812Y49424482D01*
X24789502Y49544180D01*
X24730537Y49654494D01*
X24651185Y49751185D01*
X24554494Y49830537D01*
X24444180Y49889502D01*
X24324482Y49925812D01*
X24200000Y49938072D01*
X21800000Y49938072D01*
X21675518Y49925812D01*
X21555820Y49889502D01*
X21445506Y49830537D01*
X21348815Y49751185D01*
X21269463Y49654494D01*
X21210498Y49544180D01*
X21174188Y49424482D01*
X21161928Y49300000D01*
X21161928Y47700000D01*
X21174188Y47575518D01*
X21210498Y47455820D01*
X21269463Y47345506D01*
X21348815Y47248815D01*
X21445506Y47169463D01*
X21555820Y47110498D01*
X21675518Y47074188D01*
X21693482Y47072419D01*
X21580392Y46979608D01*
X21401068Y46761101D01*
X21267818Y46511808D01*
X21185764Y46241309D01*
X21158057Y45960000D01*
X21185764Y45678691D01*
X21267818Y45408192D01*
X21401068Y45158899D01*
X21580392Y44940392D01*
X21798899Y44761068D01*
X21931858Y44690000D01*
X21798899Y44618932D01*
X21580392Y44439608D01*
X21401068Y44221101D01*
X21267818Y43971808D01*
X21185764Y43701309D01*
X21158057Y43420000D01*
X21185764Y43138691D01*
X21267818Y42868192D01*
X21401068Y42618899D01*
X21580392Y42400392D01*
X21798899Y42221068D01*
X21931858Y42150000D01*
X21798899Y42078932D01*
X21580392Y41899608D01*
X21401068Y41681101D01*
X21267818Y41431808D01*
X21185764Y41161309D01*
X21158057Y40880000D01*
X21185764Y40598691D01*
X21267818Y40328192D01*
X21401068Y40078899D01*
X21580392Y39860392D01*
X21798899Y39681068D01*
X21931858Y39610000D01*
X21798899Y39538932D01*
X21580392Y39359608D01*
X21401068Y39141101D01*
X21267818Y38891808D01*
X21185764Y38621309D01*
X21158057Y38340000D01*
X21185764Y38058691D01*
X21267818Y37788192D01*
X21401068Y37538899D01*
X21580392Y37320392D01*
X21798899Y37141068D01*
X21931858Y37070000D01*
X21798899Y36998932D01*
X21580392Y36819608D01*
X21401068Y36601101D01*
X21267818Y36351808D01*
X21185764Y36081309D01*
X21158057Y35800000D01*
X21185764Y35518691D01*
X21267818Y35248192D01*
X21401068Y34998899D01*
X21580392Y34780392D01*
X21798899Y34601068D01*
X21926741Y34532735D01*
X21697161Y34382601D01*
X21495500Y34184895D01*
X21336285Y33951646D01*
X21225633Y33691818D01*
X21208096Y33609039D01*
X21330085Y33387000D01*
X22873000Y33387000D01*
X22873000Y33407000D01*
X23127000Y33407000D01*
X23127000Y33387000D01*
X24669915Y33387000D01*
X24791904Y33609039D01*
X24774367Y33691818D01*
X24663715Y33951646D01*
X24504500Y34184895D01*
X24302839Y34382601D01*
X24073259Y34532735D01*
X24201101Y34601068D01*
X24419608Y34780392D01*
X24598932Y34998899D01*
X24713067Y35212431D01*
X33303701Y26621797D01*
X33303700Y15398422D01*
X33300024Y15361100D01*
X33303700Y15323778D01*
X33303700Y15323768D01*
X33314697Y15212115D01*
X33358154Y15068854D01*
X33428726Y14936824D01*
X33468571Y14888274D01*
X33523699Y14821099D01*
X33552703Y14797296D01*
X35325501Y13024497D01*
X35349299Y12995499D01*
X35465024Y12900526D01*
X35597053Y12829954D01*
X35740314Y12786497D01*
X35851967Y12775500D01*
X35851976Y12775500D01*
X35889299Y12771824D01*
X35926622Y12775500D01*
X73320478Y12775500D01*
X73357800Y12771824D01*
X73395122Y12775500D01*
X73395133Y12775500D01*
X73506786Y12786497D01*
X73650047Y12829954D01*
X73782076Y12900526D01*
X73897801Y12995499D01*
X73921604Y13024503D01*
X90675130Y29778028D01*
X90684010Y29756589D01*
X90846525Y29513368D01*
X91053368Y29306525D01*
X91227760Y29190000D01*
X91053368Y29073475D01*
X90846525Y28866632D01*
X90684010Y28623411D01*
X90572068Y28353158D01*
X90515000Y28066260D01*
X90515000Y27773740D01*
X90572068Y27486842D01*
X90684010Y27216589D01*
X90846525Y26973368D01*
X91053368Y26766525D01*
X91227760Y26650000D01*
X91053368Y26533475D01*
X90846525Y26326632D01*
X90684010Y26083411D01*
X90572068Y25813158D01*
X90515000Y25526260D01*
X90515000Y25233740D01*
X90572068Y24946842D01*
X90684010Y24676589D01*
X90846525Y24433368D01*
X91053368Y24226525D01*
X91227760Y24110000D01*
X91053368Y23993475D01*
X90846525Y23786632D01*
X90684010Y23543411D01*
X90572068Y23273158D01*
X90515000Y22986260D01*
X90515000Y22693740D01*
X90572068Y22406842D01*
X90684010Y22136589D01*
X90846525Y21893368D01*
X91053368Y21686525D01*
X91296589Y21524010D01*
X91566842Y21412068D01*
X91853740Y21355000D01*
X92146260Y21355000D01*
X92433158Y21412068D01*
X92703411Y21524010D01*
X92946632Y21686525D01*
X93153475Y21893368D01*
X93315990Y22136589D01*
X93427932Y22406842D01*
X93485000Y22693740D01*
X93485000Y22986260D01*
X93427932Y23273158D01*
X93315990Y23543411D01*
X93153475Y23786632D01*
X92946632Y23993475D01*
X92772240Y24110000D01*
X92946632Y24226525D01*
X93153475Y24433368D01*
X93315990Y24676589D01*
X93427932Y24946842D01*
X93485000Y25233740D01*
X93485000Y25526260D01*
X93427932Y25813158D01*
X93315990Y26083411D01*
X93153475Y26326632D01*
X92946632Y26533475D01*
X92772240Y26650000D01*
X92946632Y26766525D01*
X93153475Y26973368D01*
X93315990Y27216589D01*
X93427932Y27486842D01*
X93485000Y27773740D01*
X93485000Y28066260D01*
X93427932Y28353158D01*
X93315990Y28623411D01*
X93153475Y28866632D01*
X92946632Y29073475D01*
X92772240Y29190000D01*
X92946632Y29306525D01*
X93153475Y29513368D01*
X93315990Y29756589D01*
X93427932Y30026842D01*
X93485000Y30313740D01*
X93485000Y30606260D01*
X93427932Y30893158D01*
X93315990Y31163411D01*
X93153475Y31406632D01*
X93021620Y31538487D01*
X93094180Y31560498D01*
X93204494Y31619463D01*
X93301185Y31698815D01*
X93380537Y31795506D01*
X93439502Y31905820D01*
X93475812Y32025518D01*
X93488072Y32150000D01*
X93488072Y33850000D01*
X93475812Y33974482D01*
X93439502Y34094180D01*
X93380537Y34204494D01*
X93301185Y34301185D01*
X93204494Y34380537D01*
X93094180Y34439502D01*
X92974482Y34475812D01*
X92850000Y34488072D01*
X91150000Y34488072D01*
X91025518Y34475812D01*
X90905820Y34439502D01*
X90795506Y34380537D01*
X90698815Y34301185D01*
X90619463Y34204494D01*
X90560498Y34094180D01*
X90524188Y33974482D01*
X90511928Y33850000D01*
X90511928Y32150000D01*
X90524188Y32025518D01*
X90560498Y31905820D01*
X90592830Y31845332D01*
X74904998Y16157500D01*
X74838932Y16281101D01*
X74659608Y16499608D01*
X74441101Y16678932D01*
X74308142Y16750000D01*
X74441101Y16821068D01*
X74659608Y17000392D01*
X74838932Y17218899D01*
X74972182Y17468192D01*
X75054236Y17738691D01*
X75081943Y18020000D01*
X75054236Y18301309D01*
X74972182Y18571808D01*
X74838932Y18821101D01*
X74659608Y19039608D01*
X74441101Y19218932D01*
X74308142Y19290000D01*
X74441101Y19361068D01*
X74659608Y19540392D01*
X74838932Y19758899D01*
X74972182Y20008192D01*
X75054236Y20278691D01*
X75081943Y20560000D01*
X75054236Y20841309D01*
X74972182Y21111808D01*
X74838932Y21361101D01*
X74659608Y21579608D01*
X74441101Y21758932D01*
X74308142Y21830000D01*
X74441101Y21901068D01*
X74659608Y22080392D01*
X74838932Y22298899D01*
X74972182Y22548192D01*
X75054236Y22818691D01*
X75081943Y23100000D01*
X75054236Y23381309D01*
X74972182Y23651808D01*
X74838932Y23901101D01*
X74659608Y24119608D01*
X74441101Y24298932D01*
X74308142Y24370000D01*
X74441101Y24441068D01*
X74659608Y24620392D01*
X74838932Y24838899D01*
X74972182Y25088192D01*
X75054236Y25358691D01*
X75081943Y25640000D01*
X75054236Y25921309D01*
X74972182Y26191808D01*
X74838932Y26441101D01*
X74659608Y26659608D01*
X74441101Y26838932D01*
X74308142Y26910000D01*
X74441101Y26981068D01*
X74659608Y27160392D01*
X74838932Y27378899D01*
X74972182Y27628192D01*
X75054236Y27898691D01*
X75081943Y28180000D01*
X75054236Y28461309D01*
X74972182Y28731808D01*
X74838932Y28981101D01*
X74659608Y29199608D01*
X74441101Y29378932D01*
X74308142Y29450000D01*
X74441101Y29521068D01*
X74659608Y29700392D01*
X74838932Y29918899D01*
X74972182Y30168192D01*
X75054236Y30438691D01*
X75081943Y30720000D01*
X75054236Y31001309D01*
X74972182Y31271808D01*
X74838932Y31521101D01*
X74659608Y31739608D01*
X74441101Y31918932D01*
X74308142Y31990000D01*
X74441101Y32061068D01*
X74659608Y32240392D01*
X74838932Y32458899D01*
X74972182Y32708192D01*
X75054236Y32978691D01*
X75081943Y33260000D01*
X75054236Y33541309D01*
X74972182Y33811808D01*
X74838932Y34061101D01*
X74659608Y34279608D01*
X74441101Y34458932D01*
X74308142Y34530000D01*
X74441101Y34601068D01*
X74659608Y34780392D01*
X74838932Y34998899D01*
X74864139Y35046058D01*
X74914286Y35050997D01*
X75057547Y35094454D01*
X75189576Y35165026D01*
X75305301Y35259999D01*
X75329104Y35289002D01*
X76408803Y36368701D01*
X76437801Y36392499D01*
X76532774Y36508224D01*
X76603346Y36640253D01*
X76646803Y36783514D01*
X76657800Y36895167D01*
X76657800Y36895177D01*
X76661476Y36932500D01*
X76657800Y36969823D01*
X76657800Y65031177D01*
X76661476Y65068500D01*
X76657800Y65105823D01*
X76657800Y65105833D01*
X76646803Y65217486D01*
X76603346Y65360747D01*
X76570818Y65421602D01*
X76532774Y65492777D01*
X76461599Y65579503D01*
X76437801Y65608501D01*
X76408804Y65632298D01*
X75287804Y66753297D01*
X75264001Y66782301D01*
X75148276Y66877274D01*
X75016247Y66947846D01*
X74872986Y66991303D01*
X74761333Y67002300D01*
X74761322Y67002300D01*
X74724000Y67005976D01*
X74686678Y67002300D01*
X71227622Y67002300D01*
X71190299Y67005976D01*
X71152976Y67002300D01*
X71152967Y67002300D01*
X71041314Y66991303D01*
X70898053Y66947846D01*
X70766024Y66877274D01*
X70650299Y66782301D01*
X70626501Y66753302D01*
X70090690Y66217491D01*
X69883411Y66355990D01*
X69613158Y66467932D01*
X69326260Y66525000D01*
X69033740Y66525000D01*
X68746842Y66467932D01*
X68476589Y66355990D01*
X68233368Y66193475D01*
X68026525Y65986632D01*
X67910000Y65812240D01*
X67793475Y65986632D01*
X67586632Y66193475D01*
X67343411Y66355990D01*
X67073158Y66467932D01*
X66786260Y66525000D01*
X66493740Y66525000D01*
X66206842Y66467932D01*
X65936589Y66355990D01*
X65693368Y66193475D01*
X65486525Y65986632D01*
X65370000Y65812240D01*
X65253475Y65986632D01*
X65046632Y66193475D01*
X64803411Y66355990D01*
X64533158Y66467932D01*
X64246260Y66525000D01*
X63953740Y66525000D01*
X63666842Y66467932D01*
X63396589Y66355990D01*
X63153368Y66193475D01*
X62946525Y65986632D01*
X62830000Y65812240D01*
X62713475Y65986632D01*
X62506632Y66193475D01*
X62263411Y66355990D01*
X61993158Y66467932D01*
X61706260Y66525000D01*
X61413740Y66525000D01*
X61126842Y66467932D01*
X60856589Y66355990D01*
X60613368Y66193475D01*
X60406525Y65986632D01*
X60290000Y65812240D01*
X60173475Y65986632D01*
X59966632Y66193475D01*
X59723411Y66355990D01*
X59453158Y66467932D01*
X59166260Y66525000D01*
X58873740Y66525000D01*
X58586842Y66467932D01*
X58316589Y66355990D01*
X58073368Y66193475D01*
X57866525Y65986632D01*
X57750000Y65812240D01*
X57633475Y65986632D01*
X57426632Y66193475D01*
X57183411Y66355990D01*
X56913158Y66467932D01*
X56626260Y66525000D01*
X56333740Y66525000D01*
X56046842Y66467932D01*
X55776589Y66355990D01*
X55533368Y66193475D01*
X55326525Y65986632D01*
X55210000Y65812240D01*
X55093475Y65986632D01*
X54886632Y66193475D01*
X54643411Y66355990D01*
X54373158Y66467932D01*
X54086260Y66525000D01*
X53793740Y66525000D01*
X53506842Y66467932D01*
X53236589Y66355990D01*
X52993368Y66193475D01*
X52786525Y65986632D01*
X52670000Y65812240D01*
X52553475Y65986632D01*
X52346632Y66193475D01*
X52103411Y66355990D01*
X51833158Y66467932D01*
X51546260Y66525000D01*
X51253740Y66525000D01*
X50966842Y66467932D01*
X50696589Y66355990D01*
X50453368Y66193475D01*
X50246525Y65986632D01*
X50130000Y65812240D01*
X50013475Y65986632D01*
X49806632Y66193475D01*
X49563411Y66355990D01*
X49293158Y66467932D01*
X49006260Y66525000D01*
X48713740Y66525000D01*
X48426842Y66467932D01*
X48156589Y66355990D01*
X47913368Y66193475D01*
X47706525Y65986632D01*
X47590000Y65812240D01*
X47473475Y65986632D01*
X47266632Y66193475D01*
X47023411Y66355990D01*
X46753158Y66467932D01*
X46466260Y66525000D01*
X46173740Y66525000D01*
X45886842Y66467932D01*
X45616589Y66355990D01*
X45373368Y66193475D01*
X45166525Y65986632D01*
X45050000Y65812240D01*
X44933475Y65986632D01*
X44726632Y66193475D01*
X44483411Y66355990D01*
X44213158Y66467932D01*
X43926260Y66525000D01*
X43633740Y66525000D01*
X43346842Y66467932D01*
X43076589Y66355990D01*
X42833368Y66193475D01*
X42626525Y65986632D01*
X42510000Y65812240D01*
X42393475Y65986632D01*
X42186632Y66193475D01*
X41943411Y66355990D01*
X41673158Y66467932D01*
X41386260Y66525000D01*
X41093740Y66525000D01*
X40806842Y66467932D01*
X40536589Y66355990D01*
X40293368Y66193475D01*
X40086525Y65986632D01*
X39970000Y65812240D01*
X39853475Y65986632D01*
X39646632Y66193475D01*
X39403411Y66355990D01*
X39133158Y66467932D01*
X38846260Y66525000D01*
X38553740Y66525000D01*
X38266842Y66467932D01*
X37996589Y66355990D01*
X37753368Y66193475D01*
X37546525Y65986632D01*
X37430000Y65812240D01*
X37313475Y65986632D01*
X37106632Y66193475D01*
X36863411Y66355990D01*
X36593158Y66467932D01*
X36306260Y66525000D01*
X36013740Y66525000D01*
X35726842Y66467932D01*
X35456589Y66355990D01*
X35213368Y66193475D01*
X35006525Y65986632D01*
X34890000Y65812240D01*
X34773475Y65986632D01*
X34566632Y66193475D01*
X34323411Y66355990D01*
X34053158Y66467932D01*
X33766260Y66525000D01*
X33473740Y66525000D01*
X33186842Y66467932D01*
X32916589Y66355990D01*
X32673368Y66193475D01*
X32466525Y65986632D01*
X32350000Y65812240D01*
X32233475Y65986632D01*
X32026632Y66193475D01*
X31783411Y66355990D01*
X31513158Y66467932D01*
X31226260Y66525000D01*
X30933740Y66525000D01*
X30646842Y66467932D01*
X30376589Y66355990D01*
X30133368Y66193475D01*
X29926525Y65986632D01*
X29804805Y65804466D01*
X29735178Y65921355D01*
X29540269Y66137588D01*
X29306920Y66311641D01*
X29044099Y66436825D01*
X28896890Y66481476D01*
X28667000Y66360155D01*
X28667000Y65167000D01*
X28687000Y65167000D01*
X28687000Y64913000D01*
X28667000Y64913000D01*
X28667000Y64893000D01*
X28413000Y64893000D01*
X28413000Y64913000D01*
X26127000Y64913000D01*
X26127000Y64893000D01*
X25873000Y64893000D01*
X25873000Y64913000D01*
X24679186Y64913000D01*
X24558519Y64683109D01*
X24655843Y64408748D01*
X24804822Y64158645D01*
X24981626Y63962498D01*
X24905820Y63939502D01*
X24795506Y63880537D01*
X24698815Y63801185D01*
X24619463Y63704494D01*
X24560498Y63594180D01*
X24524188Y63474482D01*
X24520299Y63435000D01*
X14922621Y63435000D01*
X14889502Y63544180D01*
X14830537Y63654494D01*
X14751185Y63751185D01*
X14654494Y63830537D01*
X14544180Y63889502D01*
X14424482Y63925812D01*
X14300000Y63938072D01*
X14292785Y63938072D01*
X14313097Y64007298D01*
X13500000Y64820395D01*
X12686903Y64007298D01*
X12707215Y63938072D01*
X12700000Y63938072D01*
X12575518Y63925812D01*
X12455820Y63889502D01*
X12345506Y63830537D01*
X12248815Y63751185D01*
X12169463Y63654494D01*
X12110498Y63544180D01*
X12074188Y63424482D01*
X12061928Y63300000D01*
X660000Y63300000D01*
X660000Y64929488D01*
X12059783Y64929488D01*
X12101213Y64649870D01*
X12196397Y64383708D01*
X12263329Y64258486D01*
X12507298Y64186903D01*
X13320395Y65000000D01*
X13679605Y65000000D01*
X14492702Y64186903D01*
X14736671Y64258486D01*
X14857571Y64513996D01*
X14926300Y64788184D01*
X14940217Y65070512D01*
X14898787Y65350130D01*
X14882065Y65396891D01*
X24558519Y65396891D01*
X24679186Y65167000D01*
X25873000Y65167000D01*
X25873000Y66360155D01*
X26127000Y66360155D01*
X26127000Y65167000D01*
X28413000Y65167000D01*
X28413000Y66360155D01*
X28183110Y66481476D01*
X28035901Y66436825D01*
X27773080Y66311641D01*
X27539731Y66137588D01*
X27344822Y65921355D01*
X27270000Y65795745D01*
X27195178Y65921355D01*
X27000269Y66137588D01*
X26766920Y66311641D01*
X26504099Y66436825D01*
X26356890Y66481476D01*
X26127000Y66360155D01*
X25873000Y66360155D01*
X25643110Y66481476D01*
X25495901Y66436825D01*
X25233080Y66311641D01*
X24999731Y66137588D01*
X24804822Y65921355D01*
X24655843Y65671252D01*
X24558519Y65396891D01*
X14882065Y65396891D01*
X14803603Y65616292D01*
X14736671Y65741514D01*
X14492702Y65813097D01*
X13679605Y65000000D01*
X13320395Y65000000D01*
X12507298Y65813097D01*
X12263329Y65741514D01*
X12142429Y65486004D01*
X12073700Y65211816D01*
X12059783Y64929488D01*
X660000Y64929488D01*
X660000Y65992702D01*
X12686903Y65992702D01*
X13500000Y65179605D01*
X14313097Y65992702D01*
X14241514Y66236671D01*
X13986004Y66357571D01*
X13711816Y66426300D01*
X13429488Y66440217D01*
X13149870Y66398787D01*
X12883708Y66303603D01*
X12758486Y66236671D01*
X12686903Y65992702D01*
X660000Y65992702D01*
X660000Y70720128D01*
X3265000Y70720128D01*
X3265000Y70279872D01*
X3350890Y69848075D01*
X3519369Y69441331D01*
X3763962Y69075271D01*
X4075271Y68763962D01*
X4441331Y68519369D01*
X4848075Y68350890D01*
X5279872Y68265000D01*
X5720128Y68265000D01*
X6151925Y68350890D01*
X6558669Y68519369D01*
X6924729Y68763962D01*
X7236038Y69075271D01*
X7480631Y69441331D01*
X7649110Y69848075D01*
X7735000Y70279872D01*
X7735000Y70720128D01*
X92265000Y70720128D01*
X92265000Y70279872D01*
X92350890Y69848075D01*
X92519369Y69441331D01*
X92763962Y69075271D01*
X93075271Y68763962D01*
X93441331Y68519369D01*
X93848075Y68350890D01*
X94279872Y68265000D01*
X94720128Y68265000D01*
X95151925Y68350890D01*
X95558669Y68519369D01*
X95924729Y68763962D01*
X96236038Y69075271D01*
X96480631Y69441331D01*
X96649110Y69848075D01*
X96735000Y70279872D01*
X96735000Y70720128D01*
X96649110Y71151925D01*
X96480631Y71558669D01*
X96236038Y71924729D01*
X95924729Y72236038D01*
X95558669Y72480631D01*
X95151925Y72649110D01*
X94720128Y72735000D01*
X94279872Y72735000D01*
X93848075Y72649110D01*
X93441331Y72480631D01*
X93075271Y72236038D01*
X92763962Y71924729D01*
X92519369Y71558669D01*
X92350890Y71151925D01*
X92265000Y70720128D01*
X7735000Y70720128D01*
X7649110Y71151925D01*
X7480631Y71558669D01*
X7236038Y71924729D01*
X6924729Y72236038D01*
X6558669Y72480631D01*
X6151925Y72649110D01*
X5720128Y72735000D01*
X5279872Y72735000D01*
X4848075Y72649110D01*
X4441331Y72480631D01*
X4075271Y72236038D01*
X3763962Y71924729D01*
X3519369Y71558669D01*
X3350890Y71151925D01*
X3265000Y70720128D01*
X660000Y70720128D01*
X660000Y74340000D01*
X99340000Y74340000D01*
X99340001Y660000D01*
G37*
G04 #@! TD.AperFunction*
D19*
X56208096Y15829039D02*
X56330085Y15607000D01*
X57873000Y15607000D01*
X57873000Y15627000D01*
X58127000Y15627000D01*
X58127000Y15607000D01*
X59669915Y15607000D01*
X59791904Y15829039D01*
X59774646Y15910500D01*
X70209399Y15910500D01*
X71150901Y14968997D01*
X71174699Y14939999D01*
X71290424Y14845026D01*
X71422453Y14774454D01*
X71565714Y14730997D01*
X71615861Y14726058D01*
X71641068Y14678899D01*
X71820392Y14460392D01*
X72021314Y14295500D01*
X59208185Y14295500D01*
X59302839Y14357399D01*
X59504500Y14555105D01*
X59663715Y14788354D01*
X59774367Y15048182D01*
X59791904Y15130961D01*
X59669915Y15353000D01*
X58127000Y15353000D01*
X58127000Y15333000D01*
X57873000Y15333000D01*
X57873000Y15353000D01*
X56330085Y15353000D01*
X56208096Y15130961D01*
X56225633Y15048182D01*
X56336285Y14788354D01*
X56495500Y14555105D01*
X56697161Y14357399D01*
X56791815Y14295500D01*
X52458686Y14295500D01*
X52659608Y14460392D01*
X52838932Y14678899D01*
X52864139Y14726058D01*
X52914286Y14730997D01*
X53057547Y14774454D01*
X53189576Y14845026D01*
X53305301Y14939999D01*
X53329104Y14969003D01*
X54270602Y15910500D01*
X56225354Y15910500D01*
X56208096Y15829039D01*
G04 #@! TA.AperFunction,Conductor*
D20*
G36*
X56208096Y15829039D02*
G01*
X56330085Y15607000D01*
X57873000Y15607000D01*
X57873000Y15627000D01*
X58127000Y15627000D01*
X58127000Y15607000D01*
X59669915Y15607000D01*
X59791904Y15829039D01*
X59774646Y15910500D01*
X70209399Y15910500D01*
X71150901Y14968997D01*
X71174699Y14939999D01*
X71290424Y14845026D01*
X71422453Y14774454D01*
X71565714Y14730997D01*
X71615861Y14726058D01*
X71641068Y14678899D01*
X71820392Y14460392D01*
X72021314Y14295500D01*
X59208185Y14295500D01*
X59302839Y14357399D01*
X59504500Y14555105D01*
X59663715Y14788354D01*
X59774367Y15048182D01*
X59791904Y15130961D01*
X59669915Y15353000D01*
X58127000Y15353000D01*
X58127000Y15333000D01*
X57873000Y15333000D01*
X57873000Y15353000D01*
X56330085Y15353000D01*
X56208096Y15130961D01*
X56225633Y15048182D01*
X56336285Y14788354D01*
X56495500Y14555105D01*
X56697161Y14357399D01*
X56791815Y14295500D01*
X52458686Y14295500D01*
X52659608Y14460392D01*
X52838932Y14678899D01*
X52864139Y14726058D01*
X52914286Y14730997D01*
X53057547Y14774454D01*
X53189576Y14845026D01*
X53305301Y14939999D01*
X53329104Y14969003D01*
X54270602Y15910500D01*
X56225354Y15910500D01*
X56208096Y15829039D01*
G37*
G04 #@! TD.AperFunction*
D19*
X49425764Y18301309D02*
X49398057Y18020000D01*
X49425764Y17738691D01*
X49507818Y17468192D01*
X49641068Y17218899D01*
X49820392Y17000392D01*
X50038899Y16821068D01*
X50171858Y16750000D01*
X50038899Y16678932D01*
X49820392Y16499608D01*
X49641068Y16281101D01*
X49507818Y16031808D01*
X49425764Y15761309D01*
X49398057Y15480000D01*
X49425764Y15198691D01*
X49507818Y14928192D01*
X49641068Y14678899D01*
X49820392Y14460392D01*
X50021314Y14295500D01*
X37208185Y14295500D01*
X37302839Y14357399D01*
X37504500Y14555105D01*
X37663715Y14788354D01*
X37774367Y15048182D01*
X37791904Y15130961D01*
X37669915Y15353000D01*
X36127000Y15353000D01*
X36127000Y15333000D01*
X35873000Y15333000D01*
X35873000Y15353000D01*
X35853000Y15353000D01*
X35853000Y15607000D01*
X35873000Y15607000D01*
X35873000Y15627000D01*
X36127000Y15627000D01*
X36127000Y15607000D01*
X37669915Y15607000D01*
X37791904Y15829039D01*
X37774367Y15911818D01*
X37663715Y16171646D01*
X37504500Y16404895D01*
X37302839Y16602601D01*
X37073259Y16752735D01*
X37201101Y16821068D01*
X37419608Y17000392D01*
X37598932Y17218899D01*
X37624139Y17266058D01*
X37674286Y17270997D01*
X37817547Y17314454D01*
X37949576Y17385026D01*
X38065301Y17479999D01*
X38089104Y17509003D01*
X39023602Y18443500D01*
X49468897Y18443500D01*
X49425764Y18301309D01*
G04 #@! TA.AperFunction,Conductor*
D20*
G36*
X49425764Y18301309D02*
G01*
X49398057Y18020000D01*
X49425764Y17738691D01*
X49507818Y17468192D01*
X49641068Y17218899D01*
X49820392Y17000392D01*
X50038899Y16821068D01*
X50171858Y16750000D01*
X50038899Y16678932D01*
X49820392Y16499608D01*
X49641068Y16281101D01*
X49507818Y16031808D01*
X49425764Y15761309D01*
X49398057Y15480000D01*
X49425764Y15198691D01*
X49507818Y14928192D01*
X49641068Y14678899D01*
X49820392Y14460392D01*
X50021314Y14295500D01*
X37208185Y14295500D01*
X37302839Y14357399D01*
X37504500Y14555105D01*
X37663715Y14788354D01*
X37774367Y15048182D01*
X37791904Y15130961D01*
X37669915Y15353000D01*
X36127000Y15353000D01*
X36127000Y15333000D01*
X35873000Y15333000D01*
X35873000Y15353000D01*
X35853000Y15353000D01*
X35853000Y15607000D01*
X35873000Y15607000D01*
X35873000Y15627000D01*
X36127000Y15627000D01*
X36127000Y15607000D01*
X37669915Y15607000D01*
X37791904Y15829039D01*
X37774367Y15911818D01*
X37663715Y16171646D01*
X37504500Y16404895D01*
X37302839Y16602601D01*
X37073259Y16752735D01*
X37201101Y16821068D01*
X37419608Y17000392D01*
X37598932Y17218899D01*
X37624139Y17266058D01*
X37674286Y17270997D01*
X37817547Y17314454D01*
X37949576Y17385026D01*
X38065301Y17479999D01*
X38089104Y17509003D01*
X39023602Y18443500D01*
X49468897Y18443500D01*
X49425764Y18301309D01*
G37*
G04 #@! TD.AperFunction*
D19*
X31112710Y52935000D02*
X30858665Y52935000D01*
X30581426Y52879853D01*
X30320273Y52771680D01*
X30085241Y52614637D01*
X29885363Y52414759D01*
X29751308Y52214131D01*
X29736671Y52241514D01*
X29492702Y52313097D01*
X28679605Y51500000D01*
X29492702Y50686903D01*
X29736671Y50758486D01*
X29750324Y50787341D01*
X29885363Y50585241D01*
X30085241Y50385363D01*
X30320273Y50228320D01*
X30581426Y50120147D01*
X30858665Y50065000D01*
X31141335Y50065000D01*
X31418574Y50120147D01*
X31679727Y50228320D01*
X31914759Y50385363D01*
X32036694Y50507298D01*
X48186903Y50507298D01*
X48258486Y50263329D01*
X48513996Y50142429D01*
X48788184Y50073700D01*
X49070512Y50059783D01*
X49350130Y50101213D01*
X49616292Y50196397D01*
X49741514Y50263329D01*
X49813097Y50507298D01*
X49000000Y51320395D01*
X48186903Y50507298D01*
X32036694Y50507298D01*
X32114637Y50585241D01*
X32271680Y50820273D01*
X32379853Y51081426D01*
X32435000Y51358665D01*
X32435000Y51612710D01*
X32687690Y51865400D01*
X47612198Y51865400D01*
X47573700Y51711816D01*
X47559783Y51429488D01*
X47601213Y51149870D01*
X47696397Y50883708D01*
X47763329Y50758486D01*
X48007298Y50686903D01*
X48820395Y51500000D01*
X48806253Y51514142D01*
X48985858Y51693747D01*
X49000000Y51679605D01*
X49014143Y51693747D01*
X49193748Y51514142D01*
X49179605Y51500000D01*
X49992702Y50686903D01*
X50236671Y50758486D01*
X50250324Y50787341D01*
X50385363Y50585241D01*
X50585241Y50385363D01*
X50820273Y50228320D01*
X51081426Y50120147D01*
X51358665Y50065000D01*
X51641335Y50065000D01*
X51918574Y50120147D01*
X52179727Y50228320D01*
X52414759Y50385363D01*
X52614637Y50585241D01*
X52771680Y50820273D01*
X52879853Y51081426D01*
X52935000Y51358665D01*
X52935000Y51612710D01*
X53187690Y51865400D01*
X69612198Y51865400D01*
X69573700Y51711816D01*
X69559783Y51429488D01*
X69601213Y51149870D01*
X69696397Y50883708D01*
X69763329Y50758486D01*
X70007298Y50686903D01*
X70820395Y51500000D01*
X70806253Y51514142D01*
X70985858Y51693747D01*
X71000000Y51679605D01*
X71014143Y51693747D01*
X71193748Y51514142D01*
X71179605Y51500000D01*
X71193748Y51485857D01*
X71014143Y51306252D01*
X71000000Y51320395D01*
X70186903Y50507298D01*
X70258486Y50263329D01*
X70513996Y50142429D01*
X70788184Y50073700D01*
X71070512Y50059783D01*
X71163452Y50073554D01*
X70349899Y49260000D01*
X59838072Y49260000D01*
X59838072Y49300000D01*
X59825812Y49424482D01*
X59789502Y49544180D01*
X59730537Y49654494D01*
X59651185Y49751185D01*
X59554494Y49830537D01*
X59444180Y49889502D01*
X59324482Y49925812D01*
X59200000Y49938072D01*
X56800000Y49938072D01*
X56675518Y49925812D01*
X56555820Y49889502D01*
X56445506Y49830537D01*
X56348815Y49751185D01*
X56269463Y49654494D01*
X56210498Y49544180D01*
X56174188Y49424482D01*
X56161928Y49300000D01*
X56161928Y49194575D01*
X56050424Y49134974D01*
X55934699Y49040001D01*
X55910901Y49011003D01*
X55034599Y48134700D01*
X53028758Y48134700D01*
X53054236Y48218691D01*
X53081943Y48500000D01*
X53054236Y48781309D01*
X52972182Y49051808D01*
X52838932Y49301101D01*
X52659608Y49519608D01*
X52441101Y49698932D01*
X52191808Y49832182D01*
X51921309Y49914236D01*
X51710492Y49935000D01*
X50769508Y49935000D01*
X50558691Y49914236D01*
X50288192Y49832182D01*
X50038899Y49698932D01*
X49820392Y49519608D01*
X49641068Y49301101D01*
X49507818Y49051808D01*
X49425764Y48781309D01*
X49398057Y48500000D01*
X49425764Y48218691D01*
X49451242Y48134700D01*
X38965402Y48134700D01*
X38089104Y49010998D01*
X38065301Y49040001D01*
X37949576Y49134974D01*
X37838072Y49194575D01*
X37838072Y49300000D01*
X37825812Y49424482D01*
X37789502Y49544180D01*
X37730537Y49654494D01*
X37651185Y49751185D01*
X37554494Y49830537D01*
X37444180Y49889502D01*
X37324482Y49925812D01*
X37200000Y49938072D01*
X34800000Y49938072D01*
X34675518Y49925812D01*
X34555820Y49889502D01*
X34445506Y49830537D01*
X34348815Y49751185D01*
X34269463Y49654494D01*
X34210498Y49544180D01*
X34174188Y49424482D01*
X34161928Y49300000D01*
X34161928Y47700000D01*
X34174188Y47575518D01*
X34210498Y47455820D01*
X34269463Y47345506D01*
X34348815Y47248815D01*
X34445506Y47169463D01*
X34555820Y47110498D01*
X34675518Y47074188D01*
X34693482Y47072419D01*
X34580392Y46979608D01*
X34401068Y46761101D01*
X34267818Y46511808D01*
X34185764Y46241309D01*
X34158057Y45960000D01*
X34185764Y45678691D01*
X34267818Y45408192D01*
X34401068Y45158899D01*
X34580392Y44940392D01*
X34798899Y44761068D01*
X34931858Y44690000D01*
X34798899Y44618932D01*
X34580392Y44439608D01*
X34401068Y44221101D01*
X34267818Y43971808D01*
X34185764Y43701309D01*
X34158057Y43420000D01*
X34185764Y43138691D01*
X34267818Y42868192D01*
X34401068Y42618899D01*
X34580392Y42400392D01*
X34798899Y42221068D01*
X34931858Y42150000D01*
X34798899Y42078932D01*
X34580392Y41899608D01*
X34401068Y41681101D01*
X34267818Y41431808D01*
X34185764Y41161309D01*
X34158057Y40880000D01*
X34185764Y40598691D01*
X34267818Y40328192D01*
X34401068Y40078899D01*
X34580392Y39860392D01*
X34798899Y39681068D01*
X34931858Y39610000D01*
X34798899Y39538932D01*
X34580392Y39359608D01*
X34401068Y39141101D01*
X34267818Y38891808D01*
X34185764Y38621309D01*
X34158057Y38340000D01*
X34185764Y38058691D01*
X34267818Y37788192D01*
X34401068Y37538899D01*
X34580392Y37320392D01*
X34798899Y37141068D01*
X34931858Y37070000D01*
X34798899Y36998932D01*
X34580392Y36819608D01*
X34401068Y36601101D01*
X34334096Y36475806D01*
X32905300Y37904601D01*
X32905300Y40842667D01*
X32908977Y40880000D01*
X32894303Y41028986D01*
X32850846Y41172247D01*
X32780274Y41304276D01*
X32685301Y41420001D01*
X32569576Y41514974D01*
X32437547Y41585546D01*
X32294286Y41629003D01*
X32244139Y41633942D01*
X32218932Y41681101D01*
X32039608Y41899608D01*
X31821101Y42078932D01*
X31688142Y42150000D01*
X31821101Y42221068D01*
X32039608Y42400392D01*
X32218932Y42618899D01*
X32352182Y42868192D01*
X32434236Y43138691D01*
X32461943Y43420000D01*
X32434236Y43701309D01*
X32352182Y43971808D01*
X32218932Y44221101D01*
X32039608Y44439608D01*
X31821101Y44618932D01*
X31688142Y44690000D01*
X31821101Y44761068D01*
X32039608Y44940392D01*
X32218932Y45158899D01*
X32352182Y45408192D01*
X32434236Y45678691D01*
X32461943Y45960000D01*
X32434236Y46241309D01*
X32352182Y46511808D01*
X32218932Y46761101D01*
X32039608Y46979608D01*
X31821101Y47158932D01*
X31688142Y47230000D01*
X31821101Y47301068D01*
X32039608Y47480392D01*
X32218932Y47698899D01*
X32352182Y47948192D01*
X32434236Y48218691D01*
X32461943Y48500000D01*
X32434236Y48781309D01*
X32352182Y49051808D01*
X32218932Y49301101D01*
X32039608Y49519608D01*
X31821101Y49698932D01*
X31571808Y49832182D01*
X31301309Y49914236D01*
X31090492Y49935000D01*
X30149508Y49935000D01*
X29938691Y49914236D01*
X29668192Y49832182D01*
X29418899Y49698932D01*
X29200392Y49519608D01*
X29021068Y49301101D01*
X28887818Y49051808D01*
X28805764Y48781309D01*
X28778057Y48500000D01*
X28805764Y48218691D01*
X28887818Y47948192D01*
X29021068Y47698899D01*
X29200392Y47480392D01*
X29418899Y47301068D01*
X29551858Y47230000D01*
X29418899Y47158932D01*
X29200392Y46979608D01*
X29021068Y46761101D01*
X28887818Y46511808D01*
X28805764Y46241309D01*
X28778057Y45960000D01*
X28805764Y45678691D01*
X28887818Y45408192D01*
X29021068Y45158899D01*
X29200392Y44940392D01*
X29418899Y44761068D01*
X29551858Y44690000D01*
X29418899Y44618932D01*
X29200392Y44439608D01*
X29177630Y44411872D01*
X28096000Y45493501D01*
X28096000Y50121874D01*
X28288184Y50073700D01*
X28570512Y50059783D01*
X28850130Y50101213D01*
X29116292Y50196397D01*
X29241514Y50263329D01*
X29313097Y50507298D01*
X28500000Y51320395D01*
X28485858Y51306252D01*
X28306253Y51485857D01*
X28320395Y51500000D01*
X28306253Y51514142D01*
X28485858Y51693747D01*
X28500000Y51679605D01*
X29313097Y52492702D01*
X29241514Y52736671D01*
X29212705Y52750303D01*
X29454902Y52992500D01*
X31170210Y52992500D01*
X31112710Y52935000D01*
G04 #@! TA.AperFunction,Conductor*
D20*
G36*
X31112710Y52935000D02*
G01*
X30858665Y52935000D01*
X30581426Y52879853D01*
X30320273Y52771680D01*
X30085241Y52614637D01*
X29885363Y52414759D01*
X29751308Y52214131D01*
X29736671Y52241514D01*
X29492702Y52313097D01*
X28679605Y51500000D01*
X29492702Y50686903D01*
X29736671Y50758486D01*
X29750324Y50787341D01*
X29885363Y50585241D01*
X30085241Y50385363D01*
X30320273Y50228320D01*
X30581426Y50120147D01*
X30858665Y50065000D01*
X31141335Y50065000D01*
X31418574Y50120147D01*
X31679727Y50228320D01*
X31914759Y50385363D01*
X32036694Y50507298D01*
X48186903Y50507298D01*
X48258486Y50263329D01*
X48513996Y50142429D01*
X48788184Y50073700D01*
X49070512Y50059783D01*
X49350130Y50101213D01*
X49616292Y50196397D01*
X49741514Y50263329D01*
X49813097Y50507298D01*
X49000000Y51320395D01*
X48186903Y50507298D01*
X32036694Y50507298D01*
X32114637Y50585241D01*
X32271680Y50820273D01*
X32379853Y51081426D01*
X32435000Y51358665D01*
X32435000Y51612710D01*
X32687690Y51865400D01*
X47612198Y51865400D01*
X47573700Y51711816D01*
X47559783Y51429488D01*
X47601213Y51149870D01*
X47696397Y50883708D01*
X47763329Y50758486D01*
X48007298Y50686903D01*
X48820395Y51500000D01*
X48806253Y51514142D01*
X48985858Y51693747D01*
X49000000Y51679605D01*
X49014143Y51693747D01*
X49193748Y51514142D01*
X49179605Y51500000D01*
X49992702Y50686903D01*
X50236671Y50758486D01*
X50250324Y50787341D01*
X50385363Y50585241D01*
X50585241Y50385363D01*
X50820273Y50228320D01*
X51081426Y50120147D01*
X51358665Y50065000D01*
X51641335Y50065000D01*
X51918574Y50120147D01*
X52179727Y50228320D01*
X52414759Y50385363D01*
X52614637Y50585241D01*
X52771680Y50820273D01*
X52879853Y51081426D01*
X52935000Y51358665D01*
X52935000Y51612710D01*
X53187690Y51865400D01*
X69612198Y51865400D01*
X69573700Y51711816D01*
X69559783Y51429488D01*
X69601213Y51149870D01*
X69696397Y50883708D01*
X69763329Y50758486D01*
X70007298Y50686903D01*
X70820395Y51500000D01*
X70806253Y51514142D01*
X70985858Y51693747D01*
X71000000Y51679605D01*
X71014143Y51693747D01*
X71193748Y51514142D01*
X71179605Y51500000D01*
X71193748Y51485857D01*
X71014143Y51306252D01*
X71000000Y51320395D01*
X70186903Y50507298D01*
X70258486Y50263329D01*
X70513996Y50142429D01*
X70788184Y50073700D01*
X71070512Y50059783D01*
X71163452Y50073554D01*
X70349899Y49260000D01*
X59838072Y49260000D01*
X59838072Y49300000D01*
X59825812Y49424482D01*
X59789502Y49544180D01*
X59730537Y49654494D01*
X59651185Y49751185D01*
X59554494Y49830537D01*
X59444180Y49889502D01*
X59324482Y49925812D01*
X59200000Y49938072D01*
X56800000Y49938072D01*
X56675518Y49925812D01*
X56555820Y49889502D01*
X56445506Y49830537D01*
X56348815Y49751185D01*
X56269463Y49654494D01*
X56210498Y49544180D01*
X56174188Y49424482D01*
X56161928Y49300000D01*
X56161928Y49194575D01*
X56050424Y49134974D01*
X55934699Y49040001D01*
X55910901Y49011003D01*
X55034599Y48134700D01*
X53028758Y48134700D01*
X53054236Y48218691D01*
X53081943Y48500000D01*
X53054236Y48781309D01*
X52972182Y49051808D01*
X52838932Y49301101D01*
X52659608Y49519608D01*
X52441101Y49698932D01*
X52191808Y49832182D01*
X51921309Y49914236D01*
X51710492Y49935000D01*
X50769508Y49935000D01*
X50558691Y49914236D01*
X50288192Y49832182D01*
X50038899Y49698932D01*
X49820392Y49519608D01*
X49641068Y49301101D01*
X49507818Y49051808D01*
X49425764Y48781309D01*
X49398057Y48500000D01*
X49425764Y48218691D01*
X49451242Y48134700D01*
X38965402Y48134700D01*
X38089104Y49010998D01*
X38065301Y49040001D01*
X37949576Y49134974D01*
X37838072Y49194575D01*
X37838072Y49300000D01*
X37825812Y49424482D01*
X37789502Y49544180D01*
X37730537Y49654494D01*
X37651185Y49751185D01*
X37554494Y49830537D01*
X37444180Y49889502D01*
X37324482Y49925812D01*
X37200000Y49938072D01*
X34800000Y49938072D01*
X34675518Y49925812D01*
X34555820Y49889502D01*
X34445506Y49830537D01*
X34348815Y49751185D01*
X34269463Y49654494D01*
X34210498Y49544180D01*
X34174188Y49424482D01*
X34161928Y49300000D01*
X34161928Y47700000D01*
X34174188Y47575518D01*
X34210498Y47455820D01*
X34269463Y47345506D01*
X34348815Y47248815D01*
X34445506Y47169463D01*
X34555820Y47110498D01*
X34675518Y47074188D01*
X34693482Y47072419D01*
X34580392Y46979608D01*
X34401068Y46761101D01*
X34267818Y46511808D01*
X34185764Y46241309D01*
X34158057Y45960000D01*
X34185764Y45678691D01*
X34267818Y45408192D01*
X34401068Y45158899D01*
X34580392Y44940392D01*
X34798899Y44761068D01*
X34931858Y44690000D01*
X34798899Y44618932D01*
X34580392Y44439608D01*
X34401068Y44221101D01*
X34267818Y43971808D01*
X34185764Y43701309D01*
X34158057Y43420000D01*
X34185764Y43138691D01*
X34267818Y42868192D01*
X34401068Y42618899D01*
X34580392Y42400392D01*
X34798899Y42221068D01*
X34931858Y42150000D01*
X34798899Y42078932D01*
X34580392Y41899608D01*
X34401068Y41681101D01*
X34267818Y41431808D01*
X34185764Y41161309D01*
X34158057Y40880000D01*
X34185764Y40598691D01*
X34267818Y40328192D01*
X34401068Y40078899D01*
X34580392Y39860392D01*
X34798899Y39681068D01*
X34931858Y39610000D01*
X34798899Y39538932D01*
X34580392Y39359608D01*
X34401068Y39141101D01*
X34267818Y38891808D01*
X34185764Y38621309D01*
X34158057Y38340000D01*
X34185764Y38058691D01*
X34267818Y37788192D01*
X34401068Y37538899D01*
X34580392Y37320392D01*
X34798899Y37141068D01*
X34931858Y37070000D01*
X34798899Y36998932D01*
X34580392Y36819608D01*
X34401068Y36601101D01*
X34334096Y36475806D01*
X32905300Y37904601D01*
X32905300Y40842667D01*
X32908977Y40880000D01*
X32894303Y41028986D01*
X32850846Y41172247D01*
X32780274Y41304276D01*
X32685301Y41420001D01*
X32569576Y41514974D01*
X32437547Y41585546D01*
X32294286Y41629003D01*
X32244139Y41633942D01*
X32218932Y41681101D01*
X32039608Y41899608D01*
X31821101Y42078932D01*
X31688142Y42150000D01*
X31821101Y42221068D01*
X32039608Y42400392D01*
X32218932Y42618899D01*
X32352182Y42868192D01*
X32434236Y43138691D01*
X32461943Y43420000D01*
X32434236Y43701309D01*
X32352182Y43971808D01*
X32218932Y44221101D01*
X32039608Y44439608D01*
X31821101Y44618932D01*
X31688142Y44690000D01*
X31821101Y44761068D01*
X32039608Y44940392D01*
X32218932Y45158899D01*
X32352182Y45408192D01*
X32434236Y45678691D01*
X32461943Y45960000D01*
X32434236Y46241309D01*
X32352182Y46511808D01*
X32218932Y46761101D01*
X32039608Y46979608D01*
X31821101Y47158932D01*
X31688142Y47230000D01*
X31821101Y47301068D01*
X32039608Y47480392D01*
X32218932Y47698899D01*
X32352182Y47948192D01*
X32434236Y48218691D01*
X32461943Y48500000D01*
X32434236Y48781309D01*
X32352182Y49051808D01*
X32218932Y49301101D01*
X32039608Y49519608D01*
X31821101Y49698932D01*
X31571808Y49832182D01*
X31301309Y49914236D01*
X31090492Y49935000D01*
X30149508Y49935000D01*
X29938691Y49914236D01*
X29668192Y49832182D01*
X29418899Y49698932D01*
X29200392Y49519608D01*
X29021068Y49301101D01*
X28887818Y49051808D01*
X28805764Y48781309D01*
X28778057Y48500000D01*
X28805764Y48218691D01*
X28887818Y47948192D01*
X29021068Y47698899D01*
X29200392Y47480392D01*
X29418899Y47301068D01*
X29551858Y47230000D01*
X29418899Y47158932D01*
X29200392Y46979608D01*
X29021068Y46761101D01*
X28887818Y46511808D01*
X28805764Y46241309D01*
X28778057Y45960000D01*
X28805764Y45678691D01*
X28887818Y45408192D01*
X29021068Y45158899D01*
X29200392Y44940392D01*
X29418899Y44761068D01*
X29551858Y44690000D01*
X29418899Y44618932D01*
X29200392Y44439608D01*
X29177630Y44411872D01*
X28096000Y45493501D01*
X28096000Y50121874D01*
X28288184Y50073700D01*
X28570512Y50059783D01*
X28850130Y50101213D01*
X29116292Y50196397D01*
X29241514Y50263329D01*
X29313097Y50507298D01*
X28500000Y51320395D01*
X28485858Y51306252D01*
X28306253Y51485857D01*
X28320395Y51500000D01*
X28306253Y51514142D01*
X28485858Y51693747D01*
X28500000Y51679605D01*
X29313097Y52492702D01*
X29241514Y52736671D01*
X29212705Y52750303D01*
X29454902Y52992500D01*
X31170210Y52992500D01*
X31112710Y52935000D01*
G37*
G04 #@! TD.AperFunction*
M02*
