G04 #@! TF.GenerationSoftware,KiCad,Pcbnew,(6.0.4-0)*
G04 #@! TF.CreationDate,2022-11-05T10:29:12+09:00*
G04 #@! TF.ProjectId,KZ80-MSXMEM,4b5a3830-2d4d-4535-984d-454d2e6b6963,rev?*
G04 #@! TF.SameCoordinates,PX8f0d180PY7735940*
G04 #@! TF.FileFunction,Copper,L2,Bot*
G04 #@! TF.FilePolarity,Positive*
%FSLAX46Y46*%
G04 Gerber Fmt 4.6, Leading zero omitted, Abs format (unit mm)*
G04 Created by KiCad (PCBNEW (6.0.4-0)) date 2022-11-05 10:29:12*
%MOMM*%
%LPD*%
G01*
G04 APERTURE LIST*
G04 #@! TA.AperFunction,ComponentPad*
%ADD10C,1.600000*%
G04 #@! TD*
G04 #@! TA.AperFunction,ComponentPad*
%ADD11R,1.600000X1.600000*%
G04 #@! TD*
G04 #@! TA.AperFunction,ComponentPad*
%ADD12R,1.700000X1.700000*%
G04 #@! TD*
G04 #@! TA.AperFunction,ComponentPad*
%ADD13O,1.700000X1.700000*%
G04 #@! TD*
G04 #@! TA.AperFunction,ComponentPad*
%ADD14R,2.400000X1.600000*%
G04 #@! TD*
G04 #@! TA.AperFunction,ComponentPad*
%ADD15O,2.400000X1.600000*%
G04 #@! TD*
G04 #@! TA.AperFunction,ComponentPad*
%ADD16O,1.600000X1.600000*%
G04 #@! TD*
G04 #@! TA.AperFunction,ViaPad*
%ADD17C,0.800000*%
G04 #@! TD*
G04 #@! TA.AperFunction,Conductor*
%ADD18C,0.600000*%
G04 #@! TD*
G04 #@! TA.AperFunction,Conductor*
%ADD19C,0.250000*%
G04 #@! TD*
G04 APERTURE END LIST*
D10*
X28500000Y51500000D03*
X31000000Y51500000D03*
D11*
X13500000Y62500000D03*
D10*
X13500000Y65000000D03*
X71000000Y51500000D03*
X73500000Y51500000D03*
X49000000Y51500000D03*
X51500000Y51500000D03*
D12*
X26000000Y62500000D03*
D13*
X26000000Y65040000D03*
X28540000Y62500000D03*
X28540000Y65040000D03*
X31080000Y62500000D03*
X31080000Y65040000D03*
X33620000Y62500000D03*
X33620000Y65040000D03*
X36160000Y62500000D03*
X36160000Y65040000D03*
X38700000Y62500000D03*
X38700000Y65040000D03*
X41240000Y62500000D03*
X41240000Y65040000D03*
X43780000Y62500000D03*
X43780000Y65040000D03*
X46320000Y62500000D03*
X46320000Y65040000D03*
X48860000Y62500000D03*
X48860000Y65040000D03*
X51400000Y62500000D03*
X51400000Y65040000D03*
X53940000Y62500000D03*
X53940000Y65040000D03*
X56480000Y62500000D03*
X56480000Y65040000D03*
X59020000Y62500000D03*
X59020000Y65040000D03*
X61560000Y62500000D03*
X61560000Y65040000D03*
X64100000Y62500000D03*
X64100000Y65040000D03*
X66640000Y62500000D03*
X66640000Y65040000D03*
X69180000Y62500000D03*
X69180000Y65040000D03*
X71720000Y62500000D03*
X71720000Y65040000D03*
X74260000Y62500000D03*
X74260000Y65040000D03*
D12*
X92000000Y33000000D03*
D13*
X92000000Y30460000D03*
X92000000Y27920000D03*
X92000000Y25380000D03*
X92000000Y22840000D03*
D14*
X23000000Y48500000D03*
D15*
X23000000Y45960000D03*
X23000000Y43420000D03*
X23000000Y40880000D03*
X23000000Y38340000D03*
X23000000Y35800000D03*
X23000000Y33260000D03*
X30620000Y33260000D03*
X30620000Y35800000D03*
X30620000Y38340000D03*
X30620000Y40880000D03*
X30620000Y43420000D03*
X30620000Y45960000D03*
X30620000Y48500000D03*
D14*
X36000000Y48500000D03*
D15*
X36000000Y45960000D03*
X36000000Y43420000D03*
X36000000Y40880000D03*
X36000000Y38340000D03*
X36000000Y35800000D03*
X36000000Y33260000D03*
X36000000Y30720000D03*
X36000000Y28180000D03*
X36000000Y25640000D03*
X36000000Y23100000D03*
X36000000Y20560000D03*
X36000000Y18020000D03*
X36000000Y15480000D03*
X51240000Y15480000D03*
X51240000Y18020000D03*
X51240000Y20560000D03*
X51240000Y23100000D03*
X51240000Y25640000D03*
X51240000Y28180000D03*
X51240000Y30720000D03*
X51240000Y33260000D03*
X51240000Y35800000D03*
X51240000Y38340000D03*
X51240000Y40880000D03*
X51240000Y43420000D03*
X51240000Y45960000D03*
X51240000Y48500000D03*
D14*
X58955000Y48390000D03*
D15*
X58955000Y45850000D03*
X58955000Y43310000D03*
X58955000Y40770000D03*
X58955000Y38230000D03*
X58955000Y35690000D03*
X58955000Y33150000D03*
X58955000Y30610000D03*
X58955000Y28070000D03*
X58955000Y25530000D03*
X58955000Y22990000D03*
X58955000Y20450000D03*
X58955000Y17910000D03*
X58955000Y15370000D03*
X58955000Y12830000D03*
X58955000Y10290000D03*
X74195000Y10290000D03*
X74195000Y12830000D03*
X74195000Y15370000D03*
X74195000Y17910000D03*
X74195000Y20450000D03*
X74195000Y22990000D03*
X74195000Y25530000D03*
X74195000Y28070000D03*
X74195000Y30610000D03*
X74195000Y33150000D03*
X74195000Y35690000D03*
X74195000Y38230000D03*
X74195000Y40770000D03*
X74195000Y43310000D03*
X74195000Y45850000D03*
X74195000Y48390000D03*
D10*
X79130000Y33750000D03*
D16*
X79130000Y43910000D03*
D17*
X62166500Y54451000D03*
X62923800Y57045500D03*
X59882000Y57043000D03*
X45329800Y23100000D03*
D18*
X31000000Y51500000D02*
X28540000Y53960000D01*
X73344900Y48390000D02*
X72494700Y47539800D01*
X31000000Y51500000D02*
X31000000Y48880000D01*
X51500000Y48760000D02*
X51240000Y48500000D01*
X28540000Y53960000D02*
X28540000Y62500000D01*
X74195000Y43310000D02*
X72494700Y43310000D01*
X72494700Y47539800D02*
X72494700Y43310000D01*
X74195000Y48390000D02*
X73344900Y48390000D01*
X31000000Y48880000D02*
X30620000Y48500000D01*
X51500000Y51500000D02*
X51500000Y48760000D01*
X73500000Y48545100D02*
X73344900Y48390000D01*
X73500000Y51500000D02*
X73500000Y48545100D01*
X51240000Y45960000D02*
X51240000Y48500000D01*
X24609700Y65000000D02*
X13500000Y65000000D01*
X24609700Y65000000D02*
X24609700Y53925500D01*
X27035200Y51500000D02*
X27035200Y34927900D01*
X25367300Y33260000D02*
X25367300Y24412400D01*
X27035200Y51500000D02*
X28500000Y51500000D01*
X23000000Y33260000D02*
X24700300Y33260000D01*
X36000000Y15480000D02*
X34299700Y15480000D01*
X26000000Y65040000D02*
X24649700Y65040000D01*
X24649700Y65040000D02*
X24609700Y65000000D01*
X24700300Y33260000D02*
X25367300Y33260000D01*
X24609700Y53925500D02*
X27035200Y51500000D01*
X27035200Y34927900D02*
X25367300Y33260000D01*
X25367300Y24412400D02*
X34299700Y15480000D01*
D19*
X30620000Y35800000D02*
X30620000Y38340000D01*
X62166500Y44996200D02*
X60480300Y43310000D01*
X62166500Y54451000D02*
X62166500Y44996200D01*
X58955000Y43310000D02*
X60480300Y43310000D01*
X58955000Y40770000D02*
X60480300Y40770000D01*
X62923800Y57045500D02*
X62923800Y43213500D01*
X62923800Y43213500D02*
X60480300Y40770000D01*
X69180000Y61324700D02*
X76706100Y53798600D01*
X74195000Y25530000D02*
X75720300Y25530000D01*
X76706100Y26515800D02*
X75720300Y25530000D01*
X69180000Y62500000D02*
X69180000Y61324700D01*
X76706100Y53798600D02*
X76706100Y26515800D01*
X76206900Y52813900D02*
X76206900Y33636600D01*
X67007400Y63864700D02*
X67815300Y63056800D01*
X67815300Y61205500D02*
X76206900Y52813900D01*
X66640000Y63864700D02*
X67007400Y63864700D01*
X76206900Y33636600D02*
X75720300Y33150000D01*
X67815300Y63056800D02*
X67815300Y61205500D01*
X66640000Y65040000D02*
X66640000Y63864700D01*
X74195000Y33150000D02*
X75720300Y33150000D01*
X75720300Y52244400D02*
X75720300Y35690000D01*
X66640000Y61324700D02*
X75720300Y52244400D01*
X74195000Y35690000D02*
X75720300Y35690000D01*
X66640000Y62500000D02*
X66640000Y61324700D01*
X58955000Y38230000D02*
X60480300Y38230000D01*
X64100000Y63864700D02*
X63732700Y63864700D01*
X64100000Y65040000D02*
X64100000Y63864700D01*
X62924600Y63056600D02*
X62924600Y60125900D01*
X63649600Y59400900D02*
X63649600Y41399300D01*
X63649600Y41399300D02*
X60480300Y38230000D01*
X63732700Y63864700D02*
X62924600Y63056600D01*
X62924600Y60125900D02*
X63649600Y59400900D01*
X60480300Y35690000D02*
X64100000Y39309700D01*
X64100000Y39309700D02*
X64100000Y61324700D01*
X58955000Y35690000D02*
X60480300Y35690000D01*
X64100000Y62500000D02*
X64100000Y61324700D01*
X58955000Y33150000D02*
X57429700Y33150000D01*
X57429700Y54590700D02*
X57429700Y33150000D01*
X59882000Y57043000D02*
X57429700Y54590700D01*
X56979400Y56744100D02*
X56979400Y31060300D01*
X56979400Y31060300D02*
X57429700Y30610000D01*
X61560000Y61324700D02*
X56979400Y56744100D01*
X61560000Y62500000D02*
X61560000Y61324700D01*
X58955000Y30610000D02*
X57429700Y30610000D01*
X59387300Y63864700D02*
X60215900Y63036100D01*
X59020000Y65040000D02*
X59020000Y63864700D01*
X60215900Y63036100D02*
X60215900Y61858200D01*
X56529100Y28970600D02*
X57429700Y28070000D01*
X60215900Y61858200D02*
X56529100Y58171400D01*
X58955000Y28070000D02*
X57429700Y28070000D01*
X56529100Y58171400D02*
X56529100Y28970600D01*
X59020000Y63864700D02*
X59387300Y63864700D01*
X59020000Y61324700D02*
X56078800Y58383500D01*
X59020000Y62500000D02*
X59020000Y61324700D01*
X56078800Y58383500D02*
X56078800Y26880900D01*
X56078800Y26880900D02*
X57429700Y25530000D01*
X58955000Y25530000D02*
X57429700Y25530000D01*
X57665800Y60633100D02*
X55628500Y58595800D01*
X56480000Y65040000D02*
X56480000Y63864700D01*
X57665800Y63046200D02*
X57665800Y60633100D01*
X56847300Y63864700D02*
X57665800Y63046200D01*
X55628500Y24791200D02*
X57429700Y22990000D01*
X55628500Y58595800D02*
X55628500Y24791200D01*
X58955000Y22990000D02*
X57429700Y22990000D01*
X56480000Y63864700D02*
X56847300Y63864700D01*
X55178200Y60022900D02*
X55178200Y24226800D01*
X55178200Y24226800D02*
X58955000Y20450000D01*
X56480000Y62500000D02*
X56480000Y61324700D01*
X56480000Y61324700D02*
X55178200Y60022900D01*
X50035300Y65407300D02*
X50863100Y66235100D01*
X74195000Y40770000D02*
X72669700Y40770000D01*
X50863100Y66235100D02*
X64572300Y66235100D01*
X48860000Y65040000D02*
X50035300Y65040000D01*
X65370000Y48069700D02*
X72669700Y40770000D01*
X65370000Y65437400D02*
X65370000Y48069700D01*
X50035300Y65040000D02*
X50035300Y65407300D01*
X64572300Y66235100D02*
X65370000Y65437400D01*
X46687400Y63864700D02*
X47495300Y63056800D01*
X58122900Y19286500D02*
X63886200Y19286500D01*
X74195000Y28070000D02*
X72669700Y28070000D01*
X46320000Y63864700D02*
X46687400Y63864700D01*
X51240000Y33260000D02*
X52765300Y33260000D01*
X47495300Y63056800D02*
X47495300Y35479400D01*
X63886200Y19286500D02*
X72669700Y28070000D01*
X46320000Y65040000D02*
X46320000Y63864700D01*
X51240000Y33260000D02*
X49714700Y33260000D01*
X52765300Y24644100D02*
X58122900Y19286500D01*
X47495300Y35479400D02*
X49714700Y33260000D01*
X52765300Y33260000D02*
X52765300Y24644100D01*
X43780000Y65040000D02*
X43780000Y63864700D01*
X43780000Y63864700D02*
X44147400Y63864700D01*
X51240000Y25640000D02*
X49714700Y25640000D01*
X44985500Y63026600D02*
X44985500Y30369200D01*
X44985500Y30369200D02*
X49714700Y25640000D01*
X44147400Y63864700D02*
X44985500Y63026600D01*
X51240000Y23100000D02*
X49714700Y23100000D01*
X43780000Y29034700D02*
X43780000Y61324700D01*
X49714700Y23100000D02*
X43780000Y29034700D01*
X43780000Y62500000D02*
X43780000Y61324700D01*
X41607400Y63864700D02*
X42415300Y63056800D01*
X41240000Y63864700D02*
X41607400Y63864700D01*
X51240000Y20560000D02*
X49714700Y20560000D01*
X42415300Y27859400D02*
X49714700Y20560000D01*
X41240000Y65040000D02*
X41240000Y63864700D01*
X42415300Y63056800D02*
X42415300Y27859400D01*
X41240000Y26164100D02*
X49384100Y18020000D01*
X51240000Y18020000D02*
X49714700Y18020000D01*
X41240000Y62500000D02*
X41240000Y26164100D01*
X49384100Y18020000D02*
X49714700Y18020000D01*
X39875300Y63056800D02*
X39875300Y25319400D01*
X38700000Y63864700D02*
X39067400Y63864700D01*
X39875300Y25319400D02*
X49714700Y15480000D01*
X51240000Y15480000D02*
X49714700Y15480000D01*
X38700000Y65040000D02*
X38700000Y63864700D01*
X39067400Y63864700D02*
X39875300Y63056800D01*
X38700000Y62500000D02*
X38700000Y19194700D01*
X38700000Y19194700D02*
X37525300Y18020000D01*
X36000000Y18020000D02*
X37525300Y18020000D01*
X37525300Y61324700D02*
X37525300Y20560000D01*
X36160000Y63864700D02*
X36527400Y63864700D01*
X36000000Y20560000D02*
X37525300Y20560000D01*
X36160000Y65040000D02*
X36160000Y63864700D01*
X37335300Y61514700D02*
X37525300Y61324700D01*
X36527400Y63864700D02*
X37335300Y63056800D01*
X37335300Y63056800D02*
X37335300Y61514700D01*
X58955000Y17910000D02*
X53681500Y17910000D01*
X36160000Y62500000D02*
X36160000Y61324700D01*
X36160000Y60687800D02*
X36160000Y61324700D01*
X34587300Y23100000D02*
X34474700Y23212600D01*
X52156900Y19434600D02*
X48995200Y19434600D01*
X36000000Y23100000D02*
X34587300Y23100000D01*
X53681500Y17910000D02*
X52156900Y19434600D01*
X34474700Y59002500D02*
X36160000Y60687800D01*
X34474700Y23212600D02*
X34474700Y59002500D01*
X48995200Y19434600D02*
X45329800Y23100000D01*
X90824700Y27363200D02*
X90824700Y42657300D01*
X72990000Y65433500D02*
X71738000Y66685500D01*
X34984700Y65530800D02*
X34984700Y60467700D01*
X32145300Y57628300D02*
X32145300Y45960000D01*
X92000000Y26555300D02*
X91632600Y26555300D01*
X30620000Y45960000D02*
X32145300Y45960000D01*
X71738000Y66685500D02*
X36139400Y66685500D01*
X36139400Y66685500D02*
X34984700Y65530800D01*
X90824700Y42657300D02*
X72990000Y60492000D01*
X91632600Y26555300D02*
X90824700Y27363200D01*
X34984700Y60467700D02*
X32145300Y57628300D01*
X72990000Y60492000D02*
X72990000Y65433500D01*
X92000000Y25380000D02*
X92000000Y26555300D01*
X21474700Y27367100D02*
X21474700Y38340000D01*
X68908800Y16784600D02*
X63787300Y11663100D01*
X23000000Y38340000D02*
X21474700Y38340000D01*
X92367300Y31824700D02*
X93176500Y31015500D01*
X92000000Y31824700D02*
X92367300Y31824700D01*
X23000000Y40880000D02*
X23000000Y38340000D01*
X76158800Y16784600D02*
X68908800Y16784600D01*
X92417600Y24110000D02*
X83484200Y24110000D01*
X37178700Y11663100D02*
X21474700Y27367100D01*
X93176500Y24868900D02*
X92417600Y24110000D01*
X92000000Y33000000D02*
X92000000Y31824700D01*
X83484200Y24110000D02*
X76158800Y16784600D01*
X93176500Y31015500D02*
X93176500Y24868900D01*
X63787300Y11663100D02*
X37178700Y11663100D01*
X23000000Y35800000D02*
X24525300Y35800000D01*
X23000000Y48500000D02*
X24525300Y48500000D01*
X24525300Y48500000D02*
X24525300Y35800000D01*
X41690300Y14347400D02*
X53939300Y14347400D01*
X66319700Y16640000D02*
X72669700Y22990000D01*
X74195000Y22990000D02*
X72669700Y22990000D01*
X30620000Y40880000D02*
X32145300Y40880000D01*
X56231900Y16640000D02*
X66319700Y16640000D01*
X35163100Y16823900D02*
X39213800Y16823900D01*
X32145300Y19841700D02*
X35163100Y16823900D01*
X53939300Y14347400D02*
X56231900Y16640000D01*
X39213800Y16823900D02*
X41690300Y14347400D01*
X32145300Y40880000D02*
X32145300Y19841700D01*
G04 #@! TA.AperFunction,Conductor*
G36*
X99433621Y74471498D02*
G01*
X99480114Y74417842D01*
X99491500Y74365500D01*
X99491500Y634500D01*
X99471498Y566379D01*
X99417842Y519886D01*
X99365500Y508500D01*
X634500Y508500D01*
X566379Y528502D01*
X519886Y582158D01*
X508500Y634500D01*
X508500Y4367297D01*
X3390743Y4367297D01*
X3428268Y4082266D01*
X3504129Y3804964D01*
X3616923Y3540524D01*
X3764561Y3293839D01*
X3944313Y3069472D01*
X4152851Y2871577D01*
X4386317Y2703814D01*
X4390112Y2701805D01*
X4390113Y2701804D01*
X4411869Y2690285D01*
X4640392Y2569288D01*
X4910373Y2470489D01*
X5191264Y2409245D01*
X5219841Y2406996D01*
X5414282Y2391693D01*
X5414291Y2391693D01*
X5416739Y2391500D01*
X5572271Y2391500D01*
X5574407Y2391646D01*
X5574418Y2391646D01*
X5782548Y2405835D01*
X5782554Y2405836D01*
X5786825Y2406127D01*
X5791020Y2406996D01*
X5791022Y2406996D01*
X5927584Y2435277D01*
X6068342Y2464426D01*
X6339343Y2560393D01*
X6594812Y2692250D01*
X6598313Y2694711D01*
X6598317Y2694713D01*
X6712418Y2774905D01*
X6830023Y2857559D01*
X7040622Y3053260D01*
X7222713Y3275732D01*
X7372927Y3520858D01*
X7488483Y3784102D01*
X7567244Y4060594D01*
X7607751Y4345216D01*
X7607845Y4363049D01*
X7607867Y4367297D01*
X92390743Y4367297D01*
X92428268Y4082266D01*
X92504129Y3804964D01*
X92616923Y3540524D01*
X92764561Y3293839D01*
X92944313Y3069472D01*
X93152851Y2871577D01*
X93386317Y2703814D01*
X93390112Y2701805D01*
X93390113Y2701804D01*
X93411869Y2690285D01*
X93640392Y2569288D01*
X93910373Y2470489D01*
X94191264Y2409245D01*
X94219841Y2406996D01*
X94414282Y2391693D01*
X94414291Y2391693D01*
X94416739Y2391500D01*
X94572271Y2391500D01*
X94574407Y2391646D01*
X94574418Y2391646D01*
X94782548Y2405835D01*
X94782554Y2405836D01*
X94786825Y2406127D01*
X94791020Y2406996D01*
X94791022Y2406996D01*
X94927584Y2435277D01*
X95068342Y2464426D01*
X95339343Y2560393D01*
X95594812Y2692250D01*
X95598313Y2694711D01*
X95598317Y2694713D01*
X95712418Y2774905D01*
X95830023Y2857559D01*
X96040622Y3053260D01*
X96222713Y3275732D01*
X96372927Y3520858D01*
X96488483Y3784102D01*
X96567244Y4060594D01*
X96607751Y4345216D01*
X96607845Y4363049D01*
X96609235Y4628417D01*
X96609235Y4628424D01*
X96609257Y4632703D01*
X96571732Y4917734D01*
X96495871Y5195036D01*
X96383077Y5459476D01*
X96235439Y5706161D01*
X96055687Y5930528D01*
X95847149Y6128423D01*
X95613683Y6296186D01*
X95591843Y6307750D01*
X95568654Y6320028D01*
X95359608Y6430712D01*
X95089627Y6529511D01*
X94808736Y6590755D01*
X94777685Y6593199D01*
X94585718Y6608307D01*
X94585709Y6608307D01*
X94583261Y6608500D01*
X94427729Y6608500D01*
X94425593Y6608354D01*
X94425582Y6608354D01*
X94217452Y6594165D01*
X94217446Y6594164D01*
X94213175Y6593873D01*
X94208980Y6593004D01*
X94208978Y6593004D01*
X94072417Y6564724D01*
X93931658Y6535574D01*
X93660657Y6439607D01*
X93405188Y6307750D01*
X93401687Y6305289D01*
X93401683Y6305287D01*
X93391594Y6298196D01*
X93169977Y6142441D01*
X92959378Y5946740D01*
X92777287Y5724268D01*
X92627073Y5479142D01*
X92511517Y5215898D01*
X92432756Y4939406D01*
X92392249Y4654784D01*
X92392227Y4650495D01*
X92392226Y4650488D01*
X92390765Y4371583D01*
X92390743Y4367297D01*
X7607867Y4367297D01*
X7609235Y4628417D01*
X7609235Y4628424D01*
X7609257Y4632703D01*
X7571732Y4917734D01*
X7495871Y5195036D01*
X7383077Y5459476D01*
X7235439Y5706161D01*
X7055687Y5930528D01*
X6847149Y6128423D01*
X6613683Y6296186D01*
X6591843Y6307750D01*
X6568654Y6320028D01*
X6359608Y6430712D01*
X6089627Y6529511D01*
X5808736Y6590755D01*
X5777685Y6593199D01*
X5585718Y6608307D01*
X5585709Y6608307D01*
X5583261Y6608500D01*
X5427729Y6608500D01*
X5425593Y6608354D01*
X5425582Y6608354D01*
X5217452Y6594165D01*
X5217446Y6594164D01*
X5213175Y6593873D01*
X5208980Y6593004D01*
X5208978Y6593004D01*
X5072417Y6564724D01*
X4931658Y6535574D01*
X4660657Y6439607D01*
X4405188Y6307750D01*
X4401687Y6305289D01*
X4401683Y6305287D01*
X4391594Y6298196D01*
X4169977Y6142441D01*
X3959378Y5946740D01*
X3777287Y5724268D01*
X3627073Y5479142D01*
X3511517Y5215898D01*
X3432756Y4939406D01*
X3392249Y4654784D01*
X3392227Y4650495D01*
X3392226Y4650488D01*
X3390765Y4371583D01*
X3390743Y4367297D01*
X508500Y4367297D01*
X508500Y10023478D01*
X57272273Y10023478D01*
X57319764Y9846239D01*
X57323510Y9835947D01*
X57415586Y9638489D01*
X57421069Y9628993D01*
X57546028Y9450533D01*
X57553084Y9442125D01*
X57707125Y9288084D01*
X57715533Y9281028D01*
X57893993Y9156069D01*
X57903489Y9150586D01*
X58100947Y9058510D01*
X58111239Y9054764D01*
X58321688Y8998375D01*
X58332481Y8996472D01*
X58495170Y8982238D01*
X58500635Y8982000D01*
X58682885Y8982000D01*
X58698124Y8986475D01*
X58699329Y8987865D01*
X58701000Y8995548D01*
X58701000Y9000115D01*
X59209000Y9000115D01*
X59213475Y8984876D01*
X59214865Y8983671D01*
X59222548Y8982000D01*
X59409365Y8982000D01*
X59414830Y8982238D01*
X59577519Y8996472D01*
X59588312Y8998375D01*
X59798761Y9054764D01*
X59809053Y9058510D01*
X60006511Y9150586D01*
X60016007Y9156069D01*
X60194467Y9281028D01*
X60202875Y9288084D01*
X60356916Y9442125D01*
X60363972Y9450533D01*
X60488931Y9628993D01*
X60494414Y9638489D01*
X60586490Y9835947D01*
X60590236Y9846239D01*
X60636394Y10018503D01*
X60636058Y10032599D01*
X60628116Y10036000D01*
X59227115Y10036000D01*
X59211876Y10031525D01*
X59210671Y10030135D01*
X59209000Y10022452D01*
X59209000Y9000115D01*
X58701000Y9000115D01*
X58701000Y10017885D01*
X58696525Y10033124D01*
X58695135Y10034329D01*
X58687452Y10036000D01*
X57287033Y10036000D01*
X57273502Y10032027D01*
X57272273Y10023478D01*
X508500Y10023478D01*
X508500Y38380094D01*
X20837425Y38380094D01*
X20840292Y38334525D01*
X20840951Y38324049D01*
X20841200Y38316138D01*
X20841200Y27445867D01*
X20840673Y27434684D01*
X20838998Y27427191D01*
X20839247Y27419265D01*
X20839247Y27419264D01*
X20841138Y27359114D01*
X20841200Y27355155D01*
X20841200Y27327244D01*
X20841697Y27323310D01*
X20841697Y27323309D01*
X20841705Y27323244D01*
X20842638Y27311407D01*
X20844027Y27267211D01*
X20849678Y27247761D01*
X20853687Y27228400D01*
X20856226Y27208303D01*
X20859145Y27200932D01*
X20859145Y27200930D01*
X20872504Y27167188D01*
X20876349Y27155958D01*
X20888682Y27113507D01*
X20892715Y27106688D01*
X20892717Y27106683D01*
X20898993Y27096072D01*
X20907688Y27078324D01*
X20915148Y27059483D01*
X20919810Y27053067D01*
X20919810Y27053066D01*
X20941136Y27023713D01*
X20947652Y27013793D01*
X20949959Y27009893D01*
X20970158Y26975738D01*
X20984479Y26961417D01*
X20997319Y26946384D01*
X21009228Y26929993D01*
X21033395Y26910000D01*
X21043305Y26901802D01*
X21052084Y26893812D01*
X36675048Y11270847D01*
X36682588Y11262561D01*
X36686700Y11256082D01*
X36692477Y11250657D01*
X36736351Y11209457D01*
X36739193Y11206702D01*
X36758930Y11186965D01*
X36762127Y11184485D01*
X36771147Y11176782D01*
X36803379Y11146514D01*
X36810325Y11142695D01*
X36810328Y11142693D01*
X36821134Y11136752D01*
X36837653Y11125901D01*
X36853659Y11113486D01*
X36860928Y11110341D01*
X36860932Y11110338D01*
X36894237Y11095926D01*
X36904887Y11090709D01*
X36943640Y11069405D01*
X36951315Y11067434D01*
X36951316Y11067434D01*
X36963262Y11064367D01*
X36981967Y11057963D01*
X37000555Y11049919D01*
X37008378Y11048680D01*
X37008388Y11048677D01*
X37044224Y11043001D01*
X37055844Y11040595D01*
X37087659Y11032427D01*
X37098670Y11029600D01*
X37118924Y11029600D01*
X37138634Y11028049D01*
X37158643Y11024880D01*
X37166535Y11025626D01*
X37185280Y11027398D01*
X37202662Y11029041D01*
X37214519Y11029600D01*
X57258882Y11029600D01*
X57327003Y11009598D01*
X57373496Y10955942D01*
X57383600Y10885668D01*
X57373077Y10850350D01*
X57323510Y10744053D01*
X57319764Y10733761D01*
X57273606Y10561497D01*
X57273942Y10547401D01*
X57281884Y10544000D01*
X60622967Y10544000D01*
X60636498Y10547973D01*
X60637727Y10556522D01*
X60590236Y10733761D01*
X60586490Y10744053D01*
X60536923Y10850350D01*
X60526262Y10920542D01*
X60555242Y10985355D01*
X60614662Y11024211D01*
X60651118Y11029600D01*
X63708533Y11029600D01*
X63719716Y11029073D01*
X63727209Y11027398D01*
X63735135Y11027647D01*
X63735136Y11027647D01*
X63795286Y11029538D01*
X63799245Y11029600D01*
X63827156Y11029600D01*
X63831091Y11030097D01*
X63831156Y11030105D01*
X63842993Y11031038D01*
X63875251Y11032052D01*
X63879270Y11032178D01*
X63887189Y11032427D01*
X63906643Y11038079D01*
X63926000Y11042087D01*
X63938230Y11043632D01*
X63938231Y11043632D01*
X63946097Y11044626D01*
X63953468Y11047545D01*
X63953470Y11047545D01*
X63987212Y11060904D01*
X63998442Y11064749D01*
X64033283Y11074871D01*
X64033284Y11074871D01*
X64040893Y11077082D01*
X64047712Y11081115D01*
X64047717Y11081117D01*
X64058328Y11087393D01*
X64076076Y11096088D01*
X64094917Y11103548D01*
X64130687Y11129536D01*
X64140607Y11136052D01*
X64171835Y11154520D01*
X64171838Y11154522D01*
X64178662Y11158558D01*
X64192983Y11172879D01*
X64208017Y11185720D01*
X64217994Y11192969D01*
X64224407Y11197628D01*
X64252598Y11231705D01*
X64260588Y11240484D01*
X69134300Y16114195D01*
X69196612Y16148221D01*
X69223395Y16151100D01*
X72517682Y16151100D01*
X72585803Y16131098D01*
X72632296Y16077442D01*
X72642400Y16007168D01*
X72631877Y15971851D01*
X72564448Y15827247D01*
X72560716Y15819243D01*
X72559294Y15813935D01*
X72559293Y15813933D01*
X72504113Y15608000D01*
X72501457Y15598087D01*
X72481502Y15370000D01*
X72501457Y15141913D01*
X72502881Y15136600D01*
X72502881Y15136598D01*
X72544601Y14980900D01*
X72560716Y14920757D01*
X72563039Y14915776D01*
X72563039Y14915775D01*
X72655151Y14718238D01*
X72655154Y14718233D01*
X72657477Y14713251D01*
X72788802Y14525700D01*
X72950700Y14363802D01*
X72955208Y14360645D01*
X72955211Y14360643D01*
X73033389Y14305902D01*
X73138251Y14232477D01*
X73143233Y14230154D01*
X73143238Y14230151D01*
X73177457Y14214195D01*
X73230742Y14167278D01*
X73250203Y14099001D01*
X73229661Y14031041D01*
X73177457Y13985805D01*
X73143238Y13969849D01*
X73143233Y13969846D01*
X73138251Y13967523D01*
X73111658Y13948902D01*
X72955211Y13839357D01*
X72955208Y13839355D01*
X72950700Y13836198D01*
X72788802Y13674300D01*
X72657477Y13486749D01*
X72655154Y13481767D01*
X72655151Y13481762D01*
X72563039Y13284225D01*
X72560716Y13279243D01*
X72501457Y13058087D01*
X72481502Y12830000D01*
X72501457Y12601913D01*
X72560716Y12380757D01*
X72563039Y12375776D01*
X72563039Y12375775D01*
X72655151Y12178238D01*
X72655154Y12178233D01*
X72657477Y12173251D01*
X72788802Y11985700D01*
X72950700Y11823802D01*
X72955208Y11820645D01*
X72955211Y11820643D01*
X73033389Y11765902D01*
X73138251Y11692477D01*
X73143233Y11690154D01*
X73143238Y11690151D01*
X73177457Y11674195D01*
X73230742Y11627278D01*
X73250203Y11559001D01*
X73229661Y11491041D01*
X73177457Y11445805D01*
X73143238Y11429849D01*
X73143233Y11429846D01*
X73138251Y11427523D01*
X73033389Y11354098D01*
X72955211Y11299357D01*
X72955208Y11299355D01*
X72950700Y11296198D01*
X72788802Y11134300D01*
X72785645Y11129792D01*
X72785643Y11129789D01*
X72737409Y11060904D01*
X72657477Y10946749D01*
X72655154Y10941767D01*
X72655151Y10941762D01*
X72563039Y10744225D01*
X72560716Y10739243D01*
X72501457Y10518087D01*
X72481502Y10290000D01*
X72501457Y10061913D01*
X72502881Y10056600D01*
X72502881Y10056598D01*
X72512031Y10022452D01*
X72560716Y9840757D01*
X72563039Y9835776D01*
X72563039Y9835775D01*
X72655151Y9638238D01*
X72655154Y9638233D01*
X72657477Y9633251D01*
X72788802Y9445700D01*
X72950700Y9283802D01*
X72955208Y9280645D01*
X72955211Y9280643D01*
X73033389Y9225902D01*
X73138251Y9152477D01*
X73143233Y9150154D01*
X73143238Y9150151D01*
X73339765Y9058510D01*
X73345757Y9055716D01*
X73351065Y9054294D01*
X73351067Y9054293D01*
X73561598Y8997881D01*
X73561600Y8997881D01*
X73566913Y8996457D01*
X73665120Y8987865D01*
X73735149Y8981738D01*
X73735156Y8981738D01*
X73737873Y8981500D01*
X74652127Y8981500D01*
X74654844Y8981738D01*
X74654851Y8981738D01*
X74724880Y8987865D01*
X74823087Y8996457D01*
X74828400Y8997881D01*
X74828402Y8997881D01*
X75038933Y9054293D01*
X75038935Y9054294D01*
X75044243Y9055716D01*
X75050235Y9058510D01*
X75246762Y9150151D01*
X75246767Y9150154D01*
X75251749Y9152477D01*
X75356611Y9225902D01*
X75434789Y9280643D01*
X75434792Y9280645D01*
X75439300Y9283802D01*
X75601198Y9445700D01*
X75732523Y9633251D01*
X75734846Y9638233D01*
X75734849Y9638238D01*
X75826961Y9835775D01*
X75826961Y9835776D01*
X75829284Y9840757D01*
X75877970Y10022452D01*
X75887119Y10056598D01*
X75887119Y10056600D01*
X75888543Y10061913D01*
X75908498Y10290000D01*
X75888543Y10518087D01*
X75829284Y10739243D01*
X75826961Y10744225D01*
X75734849Y10941762D01*
X75734846Y10941767D01*
X75732523Y10946749D01*
X75652591Y11060904D01*
X75604357Y11129789D01*
X75604355Y11129792D01*
X75601198Y11134300D01*
X75439300Y11296198D01*
X75434792Y11299355D01*
X75434789Y11299357D01*
X75356611Y11354098D01*
X75251749Y11427523D01*
X75246767Y11429846D01*
X75246762Y11429849D01*
X75212543Y11445805D01*
X75159258Y11492722D01*
X75139797Y11560999D01*
X75160339Y11628959D01*
X75212543Y11674195D01*
X75246762Y11690151D01*
X75246767Y11690154D01*
X75251749Y11692477D01*
X75356611Y11765902D01*
X75434789Y11820643D01*
X75434792Y11820645D01*
X75439300Y11823802D01*
X75601198Y11985700D01*
X75732523Y12173251D01*
X75734846Y12178233D01*
X75734849Y12178238D01*
X75826961Y12375775D01*
X75826961Y12375776D01*
X75829284Y12380757D01*
X75888543Y12601913D01*
X75908498Y12830000D01*
X75888543Y13058087D01*
X75829284Y13279243D01*
X75826961Y13284225D01*
X75734849Y13481762D01*
X75734846Y13481767D01*
X75732523Y13486749D01*
X75601198Y13674300D01*
X75439300Y13836198D01*
X75434792Y13839355D01*
X75434789Y13839357D01*
X75278342Y13948902D01*
X75251749Y13967523D01*
X75246767Y13969846D01*
X75246762Y13969849D01*
X75212543Y13985805D01*
X75159258Y14032722D01*
X75139797Y14100999D01*
X75160339Y14168959D01*
X75212543Y14214195D01*
X75246762Y14230151D01*
X75246767Y14230154D01*
X75251749Y14232477D01*
X75356611Y14305902D01*
X75434789Y14360643D01*
X75434792Y14360645D01*
X75439300Y14363802D01*
X75601198Y14525700D01*
X75732523Y14713251D01*
X75734846Y14718233D01*
X75734849Y14718238D01*
X75826961Y14915775D01*
X75826961Y14915776D01*
X75829284Y14920757D01*
X75845400Y14980900D01*
X75887119Y15136598D01*
X75887119Y15136600D01*
X75888543Y15141913D01*
X75908498Y15370000D01*
X75888543Y15598087D01*
X75885887Y15608000D01*
X75830707Y15813933D01*
X75830706Y15813935D01*
X75829284Y15819243D01*
X75825552Y15827247D01*
X75758123Y15971851D01*
X75747462Y16042042D01*
X75776442Y16106855D01*
X75835862Y16145711D01*
X75872318Y16151100D01*
X76080033Y16151100D01*
X76091216Y16150573D01*
X76098709Y16148898D01*
X76106635Y16149147D01*
X76106636Y16149147D01*
X76166786Y16151038D01*
X76170745Y16151100D01*
X76198656Y16151100D01*
X76202591Y16151597D01*
X76202656Y16151605D01*
X76214493Y16152538D01*
X76246751Y16153552D01*
X76250770Y16153678D01*
X76258689Y16153927D01*
X76278143Y16159579D01*
X76297500Y16163587D01*
X76309730Y16165132D01*
X76309731Y16165132D01*
X76317597Y16166126D01*
X76324968Y16169045D01*
X76324970Y16169045D01*
X76358712Y16182404D01*
X76369942Y16186249D01*
X76404783Y16196371D01*
X76404784Y16196371D01*
X76412393Y16198582D01*
X76419212Y16202615D01*
X76419217Y16202617D01*
X76429828Y16208893D01*
X76447576Y16217588D01*
X76466417Y16225048D01*
X76502187Y16251036D01*
X76512107Y16257552D01*
X76543335Y16276020D01*
X76543338Y16276022D01*
X76550162Y16280058D01*
X76564483Y16294379D01*
X76579517Y16307220D01*
X76595907Y16319128D01*
X76624098Y16353205D01*
X76632088Y16361984D01*
X83709700Y23439595D01*
X83772012Y23473621D01*
X83798795Y23476500D01*
X90601527Y23476500D01*
X90669648Y23456498D01*
X90716141Y23402842D01*
X90726245Y23332568D01*
X90720745Y23310818D01*
X90720688Y23310695D01*
X90660989Y23095430D01*
X90637251Y22873305D01*
X90637548Y22868152D01*
X90637548Y22868149D01*
X90642891Y22775493D01*
X90650110Y22650285D01*
X90651247Y22645239D01*
X90651248Y22645233D01*
X90656621Y22621393D01*
X90699222Y22432361D01*
X90783266Y22225384D01*
X90899987Y22034912D01*
X91046250Y21866062D01*
X91218126Y21723368D01*
X91411000Y21610662D01*
X91619692Y21530970D01*
X91624760Y21529939D01*
X91624763Y21529938D01*
X91732017Y21508117D01*
X91838597Y21486433D01*
X91843772Y21486243D01*
X91843774Y21486243D01*
X92056673Y21478436D01*
X92056677Y21478436D01*
X92061837Y21478247D01*
X92066957Y21478903D01*
X92066959Y21478903D01*
X92278288Y21505975D01*
X92278289Y21505975D01*
X92283416Y21506632D01*
X92288366Y21508117D01*
X92492429Y21569339D01*
X92492434Y21569341D01*
X92497384Y21570826D01*
X92697994Y21669104D01*
X92879860Y21798827D01*
X93038096Y21956511D01*
X93057707Y21983802D01*
X93165435Y22133723D01*
X93168453Y22137923D01*
X93267430Y22338189D01*
X93326567Y22532832D01*
X93330865Y22546977D01*
X93330865Y22546979D01*
X93332370Y22551931D01*
X93361529Y22773410D01*
X93361737Y22781906D01*
X93363074Y22836635D01*
X93363074Y22836639D01*
X93363156Y22840000D01*
X93344852Y23062639D01*
X93290431Y23279298D01*
X93201354Y23484160D01*
X93131460Y23592200D01*
X93082824Y23667380D01*
X93082822Y23667383D01*
X93080014Y23671723D01*
X93063344Y23690043D01*
X93032292Y23753889D01*
X93040686Y23824388D01*
X93067442Y23863938D01*
X93568747Y24365243D01*
X93577037Y24372787D01*
X93583518Y24376900D01*
X93630159Y24426568D01*
X93632913Y24429409D01*
X93652635Y24449131D01*
X93655112Y24452324D01*
X93662817Y24461345D01*
X93687659Y24487800D01*
X93693086Y24493579D01*
X93699713Y24505634D01*
X93702846Y24511332D01*
X93713702Y24527859D01*
X93721257Y24537598D01*
X93721258Y24537600D01*
X93726114Y24543860D01*
X93743674Y24584440D01*
X93748891Y24595088D01*
X93766375Y24626891D01*
X93766376Y24626893D01*
X93770195Y24633840D01*
X93775233Y24653463D01*
X93781637Y24672166D01*
X93786533Y24683480D01*
X93786533Y24683481D01*
X93789681Y24690755D01*
X93790920Y24698578D01*
X93790923Y24698588D01*
X93796599Y24734424D01*
X93799005Y24746044D01*
X93808028Y24781189D01*
X93808028Y24781190D01*
X93810000Y24788870D01*
X93810000Y24809124D01*
X93811551Y24828835D01*
X93813480Y24841014D01*
X93814720Y24848843D01*
X93810559Y24892862D01*
X93810000Y24904719D01*
X93810000Y30936732D01*
X93810527Y30947915D01*
X93812202Y30955408D01*
X93810062Y31023499D01*
X93810000Y31027456D01*
X93810000Y31055356D01*
X93809496Y31059347D01*
X93808563Y31071189D01*
X93807535Y31103918D01*
X93807174Y31115389D01*
X93801521Y31134848D01*
X93797512Y31154207D01*
X93796283Y31163933D01*
X93794974Y31174297D01*
X93792058Y31181663D01*
X93792056Y31181669D01*
X93778700Y31215402D01*
X93774855Y31226632D01*
X93764730Y31261483D01*
X93764730Y31261484D01*
X93762519Y31269093D01*
X93752205Y31286534D01*
X93743508Y31304287D01*
X93738972Y31315742D01*
X93736052Y31323117D01*
X93710063Y31358888D01*
X93703547Y31368808D01*
X93685078Y31400037D01*
X93681042Y31406862D01*
X93666721Y31421183D01*
X93653880Y31436217D01*
X93646631Y31446194D01*
X93641972Y31452607D01*
X93635867Y31457658D01*
X93635862Y31457663D01*
X93607896Y31480799D01*
X93599118Y31488787D01*
X93325410Y31762495D01*
X93291384Y31824807D01*
X93296449Y31895622D01*
X93298930Y31901047D01*
X93300615Y31903295D01*
X93305272Y31915716D01*
X93336174Y31998148D01*
X93351745Y32039684D01*
X93358500Y32101866D01*
X93358500Y33898134D01*
X93351745Y33960316D01*
X93300615Y34096705D01*
X93213261Y34213261D01*
X93096705Y34300615D01*
X92960316Y34351745D01*
X92898134Y34358500D01*
X91584200Y34358500D01*
X91516079Y34378502D01*
X91469586Y34432158D01*
X91458200Y34484500D01*
X91458200Y42578532D01*
X91458727Y42589715D01*
X91460402Y42597208D01*
X91459752Y42617881D01*
X91458262Y42665306D01*
X91458200Y42669264D01*
X91458200Y42697156D01*
X91457696Y42701147D01*
X91456763Y42712989D01*
X91456094Y42734293D01*
X91455374Y42757189D01*
X91451608Y42770151D01*
X91449721Y42776648D01*
X91445712Y42796007D01*
X91444317Y42807049D01*
X91443174Y42816097D01*
X91440258Y42823463D01*
X91440256Y42823469D01*
X91426900Y42857202D01*
X91423055Y42868432D01*
X91412930Y42903283D01*
X91412930Y42903284D01*
X91410719Y42910893D01*
X91400405Y42928334D01*
X91391708Y42946087D01*
X91387172Y42957542D01*
X91384252Y42964917D01*
X91358263Y43000688D01*
X91351747Y43010608D01*
X91333278Y43041837D01*
X91329242Y43048662D01*
X91314921Y43062983D01*
X91302080Y43078017D01*
X91294831Y43087994D01*
X91290172Y43094407D01*
X91256095Y43122598D01*
X91247316Y43130588D01*
X73660405Y60717500D01*
X73626379Y60779812D01*
X73623500Y60806595D01*
X73623500Y61105811D01*
X73643502Y61173932D01*
X73697158Y61220425D01*
X73767432Y61230529D01*
X73794449Y61223521D01*
X73802557Y61220425D01*
X73879692Y61190970D01*
X73884760Y61189939D01*
X73884763Y61189938D01*
X73963436Y61173932D01*
X74098597Y61146433D01*
X74103772Y61146243D01*
X74103774Y61146243D01*
X74316673Y61138436D01*
X74316677Y61138436D01*
X74321837Y61138247D01*
X74326957Y61138903D01*
X74326959Y61138903D01*
X74538288Y61165975D01*
X74538289Y61165975D01*
X74543416Y61166632D01*
X74567748Y61173932D01*
X74752429Y61229339D01*
X74752434Y61229341D01*
X74757384Y61230826D01*
X74957994Y61329104D01*
X75139860Y61458827D01*
X75298096Y61616511D01*
X75428453Y61797923D01*
X75449320Y61840143D01*
X75525136Y61993547D01*
X75525137Y61993549D01*
X75527430Y61998189D01*
X75592370Y62211931D01*
X75621529Y62433410D01*
X75623156Y62500000D01*
X75604852Y62722639D01*
X75550431Y62939298D01*
X75461354Y63144160D01*
X75340014Y63331723D01*
X75189670Y63496949D01*
X75185619Y63500148D01*
X75185615Y63500152D01*
X75018414Y63632200D01*
X75018410Y63632202D01*
X75014359Y63635402D01*
X74973053Y63658204D01*
X74923084Y63708636D01*
X74908312Y63778079D01*
X74933428Y63844484D01*
X74960780Y63871091D01*
X75004603Y63902350D01*
X75139860Y63998827D01*
X75164906Y64023785D01*
X75264686Y64123218D01*
X75298096Y64156511D01*
X75385749Y64278493D01*
X75425435Y64333723D01*
X75428453Y64337923D01*
X75441995Y64365322D01*
X75525136Y64533547D01*
X75525137Y64533549D01*
X75527430Y64538189D01*
X75592370Y64751931D01*
X75621529Y64973410D01*
X75622151Y64998868D01*
X75623074Y65036635D01*
X75623074Y65036639D01*
X75623156Y65040000D01*
X75604852Y65262639D01*
X75550431Y65479298D01*
X75461354Y65684160D01*
X75340014Y65871723D01*
X75189670Y66036949D01*
X75185619Y66040148D01*
X75185615Y66040152D01*
X75018414Y66172200D01*
X75018410Y66172202D01*
X75014359Y66175402D01*
X74978028Y66195458D01*
X74905969Y66235236D01*
X74818789Y66283362D01*
X74813920Y66285086D01*
X74813916Y66285088D01*
X74613087Y66356205D01*
X74613083Y66356206D01*
X74608212Y66357931D01*
X74603119Y66358838D01*
X74603116Y66358839D01*
X74393373Y66396200D01*
X74393367Y66396201D01*
X74388284Y66397106D01*
X74314452Y66398008D01*
X74170081Y66399772D01*
X74170079Y66399772D01*
X74164911Y66399835D01*
X73944091Y66366045D01*
X73731756Y66296643D01*
X73533607Y66193493D01*
X73529474Y66190390D01*
X73529471Y66190388D01*
X73509512Y66175402D01*
X73388181Y66084304D01*
X73321699Y66059399D01*
X73252303Y66074391D01*
X73223435Y66095970D01*
X72241652Y67077753D01*
X72234112Y67086039D01*
X72230000Y67092518D01*
X72180348Y67139144D01*
X72177507Y67141898D01*
X72157770Y67161635D01*
X72154573Y67164115D01*
X72145551Y67171820D01*
X72132116Y67184436D01*
X72113321Y67202086D01*
X72106375Y67205905D01*
X72106372Y67205907D01*
X72095566Y67211848D01*
X72079047Y67222699D01*
X72078583Y67223059D01*
X72063041Y67235114D01*
X72055772Y67238259D01*
X72055768Y67238262D01*
X72022463Y67252674D01*
X72011813Y67257891D01*
X71973060Y67279195D01*
X71953437Y67284233D01*
X71934734Y67290637D01*
X71923420Y67295533D01*
X71923419Y67295533D01*
X71916145Y67298681D01*
X71908322Y67299920D01*
X71908312Y67299923D01*
X71872476Y67305599D01*
X71860856Y67308005D01*
X71825711Y67317028D01*
X71825710Y67317028D01*
X71818030Y67319000D01*
X71797776Y67319000D01*
X71778065Y67320551D01*
X71775534Y67320952D01*
X71758057Y67323720D01*
X71750165Y67322974D01*
X71714039Y67319559D01*
X71702181Y67319000D01*
X36218163Y67319000D01*
X36206979Y67319527D01*
X36199491Y67321201D01*
X36191568Y67320952D01*
X36131433Y67319062D01*
X36127475Y67319000D01*
X36099544Y67319000D01*
X36095629Y67318505D01*
X36095625Y67318505D01*
X36095567Y67318497D01*
X36095538Y67318494D01*
X36083696Y67317561D01*
X36039510Y67316173D01*
X36022144Y67311128D01*
X36020058Y67310522D01*
X36000706Y67306514D01*
X35988468Y67304968D01*
X35988466Y67304967D01*
X35980603Y67303974D01*
X35939486Y67287694D01*
X35928285Y67283859D01*
X35885806Y67271518D01*
X35878987Y67267485D01*
X35878982Y67267483D01*
X35868371Y67261207D01*
X35850621Y67252510D01*
X35831783Y67245052D01*
X35825367Y67240391D01*
X35825366Y67240390D01*
X35796025Y67219072D01*
X35786101Y67212553D01*
X35754860Y67194078D01*
X35754855Y67194074D01*
X35748037Y67190042D01*
X35733713Y67175718D01*
X35718681Y67162879D01*
X35702293Y67150972D01*
X35674112Y67116907D01*
X35666122Y67108127D01*
X34654208Y66096213D01*
X34591896Y66062187D01*
X34521081Y66067252D01*
X34487020Y66086427D01*
X34486280Y66087012D01*
X34426870Y66133931D01*
X34378415Y66172199D01*
X34378413Y66172200D01*
X34374359Y66175402D01*
X34338028Y66195458D01*
X34265969Y66235236D01*
X34178789Y66283362D01*
X34173920Y66285086D01*
X34173916Y66285088D01*
X33973087Y66356205D01*
X33973083Y66356206D01*
X33968212Y66357931D01*
X33963119Y66358838D01*
X33963116Y66358839D01*
X33753373Y66396200D01*
X33753367Y66396201D01*
X33748284Y66397106D01*
X33674452Y66398008D01*
X33530081Y66399772D01*
X33530079Y66399772D01*
X33524911Y66399835D01*
X33304091Y66366045D01*
X33091756Y66296643D01*
X32893607Y66193493D01*
X32889474Y66190390D01*
X32889471Y66190388D01*
X32719100Y66062470D01*
X32714965Y66059365D01*
X32560629Y65897862D01*
X32453201Y65740379D01*
X32398293Y65695379D01*
X32327768Y65687208D01*
X32264021Y65718462D01*
X32243324Y65742946D01*
X32162822Y65867383D01*
X32162820Y65867386D01*
X32160014Y65871723D01*
X32009670Y66036949D01*
X32005619Y66040148D01*
X32005615Y66040152D01*
X31838414Y66172200D01*
X31838410Y66172202D01*
X31834359Y66175402D01*
X31798028Y66195458D01*
X31725969Y66235236D01*
X31638789Y66283362D01*
X31633920Y66285086D01*
X31633916Y66285088D01*
X31433087Y66356205D01*
X31433083Y66356206D01*
X31428212Y66357931D01*
X31423119Y66358838D01*
X31423116Y66358839D01*
X31213373Y66396200D01*
X31213367Y66396201D01*
X31208284Y66397106D01*
X31134452Y66398008D01*
X30990081Y66399772D01*
X30990079Y66399772D01*
X30984911Y66399835D01*
X30764091Y66366045D01*
X30551756Y66296643D01*
X30353607Y66193493D01*
X30349474Y66190390D01*
X30349471Y66190388D01*
X30179100Y66062470D01*
X30174965Y66059365D01*
X30020629Y65897862D01*
X30017720Y65893597D01*
X30017714Y65893589D01*
X30005404Y65875543D01*
X29913204Y65740382D01*
X29912898Y65739934D01*
X29857987Y65694931D01*
X29787462Y65686760D01*
X29723715Y65718014D01*
X29703018Y65742498D01*
X29622426Y65867074D01*
X29616136Y65875243D01*
X29472806Y66032760D01*
X29465273Y66039785D01*
X29298139Y66171778D01*
X29289552Y66177483D01*
X29103117Y66280401D01*
X29093705Y66284631D01*
X28892959Y66355720D01*
X28882988Y66358354D01*
X28811837Y66371028D01*
X28798540Y66369568D01*
X28794000Y66355011D01*
X28794000Y64912000D01*
X28773998Y64843879D01*
X28720342Y64797386D01*
X28668000Y64786000D01*
X24683225Y64786000D01*
X24669694Y64782027D01*
X24668257Y64772034D01*
X24698565Y64637554D01*
X24701645Y64627725D01*
X24781770Y64430397D01*
X24786413Y64421206D01*
X24897694Y64239612D01*
X24903777Y64231301D01*
X25043213Y64070333D01*
X25050577Y64063121D01*
X25055522Y64059015D01*
X25095156Y64000111D01*
X25096653Y63929130D01*
X25059537Y63868608D01*
X25019264Y63844090D01*
X24911705Y63803768D01*
X24911704Y63803767D01*
X24903295Y63800615D01*
X24786739Y63713261D01*
X24699385Y63596705D01*
X24648255Y63460316D01*
X24641500Y63398134D01*
X24641500Y61601866D01*
X24648255Y61539684D01*
X24699385Y61403295D01*
X24786739Y61286739D01*
X24903295Y61199385D01*
X25039684Y61148255D01*
X25101866Y61141500D01*
X26898134Y61141500D01*
X26960316Y61148255D01*
X27096705Y61199385D01*
X27213261Y61286739D01*
X27300615Y61403295D01*
X27316665Y61446109D01*
X27344598Y61520618D01*
X27387240Y61577382D01*
X27453802Y61602082D01*
X27523150Y61586874D01*
X27557817Y61558886D01*
X27586250Y61526062D01*
X27590225Y61522762D01*
X27590228Y61522759D01*
X27685985Y61443260D01*
X27725620Y61384357D01*
X27731500Y61346316D01*
X27731500Y53969214D01*
X27731493Y53967894D01*
X27730549Y53877779D01*
X27739711Y53835403D01*
X27741769Y53822837D01*
X27746603Y53779745D01*
X27748919Y53773094D01*
X27748920Y53773090D01*
X27757633Y53748070D01*
X27761796Y53733258D01*
X27768881Y53700490D01*
X27787208Y53661187D01*
X27791990Y53649411D01*
X27806255Y53608448D01*
X27809989Y53602473D01*
X27809990Y53602470D01*
X27824027Y53580005D01*
X27831366Y53566488D01*
X27842559Y53542486D01*
X27845538Y53536098D01*
X27849855Y53530533D01*
X27849856Y53530531D01*
X27872106Y53501847D01*
X27879402Y53491388D01*
X27902374Y53454624D01*
X27907334Y53449629D01*
X27907335Y53449628D01*
X27930976Y53425821D01*
X27931561Y53425196D01*
X27932078Y53424530D01*
X27958068Y53398540D01*
X28030185Y53325918D01*
X28031222Y53325260D01*
X28032451Y53324157D01*
X28349119Y53007489D01*
X28383145Y52945177D01*
X28378080Y52874362D01*
X28335533Y52817526D01*
X28281902Y52794308D01*
X28266690Y52791626D01*
X28056239Y52735236D01*
X28045947Y52731490D01*
X27848489Y52639414D01*
X27838994Y52633931D01*
X27786952Y52597491D01*
X27778576Y52587012D01*
X27785644Y52573566D01*
X29574287Y50784923D01*
X29586062Y50778493D01*
X29598077Y50787789D01*
X29633934Y50838998D01*
X29640591Y50850528D01*
X29691973Y50899521D01*
X29761687Y50912958D01*
X29827598Y50886571D01*
X29858829Y50850528D01*
X29860153Y50848235D01*
X29862477Y50843251D01*
X29993802Y50655700D01*
X30154595Y50494907D01*
X30188621Y50432595D01*
X30191500Y50405812D01*
X30191500Y49926463D01*
X30171498Y49858342D01*
X30117842Y49811849D01*
X30076482Y49800942D01*
X30051450Y49798752D01*
X29991913Y49793543D01*
X29986600Y49792119D01*
X29986598Y49792119D01*
X29776067Y49735707D01*
X29776065Y49735706D01*
X29770757Y49734284D01*
X29765776Y49731961D01*
X29765775Y49731961D01*
X29568238Y49639849D01*
X29568233Y49639846D01*
X29563251Y49637523D01*
X29497771Y49591673D01*
X29380211Y49509357D01*
X29380208Y49509355D01*
X29375700Y49506198D01*
X29213802Y49344300D01*
X29082477Y49156749D01*
X29080154Y49151767D01*
X29080151Y49151762D01*
X29017118Y49016586D01*
X28985716Y48949243D01*
X28984294Y48943935D01*
X28984293Y48943933D01*
X28938190Y48771875D01*
X28926457Y48728087D01*
X28906502Y48500000D01*
X28926457Y48271913D01*
X28927881Y48266600D01*
X28927881Y48266598D01*
X28967689Y48118036D01*
X28985716Y48050757D01*
X28988039Y48045776D01*
X28988039Y48045775D01*
X29080151Y47848238D01*
X29080154Y47848233D01*
X29082477Y47843251D01*
X29138935Y47762621D01*
X29197951Y47678338D01*
X29213802Y47655700D01*
X29375700Y47493802D01*
X29380208Y47490645D01*
X29380211Y47490643D01*
X29406429Y47472285D01*
X29563251Y47362477D01*
X29568233Y47360154D01*
X29568238Y47360151D01*
X29602457Y47344195D01*
X29655742Y47297278D01*
X29675203Y47229001D01*
X29654661Y47161041D01*
X29602457Y47115805D01*
X29568238Y47099849D01*
X29568233Y47099846D01*
X29563251Y47097523D01*
X29458389Y47024098D01*
X29380211Y46969357D01*
X29380208Y46969355D01*
X29375700Y46966198D01*
X29213802Y46804300D01*
X29082477Y46616749D01*
X29080154Y46611767D01*
X29080151Y46611762D01*
X29033169Y46511007D01*
X28985716Y46409243D01*
X28926457Y46188087D01*
X28906502Y45960000D01*
X28926457Y45731913D01*
X28927881Y45726600D01*
X28927881Y45726598D01*
X28967458Y45578898D01*
X28985716Y45510757D01*
X28988039Y45505776D01*
X28988039Y45505775D01*
X29080151Y45308238D01*
X29080154Y45308233D01*
X29082477Y45303251D01*
X29153291Y45202119D01*
X29162482Y45188993D01*
X29213802Y45115700D01*
X29375700Y44953802D01*
X29380208Y44950645D01*
X29380211Y44950643D01*
X29424892Y44919357D01*
X29563251Y44822477D01*
X29568233Y44820154D01*
X29568238Y44820151D01*
X29602457Y44804195D01*
X29655742Y44757278D01*
X29675203Y44689001D01*
X29654661Y44621041D01*
X29602457Y44575805D01*
X29568238Y44559849D01*
X29568233Y44559846D01*
X29563251Y44557523D01*
X29499663Y44512998D01*
X29380211Y44429357D01*
X29380208Y44429355D01*
X29375700Y44426198D01*
X29213802Y44264300D01*
X29082477Y44076749D01*
X29080154Y44071767D01*
X29080151Y44071762D01*
X29009340Y43919905D01*
X28985716Y43869243D01*
X28984294Y43863935D01*
X28984293Y43863933D01*
X28927881Y43653402D01*
X28926457Y43648087D01*
X28906502Y43420000D01*
X28926457Y43191913D01*
X28927881Y43186600D01*
X28927881Y43186598D01*
X28965433Y43046455D01*
X28985716Y42970757D01*
X28988039Y42965776D01*
X28988039Y42965775D01*
X29080151Y42768238D01*
X29080154Y42768233D01*
X29082477Y42763251D01*
X29135348Y42687744D01*
X29210610Y42580259D01*
X29213802Y42575700D01*
X29375700Y42413802D01*
X29380208Y42410645D01*
X29380211Y42410643D01*
X29402700Y42394896D01*
X29563251Y42282477D01*
X29568233Y42280154D01*
X29568238Y42280151D01*
X29602457Y42264195D01*
X29655742Y42217278D01*
X29675203Y42149001D01*
X29654661Y42081041D01*
X29602457Y42035805D01*
X29568238Y42019849D01*
X29568233Y42019846D01*
X29563251Y42017523D01*
X29499269Y41972722D01*
X29380211Y41889357D01*
X29380208Y41889355D01*
X29375700Y41886198D01*
X29213802Y41724300D01*
X29210645Y41719792D01*
X29210643Y41719789D01*
X29175533Y41669646D01*
X29082477Y41536749D01*
X29080154Y41531767D01*
X29080151Y41531762D01*
X29017118Y41396586D01*
X28985716Y41329243D01*
X28984294Y41323935D01*
X28984293Y41323933D01*
X28938190Y41151875D01*
X28926457Y41108087D01*
X28906502Y40880000D01*
X28926457Y40651913D01*
X28985716Y40430757D01*
X28988039Y40425776D01*
X28988039Y40425775D01*
X29080151Y40228238D01*
X29080154Y40228233D01*
X29082477Y40223251D01*
X29213802Y40035700D01*
X29375700Y39873802D01*
X29380208Y39870645D01*
X29380211Y39870643D01*
X29458389Y39815902D01*
X29563251Y39742477D01*
X29568233Y39740154D01*
X29568238Y39740151D01*
X29602457Y39724195D01*
X29655742Y39677278D01*
X29675203Y39609001D01*
X29654661Y39541041D01*
X29602457Y39495805D01*
X29568238Y39479849D01*
X29568233Y39479846D01*
X29563251Y39477523D01*
X29499269Y39432722D01*
X29380211Y39349357D01*
X29380208Y39349355D01*
X29375700Y39346198D01*
X29213802Y39184300D01*
X29082477Y38996749D01*
X29080154Y38991767D01*
X29080151Y38991762D01*
X28988039Y38794225D01*
X28985716Y38789243D01*
X28984294Y38783935D01*
X28984293Y38783933D01*
X28930186Y38582003D01*
X28926457Y38568087D01*
X28906502Y38340000D01*
X28926457Y38111913D01*
X28927881Y38106600D01*
X28927881Y38106598D01*
X28955932Y38001913D01*
X28985716Y37890757D01*
X28988039Y37885776D01*
X28988039Y37885775D01*
X29080151Y37688238D01*
X29080154Y37688233D01*
X29082477Y37683251D01*
X29213802Y37495700D01*
X29375700Y37333802D01*
X29380208Y37330645D01*
X29380211Y37330643D01*
X29458389Y37275902D01*
X29563251Y37202477D01*
X29568233Y37200154D01*
X29568238Y37200151D01*
X29602457Y37184195D01*
X29655742Y37137278D01*
X29675203Y37069001D01*
X29654661Y37001041D01*
X29602457Y36955805D01*
X29568238Y36939849D01*
X29568233Y36939846D01*
X29563251Y36937523D01*
X29499269Y36892722D01*
X29380211Y36809357D01*
X29380208Y36809355D01*
X29375700Y36806198D01*
X29213802Y36644300D01*
X29082477Y36456749D01*
X29080154Y36451767D01*
X29080151Y36451762D01*
X29031183Y36346749D01*
X28985716Y36249243D01*
X28984294Y36243935D01*
X28984293Y36243933D01*
X28927881Y36033402D01*
X28926457Y36028087D01*
X28906502Y35800000D01*
X28926457Y35571913D01*
X28927881Y35566600D01*
X28927881Y35566598D01*
X28967458Y35418898D01*
X28985716Y35350757D01*
X28988039Y35345776D01*
X28988039Y35345775D01*
X29080151Y35148238D01*
X29080154Y35148233D01*
X29082477Y35143251D01*
X29213802Y34955700D01*
X29375700Y34793802D01*
X29380208Y34790645D01*
X29380211Y34790643D01*
X29424892Y34759357D01*
X29563251Y34662477D01*
X29568233Y34660154D01*
X29568238Y34660151D01*
X29602457Y34644195D01*
X29655742Y34597278D01*
X29675203Y34529001D01*
X29654661Y34461041D01*
X29602457Y34415805D01*
X29568238Y34399849D01*
X29568233Y34399846D01*
X29563251Y34397523D01*
X29496868Y34351041D01*
X29380211Y34269357D01*
X29380208Y34269355D01*
X29375700Y34266198D01*
X29213802Y34104300D01*
X29210645Y34099792D01*
X29210643Y34099789D01*
X29156243Y34022098D01*
X29082477Y33916749D01*
X29080154Y33911767D01*
X29080151Y33911762D01*
X29017118Y33776586D01*
X28985716Y33709243D01*
X28984294Y33703935D01*
X28984293Y33703933D01*
X28927881Y33493402D01*
X28926457Y33488087D01*
X28906502Y33260000D01*
X28926457Y33031913D01*
X28927881Y33026600D01*
X28927881Y33026598D01*
X28955932Y32921913D01*
X28985716Y32810757D01*
X28988039Y32805776D01*
X28988039Y32805775D01*
X29080151Y32608238D01*
X29080154Y32608233D01*
X29082477Y32603251D01*
X29135348Y32527744D01*
X29185264Y32456457D01*
X29213802Y32415700D01*
X29375700Y32253802D01*
X29380208Y32250645D01*
X29380211Y32250643D01*
X29393123Y32241602D01*
X29563251Y32122477D01*
X29568233Y32120154D01*
X29568238Y32120151D01*
X29764765Y32028510D01*
X29770757Y32025716D01*
X29776065Y32024294D01*
X29776067Y32024293D01*
X29986598Y31967881D01*
X29986600Y31967881D01*
X29991913Y31966457D01*
X30090120Y31957865D01*
X30160149Y31951738D01*
X30160156Y31951738D01*
X30162873Y31951500D01*
X31077127Y31951500D01*
X31079844Y31951738D01*
X31079851Y31951738D01*
X31149880Y31957865D01*
X31248087Y31966457D01*
X31253400Y31967881D01*
X31253402Y31967881D01*
X31353189Y31994619D01*
X31424165Y31992929D01*
X31482961Y31953135D01*
X31510909Y31887871D01*
X31511800Y31872912D01*
X31511800Y19920467D01*
X31511273Y19909284D01*
X31509598Y19901791D01*
X31509847Y19893865D01*
X31509847Y19893864D01*
X31511738Y19833714D01*
X31511800Y19829755D01*
X31511800Y19801844D01*
X31512297Y19797910D01*
X31512297Y19797909D01*
X31512305Y19797844D01*
X31513238Y19786007D01*
X31514627Y19741811D01*
X31520278Y19722361D01*
X31524287Y19703000D01*
X31526826Y19682903D01*
X31529745Y19675532D01*
X31529745Y19675530D01*
X31543104Y19641788D01*
X31546949Y19630558D01*
X31559282Y19588107D01*
X31563315Y19581288D01*
X31563317Y19581283D01*
X31569593Y19570672D01*
X31578288Y19552924D01*
X31585748Y19534083D01*
X31590410Y19527667D01*
X31590410Y19527666D01*
X31611736Y19498313D01*
X31618252Y19488393D01*
X31640758Y19450338D01*
X31655079Y19436017D01*
X31667919Y19420984D01*
X31679828Y19404593D01*
X31685934Y19399542D01*
X31713905Y19376402D01*
X31722684Y19368412D01*
X34591787Y16499309D01*
X34625813Y16436997D01*
X34620748Y16366182D01*
X34599214Y16329223D01*
X34591031Y16319471D01*
X34466069Y16141007D01*
X34460586Y16131511D01*
X34368510Y15934053D01*
X34364764Y15923761D01*
X34308375Y15713312D01*
X34307837Y15710263D01*
X34307229Y15709036D01*
X34306951Y15707999D01*
X34306743Y15708055D01*
X34276309Y15646650D01*
X34215395Y15610181D01*
X34144434Y15612434D01*
X34094656Y15643048D01*
X29774050Y19963655D01*
X22145105Y27592600D01*
X22111079Y27654912D01*
X22108200Y27681695D01*
X22108200Y31873430D01*
X22128202Y31941551D01*
X22181858Y31988044D01*
X22252132Y31998148D01*
X22266812Y31995137D01*
X22366691Y31968374D01*
X22377481Y31966472D01*
X22540170Y31952238D01*
X22545635Y31952000D01*
X22727885Y31952000D01*
X22743124Y31956475D01*
X22744329Y31957865D01*
X22746000Y31965548D01*
X22746000Y31970115D01*
X23254000Y31970115D01*
X23258475Y31954876D01*
X23259865Y31953671D01*
X23267548Y31952000D01*
X23454365Y31952000D01*
X23459830Y31952238D01*
X23622519Y31966472D01*
X23633312Y31968375D01*
X23843761Y32024764D01*
X23854053Y32028510D01*
X24051511Y32120586D01*
X24061007Y32126069D01*
X24239467Y32251028D01*
X24247875Y32258084D01*
X24401916Y32412125D01*
X24408972Y32420533D01*
X24533931Y32598993D01*
X24539414Y32608489D01*
X24631490Y32805947D01*
X24635236Y32816239D01*
X24681394Y32988503D01*
X24681058Y33002599D01*
X24673116Y33006000D01*
X23272115Y33006000D01*
X23256876Y33001525D01*
X23255671Y33000135D01*
X23254000Y32992452D01*
X23254000Y31970115D01*
X22746000Y31970115D01*
X22746000Y33388000D01*
X22766002Y33456121D01*
X22819658Y33502614D01*
X22872000Y33514000D01*
X24667967Y33514000D01*
X24681498Y33517973D01*
X24682727Y33526522D01*
X24635236Y33703761D01*
X24631490Y33714053D01*
X24539414Y33911511D01*
X24533931Y33921007D01*
X24408972Y34099467D01*
X24401916Y34107875D01*
X24247875Y34261916D01*
X24239467Y34268972D01*
X24061007Y34393931D01*
X24051511Y34399414D01*
X24016951Y34415529D01*
X23963666Y34462446D01*
X23944205Y34530723D01*
X23964747Y34598683D01*
X24016951Y34643919D01*
X24051762Y34660151D01*
X24051767Y34660154D01*
X24056749Y34662477D01*
X24195108Y34759357D01*
X24239789Y34790643D01*
X24239792Y34790645D01*
X24244300Y34793802D01*
X24406198Y34955700D01*
X24424587Y34981961D01*
X24519417Y35117393D01*
X24574874Y35161721D01*
X24614718Y35170873D01*
X24637037Y35172277D01*
X24637038Y35172277D01*
X24644950Y35172775D01*
X24652491Y35175225D01*
X24652787Y35175321D01*
X24675931Y35180494D01*
X24676235Y35180532D01*
X24676240Y35180533D01*
X24684097Y35181526D01*
X24691462Y35184442D01*
X24691466Y35184443D01*
X24736311Y35202199D01*
X24743730Y35204871D01*
X24797175Y35222236D01*
X24803872Y35226486D01*
X24804131Y35226650D01*
X24825258Y35237415D01*
X24825546Y35237529D01*
X24825551Y35237532D01*
X24832917Y35240448D01*
X24839325Y35245104D01*
X24839331Y35245107D01*
X24878352Y35273458D01*
X24884889Y35277901D01*
X24932318Y35308000D01*
X24937959Y35314007D01*
X24955746Y35329688D01*
X24955991Y35329866D01*
X24955993Y35329868D01*
X24962407Y35334528D01*
X24980226Y35356067D01*
X24998203Y35377796D01*
X25003434Y35383730D01*
X25036458Y35418898D01*
X25036460Y35418901D01*
X25041886Y35424679D01*
X25045858Y35431903D01*
X25059181Y35451506D01*
X25059380Y35451746D01*
X25059384Y35451753D01*
X25064433Y35457856D01*
X25088347Y35508676D01*
X25091929Y35515708D01*
X25118995Y35564940D01*
X25120965Y35572615D01*
X25120968Y35572621D01*
X25121044Y35572919D01*
X25129076Y35595228D01*
X25129206Y35595503D01*
X25129209Y35595511D01*
X25132583Y35602682D01*
X25143106Y35657849D01*
X25144832Y35665571D01*
X25156829Y35712293D01*
X25156829Y35712294D01*
X25158800Y35719970D01*
X25158800Y35728207D01*
X25161032Y35751816D01*
X25161090Y35752119D01*
X25161090Y35752123D01*
X25162575Y35759906D01*
X25159049Y35815951D01*
X25158800Y35823862D01*
X25158800Y48428207D01*
X25161032Y48451816D01*
X25161090Y48452119D01*
X25161090Y48452123D01*
X25162575Y48459906D01*
X25159049Y48515951D01*
X25158800Y48523862D01*
X25158800Y48539856D01*
X25156794Y48555730D01*
X25156051Y48563598D01*
X25153023Y48611737D01*
X25153023Y48611738D01*
X25152525Y48619650D01*
X25149979Y48627487D01*
X25144806Y48650631D01*
X25144768Y48650935D01*
X25144767Y48650940D01*
X25143774Y48658797D01*
X25140858Y48666162D01*
X25140857Y48666166D01*
X25123101Y48711011D01*
X25120429Y48718430D01*
X25103064Y48771875D01*
X25098814Y48778572D01*
X25098650Y48778831D01*
X25087885Y48799958D01*
X25087771Y48800246D01*
X25087768Y48800251D01*
X25084852Y48807617D01*
X25080196Y48814025D01*
X25080193Y48814031D01*
X25051842Y48853052D01*
X25047392Y48859599D01*
X25017300Y48907018D01*
X25011293Y48912659D01*
X24995612Y48930446D01*
X24995434Y48930691D01*
X24995432Y48930693D01*
X24990772Y48937107D01*
X24982521Y48943933D01*
X24947504Y48972903D01*
X24941570Y48978134D01*
X24906402Y49011158D01*
X24906399Y49011160D01*
X24900621Y49016586D01*
X24893397Y49020558D01*
X24873794Y49033881D01*
X24873554Y49034080D01*
X24873547Y49034084D01*
X24867444Y49039133D01*
X24816624Y49063047D01*
X24809571Y49066641D01*
X24773799Y49086307D01*
X24723740Y49136652D01*
X24708500Y49196721D01*
X24708500Y49348134D01*
X24701745Y49410316D01*
X24650615Y49546705D01*
X24563261Y49663261D01*
X24446705Y49750615D01*
X24310316Y49801745D01*
X24248134Y49808500D01*
X21751866Y49808500D01*
X21689684Y49801745D01*
X21553295Y49750615D01*
X21436739Y49663261D01*
X21349385Y49546705D01*
X21298255Y49410316D01*
X21291500Y49348134D01*
X21291500Y47651866D01*
X21298255Y47589684D01*
X21349385Y47453295D01*
X21436739Y47336739D01*
X21553295Y47249385D01*
X21689684Y47198255D01*
X21700474Y47197083D01*
X21702606Y47196197D01*
X21705222Y47195575D01*
X21705121Y47195152D01*
X21766035Y47169845D01*
X21806463Y47111483D01*
X21808922Y47040529D01*
X21772629Y46979510D01*
X21763969Y46972511D01*
X21760207Y46969354D01*
X21755700Y46966198D01*
X21593802Y46804300D01*
X21462477Y46616749D01*
X21460154Y46611767D01*
X21460151Y46611762D01*
X21413169Y46511007D01*
X21365716Y46409243D01*
X21306457Y46188087D01*
X21286502Y45960000D01*
X21306457Y45731913D01*
X21307881Y45726600D01*
X21307881Y45726598D01*
X21347458Y45578898D01*
X21365716Y45510757D01*
X21368039Y45505776D01*
X21368039Y45505775D01*
X21460151Y45308238D01*
X21460154Y45308233D01*
X21462477Y45303251D01*
X21533291Y45202119D01*
X21542482Y45188993D01*
X21593802Y45115700D01*
X21755700Y44953802D01*
X21760208Y44950645D01*
X21760211Y44950643D01*
X21804892Y44919357D01*
X21943251Y44822477D01*
X21948233Y44820154D01*
X21948238Y44820151D01*
X21982457Y44804195D01*
X22035742Y44757278D01*
X22055203Y44689001D01*
X22034661Y44621041D01*
X21982457Y44575805D01*
X21948238Y44559849D01*
X21948233Y44559846D01*
X21943251Y44557523D01*
X21879663Y44512998D01*
X21760211Y44429357D01*
X21760208Y44429355D01*
X21755700Y44426198D01*
X21593802Y44264300D01*
X21462477Y44076749D01*
X21460154Y44071767D01*
X21460151Y44071762D01*
X21389340Y43919905D01*
X21365716Y43869243D01*
X21364294Y43863935D01*
X21364293Y43863933D01*
X21307881Y43653402D01*
X21306457Y43648087D01*
X21286502Y43420000D01*
X21306457Y43191913D01*
X21307881Y43186600D01*
X21307881Y43186598D01*
X21345433Y43046455D01*
X21365716Y42970757D01*
X21368039Y42965776D01*
X21368039Y42965775D01*
X21460151Y42768238D01*
X21460154Y42768233D01*
X21462477Y42763251D01*
X21515348Y42687744D01*
X21590610Y42580259D01*
X21593802Y42575700D01*
X21755700Y42413802D01*
X21760208Y42410645D01*
X21760211Y42410643D01*
X21782700Y42394896D01*
X21943251Y42282477D01*
X21948233Y42280154D01*
X21948238Y42280151D01*
X21982457Y42264195D01*
X22035742Y42217278D01*
X22055203Y42149001D01*
X22034661Y42081041D01*
X21982457Y42035805D01*
X21948238Y42019849D01*
X21948233Y42019846D01*
X21943251Y42017523D01*
X21879269Y41972722D01*
X21760211Y41889357D01*
X21760208Y41889355D01*
X21755700Y41886198D01*
X21593802Y41724300D01*
X21590645Y41719792D01*
X21590643Y41719789D01*
X21555533Y41669646D01*
X21462477Y41536749D01*
X21460154Y41531767D01*
X21460151Y41531762D01*
X21397118Y41396586D01*
X21365716Y41329243D01*
X21364294Y41323935D01*
X21364293Y41323933D01*
X21318190Y41151875D01*
X21306457Y41108087D01*
X21286502Y40880000D01*
X21306457Y40651913D01*
X21365716Y40430757D01*
X21368039Y40425776D01*
X21368039Y40425775D01*
X21460151Y40228238D01*
X21460154Y40228233D01*
X21462477Y40223251D01*
X21593802Y40035700D01*
X21755700Y39873802D01*
X21760208Y39870645D01*
X21760211Y39870643D01*
X21838389Y39815902D01*
X21943251Y39742477D01*
X21948233Y39740154D01*
X21948238Y39740151D01*
X21982457Y39724195D01*
X22035742Y39677278D01*
X22055203Y39609001D01*
X22034661Y39541041D01*
X21982457Y39495805D01*
X21948238Y39479849D01*
X21948233Y39479846D01*
X21943251Y39477523D01*
X21879269Y39432722D01*
X21760211Y39349357D01*
X21760208Y39349355D01*
X21755700Y39346198D01*
X21593802Y39184300D01*
X21590645Y39179792D01*
X21590643Y39179789D01*
X21480583Y39022607D01*
X21425126Y38978279D01*
X21385282Y38969127D01*
X21362963Y38967723D01*
X21362962Y38967723D01*
X21355050Y38967225D01*
X21347509Y38964775D01*
X21347213Y38964679D01*
X21324069Y38959506D01*
X21323765Y38959468D01*
X21323760Y38959467D01*
X21315903Y38958474D01*
X21308538Y38955558D01*
X21308534Y38955557D01*
X21263689Y38937801D01*
X21256270Y38935129D01*
X21202825Y38917764D01*
X21196129Y38913514D01*
X21196128Y38913514D01*
X21195869Y38913350D01*
X21174742Y38902585D01*
X21174454Y38902471D01*
X21174449Y38902468D01*
X21167083Y38899552D01*
X21160675Y38894896D01*
X21160669Y38894893D01*
X21121648Y38866542D01*
X21115111Y38862099D01*
X21067682Y38832000D01*
X21062256Y38826222D01*
X21062255Y38826221D01*
X21062041Y38825993D01*
X21044254Y38810312D01*
X21044009Y38810134D01*
X21044007Y38810132D01*
X21037593Y38805472D01*
X21032539Y38799363D01*
X21032538Y38799362D01*
X21001797Y38762204D01*
X20996566Y38756270D01*
X20963542Y38721102D01*
X20963540Y38721099D01*
X20958114Y38715321D01*
X20954145Y38708101D01*
X20940819Y38688494D01*
X20940620Y38688254D01*
X20940616Y38688247D01*
X20935567Y38682144D01*
X20916959Y38642600D01*
X20911653Y38631324D01*
X20908071Y38624292D01*
X20881005Y38575060D01*
X20879035Y38567385D01*
X20879032Y38567379D01*
X20878956Y38567081D01*
X20870924Y38544772D01*
X20870794Y38544497D01*
X20870791Y38544489D01*
X20867417Y38537318D01*
X20865931Y38529526D01*
X20856895Y38482157D01*
X20855171Y38474442D01*
X20841200Y38420030D01*
X20841200Y38411793D01*
X20838968Y38388184D01*
X20837425Y38380094D01*
X508500Y38380094D01*
X508500Y50413938D01*
X27778493Y50413938D01*
X27787789Y50401923D01*
X27838994Y50366069D01*
X27848489Y50360586D01*
X28045947Y50268510D01*
X28056239Y50264764D01*
X28266688Y50208375D01*
X28277481Y50206472D01*
X28494525Y50187483D01*
X28505475Y50187483D01*
X28722519Y50206472D01*
X28733312Y50208375D01*
X28943761Y50264764D01*
X28954053Y50268510D01*
X29151511Y50360586D01*
X29161006Y50366069D01*
X29213048Y50402509D01*
X29221424Y50412988D01*
X29214356Y50426434D01*
X28512812Y51127978D01*
X28498868Y51135592D01*
X28497035Y51135461D01*
X28490420Y51131210D01*
X27784923Y50425713D01*
X27778493Y50413938D01*
X508500Y50413938D01*
X508500Y51494525D01*
X27187483Y51494525D01*
X27206472Y51277481D01*
X27208375Y51266688D01*
X27264764Y51056239D01*
X27268510Y51045947D01*
X27360586Y50848489D01*
X27366069Y50838994D01*
X27402509Y50786952D01*
X27412988Y50778576D01*
X27426434Y50785644D01*
X28127978Y51487188D01*
X28135592Y51501132D01*
X28135461Y51502965D01*
X28131210Y51509580D01*
X27425713Y52215077D01*
X27413938Y52221507D01*
X27401923Y52212211D01*
X27366069Y52161006D01*
X27360586Y52151511D01*
X27268510Y51954053D01*
X27264764Y51943761D01*
X27208375Y51733312D01*
X27206472Y51722519D01*
X27187483Y51505475D01*
X27187483Y51494525D01*
X508500Y51494525D01*
X508500Y61651866D01*
X12191500Y61651866D01*
X12198255Y61589684D01*
X12249385Y61453295D01*
X12336739Y61336739D01*
X12453295Y61249385D01*
X12589684Y61198255D01*
X12651866Y61191500D01*
X14348134Y61191500D01*
X14410316Y61198255D01*
X14546705Y61249385D01*
X14663261Y61336739D01*
X14750615Y61453295D01*
X14801745Y61589684D01*
X14808500Y61651866D01*
X14808500Y63348134D01*
X14801745Y63410316D01*
X14750615Y63546705D01*
X14663261Y63663261D01*
X14546705Y63750615D01*
X14410316Y63801745D01*
X14366748Y63806478D01*
X14351514Y63808133D01*
X14351511Y63808133D01*
X14348134Y63808500D01*
X14344815Y63808500D01*
X14277890Y63832153D01*
X14242196Y63878156D01*
X14240266Y63877141D01*
X14234558Y63888000D01*
X14234368Y63888245D01*
X14234347Y63888403D01*
X14214356Y63926434D01*
X13512812Y64627978D01*
X13498868Y64635592D01*
X13497035Y64635461D01*
X13490420Y64631210D01*
X12784923Y63925713D01*
X12762129Y63883971D01*
X12759953Y63873971D01*
X12709747Y63823773D01*
X12656186Y63808549D01*
X12655281Y63808500D01*
X12651866Y63808500D01*
X12648470Y63808131D01*
X12648468Y63808131D01*
X12636121Y63806790D01*
X12589684Y63801745D01*
X12453295Y63750615D01*
X12336739Y63663261D01*
X12249385Y63546705D01*
X12198255Y63410316D01*
X12191500Y63348134D01*
X12191500Y61651866D01*
X508500Y61651866D01*
X508500Y64994525D01*
X12187483Y64994525D01*
X12206472Y64777481D01*
X12208375Y64766688D01*
X12264764Y64556239D01*
X12268510Y64545947D01*
X12360586Y64348489D01*
X12366069Y64338994D01*
X12402509Y64286952D01*
X12412988Y64278576D01*
X12426434Y64285644D01*
X13127978Y64987188D01*
X13134356Y64998868D01*
X13864408Y64998868D01*
X13864539Y64997035D01*
X13868790Y64990420D01*
X14574287Y64284923D01*
X14586062Y64278493D01*
X14598077Y64287789D01*
X14633931Y64338994D01*
X14639414Y64348489D01*
X14731490Y64545947D01*
X14735236Y64556239D01*
X14791625Y64766688D01*
X14793528Y64777481D01*
X14812517Y64994525D01*
X14812517Y65005475D01*
X14793528Y65222519D01*
X14791625Y65233312D01*
X14772198Y65305817D01*
X24664389Y65305817D01*
X24665912Y65297393D01*
X24678292Y65294000D01*
X25727885Y65294000D01*
X25743124Y65298475D01*
X25744329Y65299865D01*
X25746000Y65307548D01*
X25746000Y65312115D01*
X26254000Y65312115D01*
X26258475Y65296876D01*
X26259865Y65295671D01*
X26267548Y65294000D01*
X28267885Y65294000D01*
X28283124Y65298475D01*
X28284329Y65299865D01*
X28286000Y65307548D01*
X28286000Y66356898D01*
X28282082Y66370242D01*
X28267806Y66372229D01*
X28229324Y66366340D01*
X28219288Y66363949D01*
X28016868Y66297788D01*
X28007359Y66293791D01*
X27818463Y66195458D01*
X27809738Y66189964D01*
X27639433Y66062095D01*
X27631726Y66055252D01*
X27484590Y65901283D01*
X27478104Y65893273D01*
X27373193Y65739479D01*
X27318282Y65694476D01*
X27247757Y65686305D01*
X27184010Y65717559D01*
X27163313Y65742043D01*
X27082427Y65867074D01*
X27076136Y65875243D01*
X26932806Y66032760D01*
X26925273Y66039785D01*
X26758139Y66171778D01*
X26749552Y66177483D01*
X26563117Y66280401D01*
X26553705Y66284631D01*
X26352959Y66355720D01*
X26342988Y66358354D01*
X26271837Y66371028D01*
X26258540Y66369568D01*
X26254000Y66355011D01*
X26254000Y65312115D01*
X25746000Y65312115D01*
X25746000Y66356898D01*
X25742082Y66370242D01*
X25727806Y66372229D01*
X25689324Y66366340D01*
X25679288Y66363949D01*
X25476868Y66297788D01*
X25467359Y66293791D01*
X25278463Y66195458D01*
X25269738Y66189964D01*
X25099433Y66062095D01*
X25091726Y66055252D01*
X24944590Y65901283D01*
X24938104Y65893273D01*
X24818098Y65717351D01*
X24813000Y65708377D01*
X24723338Y65515217D01*
X24719775Y65505530D01*
X24664389Y65305817D01*
X14772198Y65305817D01*
X14735236Y65443761D01*
X14731490Y65454053D01*
X14639414Y65651511D01*
X14633931Y65661006D01*
X14597491Y65713048D01*
X14587012Y65721424D01*
X14573566Y65714356D01*
X13872022Y65012812D01*
X13864408Y64998868D01*
X13134356Y64998868D01*
X13135592Y65001132D01*
X13135461Y65002965D01*
X13131210Y65009580D01*
X12425713Y65715077D01*
X12413938Y65721507D01*
X12401923Y65712211D01*
X12366069Y65661006D01*
X12360586Y65651511D01*
X12268510Y65454053D01*
X12264764Y65443761D01*
X12208375Y65233312D01*
X12206472Y65222519D01*
X12187483Y65005475D01*
X12187483Y64994525D01*
X508500Y64994525D01*
X508500Y66087012D01*
X12778576Y66087012D01*
X12785644Y66073566D01*
X13487188Y65372022D01*
X13501132Y65364408D01*
X13502965Y65364539D01*
X13509580Y65368790D01*
X14215077Y66074287D01*
X14221507Y66086062D01*
X14212211Y66098077D01*
X14161006Y66133931D01*
X14151511Y66139414D01*
X13954053Y66231490D01*
X13943761Y66235236D01*
X13733312Y66291625D01*
X13722519Y66293528D01*
X13505475Y66312517D01*
X13494525Y66312517D01*
X13277481Y66293528D01*
X13266688Y66291625D01*
X13056239Y66235236D01*
X13045947Y66231490D01*
X12848489Y66139414D01*
X12838994Y66133931D01*
X12786952Y66097491D01*
X12778576Y66087012D01*
X508500Y66087012D01*
X508500Y70367297D01*
X3390743Y70367297D01*
X3428268Y70082266D01*
X3504129Y69804964D01*
X3616923Y69540524D01*
X3764561Y69293839D01*
X3944313Y69069472D01*
X4152851Y68871577D01*
X4386317Y68703814D01*
X4390112Y68701805D01*
X4390113Y68701804D01*
X4411869Y68690285D01*
X4640392Y68569288D01*
X4910373Y68470489D01*
X5191264Y68409245D01*
X5219841Y68406996D01*
X5414282Y68391693D01*
X5414291Y68391693D01*
X5416739Y68391500D01*
X5572271Y68391500D01*
X5574407Y68391646D01*
X5574418Y68391646D01*
X5782548Y68405835D01*
X5782554Y68405836D01*
X5786825Y68406127D01*
X5791020Y68406996D01*
X5791022Y68406996D01*
X5927583Y68435276D01*
X6068342Y68464426D01*
X6339343Y68560393D01*
X6594812Y68692250D01*
X6598313Y68694711D01*
X6598317Y68694713D01*
X6712417Y68774904D01*
X6830023Y68857559D01*
X7040622Y69053260D01*
X7222713Y69275732D01*
X7372927Y69520858D01*
X7488483Y69784102D01*
X7567244Y70060594D01*
X7607751Y70345216D01*
X7607845Y70363049D01*
X7607867Y70367297D01*
X92390743Y70367297D01*
X92428268Y70082266D01*
X92504129Y69804964D01*
X92616923Y69540524D01*
X92764561Y69293839D01*
X92944313Y69069472D01*
X93152851Y68871577D01*
X93386317Y68703814D01*
X93390112Y68701805D01*
X93390113Y68701804D01*
X93411869Y68690285D01*
X93640392Y68569288D01*
X93910373Y68470489D01*
X94191264Y68409245D01*
X94219841Y68406996D01*
X94414282Y68391693D01*
X94414291Y68391693D01*
X94416739Y68391500D01*
X94572271Y68391500D01*
X94574407Y68391646D01*
X94574418Y68391646D01*
X94782548Y68405835D01*
X94782554Y68405836D01*
X94786825Y68406127D01*
X94791020Y68406996D01*
X94791022Y68406996D01*
X94927583Y68435276D01*
X95068342Y68464426D01*
X95339343Y68560393D01*
X95594812Y68692250D01*
X95598313Y68694711D01*
X95598317Y68694713D01*
X95712417Y68774904D01*
X95830023Y68857559D01*
X96040622Y69053260D01*
X96222713Y69275732D01*
X96372927Y69520858D01*
X96488483Y69784102D01*
X96567244Y70060594D01*
X96607751Y70345216D01*
X96607845Y70363049D01*
X96609235Y70628417D01*
X96609235Y70628424D01*
X96609257Y70632703D01*
X96571732Y70917734D01*
X96495871Y71195036D01*
X96383077Y71459476D01*
X96235439Y71706161D01*
X96055687Y71930528D01*
X95847149Y72128423D01*
X95613683Y72296186D01*
X95591843Y72307750D01*
X95568654Y72320028D01*
X95359608Y72430712D01*
X95089627Y72529511D01*
X94808736Y72590755D01*
X94777685Y72593199D01*
X94585718Y72608307D01*
X94585709Y72608307D01*
X94583261Y72608500D01*
X94427729Y72608500D01*
X94425593Y72608354D01*
X94425582Y72608354D01*
X94217452Y72594165D01*
X94217446Y72594164D01*
X94213175Y72593873D01*
X94208980Y72593004D01*
X94208978Y72593004D01*
X94072417Y72564724D01*
X93931658Y72535574D01*
X93660657Y72439607D01*
X93405188Y72307750D01*
X93401687Y72305289D01*
X93401683Y72305287D01*
X93391594Y72298196D01*
X93169977Y72142441D01*
X92959378Y71946740D01*
X92777287Y71724268D01*
X92627073Y71479142D01*
X92511517Y71215898D01*
X92432756Y70939406D01*
X92392249Y70654784D01*
X92392227Y70650495D01*
X92392226Y70650488D01*
X92390765Y70371583D01*
X92390743Y70367297D01*
X7607867Y70367297D01*
X7609235Y70628417D01*
X7609235Y70628424D01*
X7609257Y70632703D01*
X7571732Y70917734D01*
X7495871Y71195036D01*
X7383077Y71459476D01*
X7235439Y71706161D01*
X7055687Y71930528D01*
X6847149Y72128423D01*
X6613683Y72296186D01*
X6591843Y72307750D01*
X6568654Y72320028D01*
X6359608Y72430712D01*
X6089627Y72529511D01*
X5808736Y72590755D01*
X5777685Y72593199D01*
X5585718Y72608307D01*
X5585709Y72608307D01*
X5583261Y72608500D01*
X5427729Y72608500D01*
X5425593Y72608354D01*
X5425582Y72608354D01*
X5217452Y72594165D01*
X5217446Y72594164D01*
X5213175Y72593873D01*
X5208980Y72593004D01*
X5208978Y72593004D01*
X5072417Y72564724D01*
X4931658Y72535574D01*
X4660657Y72439607D01*
X4405188Y72307750D01*
X4401687Y72305289D01*
X4401683Y72305287D01*
X4391594Y72298196D01*
X4169977Y72142441D01*
X3959378Y71946740D01*
X3777287Y71724268D01*
X3627073Y71479142D01*
X3511517Y71215898D01*
X3432756Y70939406D01*
X3392249Y70654784D01*
X3392227Y70650495D01*
X3392226Y70650488D01*
X3390765Y70371583D01*
X3390743Y70367297D01*
X508500Y70367297D01*
X508500Y74365500D01*
X528502Y74433621D01*
X582158Y74480114D01*
X634500Y74491500D01*
X99365500Y74491500D01*
X99433621Y74471498D01*
G37*
G04 #@! TD.AperFunction*
G04 #@! TA.AperFunction,Conductor*
G36*
X38967327Y16170398D02*
G01*
X38988301Y16153495D01*
X40105556Y15036239D01*
X41186648Y13955147D01*
X41194188Y13946861D01*
X41198300Y13940382D01*
X41204077Y13934957D01*
X41247951Y13893757D01*
X41250793Y13891002D01*
X41270530Y13871265D01*
X41273727Y13868785D01*
X41282747Y13861082D01*
X41314979Y13830814D01*
X41321925Y13826995D01*
X41321928Y13826993D01*
X41332734Y13821052D01*
X41349253Y13810201D01*
X41365259Y13797786D01*
X41372528Y13794641D01*
X41372532Y13794638D01*
X41405837Y13780226D01*
X41416487Y13775009D01*
X41455240Y13753705D01*
X41462915Y13751734D01*
X41462916Y13751734D01*
X41474862Y13748667D01*
X41493567Y13742263D01*
X41512155Y13734219D01*
X41519978Y13732980D01*
X41519988Y13732977D01*
X41555824Y13727301D01*
X41567444Y13724895D01*
X41599259Y13716727D01*
X41610270Y13713900D01*
X41630524Y13713900D01*
X41650234Y13712349D01*
X41670243Y13709180D01*
X41678135Y13709926D01*
X41696880Y13711698D01*
X41714262Y13713341D01*
X41726119Y13713900D01*
X53860533Y13713900D01*
X53871716Y13713373D01*
X53879209Y13711698D01*
X53887135Y13711947D01*
X53887136Y13711947D01*
X53947286Y13713838D01*
X53951245Y13713900D01*
X53979156Y13713900D01*
X53983091Y13714397D01*
X53983156Y13714405D01*
X53994993Y13715338D01*
X54027251Y13716352D01*
X54031270Y13716478D01*
X54039189Y13716727D01*
X54058643Y13722379D01*
X54078000Y13726387D01*
X54090230Y13727932D01*
X54090231Y13727932D01*
X54098097Y13728926D01*
X54105468Y13731845D01*
X54105470Y13731845D01*
X54139212Y13745204D01*
X54150442Y13749049D01*
X54185283Y13759171D01*
X54185284Y13759171D01*
X54192893Y13761382D01*
X54199712Y13765415D01*
X54199717Y13765417D01*
X54210328Y13771693D01*
X54228076Y13780388D01*
X54246917Y13787848D01*
X54282687Y13813836D01*
X54292607Y13820352D01*
X54323835Y13838820D01*
X54323838Y13838822D01*
X54330662Y13842858D01*
X54344983Y13857179D01*
X54360017Y13870020D01*
X54369994Y13877269D01*
X54376407Y13881928D01*
X54404598Y13916005D01*
X54412588Y13924784D01*
X56457400Y15969595D01*
X56519712Y16003621D01*
X56546495Y16006500D01*
X57210255Y16006500D01*
X57278376Y15986498D01*
X57324869Y15932842D01*
X57334973Y15862568D01*
X57324448Y15827247D01*
X57320716Y15819243D01*
X57319294Y15813935D01*
X57319293Y15813933D01*
X57264113Y15608000D01*
X57261457Y15598087D01*
X57241502Y15370000D01*
X57261457Y15141913D01*
X57262881Y15136600D01*
X57262881Y15136598D01*
X57304601Y14980900D01*
X57320716Y14920757D01*
X57323039Y14915776D01*
X57323039Y14915775D01*
X57415151Y14718238D01*
X57415154Y14718233D01*
X57417477Y14713251D01*
X57548802Y14525700D01*
X57710700Y14363802D01*
X57715208Y14360645D01*
X57715211Y14360643D01*
X57793389Y14305902D01*
X57898251Y14232477D01*
X57903233Y14230154D01*
X57903238Y14230151D01*
X57937457Y14214195D01*
X57990742Y14167278D01*
X58010203Y14099001D01*
X57989661Y14031041D01*
X57937457Y13985805D01*
X57903238Y13969849D01*
X57903233Y13969846D01*
X57898251Y13967523D01*
X57871658Y13948902D01*
X57715211Y13839357D01*
X57715208Y13839355D01*
X57710700Y13836198D01*
X57548802Y13674300D01*
X57417477Y13486749D01*
X57415154Y13481767D01*
X57415151Y13481762D01*
X57323039Y13284225D01*
X57320716Y13279243D01*
X57261457Y13058087D01*
X57241502Y12830000D01*
X57261457Y12601913D01*
X57262881Y12596600D01*
X57262881Y12596598D01*
X57300766Y12455211D01*
X57299076Y12384235D01*
X57259282Y12325439D01*
X57194018Y12297491D01*
X57179059Y12296600D01*
X37493294Y12296600D01*
X37425173Y12316602D01*
X37404199Y12333505D01*
X35741632Y13996072D01*
X35707606Y14058384D01*
X35712671Y14129199D01*
X35735503Y14167680D01*
X35744329Y14177865D01*
X35746000Y14185548D01*
X35746000Y14190115D01*
X36254000Y14190115D01*
X36258475Y14174876D01*
X36259865Y14173671D01*
X36267548Y14172000D01*
X36454365Y14172000D01*
X36459830Y14172238D01*
X36622519Y14186472D01*
X36633312Y14188375D01*
X36843761Y14244764D01*
X36854053Y14248510D01*
X37051511Y14340586D01*
X37061007Y14346069D01*
X37239467Y14471028D01*
X37247875Y14478084D01*
X37401916Y14632125D01*
X37408972Y14640533D01*
X37533931Y14818993D01*
X37539414Y14828489D01*
X37631490Y15025947D01*
X37635236Y15036239D01*
X37681394Y15208503D01*
X37681058Y15222599D01*
X37673116Y15226000D01*
X36272115Y15226000D01*
X36256876Y15221525D01*
X36255671Y15220135D01*
X36254000Y15212452D01*
X36254000Y14190115D01*
X35746000Y14190115D01*
X35746000Y15608000D01*
X35766002Y15676121D01*
X35819658Y15722614D01*
X35872000Y15734000D01*
X37667967Y15734000D01*
X37681498Y15737973D01*
X37682727Y15746522D01*
X37635236Y15923761D01*
X37631490Y15934053D01*
X37595539Y16011150D01*
X37584878Y16081342D01*
X37613858Y16146154D01*
X37673278Y16185011D01*
X37709734Y16190400D01*
X38899206Y16190400D01*
X38967327Y16170398D01*
G37*
G04 #@! TD.AperFunction*
G04 #@! TA.AperFunction,Conductor*
G36*
X55292026Y61824856D02*
G01*
X55319875Y61793006D01*
X55379987Y61694912D01*
X55526250Y61526062D01*
X55557019Y61500518D01*
X55561524Y61496777D01*
X55601159Y61437873D01*
X55602656Y61366892D01*
X55570133Y61310738D01*
X54785947Y60526552D01*
X54777661Y60519012D01*
X54771182Y60514900D01*
X54765757Y60509123D01*
X54724557Y60465249D01*
X54721802Y60462407D01*
X54702065Y60442670D01*
X54699585Y60439473D01*
X54691882Y60430453D01*
X54661614Y60398221D01*
X54657795Y60391275D01*
X54657793Y60391272D01*
X54651852Y60380466D01*
X54641001Y60363947D01*
X54628586Y60347941D01*
X54625441Y60340672D01*
X54625438Y60340668D01*
X54611026Y60307363D01*
X54605809Y60296713D01*
X54584505Y60257960D01*
X54582534Y60250285D01*
X54582534Y60250284D01*
X54579467Y60238338D01*
X54573063Y60219634D01*
X54565019Y60201045D01*
X54563780Y60193222D01*
X54563777Y60193212D01*
X54558101Y60157376D01*
X54555695Y60145756D01*
X54544700Y60102930D01*
X54544700Y60082676D01*
X54543149Y60062966D01*
X54539980Y60042957D01*
X54540726Y60035065D01*
X54544141Y59998939D01*
X54544700Y59987081D01*
X54544700Y24305567D01*
X54544173Y24294384D01*
X54542498Y24286891D01*
X54542747Y24278965D01*
X54542747Y24278964D01*
X54544638Y24218814D01*
X54544700Y24214855D01*
X54544700Y24186944D01*
X54545197Y24183010D01*
X54545197Y24183009D01*
X54545205Y24182944D01*
X54546138Y24171107D01*
X54547527Y24126911D01*
X54552627Y24109357D01*
X54553178Y24107461D01*
X54557187Y24088100D01*
X54559726Y24068002D01*
X54557564Y24067729D01*
X54555518Y24007975D01*
X54515114Y23949597D01*
X54449562Y23922330D01*
X54379674Y23934832D01*
X54346812Y23958493D01*
X53435705Y24869600D01*
X53401679Y24931912D01*
X53398800Y24958695D01*
X53398800Y33188207D01*
X53401032Y33211816D01*
X53401090Y33212119D01*
X53401090Y33212123D01*
X53402575Y33219906D01*
X53399049Y33275951D01*
X53398800Y33283862D01*
X53398800Y33299856D01*
X53396794Y33315730D01*
X53396051Y33323598D01*
X53393023Y33371737D01*
X53393023Y33371738D01*
X53392525Y33379650D01*
X53389979Y33387487D01*
X53384806Y33410631D01*
X53384768Y33410935D01*
X53384767Y33410940D01*
X53383774Y33418797D01*
X53380858Y33426162D01*
X53380857Y33426166D01*
X53363101Y33471011D01*
X53360429Y33478430D01*
X53343064Y33531875D01*
X53338814Y33538572D01*
X53338650Y33538831D01*
X53327885Y33559958D01*
X53327771Y33560246D01*
X53327768Y33560251D01*
X53324852Y33567617D01*
X53320196Y33574025D01*
X53320193Y33574031D01*
X53291842Y33613052D01*
X53287392Y33619599D01*
X53257300Y33667018D01*
X53251293Y33672659D01*
X53235612Y33690446D01*
X53235434Y33690691D01*
X53235432Y33690693D01*
X53230772Y33697107D01*
X53222521Y33703933D01*
X53187504Y33732903D01*
X53181570Y33738134D01*
X53146402Y33771158D01*
X53146399Y33771160D01*
X53140621Y33776586D01*
X53133397Y33780558D01*
X53113794Y33793881D01*
X53113554Y33794080D01*
X53113547Y33794084D01*
X53107444Y33799133D01*
X53056624Y33823047D01*
X53049592Y33826629D01*
X53000360Y33853695D01*
X52992685Y33855665D01*
X52992679Y33855668D01*
X52992381Y33855744D01*
X52970072Y33863776D01*
X52969797Y33863906D01*
X52969789Y33863909D01*
X52962618Y33867283D01*
X52907451Y33877806D01*
X52899742Y33879529D01*
X52845330Y33893500D01*
X52842773Y33893500D01*
X52779887Y33920928D01*
X52757545Y33945280D01*
X52738411Y33972607D01*
X52703757Y34022098D01*
X52649357Y34099789D01*
X52649355Y34099792D01*
X52646198Y34104300D01*
X52484300Y34266198D01*
X52479792Y34269355D01*
X52479789Y34269357D01*
X52363132Y34351041D01*
X52296749Y34397523D01*
X52291767Y34399846D01*
X52291762Y34399849D01*
X52257543Y34415805D01*
X52204258Y34462722D01*
X52184797Y34530999D01*
X52205339Y34598959D01*
X52257543Y34644195D01*
X52291762Y34660151D01*
X52291767Y34660154D01*
X52296749Y34662477D01*
X52435108Y34759357D01*
X52479789Y34790643D01*
X52479792Y34790645D01*
X52484300Y34793802D01*
X52646198Y34955700D01*
X52777523Y35143251D01*
X52779846Y35148233D01*
X52779849Y35148238D01*
X52871961Y35345775D01*
X52871961Y35345776D01*
X52874284Y35350757D01*
X52892543Y35418898D01*
X52932119Y35566598D01*
X52932119Y35566600D01*
X52933543Y35571913D01*
X52953498Y35800000D01*
X52933543Y36028087D01*
X52932119Y36033402D01*
X52875707Y36243933D01*
X52875706Y36243935D01*
X52874284Y36249243D01*
X52828817Y36346749D01*
X52779849Y36451762D01*
X52779846Y36451767D01*
X52777523Y36456749D01*
X52646198Y36644300D01*
X52484300Y36806198D01*
X52479792Y36809355D01*
X52479789Y36809357D01*
X52360731Y36892722D01*
X52296749Y36937523D01*
X52291767Y36939846D01*
X52291762Y36939849D01*
X52257543Y36955805D01*
X52204258Y37002722D01*
X52184797Y37070999D01*
X52205339Y37138959D01*
X52257543Y37184195D01*
X52291762Y37200151D01*
X52291767Y37200154D01*
X52296749Y37202477D01*
X52401611Y37275902D01*
X52479789Y37330643D01*
X52479792Y37330645D01*
X52484300Y37333802D01*
X52646198Y37495700D01*
X52777523Y37683251D01*
X52779846Y37688233D01*
X52779849Y37688238D01*
X52871961Y37885775D01*
X52871961Y37885776D01*
X52874284Y37890757D01*
X52904069Y38001913D01*
X52932119Y38106598D01*
X52932119Y38106600D01*
X52933543Y38111913D01*
X52953498Y38340000D01*
X52933543Y38568087D01*
X52929814Y38582003D01*
X52875707Y38783933D01*
X52875706Y38783935D01*
X52874284Y38789243D01*
X52871961Y38794225D01*
X52779849Y38991762D01*
X52779846Y38991767D01*
X52777523Y38996749D01*
X52646198Y39184300D01*
X52484300Y39346198D01*
X52479792Y39349355D01*
X52479789Y39349357D01*
X52360731Y39432722D01*
X52296749Y39477523D01*
X52291767Y39479846D01*
X52291762Y39479849D01*
X52257543Y39495805D01*
X52204258Y39542722D01*
X52184797Y39610999D01*
X52205339Y39678959D01*
X52257543Y39724195D01*
X52291762Y39740151D01*
X52291767Y39740154D01*
X52296749Y39742477D01*
X52401611Y39815902D01*
X52479789Y39870643D01*
X52479792Y39870645D01*
X52484300Y39873802D01*
X52646198Y40035700D01*
X52777523Y40223251D01*
X52779846Y40228233D01*
X52779849Y40228238D01*
X52871961Y40425775D01*
X52871961Y40425776D01*
X52874284Y40430757D01*
X52933543Y40651913D01*
X52953498Y40880000D01*
X52933543Y41108087D01*
X52921810Y41151875D01*
X52875707Y41323933D01*
X52875706Y41323935D01*
X52874284Y41329243D01*
X52842882Y41396586D01*
X52779849Y41531762D01*
X52779846Y41531767D01*
X52777523Y41536749D01*
X52684467Y41669646D01*
X52649357Y41719789D01*
X52649355Y41719792D01*
X52646198Y41724300D01*
X52484300Y41886198D01*
X52479792Y41889355D01*
X52479789Y41889357D01*
X52360731Y41972722D01*
X52296749Y42017523D01*
X52291767Y42019846D01*
X52291762Y42019849D01*
X52257543Y42035805D01*
X52204258Y42082722D01*
X52184797Y42150999D01*
X52205339Y42218959D01*
X52257543Y42264195D01*
X52291762Y42280151D01*
X52291767Y42280154D01*
X52296749Y42282477D01*
X52457300Y42394896D01*
X52479789Y42410643D01*
X52479792Y42410645D01*
X52484300Y42413802D01*
X52646198Y42575700D01*
X52649391Y42580259D01*
X52724652Y42687744D01*
X52777523Y42763251D01*
X52779846Y42768233D01*
X52779849Y42768238D01*
X52871961Y42965775D01*
X52871961Y42965776D01*
X52874284Y42970757D01*
X52894568Y43046455D01*
X52932119Y43186598D01*
X52932119Y43186600D01*
X52933543Y43191913D01*
X52953498Y43420000D01*
X52933543Y43648087D01*
X52932119Y43653402D01*
X52875707Y43863933D01*
X52875706Y43863935D01*
X52874284Y43869243D01*
X52850660Y43919905D01*
X52779849Y44071762D01*
X52779846Y44071767D01*
X52777523Y44076749D01*
X52646198Y44264300D01*
X52484300Y44426198D01*
X52479792Y44429355D01*
X52479789Y44429357D01*
X52360337Y44512998D01*
X52296749Y44557523D01*
X52291767Y44559846D01*
X52291762Y44559849D01*
X52257543Y44575805D01*
X52204258Y44622722D01*
X52184797Y44690999D01*
X52205339Y44758959D01*
X52257543Y44804195D01*
X52291762Y44820151D01*
X52291767Y44820154D01*
X52296749Y44822477D01*
X52435108Y44919357D01*
X52479789Y44950643D01*
X52479792Y44950645D01*
X52484300Y44953802D01*
X52646198Y45115700D01*
X52697519Y45188993D01*
X52706709Y45202119D01*
X52777523Y45303251D01*
X52779846Y45308233D01*
X52779849Y45308238D01*
X52871961Y45505775D01*
X52871961Y45505776D01*
X52874284Y45510757D01*
X52892543Y45578898D01*
X52932119Y45726598D01*
X52932119Y45726600D01*
X52933543Y45731913D01*
X52953498Y45960000D01*
X52933543Y46188087D01*
X52874284Y46409243D01*
X52826831Y46511007D01*
X52779849Y46611762D01*
X52779846Y46611767D01*
X52777523Y46616749D01*
X52646198Y46804300D01*
X52484300Y46966198D01*
X52479792Y46969355D01*
X52479789Y46969357D01*
X52401611Y47024098D01*
X52296749Y47097523D01*
X52291767Y47099846D01*
X52291762Y47099849D01*
X52257543Y47115805D01*
X52204258Y47162722D01*
X52184797Y47230999D01*
X52205339Y47298959D01*
X52257543Y47344195D01*
X52291762Y47360151D01*
X52291767Y47360154D01*
X52296749Y47362477D01*
X52453571Y47472285D01*
X52479789Y47490643D01*
X52479792Y47490645D01*
X52484300Y47493802D01*
X52646198Y47655700D01*
X52662050Y47678338D01*
X52721065Y47762621D01*
X52777523Y47843251D01*
X52779846Y47848233D01*
X52779849Y47848238D01*
X52871961Y48045775D01*
X52871961Y48045776D01*
X52874284Y48050757D01*
X52892312Y48118036D01*
X52932119Y48266598D01*
X52932119Y48266600D01*
X52933543Y48271913D01*
X52953498Y48500000D01*
X52933543Y48728087D01*
X52921810Y48771875D01*
X52875707Y48943933D01*
X52875706Y48943935D01*
X52874284Y48949243D01*
X52842882Y49016586D01*
X52779849Y49151762D01*
X52779846Y49151767D01*
X52777523Y49156749D01*
X52646198Y49344300D01*
X52484300Y49506198D01*
X52479792Y49509355D01*
X52479789Y49509357D01*
X52416188Y49553891D01*
X52362228Y49591674D01*
X52317901Y49647130D01*
X52308500Y49694886D01*
X52308500Y50405812D01*
X52328502Y50473933D01*
X52345405Y50494907D01*
X52506198Y50655700D01*
X52637523Y50843251D01*
X52639846Y50848233D01*
X52639849Y50848238D01*
X52731961Y51045775D01*
X52731961Y51045776D01*
X52734284Y51050757D01*
X52754976Y51127978D01*
X52792119Y51266598D01*
X52792119Y51266600D01*
X52793543Y51271913D01*
X52813498Y51500000D01*
X52793543Y51728087D01*
X52756981Y51864539D01*
X52735707Y51943933D01*
X52735706Y51943935D01*
X52734284Y51949243D01*
X52701802Y52018901D01*
X52639849Y52151762D01*
X52639846Y52151767D01*
X52637523Y52156749D01*
X52506198Y52344300D01*
X52344300Y52506198D01*
X52339792Y52509355D01*
X52339789Y52509357D01*
X52213920Y52597491D01*
X52156749Y52637523D01*
X52151767Y52639846D01*
X52151762Y52639849D01*
X51954225Y52731961D01*
X51954224Y52731961D01*
X51949243Y52734284D01*
X51943935Y52735706D01*
X51943933Y52735707D01*
X51733402Y52792119D01*
X51733400Y52792119D01*
X51728087Y52793543D01*
X51500000Y52813498D01*
X51271913Y52793543D01*
X51266600Y52792119D01*
X51266598Y52792119D01*
X51056067Y52735707D01*
X51056065Y52735706D01*
X51050757Y52734284D01*
X51045776Y52731961D01*
X51045775Y52731961D01*
X50848238Y52639849D01*
X50848233Y52639846D01*
X50843251Y52637523D01*
X50786080Y52597491D01*
X50660211Y52509357D01*
X50660208Y52509355D01*
X50655700Y52506198D01*
X50493802Y52344300D01*
X50362477Y52156749D01*
X50360153Y52151765D01*
X50358829Y52149472D01*
X50307447Y52100479D01*
X50237733Y52087043D01*
X50171822Y52113429D01*
X50140591Y52149472D01*
X50133934Y52161002D01*
X50097491Y52213048D01*
X50087012Y52221424D01*
X50073566Y52214356D01*
X49372022Y51512812D01*
X49364408Y51498868D01*
X49364539Y51497035D01*
X49368790Y51490420D01*
X50074287Y50784923D01*
X50086062Y50778493D01*
X50098077Y50787789D01*
X50133934Y50838998D01*
X50140591Y50850528D01*
X50191973Y50899521D01*
X50261687Y50912958D01*
X50327598Y50886571D01*
X50358829Y50850528D01*
X50360153Y50848235D01*
X50362477Y50843251D01*
X50493802Y50655700D01*
X50654595Y50494907D01*
X50688621Y50432595D01*
X50691500Y50405812D01*
X50691500Y49911552D01*
X50671498Y49843431D01*
X50617842Y49796938D01*
X50598112Y49789845D01*
X50390757Y49734284D01*
X50385776Y49731961D01*
X50385775Y49731961D01*
X50188238Y49639849D01*
X50188233Y49639846D01*
X50183251Y49637523D01*
X50117771Y49591673D01*
X50000211Y49509357D01*
X50000208Y49509355D01*
X49995700Y49506198D01*
X49833802Y49344300D01*
X49702477Y49156749D01*
X49700154Y49151767D01*
X49700151Y49151762D01*
X49637118Y49016586D01*
X49605716Y48949243D01*
X49604294Y48943935D01*
X49604293Y48943933D01*
X49558190Y48771875D01*
X49546457Y48728087D01*
X49526502Y48500000D01*
X49546457Y48271913D01*
X49547881Y48266600D01*
X49547881Y48266598D01*
X49587689Y48118036D01*
X49605716Y48050757D01*
X49608039Y48045776D01*
X49608039Y48045775D01*
X49700151Y47848238D01*
X49700154Y47848233D01*
X49702477Y47843251D01*
X49758935Y47762621D01*
X49817951Y47678338D01*
X49833802Y47655700D01*
X49995700Y47493802D01*
X50000208Y47490645D01*
X50000211Y47490643D01*
X50026429Y47472285D01*
X50183251Y47362477D01*
X50188233Y47360154D01*
X50188238Y47360151D01*
X50222457Y47344195D01*
X50275742Y47297278D01*
X50295203Y47229001D01*
X50274661Y47161041D01*
X50222457Y47115805D01*
X50188238Y47099849D01*
X50188233Y47099846D01*
X50183251Y47097523D01*
X50078389Y47024098D01*
X50000211Y46969357D01*
X50000208Y46969355D01*
X49995700Y46966198D01*
X49833802Y46804300D01*
X49702477Y46616749D01*
X49700154Y46611767D01*
X49700151Y46611762D01*
X49653169Y46511007D01*
X49605716Y46409243D01*
X49546457Y46188087D01*
X49526502Y45960000D01*
X49546457Y45731913D01*
X49547881Y45726600D01*
X49547881Y45726598D01*
X49587458Y45578898D01*
X49605716Y45510757D01*
X49608039Y45505776D01*
X49608039Y45505775D01*
X49700151Y45308238D01*
X49700154Y45308233D01*
X49702477Y45303251D01*
X49773291Y45202119D01*
X49782482Y45188993D01*
X49833802Y45115700D01*
X49995700Y44953802D01*
X50000208Y44950645D01*
X50000211Y44950643D01*
X50044892Y44919357D01*
X50183251Y44822477D01*
X50188233Y44820154D01*
X50188238Y44820151D01*
X50222457Y44804195D01*
X50275742Y44757278D01*
X50295203Y44689001D01*
X50274661Y44621041D01*
X50222457Y44575805D01*
X50188238Y44559849D01*
X50188233Y44559846D01*
X50183251Y44557523D01*
X50119663Y44512998D01*
X50000211Y44429357D01*
X50000208Y44429355D01*
X49995700Y44426198D01*
X49833802Y44264300D01*
X49702477Y44076749D01*
X49700154Y44071767D01*
X49700151Y44071762D01*
X49629340Y43919905D01*
X49605716Y43869243D01*
X49604294Y43863935D01*
X49604293Y43863933D01*
X49547881Y43653402D01*
X49546457Y43648087D01*
X49526502Y43420000D01*
X49546457Y43191913D01*
X49547881Y43186600D01*
X49547881Y43186598D01*
X49585433Y43046455D01*
X49605716Y42970757D01*
X49608039Y42965776D01*
X49608039Y42965775D01*
X49700151Y42768238D01*
X49700154Y42768233D01*
X49702477Y42763251D01*
X49755348Y42687744D01*
X49830610Y42580259D01*
X49833802Y42575700D01*
X49995700Y42413802D01*
X50000208Y42410645D01*
X50000211Y42410643D01*
X50022700Y42394896D01*
X50183251Y42282477D01*
X50188233Y42280154D01*
X50188238Y42280151D01*
X50222457Y42264195D01*
X50275742Y42217278D01*
X50295203Y42149001D01*
X50274661Y42081041D01*
X50222457Y42035805D01*
X50188238Y42019849D01*
X50188233Y42019846D01*
X50183251Y42017523D01*
X50119269Y41972722D01*
X50000211Y41889357D01*
X50000208Y41889355D01*
X49995700Y41886198D01*
X49833802Y41724300D01*
X49830645Y41719792D01*
X49830643Y41719789D01*
X49795533Y41669646D01*
X49702477Y41536749D01*
X49700154Y41531767D01*
X49700151Y41531762D01*
X49637118Y41396586D01*
X49605716Y41329243D01*
X49604294Y41323935D01*
X49604293Y41323933D01*
X49558190Y41151875D01*
X49546457Y41108087D01*
X49526502Y40880000D01*
X49546457Y40651913D01*
X49605716Y40430757D01*
X49608039Y40425776D01*
X49608039Y40425775D01*
X49700151Y40228238D01*
X49700154Y40228233D01*
X49702477Y40223251D01*
X49833802Y40035700D01*
X49995700Y39873802D01*
X50000208Y39870645D01*
X50000211Y39870643D01*
X50078389Y39815902D01*
X50183251Y39742477D01*
X50188233Y39740154D01*
X50188238Y39740151D01*
X50222457Y39724195D01*
X50275742Y39677278D01*
X50295203Y39609001D01*
X50274661Y39541041D01*
X50222457Y39495805D01*
X50188238Y39479849D01*
X50188233Y39479846D01*
X50183251Y39477523D01*
X50119269Y39432722D01*
X50000211Y39349357D01*
X50000208Y39349355D01*
X49995700Y39346198D01*
X49833802Y39184300D01*
X49702477Y38996749D01*
X49700154Y38991767D01*
X49700151Y38991762D01*
X49608039Y38794225D01*
X49605716Y38789243D01*
X49604294Y38783935D01*
X49604293Y38783933D01*
X49550186Y38582003D01*
X49546457Y38568087D01*
X49526502Y38340000D01*
X49546457Y38111913D01*
X49547881Y38106600D01*
X49547881Y38106598D01*
X49575932Y38001913D01*
X49605716Y37890757D01*
X49608039Y37885776D01*
X49608039Y37885775D01*
X49700151Y37688238D01*
X49700154Y37688233D01*
X49702477Y37683251D01*
X49833802Y37495700D01*
X49995700Y37333802D01*
X50000208Y37330645D01*
X50000211Y37330643D01*
X50078389Y37275902D01*
X50183251Y37202477D01*
X50188233Y37200154D01*
X50188238Y37200151D01*
X50222457Y37184195D01*
X50275742Y37137278D01*
X50295203Y37069001D01*
X50274661Y37001041D01*
X50222457Y36955805D01*
X50188238Y36939849D01*
X50188233Y36939846D01*
X50183251Y36937523D01*
X50119269Y36892722D01*
X50000211Y36809357D01*
X50000208Y36809355D01*
X49995700Y36806198D01*
X49833802Y36644300D01*
X49702477Y36456749D01*
X49700154Y36451767D01*
X49700151Y36451762D01*
X49651183Y36346749D01*
X49605716Y36249243D01*
X49604294Y36243935D01*
X49604293Y36243933D01*
X49547881Y36033402D01*
X49546457Y36028087D01*
X49526502Y35800000D01*
X49546457Y35571913D01*
X49547881Y35566600D01*
X49547881Y35566598D01*
X49587458Y35418898D01*
X49605716Y35350757D01*
X49608039Y35345776D01*
X49608039Y35345775D01*
X49700151Y35148238D01*
X49700154Y35148233D01*
X49702477Y35143251D01*
X49833802Y34955700D01*
X49995700Y34793802D01*
X50000208Y34790645D01*
X50000211Y34790643D01*
X50044892Y34759357D01*
X50183251Y34662477D01*
X50188233Y34660154D01*
X50188238Y34660151D01*
X50222457Y34644195D01*
X50275742Y34597278D01*
X50295203Y34529001D01*
X50274661Y34461041D01*
X50222457Y34415805D01*
X50188238Y34399849D01*
X50188233Y34399846D01*
X50183251Y34397523D01*
X50116868Y34351041D01*
X50000211Y34269357D01*
X50000208Y34269355D01*
X49995700Y34266198D01*
X49889148Y34159646D01*
X49826836Y34125620D01*
X49756021Y34130685D01*
X49710958Y34159646D01*
X48165705Y35704900D01*
X48131679Y35767212D01*
X48128800Y35793995D01*
X48128800Y50271204D01*
X48148802Y50339325D01*
X48202458Y50385818D01*
X48272732Y50395922D01*
X48327070Y50374417D01*
X48338988Y50366072D01*
X48348489Y50360586D01*
X48545947Y50268510D01*
X48556239Y50264764D01*
X48766688Y50208375D01*
X48777481Y50206472D01*
X48994525Y50187483D01*
X49005475Y50187483D01*
X49222519Y50206472D01*
X49233312Y50208375D01*
X49443761Y50264764D01*
X49454053Y50268510D01*
X49651511Y50360586D01*
X49661006Y50366069D01*
X49713048Y50402509D01*
X49721424Y50412988D01*
X49714356Y50426434D01*
X48729885Y51410905D01*
X48695859Y51473217D01*
X48700924Y51544032D01*
X48729885Y51589095D01*
X49715077Y52574287D01*
X49721507Y52586062D01*
X49712211Y52598077D01*
X49661006Y52633931D01*
X49651511Y52639414D01*
X49454053Y52731490D01*
X49443761Y52735236D01*
X49233312Y52791625D01*
X49222519Y52793528D01*
X49005475Y52812517D01*
X48994525Y52812517D01*
X48777481Y52793528D01*
X48766688Y52791625D01*
X48556239Y52735236D01*
X48545947Y52731490D01*
X48348489Y52639414D01*
X48338988Y52633928D01*
X48327070Y52625583D01*
X48259796Y52602895D01*
X48190936Y52620180D01*
X48142352Y52671950D01*
X48128800Y52728796D01*
X48128800Y61141974D01*
X48148802Y61210095D01*
X48202458Y61256588D01*
X48272732Y61266692D01*
X48299747Y61259684D01*
X48479692Y61190970D01*
X48484760Y61189939D01*
X48484763Y61189938D01*
X48563436Y61173932D01*
X48698597Y61146433D01*
X48703772Y61146243D01*
X48703774Y61146243D01*
X48916673Y61138436D01*
X48916677Y61138436D01*
X48921837Y61138247D01*
X48926957Y61138903D01*
X48926959Y61138903D01*
X49138288Y61165975D01*
X49138289Y61165975D01*
X49143416Y61166632D01*
X49167748Y61173932D01*
X49352429Y61229339D01*
X49352434Y61229341D01*
X49357384Y61230826D01*
X49557994Y61329104D01*
X49739860Y61458827D01*
X49898096Y61616511D01*
X50028453Y61797923D01*
X50029776Y61796972D01*
X50076645Y61840143D01*
X50146580Y61852375D01*
X50212026Y61824856D01*
X50239875Y61793006D01*
X50299987Y61694912D01*
X50446250Y61526062D01*
X50618126Y61383368D01*
X50811000Y61270662D01*
X51019692Y61190970D01*
X51024760Y61189939D01*
X51024763Y61189938D01*
X51103436Y61173932D01*
X51238597Y61146433D01*
X51243772Y61146243D01*
X51243774Y61146243D01*
X51456673Y61138436D01*
X51456677Y61138436D01*
X51461837Y61138247D01*
X51466957Y61138903D01*
X51466959Y61138903D01*
X51678288Y61165975D01*
X51678289Y61165975D01*
X51683416Y61166632D01*
X51707748Y61173932D01*
X51892429Y61229339D01*
X51892434Y61229341D01*
X51897384Y61230826D01*
X52097994Y61329104D01*
X52279860Y61458827D01*
X52438096Y61616511D01*
X52568453Y61797923D01*
X52569776Y61796972D01*
X52616645Y61840143D01*
X52686580Y61852375D01*
X52752026Y61824856D01*
X52779875Y61793006D01*
X52839987Y61694912D01*
X52986250Y61526062D01*
X53158126Y61383368D01*
X53351000Y61270662D01*
X53559692Y61190970D01*
X53564760Y61189939D01*
X53564763Y61189938D01*
X53643436Y61173932D01*
X53778597Y61146433D01*
X53783772Y61146243D01*
X53783774Y61146243D01*
X53996673Y61138436D01*
X53996677Y61138436D01*
X54001837Y61138247D01*
X54006957Y61138903D01*
X54006959Y61138903D01*
X54218288Y61165975D01*
X54218289Y61165975D01*
X54223416Y61166632D01*
X54247748Y61173932D01*
X54432429Y61229339D01*
X54432434Y61229341D01*
X54437384Y61230826D01*
X54637994Y61329104D01*
X54819860Y61458827D01*
X54978096Y61616511D01*
X55108453Y61797923D01*
X55109776Y61796972D01*
X55156645Y61840143D01*
X55226580Y61852375D01*
X55292026Y61824856D01*
G37*
G04 #@! TD.AperFunction*
G04 #@! TA.AperFunction,Conductor*
G36*
X66212012Y60856330D02*
G01*
X66218595Y60850201D01*
X74165851Y52902945D01*
X74199877Y52840633D01*
X74194812Y52769818D01*
X74152265Y52712982D01*
X74085745Y52688171D01*
X74023507Y52699655D01*
X73954230Y52731959D01*
X73954225Y52731961D01*
X73949243Y52734284D01*
X73943935Y52735706D01*
X73943933Y52735707D01*
X73733402Y52792119D01*
X73733400Y52792119D01*
X73728087Y52793543D01*
X73500000Y52813498D01*
X73271913Y52793543D01*
X73266600Y52792119D01*
X73266598Y52792119D01*
X73056067Y52735707D01*
X73056065Y52735706D01*
X73050757Y52734284D01*
X73045776Y52731961D01*
X73045775Y52731961D01*
X72848238Y52639849D01*
X72848233Y52639846D01*
X72843251Y52637523D01*
X72786080Y52597491D01*
X72660211Y52509357D01*
X72660208Y52509355D01*
X72655700Y52506198D01*
X72493802Y52344300D01*
X72362477Y52156749D01*
X72360153Y52151765D01*
X72358829Y52149472D01*
X72307447Y52100479D01*
X72237733Y52087043D01*
X72171822Y52113429D01*
X72140591Y52149472D01*
X72133934Y52161002D01*
X72097491Y52213048D01*
X72087012Y52221424D01*
X72073566Y52214356D01*
X71372022Y51512812D01*
X71364408Y51498868D01*
X71364539Y51497035D01*
X71368790Y51490420D01*
X72074287Y50784923D01*
X72086062Y50778493D01*
X72098077Y50787789D01*
X72133934Y50838998D01*
X72140591Y50850528D01*
X72191973Y50899521D01*
X72261687Y50912958D01*
X72327598Y50886571D01*
X72358829Y50850528D01*
X72360153Y50848235D01*
X72362477Y50843251D01*
X72493802Y50655700D01*
X72654595Y50494907D01*
X72688621Y50432595D01*
X72691500Y50405812D01*
X72691500Y49135067D01*
X72668714Y49062797D01*
X72657477Y49046749D01*
X72655154Y49041767D01*
X72655151Y49041762D01*
X72567155Y48853052D01*
X72560716Y48839243D01*
X72559294Y48833935D01*
X72559293Y48833933D01*
X72536498Y48748862D01*
X72503887Y48692379D01*
X71929544Y48118036D01*
X71928607Y48117108D01*
X71864193Y48054029D01*
X71840702Y48017579D01*
X71833283Y48007254D01*
X71806224Y47973357D01*
X71803159Y47967016D01*
X71803158Y47967015D01*
X71791628Y47943163D01*
X71784099Y47929746D01*
X71765935Y47901562D01*
X71763527Y47894945D01*
X71763524Y47894940D01*
X71751108Y47860827D01*
X71746147Y47849084D01*
X71730346Y47816397D01*
X71730344Y47816392D01*
X71727279Y47810051D01*
X71725696Y47803193D01*
X71725695Y47803191D01*
X71719735Y47777374D01*
X71715368Y47762631D01*
X71703897Y47731115D01*
X71703014Y47724125D01*
X71703012Y47724117D01*
X71698462Y47688099D01*
X71696226Y47675547D01*
X71689975Y47648469D01*
X71686476Y47633315D01*
X71686451Y47626269D01*
X71686451Y47626266D01*
X71686334Y47592744D01*
X71686305Y47591862D01*
X71686200Y47591031D01*
X71686200Y47554228D01*
X71685843Y47451930D01*
X71686111Y47450730D01*
X71686200Y47449093D01*
X71686200Y43365905D01*
X71685314Y43350986D01*
X71681104Y43315680D01*
X71681840Y43308677D01*
X71685964Y43269445D01*
X71686200Y43266507D01*
X71686200Y43264390D01*
X71690851Y43222932D01*
X71690915Y43222335D01*
X71700064Y43135288D01*
X71700985Y43132584D01*
X71701303Y43129745D01*
X71730091Y43047077D01*
X71730287Y43046506D01*
X71758518Y42963579D01*
X71760016Y42961144D01*
X71760955Y42958448D01*
X71764379Y42952969D01*
X71764380Y42952966D01*
X71807325Y42884237D01*
X71807786Y42883494D01*
X71814414Y42872721D01*
X71833074Y42804221D01*
X71811737Y42736506D01*
X71757178Y42691076D01*
X71686720Y42682355D01*
X71618003Y42717601D01*
X69381803Y44953802D01*
X66040405Y48295200D01*
X66006379Y48357512D01*
X66003500Y48384295D01*
X66003500Y50413938D01*
X70278493Y50413938D01*
X70287789Y50401923D01*
X70338994Y50366069D01*
X70348489Y50360586D01*
X70545947Y50268510D01*
X70556239Y50264764D01*
X70766688Y50208375D01*
X70777481Y50206472D01*
X70994525Y50187483D01*
X71005475Y50187483D01*
X71222519Y50206472D01*
X71233312Y50208375D01*
X71443761Y50264764D01*
X71454053Y50268510D01*
X71651511Y50360586D01*
X71661006Y50366069D01*
X71713048Y50402509D01*
X71721424Y50412988D01*
X71714356Y50426434D01*
X71012812Y51127978D01*
X70998868Y51135592D01*
X70997035Y51135461D01*
X70990420Y51131210D01*
X70284923Y50425713D01*
X70278493Y50413938D01*
X66003500Y50413938D01*
X66003500Y51494525D01*
X69687483Y51494525D01*
X69706472Y51277481D01*
X69708375Y51266688D01*
X69764764Y51056239D01*
X69768510Y51045947D01*
X69860586Y50848489D01*
X69866069Y50838994D01*
X69902509Y50786952D01*
X69912988Y50778576D01*
X69926434Y50785644D01*
X70627978Y51487188D01*
X70635592Y51501132D01*
X70635461Y51502965D01*
X70631210Y51509580D01*
X69925713Y52215077D01*
X69913938Y52221507D01*
X69901923Y52212211D01*
X69866069Y52161006D01*
X69860586Y52151511D01*
X69768510Y51954053D01*
X69764764Y51943761D01*
X69708375Y51733312D01*
X69706472Y51722519D01*
X69687483Y51505475D01*
X69687483Y51494525D01*
X66003500Y51494525D01*
X66003500Y52587012D01*
X70278576Y52587012D01*
X70285644Y52573566D01*
X70987188Y51872022D01*
X71001132Y51864408D01*
X71002965Y51864539D01*
X71009580Y51868790D01*
X71715077Y52574287D01*
X71721507Y52586062D01*
X71712211Y52598077D01*
X71661006Y52633931D01*
X71651511Y52639414D01*
X71454053Y52731490D01*
X71443761Y52735236D01*
X71233312Y52791625D01*
X71222519Y52793528D01*
X71005475Y52812517D01*
X70994525Y52812517D01*
X70777481Y52793528D01*
X70766688Y52791625D01*
X70556239Y52735236D01*
X70545947Y52731490D01*
X70348489Y52639414D01*
X70338994Y52633931D01*
X70286952Y52597491D01*
X70278576Y52587012D01*
X66003500Y52587012D01*
X66003500Y60761106D01*
X66023502Y60829227D01*
X66077158Y60875720D01*
X66147432Y60885824D01*
X66212012Y60856330D01*
G37*
G04 #@! TD.AperFunction*
G04 #@! TA.AperFunction,Conductor*
G36*
X62205402Y60978954D02*
G01*
X62263546Y60938214D01*
X62290435Y60872506D01*
X62291100Y60859573D01*
X62291100Y60204667D01*
X62290573Y60193484D01*
X62288898Y60185991D01*
X62289147Y60178065D01*
X62289147Y60178064D01*
X62291038Y60117914D01*
X62291100Y60113955D01*
X62291100Y60086044D01*
X62291597Y60082110D01*
X62291597Y60082109D01*
X62291605Y60082044D01*
X62292538Y60070207D01*
X62293927Y60026011D01*
X62299578Y60006561D01*
X62303587Y59987200D01*
X62306126Y59967103D01*
X62309045Y59959732D01*
X62309045Y59959730D01*
X62322404Y59925988D01*
X62326249Y59914758D01*
X62338582Y59872307D01*
X62342615Y59865488D01*
X62342617Y59865483D01*
X62348893Y59854872D01*
X62357588Y59837124D01*
X62365048Y59818283D01*
X62369710Y59811867D01*
X62369710Y59811866D01*
X62391036Y59782513D01*
X62397552Y59772593D01*
X62420058Y59734538D01*
X62434379Y59720217D01*
X62447219Y59705184D01*
X62459128Y59688793D01*
X62475916Y59674905D01*
X62493193Y59660612D01*
X62501974Y59652622D01*
X62979196Y59175399D01*
X63013221Y59113087D01*
X63016100Y59086304D01*
X63016100Y58080000D01*
X62996098Y58011879D01*
X62942442Y57965386D01*
X62890100Y57954000D01*
X62828313Y57954000D01*
X62821861Y57952628D01*
X62821856Y57952628D01*
X62734913Y57934147D01*
X62641512Y57914294D01*
X62635482Y57911609D01*
X62635481Y57911609D01*
X62473078Y57839303D01*
X62473076Y57839302D01*
X62467048Y57836618D01*
X62461707Y57832738D01*
X62461706Y57832737D01*
X62435532Y57813720D01*
X62312547Y57724366D01*
X62308126Y57719456D01*
X62308125Y57719455D01*
X62251158Y57656186D01*
X62184760Y57582444D01*
X62089273Y57417056D01*
X62030258Y57235428D01*
X62010296Y57045500D01*
X62030258Y56855572D01*
X62089273Y56673944D01*
X62092576Y56668222D01*
X62092577Y56668221D01*
X62126486Y56609490D01*
X62184760Y56508556D01*
X62257937Y56427285D01*
X62288653Y56363279D01*
X62290300Y56342976D01*
X62290300Y55485500D01*
X62270298Y55417379D01*
X62216642Y55370886D01*
X62164300Y55359500D01*
X62071013Y55359500D01*
X62064561Y55358128D01*
X62064556Y55358128D01*
X61977613Y55339647D01*
X61884212Y55319794D01*
X61878182Y55317109D01*
X61878181Y55317109D01*
X61715778Y55244803D01*
X61715776Y55244802D01*
X61709748Y55242118D01*
X61555247Y55129866D01*
X61427460Y54987944D01*
X61331973Y54822556D01*
X61272958Y54640928D01*
X61252996Y54451000D01*
X61253686Y54444435D01*
X61265893Y54328296D01*
X61272958Y54261072D01*
X61331973Y54079444D01*
X61427460Y53914056D01*
X61500637Y53832785D01*
X61531353Y53768779D01*
X61533000Y53748476D01*
X61533000Y45310794D01*
X61512998Y45242673D01*
X61496095Y45221699D01*
X60484040Y44209645D01*
X60421730Y44175620D01*
X60350915Y44180685D01*
X60305852Y44209646D01*
X60199300Y44316198D01*
X60194792Y44319355D01*
X60194789Y44319357D01*
X60116611Y44374098D01*
X60011749Y44447523D01*
X60006767Y44449846D01*
X60006762Y44449849D01*
X59971951Y44466081D01*
X59918666Y44512998D01*
X59899205Y44581275D01*
X59919747Y44649235D01*
X59971951Y44694471D01*
X60006511Y44710586D01*
X60016007Y44716069D01*
X60194467Y44841028D01*
X60202875Y44848084D01*
X60356916Y45002125D01*
X60363972Y45010533D01*
X60488931Y45188993D01*
X60494414Y45198489D01*
X60586490Y45395947D01*
X60590236Y45406239D01*
X60636394Y45578503D01*
X60636058Y45592599D01*
X60628116Y45596000D01*
X58827000Y45596000D01*
X58758879Y45616002D01*
X58712386Y45669658D01*
X58701000Y45722000D01*
X58701000Y45978000D01*
X58721002Y46046121D01*
X58774658Y46092614D01*
X58827000Y46104000D01*
X60622967Y46104000D01*
X60636498Y46107973D01*
X60637727Y46116522D01*
X60590236Y46293761D01*
X60586490Y46304053D01*
X60494414Y46501511D01*
X60488931Y46511007D01*
X60363972Y46689467D01*
X60356916Y46697875D01*
X60202875Y46851916D01*
X60190254Y46862507D01*
X60191108Y46863525D01*
X60150776Y46913984D01*
X60143468Y46984603D01*
X60175500Y47047963D01*
X60236702Y47083947D01*
X60253762Y47087000D01*
X60265316Y47088255D01*
X60401705Y47139385D01*
X60518261Y47226739D01*
X60605615Y47343295D01*
X60656745Y47479684D01*
X60663500Y47541866D01*
X60663500Y49238134D01*
X60656745Y49300316D01*
X60605615Y49436705D01*
X60518261Y49553261D01*
X60401705Y49640615D01*
X60265316Y49691745D01*
X60203134Y49698500D01*
X58189200Y49698500D01*
X58121079Y49718502D01*
X58074586Y49772158D01*
X58063200Y49824500D01*
X58063200Y54276106D01*
X58083202Y54344227D01*
X58100105Y54365201D01*
X59832500Y56097595D01*
X59894812Y56131621D01*
X59921595Y56134500D01*
X59977487Y56134500D01*
X59983939Y56135872D01*
X59983944Y56135872D01*
X60070887Y56154353D01*
X60164288Y56174206D01*
X60170319Y56176891D01*
X60332722Y56249197D01*
X60332724Y56249198D01*
X60338752Y56251882D01*
X60493253Y56364134D01*
X60621040Y56506056D01*
X60716527Y56671444D01*
X60775542Y56853072D01*
X60795504Y57043000D01*
X60775542Y57232928D01*
X60716527Y57414556D01*
X60711780Y57422779D01*
X60624341Y57574226D01*
X60621040Y57579944D01*
X60552392Y57656186D01*
X60497675Y57716955D01*
X60497674Y57716956D01*
X60493253Y57721866D01*
X60387622Y57798612D01*
X60344094Y57830237D01*
X60344093Y57830238D01*
X60338752Y57834118D01*
X60332724Y57836802D01*
X60332722Y57836803D01*
X60170319Y57909109D01*
X60170318Y57909109D01*
X60164288Y57911794D01*
X60070888Y57931647D01*
X59983944Y57950128D01*
X59983939Y57950128D01*
X59977487Y57951500D01*
X59786513Y57951500D01*
X59780061Y57950128D01*
X59780056Y57950128D01*
X59693112Y57931647D01*
X59599712Y57911794D01*
X59593682Y57909109D01*
X59593681Y57909109D01*
X59431278Y57836803D01*
X59431276Y57836802D01*
X59425248Y57834118D01*
X59419907Y57830238D01*
X59419906Y57830237D01*
X59376378Y57798612D01*
X59270747Y57721866D01*
X59266326Y57716956D01*
X59266325Y57716955D01*
X59211609Y57656186D01*
X59142960Y57579944D01*
X59139659Y57574226D01*
X59052221Y57422779D01*
X59047473Y57414556D01*
X58988458Y57232928D01*
X58987768Y57226367D01*
X58987768Y57226365D01*
X58971093Y57067707D01*
X58944080Y57002050D01*
X58934878Y56991782D01*
X57827995Y55884900D01*
X57765683Y55850874D01*
X57694867Y55855939D01*
X57638032Y55898486D01*
X57613221Y55965006D01*
X57612900Y55973995D01*
X57612900Y56429506D01*
X57632902Y56497627D01*
X57649805Y56518601D01*
X61952247Y60821043D01*
X61960537Y60828587D01*
X61967018Y60832700D01*
X62013659Y60882368D01*
X62016413Y60885209D01*
X62036135Y60904931D01*
X62038612Y60908124D01*
X62046317Y60917145D01*
X62073249Y60945825D01*
X62134462Y60981791D01*
X62205402Y60978954D01*
G37*
G04 #@! TD.AperFunction*
M02*
