M48
; DRILL file {KiCad (5.1.10-1-10_14)} date Sunday, December 05, 2021 at 02:45:06 PM
; FORMAT={-:-/ absolute / metric / decimal}
; #@! TF.CreationDate,2021-12-05T14:45:06+09:00
; #@! TF.GenerationSoftware,Kicad,Pcbnew,(5.1.10-1-10_14)
FMAT,2
METRIC
T1C0.400
T2C0.800
T3C1.000
T4C3.200
%
G90
G05
T1
X43.191Y33.377
X49.745Y26.562
X59.361Y54.594
X59.791Y57.633
T2
X13.5Y65.0
X13.5Y62.5
X23.0Y48.5
X23.0Y45.96
X23.0Y43.42
X23.0Y40.88
X23.0Y38.34
X23.0Y35.8
X23.0Y33.26
X28.5Y51.5
X30.62Y48.5
X30.62Y45.96
X30.62Y43.42
X30.62Y40.88
X30.62Y38.34
X30.62Y35.8
X30.62Y33.26
X31.0Y51.5
X36.0Y48.5
X36.0Y45.96
X36.0Y43.42
X36.0Y40.88
X36.0Y38.34
X36.0Y35.8
X36.0Y33.26
X36.0Y30.72
X36.0Y28.18
X36.0Y25.64
X36.0Y23.1
X36.0Y20.56
X36.0Y18.02
X36.0Y15.48
X49.0Y51.5
X51.24Y48.5
X51.24Y45.96
X51.24Y43.42
X51.24Y40.88
X51.24Y38.34
X51.24Y35.8
X51.24Y33.26
X51.24Y30.72
X51.24Y28.18
X51.24Y25.64
X51.24Y23.1
X51.24Y20.56
X51.24Y18.02
X51.24Y15.48
X51.5Y51.5
X58.0Y48.5
X58.0Y45.96
X58.0Y43.42
X58.0Y40.88
X58.0Y38.34
X58.0Y35.8
X58.0Y33.26
X58.0Y30.72
X58.0Y28.18
X58.0Y25.64
X58.0Y23.1
X58.0Y20.56
X58.0Y18.02
X58.0Y15.48
X71.0Y51.5
X73.24Y48.5
X73.24Y45.96
X73.24Y43.42
X73.24Y40.88
X73.24Y38.34
X73.24Y35.8
X73.24Y33.26
X73.24Y30.72
X73.24Y28.18
X73.24Y25.64
X73.24Y23.1
X73.24Y20.56
X73.24Y18.02
X73.24Y15.48
X73.5Y51.5
T3
X26.0Y65.04
X26.0Y62.5
X28.54Y65.04
X28.54Y62.5
X31.08Y65.04
X31.08Y62.5
X33.62Y65.04
X33.62Y62.5
X36.16Y65.04
X36.16Y62.5
X38.7Y65.04
X38.7Y62.5
X41.24Y65.04
X41.24Y62.5
X43.78Y65.04
X43.78Y62.5
X46.32Y65.04
X46.32Y62.5
X48.86Y65.04
X48.86Y62.5
X51.4Y65.04
X51.4Y62.5
X53.94Y65.04
X53.94Y62.5
X56.48Y65.04
X56.48Y62.5
X59.02Y65.04
X59.02Y62.5
X61.56Y65.04
X61.56Y62.5
X64.1Y65.04
X64.1Y62.5
X66.64Y65.04
X66.64Y62.5
X69.18Y65.04
X69.18Y62.5
X71.72Y65.04
X71.72Y62.5
X74.26Y65.04
X74.26Y62.5
X92.0Y33.0
X92.0Y30.46
X92.0Y27.92
X92.0Y25.38
X92.0Y22.84
T4
X5.5Y70.5
X5.5Y4.5
X94.5Y70.5
X94.5Y4.5
T0
M30
