M48
; DRILL file {KiCad (6.0.4-0)} date 
; FORMAT={-:-/ absolute / metric / decimal}
; #@! TF.CreationDate,2022-11-05T10:29:18+09:00
; #@! TF.GenerationSoftware,Kicad,Pcbnew,(6.0.4-0)
; #@! TF.FileFunction,MixedPlating,1,2
FMAT,2
METRIC
; #@! TA.AperFunction,Plated,PTH,ViaDrill
T1C0.400
; #@! TA.AperFunction,Plated,PTH,ComponentDrill
T2C0.800
; #@! TA.AperFunction,Plated,PTH,ComponentDrill
T3C1.000
; #@! TA.AperFunction,NonPlated,NPTH,ComponentDrill
T4C3.200
%
G90
G05
T1
X45.33Y23.1
X59.882Y57.043
X62.166Y54.451
X62.924Y57.045
T2
X13.5Y65.0
X13.5Y62.5
X23.0Y48.5
X23.0Y45.96
X23.0Y43.42
X23.0Y40.88
X23.0Y38.34
X23.0Y35.8
X23.0Y33.26
X28.5Y51.5
X30.62Y48.5
X30.62Y45.96
X30.62Y43.42
X30.62Y40.88
X30.62Y38.34
X30.62Y35.8
X30.62Y33.26
X31.0Y51.5
X36.0Y48.5
X36.0Y45.96
X36.0Y43.42
X36.0Y40.88
X36.0Y38.34
X36.0Y35.8
X36.0Y33.26
X36.0Y30.72
X36.0Y28.18
X36.0Y25.64
X36.0Y23.1
X36.0Y20.56
X36.0Y18.02
X36.0Y15.48
X49.0Y51.5
X51.24Y48.5
X51.24Y45.96
X51.24Y43.42
X51.24Y40.88
X51.24Y38.34
X51.24Y35.8
X51.24Y33.26
X51.24Y30.72
X51.24Y28.18
X51.24Y25.64
X51.24Y23.1
X51.24Y20.56
X51.24Y18.02
X51.24Y15.48
X51.5Y51.5
X58.955Y48.39
X58.955Y45.85
X58.955Y43.31
X58.955Y40.77
X58.955Y38.23
X58.955Y35.69
X58.955Y33.15
X58.955Y30.61
X58.955Y28.07
X58.955Y25.53
X58.955Y22.99
X58.955Y20.45
X58.955Y17.91
X58.955Y15.37
X58.955Y12.83
X58.955Y10.29
X71.0Y51.5
X73.5Y51.5
X74.195Y48.39
X74.195Y45.85
X74.195Y43.31
X74.195Y40.77
X74.195Y38.23
X74.195Y35.69
X74.195Y33.15
X74.195Y30.61
X74.195Y28.07
X74.195Y25.53
X74.195Y22.99
X74.195Y20.45
X74.195Y17.91
X74.195Y15.37
X74.195Y12.83
X74.195Y10.29
X79.13Y43.91
X79.13Y33.75
T3
X26.0Y65.04
X26.0Y62.5
X28.54Y65.04
X28.54Y62.5
X31.08Y65.04
X31.08Y62.5
X33.62Y65.04
X33.62Y62.5
X36.16Y65.04
X36.16Y62.5
X38.7Y65.04
X38.7Y62.5
X41.24Y65.04
X41.24Y62.5
X43.78Y65.04
X43.78Y62.5
X46.32Y65.04
X46.32Y62.5
X48.86Y65.04
X48.86Y62.5
X51.4Y65.04
X51.4Y62.5
X53.94Y65.04
X53.94Y62.5
X56.48Y65.04
X56.48Y62.5
X59.02Y65.04
X59.02Y62.5
X61.56Y65.04
X61.56Y62.5
X64.1Y65.04
X64.1Y62.5
X66.64Y65.04
X66.64Y62.5
X69.18Y65.04
X69.18Y62.5
X71.72Y65.04
X71.72Y62.5
X74.26Y65.04
X74.26Y62.5
X92.0Y33.0
X92.0Y30.46
X92.0Y27.92
X92.0Y25.38
X92.0Y22.84
T4
X5.5Y70.5
X5.5Y4.5
X94.5Y70.5
X94.5Y4.5
T0
M30
