G04 #@! TF.GenerationSoftware,KiCad,Pcbnew,(5.1.10-1-10_14)*
G04 #@! TF.CreationDate,2021-12-05T14:44:45+09:00*
G04 #@! TF.ProjectId,KZ80-MSXMEM,4b5a3830-2d4d-4535-984d-454d2e6b6963,rev?*
G04 #@! TF.SameCoordinates,PX8f0d180PY7735940*
G04 #@! TF.FileFunction,Legend,Top*
G04 #@! TF.FilePolarity,Positive*
%FSLAX46Y46*%
G04 Gerber Fmt 4.6, Leading zero omitted, Abs format (unit mm)*
G04 Created by KiCad (PCBNEW (5.1.10-1-10_14)) date 2021-12-05 14:44:45*
%MOMM*%
%LPD*%
G01*
G04 APERTURE LIST*
%ADD10C,0.250000*%
%ADD11C,0.150000*%
%ADD12C,0.200000*%
%ADD13C,0.120000*%
%ADD14O,2.502000X1.702000*%
%ADD15C,3.302000*%
%ADD16O,1.802000X1.802000*%
%ADD17C,1.702000*%
%ADD18C,0.902000*%
G04 APERTURE END LIST*
D10*
X28948214Y4321429D02*
X28591071Y4321429D01*
X28591071Y6464286D01*
X28948214Y6464286D01*
X29519642Y4821429D02*
X29519642Y6321429D01*
X30376785Y4821429D02*
X29733928Y5678572D01*
X30376785Y6321429D02*
X29519642Y5464286D01*
X30876785Y6321429D02*
X31876785Y6321429D01*
X30876785Y4821429D01*
X31876785Y4821429D01*
X32662500Y5678572D02*
X32519642Y5750000D01*
X32448214Y5821429D01*
X32376785Y5964286D01*
X32376785Y6035715D01*
X32448214Y6178572D01*
X32519642Y6250000D01*
X32662500Y6321429D01*
X32948214Y6321429D01*
X33091071Y6250000D01*
X33162500Y6178572D01*
X33233928Y6035715D01*
X33233928Y5964286D01*
X33162500Y5821429D01*
X33091071Y5750000D01*
X32948214Y5678572D01*
X32662500Y5678572D01*
X32519642Y5607143D01*
X32448214Y5535715D01*
X32376785Y5392858D01*
X32376785Y5107143D01*
X32448214Y4964286D01*
X32519642Y4892858D01*
X32662500Y4821429D01*
X32948214Y4821429D01*
X33091071Y4892858D01*
X33162500Y4964286D01*
X33233928Y5107143D01*
X33233928Y5392858D01*
X33162500Y5535715D01*
X33091071Y5607143D01*
X32948214Y5678572D01*
X34162500Y6321429D02*
X34305357Y6321429D01*
X34448214Y6250000D01*
X34519642Y6178572D01*
X34591071Y6035715D01*
X34662500Y5750000D01*
X34662500Y5392858D01*
X34591071Y5107143D01*
X34519642Y4964286D01*
X34448214Y4892858D01*
X34305357Y4821429D01*
X34162500Y4821429D01*
X34019642Y4892858D01*
X33948214Y4964286D01*
X33876785Y5107143D01*
X33805357Y5392858D01*
X33805357Y5750000D01*
X33876785Y6035715D01*
X33948214Y6178572D01*
X34019642Y6250000D01*
X34162500Y6321429D01*
X35305357Y5392858D02*
X36448214Y5392858D01*
X37162500Y4821429D02*
X37162500Y6321429D01*
X37662500Y5250000D01*
X38162500Y6321429D01*
X38162500Y4821429D01*
X38805357Y4892858D02*
X39019642Y4821429D01*
X39376785Y4821429D01*
X39519642Y4892858D01*
X39591071Y4964286D01*
X39662500Y5107143D01*
X39662500Y5250000D01*
X39591071Y5392858D01*
X39519642Y5464286D01*
X39376785Y5535715D01*
X39091071Y5607143D01*
X38948214Y5678572D01*
X38876785Y5750000D01*
X38805357Y5892858D01*
X38805357Y6035715D01*
X38876785Y6178572D01*
X38948214Y6250000D01*
X39091071Y6321429D01*
X39448214Y6321429D01*
X39662500Y6250000D01*
X40162500Y6321429D02*
X41162500Y4821429D01*
X41162500Y6321429D02*
X40162500Y4821429D01*
X41733928Y4821429D02*
X41733928Y6321429D01*
X42233928Y5250000D01*
X42733928Y6321429D01*
X42733928Y4821429D01*
X43448214Y5607143D02*
X43948214Y5607143D01*
X44162500Y4821429D02*
X43448214Y4821429D01*
X43448214Y6321429D01*
X44162500Y6321429D01*
X44805357Y4821429D02*
X44805357Y6321429D01*
X45305357Y5250000D01*
X45805357Y6321429D01*
X45805357Y4821429D01*
X46376785Y4321429D02*
X46733928Y4321429D01*
X46733928Y6464286D01*
X46376785Y6464286D01*
X48662500Y4821429D02*
X48662500Y6321429D01*
X49162500Y5250000D01*
X49662500Y6321429D01*
X49662500Y4821429D01*
X50305357Y4892858D02*
X50519642Y4821429D01*
X50876785Y4821429D01*
X51019642Y4892858D01*
X51091071Y4964286D01*
X51162500Y5107143D01*
X51162500Y5250000D01*
X51091071Y5392858D01*
X51019642Y5464286D01*
X50876785Y5535715D01*
X50591071Y5607143D01*
X50448214Y5678572D01*
X50376785Y5750000D01*
X50305357Y5892858D01*
X50305357Y6035715D01*
X50376785Y6178572D01*
X50448214Y6250000D01*
X50591071Y6321429D01*
X50948214Y6321429D01*
X51162500Y6250000D01*
X51662500Y6321429D02*
X52662500Y4821429D01*
X52662500Y6321429D02*
X51662500Y4821429D01*
X54376785Y4821429D02*
X54376785Y6321429D01*
X54876785Y5250000D01*
X55376785Y6321429D01*
X55376785Y4821429D01*
X56662500Y4892858D02*
X56519642Y4821429D01*
X56233928Y4821429D01*
X56091071Y4892858D01*
X56019642Y5035715D01*
X56019642Y5607143D01*
X56091071Y5750000D01*
X56233928Y5821429D01*
X56519642Y5821429D01*
X56662500Y5750000D01*
X56733928Y5607143D01*
X56733928Y5464286D01*
X56019642Y5321429D01*
X57376785Y4821429D02*
X57376785Y5821429D01*
X57376785Y5678572D02*
X57448214Y5750000D01*
X57591071Y5821429D01*
X57805357Y5821429D01*
X57948214Y5750000D01*
X58019642Y5607143D01*
X58019642Y4821429D01*
X58019642Y5607143D02*
X58091071Y5750000D01*
X58233928Y5821429D01*
X58448214Y5821429D01*
X58591071Y5750000D01*
X58662500Y5607143D01*
X58662500Y4821429D01*
X59591071Y4821429D02*
X59448214Y4892858D01*
X59376785Y4964286D01*
X59305357Y5107143D01*
X59305357Y5535715D01*
X59376785Y5678572D01*
X59448214Y5750000D01*
X59591071Y5821429D01*
X59805357Y5821429D01*
X59948214Y5750000D01*
X60019642Y5678572D01*
X60091071Y5535715D01*
X60091071Y5107143D01*
X60019642Y4964286D01*
X59948214Y4892858D01*
X59805357Y4821429D01*
X59591071Y4821429D01*
X60733928Y4821429D02*
X60733928Y5821429D01*
X60733928Y5535715D02*
X60805357Y5678572D01*
X60876785Y5750000D01*
X61019642Y5821429D01*
X61162500Y5821429D01*
X61519642Y5821429D02*
X61876785Y4821429D01*
X62233928Y5821429D02*
X61876785Y4821429D01*
X61733928Y4464286D01*
X61662500Y4392858D01*
X61519642Y4321429D01*
X64448214Y5607143D02*
X64662500Y5535715D01*
X64733928Y5464286D01*
X64805357Y5321429D01*
X64805357Y5107143D01*
X64733928Y4964286D01*
X64662500Y4892858D01*
X64519642Y4821429D01*
X63948214Y4821429D01*
X63948214Y6321429D01*
X64448214Y6321429D01*
X64591071Y6250000D01*
X64662500Y6178572D01*
X64733928Y6035715D01*
X64733928Y5892858D01*
X64662500Y5750000D01*
X64591071Y5678572D01*
X64448214Y5607143D01*
X63948214Y5607143D01*
X65662500Y4821429D02*
X65519642Y4892858D01*
X65448214Y4964286D01*
X65376785Y5107143D01*
X65376785Y5535715D01*
X65448214Y5678572D01*
X65519642Y5750000D01*
X65662500Y5821429D01*
X65876785Y5821429D01*
X66019642Y5750000D01*
X66091071Y5678572D01*
X66162500Y5535715D01*
X66162500Y5107143D01*
X66091071Y4964286D01*
X66019642Y4892858D01*
X65876785Y4821429D01*
X65662500Y4821429D01*
X67448214Y4821429D02*
X67448214Y5607143D01*
X67376785Y5750000D01*
X67233928Y5821429D01*
X66948214Y5821429D01*
X66805357Y5750000D01*
X67448214Y4892858D02*
X67305357Y4821429D01*
X66948214Y4821429D01*
X66805357Y4892858D01*
X66733928Y5035715D01*
X66733928Y5178572D01*
X66805357Y5321429D01*
X66948214Y5392858D01*
X67305357Y5392858D01*
X67448214Y5464286D01*
X68162500Y4821429D02*
X68162500Y5821429D01*
X68162500Y5535715D02*
X68233928Y5678572D01*
X68305357Y5750000D01*
X68448214Y5821429D01*
X68591071Y5821429D01*
X69733928Y4821429D02*
X69733928Y6321429D01*
X69733928Y4892858D02*
X69591071Y4821429D01*
X69305357Y4821429D01*
X69162500Y4892858D01*
X69091071Y4964286D01*
X69019642Y5107143D01*
X69019642Y5535715D01*
X69091071Y5678572D01*
X69162500Y5750000D01*
X69305357Y5821429D01*
X69591071Y5821429D01*
X69733928Y5750000D01*
X72448214Y4821429D02*
X71948214Y5535715D01*
X71591071Y4821429D02*
X71591071Y6321429D01*
X72162500Y6321429D01*
X72305357Y6250000D01*
X72376785Y6178572D01*
X72448214Y6035715D01*
X72448214Y5821429D01*
X72376785Y5678572D01*
X72305357Y5607143D01*
X72162500Y5535715D01*
X71591071Y5535715D01*
X73091071Y5607143D02*
X73591071Y5607143D01*
X73805357Y4821429D02*
X73091071Y4821429D01*
X73091071Y6321429D01*
X73805357Y6321429D01*
X74233928Y6321429D02*
X74733928Y4821429D01*
X75233928Y6321429D01*
X76519642Y4821429D02*
X75662500Y4821429D01*
X76091071Y4821429D02*
X76091071Y6321429D01*
X75948214Y6107143D01*
X75805357Y5964286D01*
X75662500Y5892858D01*
X28519642Y2321429D02*
X28519642Y3821429D01*
X29376785Y2321429D02*
X28733928Y3178572D01*
X29376785Y3821429D02*
X28519642Y2964286D01*
X30019642Y3821429D02*
X30019642Y2607143D01*
X30091071Y2464286D01*
X30162500Y2392858D01*
X30305357Y2321429D01*
X30591071Y2321429D01*
X30733928Y2392858D01*
X30805357Y2464286D01*
X30876785Y2607143D01*
X30876785Y3821429D01*
X31591071Y2321429D02*
X31591071Y3821429D01*
X32448214Y2321429D01*
X32448214Y3821429D01*
X33162500Y2321429D02*
X33162500Y3821429D01*
X33876785Y2892858D02*
X35019642Y2892858D01*
X35733928Y2321429D02*
X35733928Y3821429D01*
X36591071Y2321429D01*
X36591071Y3821429D01*
X37305357Y3107143D02*
X37805357Y3107143D01*
X38019642Y2321429D02*
X37305357Y2321429D01*
X37305357Y3821429D01*
X38019642Y3821429D01*
X38448214Y3821429D02*
X39305357Y3821429D01*
X38876785Y2321429D02*
X38876785Y3821429D01*
X40876785Y3678572D02*
X40948214Y3750000D01*
X41091071Y3821429D01*
X41448214Y3821429D01*
X41591071Y3750000D01*
X41662500Y3678572D01*
X41733928Y3535715D01*
X41733928Y3392858D01*
X41662500Y3178572D01*
X40805357Y2321429D01*
X41733928Y2321429D01*
X42662500Y3821429D02*
X42805357Y3821429D01*
X42948214Y3750000D01*
X43019642Y3678572D01*
X43091071Y3535715D01*
X43162500Y3250000D01*
X43162500Y2892858D01*
X43091071Y2607143D01*
X43019642Y2464286D01*
X42948214Y2392858D01*
X42805357Y2321429D01*
X42662500Y2321429D01*
X42519642Y2392858D01*
X42448214Y2464286D01*
X42376785Y2607143D01*
X42305357Y2892858D01*
X42305357Y3250000D01*
X42376785Y3535715D01*
X42448214Y3678572D01*
X42519642Y3750000D01*
X42662500Y3821429D01*
X43733928Y3678572D02*
X43805357Y3750000D01*
X43948214Y3821429D01*
X44305357Y3821429D01*
X44448214Y3750000D01*
X44519642Y3678572D01*
X44591071Y3535715D01*
X44591071Y3392858D01*
X44519642Y3178572D01*
X43662500Y2321429D01*
X44591071Y2321429D01*
X46019642Y2321429D02*
X45162500Y2321429D01*
X45591071Y2321429D02*
X45591071Y3821429D01*
X45448214Y3607143D01*
X45305357Y3464286D01*
X45162500Y3392858D01*
D11*
X78904761Y62678572D02*
X78952380Y62821429D01*
X78952380Y63059524D01*
X78904761Y63154762D01*
X78857142Y63202381D01*
X78761904Y63250000D01*
X78666666Y63250000D01*
X78571428Y63202381D01*
X78523809Y63154762D01*
X78476190Y63059524D01*
X78428571Y62869048D01*
X78380952Y62773810D01*
X78333333Y62726191D01*
X78238095Y62678572D01*
X78142857Y62678572D01*
X78047619Y62726191D01*
X78000000Y62773810D01*
X77952380Y62869048D01*
X77952380Y63107143D01*
X78000000Y63250000D01*
X78428571Y64011905D02*
X78476190Y64154762D01*
X78523809Y64202381D01*
X78619047Y64250000D01*
X78761904Y64250000D01*
X78857142Y64202381D01*
X78904761Y64154762D01*
X78952380Y64059524D01*
X78952380Y63678572D01*
X77952380Y63678572D01*
X77952380Y64011905D01*
X78000000Y64107143D01*
X78047619Y64154762D01*
X78142857Y64202381D01*
X78238095Y64202381D01*
X78333333Y64154762D01*
X78380952Y64107143D01*
X78428571Y64011905D01*
X78428571Y63678572D01*
X78857142Y65250000D02*
X78904761Y65202381D01*
X78952380Y65059524D01*
X78952380Y64964286D01*
X78904761Y64821429D01*
X78809523Y64726191D01*
X78714285Y64678572D01*
X78523809Y64630953D01*
X78380952Y64630953D01*
X78190476Y64678572D01*
X78095238Y64726191D01*
X78000000Y64821429D01*
X77952380Y64964286D01*
X77952380Y65059524D01*
X78000000Y65202381D01*
X78047619Y65250000D01*
X78380952Y65821429D02*
X78333333Y65726191D01*
X78285714Y65678572D01*
X78190476Y65630953D01*
X78142857Y65630953D01*
X78047619Y65678572D01*
X78000000Y65726191D01*
X77952380Y65821429D01*
X77952380Y66011905D01*
X78000000Y66107143D01*
X78047619Y66154762D01*
X78142857Y66202381D01*
X78190476Y66202381D01*
X78285714Y66154762D01*
X78333333Y66107143D01*
X78380952Y66011905D01*
X78380952Y65821429D01*
X78428571Y65726191D01*
X78476190Y65678572D01*
X78571428Y65630953D01*
X78761904Y65630953D01*
X78857142Y65678572D01*
X78904761Y65726191D01*
X78952380Y65821429D01*
X78952380Y66011905D01*
X78904761Y66107143D01*
X78857142Y66154762D01*
X78761904Y66202381D01*
X78571428Y66202381D01*
X78476190Y66154762D01*
X78428571Y66107143D01*
X78380952Y66011905D01*
X77952380Y66821429D02*
X77952380Y66916667D01*
X78000000Y67011905D01*
X78047619Y67059524D01*
X78142857Y67107143D01*
X78333333Y67154762D01*
X78571428Y67154762D01*
X78761904Y67107143D01*
X78857142Y67059524D01*
X78904761Y67011905D01*
X78952380Y66916667D01*
X78952380Y66821429D01*
X78904761Y66726191D01*
X78857142Y66678572D01*
X78761904Y66630953D01*
X78571428Y66583334D01*
X78333333Y66583334D01*
X78142857Y66630953D01*
X78047619Y66678572D01*
X78000000Y66726191D01*
X77952380Y66821429D01*
X78380952Y67726191D02*
X78333333Y67630953D01*
X78285714Y67583334D01*
X78190476Y67535715D01*
X78142857Y67535715D01*
X78047619Y67583334D01*
X78000000Y67630953D01*
X77952380Y67726191D01*
X77952380Y67916667D01*
X78000000Y68011905D01*
X78047619Y68059524D01*
X78142857Y68107143D01*
X78190476Y68107143D01*
X78285714Y68059524D01*
X78333333Y68011905D01*
X78380952Y67916667D01*
X78380952Y67726191D01*
X78428571Y67630953D01*
X78476190Y67583334D01*
X78571428Y67535715D01*
X78761904Y67535715D01*
X78857142Y67583334D01*
X78904761Y67630953D01*
X78952380Y67726191D01*
X78952380Y67916667D01*
X78904761Y68011905D01*
X78857142Y68059524D01*
X78761904Y68107143D01*
X78571428Y68107143D01*
X78476190Y68059524D01*
X78428571Y68011905D01*
X78380952Y67916667D01*
X77952380Y68726191D02*
X77952380Y68821429D01*
X78000000Y68916667D01*
X78047619Y68964286D01*
X78142857Y69011905D01*
X78333333Y69059524D01*
X78571428Y69059524D01*
X78761904Y69011905D01*
X78857142Y68964286D01*
X78904761Y68916667D01*
X78952380Y68821429D01*
X78952380Y68726191D01*
X78904761Y68630953D01*
X78857142Y68583334D01*
X78761904Y68535715D01*
X78571428Y68488096D01*
X78333333Y68488096D01*
X78142857Y68535715D01*
X78047619Y68583334D01*
X78000000Y68630953D01*
X77952380Y68726191D01*
X78428571Y70583334D02*
X78476190Y70726191D01*
X78523809Y70773810D01*
X78619047Y70821429D01*
X78761904Y70821429D01*
X78857142Y70773810D01*
X78904761Y70726191D01*
X78952380Y70630953D01*
X78952380Y70250000D01*
X77952380Y70250000D01*
X77952380Y70583334D01*
X78000000Y70678572D01*
X78047619Y70726191D01*
X78142857Y70773810D01*
X78238095Y70773810D01*
X78333333Y70726191D01*
X78380952Y70678572D01*
X78428571Y70583334D01*
X78428571Y70250000D01*
X77952380Y71250000D02*
X78761904Y71250000D01*
X78857142Y71297620D01*
X78904761Y71345239D01*
X78952380Y71440477D01*
X78952380Y71630953D01*
X78904761Y71726191D01*
X78857142Y71773810D01*
X78761904Y71821429D01*
X77952380Y71821429D01*
X78904761Y72250000D02*
X78952380Y72392858D01*
X78952380Y72630953D01*
X78904761Y72726191D01*
X78857142Y72773810D01*
X78761904Y72821429D01*
X78666666Y72821429D01*
X78571428Y72773810D01*
X78523809Y72726191D01*
X78476190Y72630953D01*
X78428571Y72440477D01*
X78380952Y72345239D01*
X78333333Y72297620D01*
X78238095Y72250000D01*
X78142857Y72250000D01*
X78047619Y72297620D01*
X78000000Y72345239D01*
X77952380Y72440477D01*
X77952380Y72678572D01*
X78000000Y72821429D01*
D12*
X64595238Y44904762D02*
X64595238Y46047620D01*
X64595238Y45476191D02*
X66595238Y45476191D01*
X66309523Y45666667D01*
X66119047Y45857143D01*
X66023809Y46047620D01*
X66404761Y44142858D02*
X66500000Y44047620D01*
X66595238Y43857143D01*
X66595238Y43380953D01*
X66500000Y43190477D01*
X66404761Y43095239D01*
X66214285Y43000000D01*
X66023809Y43000000D01*
X65738095Y43095239D01*
X64595238Y44238096D01*
X64595238Y43000000D01*
X65738095Y41857143D02*
X65833333Y42047620D01*
X65928571Y42142858D01*
X66119047Y42238096D01*
X66214285Y42238096D01*
X66404761Y42142858D01*
X66500000Y42047620D01*
X66595238Y41857143D01*
X66595238Y41476191D01*
X66500000Y41285715D01*
X66404761Y41190477D01*
X66214285Y41095239D01*
X66119047Y41095239D01*
X65928571Y41190477D01*
X65833333Y41285715D01*
X65738095Y41476191D01*
X65738095Y41857143D01*
X65642857Y42047620D01*
X65547619Y42142858D01*
X65357142Y42238096D01*
X64976190Y42238096D01*
X64785714Y42142858D01*
X64690476Y42047620D01*
X64595238Y41857143D01*
X64595238Y41476191D01*
X64690476Y41285715D01*
X64785714Y41190477D01*
X64976190Y41095239D01*
X65357142Y41095239D01*
X65547619Y41190477D01*
X65642857Y41285715D01*
X65738095Y41476191D01*
X64595238Y40238096D02*
X66595238Y40238096D01*
X65357142Y40047620D02*
X64595238Y39476191D01*
X65928571Y39476191D02*
X65166666Y40238096D01*
X63833333Y38047620D02*
X63928571Y38142858D01*
X64214285Y38333334D01*
X64404761Y38428572D01*
X64690476Y38523810D01*
X65166666Y38619048D01*
X65547619Y38619048D01*
X66023809Y38523810D01*
X66309523Y38428572D01*
X66500000Y38333334D01*
X66785714Y38142858D01*
X66880952Y38047620D01*
X66595238Y37476191D02*
X66595238Y36238096D01*
X65833333Y36904762D01*
X65833333Y36619048D01*
X65738095Y36428572D01*
X65642857Y36333334D01*
X65452380Y36238096D01*
X64976190Y36238096D01*
X64785714Y36333334D01*
X64690476Y36428572D01*
X64595238Y36619048D01*
X64595238Y37190477D01*
X64690476Y37380953D01*
X64785714Y37476191D01*
X66404761Y35476191D02*
X66500000Y35380953D01*
X66595238Y35190477D01*
X66595238Y34714286D01*
X66500000Y34523810D01*
X66404761Y34428572D01*
X66214285Y34333334D01*
X66023809Y34333334D01*
X65738095Y34428572D01*
X64595238Y35571429D01*
X64595238Y34333334D01*
X64595238Y33476191D02*
X66595238Y33476191D01*
X65357142Y33285715D02*
X64595238Y32714286D01*
X65928571Y32714286D02*
X65166666Y33476191D01*
X65642857Y31190477D02*
X65547619Y30904762D01*
X65452380Y30809524D01*
X65261904Y30714286D01*
X64976190Y30714286D01*
X64785714Y30809524D01*
X64690476Y30904762D01*
X64595238Y31095239D01*
X64595238Y31857143D01*
X66595238Y31857143D01*
X66595238Y31190477D01*
X66500000Y31000000D01*
X66404761Y30904762D01*
X66214285Y30809524D01*
X66023809Y30809524D01*
X65833333Y30904762D01*
X65738095Y31000000D01*
X65642857Y31190477D01*
X65642857Y31857143D01*
X63833333Y30047620D02*
X63928571Y29952381D01*
X64214285Y29761905D01*
X64404761Y29666667D01*
X64690476Y29571429D01*
X65166666Y29476191D01*
X65547619Y29476191D01*
X66023809Y29571429D01*
X66309523Y29666667D01*
X66500000Y29761905D01*
X66785714Y29952381D01*
X66880952Y30047620D01*
X64690476Y27095239D02*
X64595238Y26809524D01*
X64595238Y26333334D01*
X64690476Y26142858D01*
X64785714Y26047620D01*
X64976190Y25952381D01*
X65166666Y25952381D01*
X65357142Y26047620D01*
X65452380Y26142858D01*
X65547619Y26333334D01*
X65642857Y26714286D01*
X65738095Y26904762D01*
X65833333Y27000000D01*
X66023809Y27095239D01*
X66214285Y27095239D01*
X66404761Y27000000D01*
X66500000Y26904762D01*
X66595238Y26714286D01*
X66595238Y26238096D01*
X66500000Y25952381D01*
X64595238Y23952381D02*
X65547619Y24619048D01*
X64595238Y25095239D02*
X66595238Y25095239D01*
X66595238Y24333334D01*
X66500000Y24142858D01*
X66404761Y24047620D01*
X66214285Y23952381D01*
X65928571Y23952381D01*
X65738095Y24047620D01*
X65642857Y24142858D01*
X65547619Y24333334D01*
X65547619Y25095239D01*
X65166666Y23190477D02*
X65166666Y22238096D01*
X64595238Y23380953D02*
X66595238Y22714286D01*
X64595238Y22047620D01*
X64595238Y21380953D02*
X66595238Y21380953D01*
X65166666Y20714286D01*
X66595238Y20047620D01*
X64595238Y20047620D01*
X44654761Y41833334D02*
X44750000Y41738096D01*
X44845238Y41547620D01*
X44845238Y41071429D01*
X44750000Y40880953D01*
X44654761Y40785715D01*
X44464285Y40690477D01*
X44273809Y40690477D01*
X43988095Y40785715D01*
X42845238Y41928572D01*
X42845238Y40690477D01*
X43988095Y39547620D02*
X44083333Y39738096D01*
X44178571Y39833334D01*
X44369047Y39928572D01*
X44464285Y39928572D01*
X44654761Y39833334D01*
X44750000Y39738096D01*
X44845238Y39547620D01*
X44845238Y39166667D01*
X44750000Y38976191D01*
X44654761Y38880953D01*
X44464285Y38785715D01*
X44369047Y38785715D01*
X44178571Y38880953D01*
X44083333Y38976191D01*
X43988095Y39166667D01*
X43988095Y39547620D01*
X43892857Y39738096D01*
X43797619Y39833334D01*
X43607142Y39928572D01*
X43226190Y39928572D01*
X43035714Y39833334D01*
X42940476Y39738096D01*
X42845238Y39547620D01*
X42845238Y39166667D01*
X42940476Y38976191D01*
X43035714Y38880953D01*
X43226190Y38785715D01*
X43607142Y38785715D01*
X43797619Y38880953D01*
X43892857Y38976191D01*
X43988095Y39166667D01*
X43035714Y36785715D02*
X42940476Y36880953D01*
X42845238Y37166667D01*
X42845238Y37357143D01*
X42940476Y37642858D01*
X43130952Y37833334D01*
X43321428Y37928572D01*
X43702380Y38023810D01*
X43988095Y38023810D01*
X44369047Y37928572D01*
X44559523Y37833334D01*
X44750000Y37642858D01*
X44845238Y37357143D01*
X44845238Y37166667D01*
X44750000Y36880953D01*
X44654761Y36785715D01*
X44654761Y36023810D02*
X44750000Y35928572D01*
X44845238Y35738096D01*
X44845238Y35261905D01*
X44750000Y35071429D01*
X44654761Y34976191D01*
X44464285Y34880953D01*
X44273809Y34880953D01*
X43988095Y34976191D01*
X42845238Y36119048D01*
X42845238Y34880953D01*
X44845238Y33071429D02*
X44845238Y34023810D01*
X43892857Y34119048D01*
X43988095Y34023810D01*
X44083333Y33833334D01*
X44083333Y33357143D01*
X43988095Y33166667D01*
X43892857Y33071429D01*
X43702380Y32976191D01*
X43226190Y32976191D01*
X43035714Y33071429D01*
X42940476Y33166667D01*
X42845238Y33357143D01*
X42845238Y33833334D01*
X42940476Y34023810D01*
X43035714Y34119048D01*
X44845238Y31261905D02*
X44845238Y31642858D01*
X44750000Y31833334D01*
X44654761Y31928572D01*
X44369047Y32119048D01*
X43988095Y32214286D01*
X43226190Y32214286D01*
X43035714Y32119048D01*
X42940476Y32023810D01*
X42845238Y31833334D01*
X42845238Y31452381D01*
X42940476Y31261905D01*
X43035714Y31166667D01*
X43226190Y31071429D01*
X43702380Y31071429D01*
X43892857Y31166667D01*
X43988095Y31261905D01*
X44083333Y31452381D01*
X44083333Y31833334D01*
X43988095Y32023810D01*
X43892857Y32119048D01*
X43702380Y32214286D01*
X42845238Y27547620D02*
X43797619Y28214286D01*
X42845238Y28690477D02*
X44845238Y28690477D01*
X44845238Y27928572D01*
X44750000Y27738096D01*
X44654761Y27642858D01*
X44464285Y27547620D01*
X44178571Y27547620D01*
X43988095Y27642858D01*
X43892857Y27738096D01*
X43797619Y27928572D01*
X43797619Y28690477D01*
X44845238Y26309524D02*
X44845238Y25928572D01*
X44750000Y25738096D01*
X44559523Y25547620D01*
X44178571Y25452381D01*
X43511904Y25452381D01*
X43130952Y25547620D01*
X42940476Y25738096D01*
X42845238Y25928572D01*
X42845238Y26309524D01*
X42940476Y26500000D01*
X43130952Y26690477D01*
X43511904Y26785715D01*
X44178571Y26785715D01*
X44559523Y26690477D01*
X44750000Y26500000D01*
X44845238Y26309524D01*
X42845238Y24595239D02*
X44845238Y24595239D01*
X43416666Y23928572D01*
X44845238Y23261905D01*
X42845238Y23261905D01*
X27845238Y46821429D02*
X27845238Y45488096D01*
X25845238Y46345239D01*
X27178571Y43869048D02*
X25845238Y43869048D01*
X27940476Y44345239D02*
X26511904Y44821429D01*
X26511904Y43583334D01*
X25845238Y42821429D02*
X27845238Y42821429D01*
X26892857Y42821429D02*
X26892857Y41678572D01*
X25845238Y41678572D02*
X27845238Y41678572D01*
X26035714Y39583334D02*
X25940476Y39678572D01*
X25845238Y39964286D01*
X25845238Y40154762D01*
X25940476Y40440477D01*
X26130952Y40630953D01*
X26321428Y40726191D01*
X26702380Y40821429D01*
X26988095Y40821429D01*
X27369047Y40726191D01*
X27559523Y40630953D01*
X27750000Y40440477D01*
X27845238Y40154762D01*
X27845238Y39964286D01*
X27750000Y39678572D01*
X27654761Y39583334D01*
X27845238Y38345239D02*
X27845238Y38154762D01*
X27750000Y37964286D01*
X27654761Y37869048D01*
X27464285Y37773810D01*
X27083333Y37678572D01*
X26607142Y37678572D01*
X26226190Y37773810D01*
X26035714Y37869048D01*
X25940476Y37964286D01*
X25845238Y38154762D01*
X25845238Y38345239D01*
X25940476Y38535715D01*
X26035714Y38630953D01*
X26226190Y38726191D01*
X26607142Y38821429D01*
X27083333Y38821429D01*
X27464285Y38726191D01*
X27654761Y38630953D01*
X27750000Y38535715D01*
X27845238Y38345239D01*
X27845238Y36440477D02*
X27845238Y36250000D01*
X27750000Y36059524D01*
X27654761Y35964286D01*
X27464285Y35869048D01*
X27083333Y35773810D01*
X26607142Y35773810D01*
X26226190Y35869048D01*
X26035714Y35964286D01*
X25940476Y36059524D01*
X25845238Y36250000D01*
X25845238Y36440477D01*
X25940476Y36630953D01*
X26035714Y36726191D01*
X26226190Y36821429D01*
X26607142Y36916667D01*
X27083333Y36916667D01*
X27464285Y36821429D01*
X27654761Y36726191D01*
X27750000Y36630953D01*
X27845238Y36440477D01*
D11*
X86095238Y22047620D02*
X86095238Y23047620D01*
X86571428Y22047620D02*
X86571428Y23047620D01*
X87142857Y22047620D01*
X87142857Y23047620D01*
X87476190Y23047620D02*
X88047619Y23047620D01*
X87761904Y22047620D02*
X87761904Y23047620D01*
X88380952Y22428572D02*
X89142857Y22428572D01*
X89904761Y23047620D02*
X89904761Y22333334D01*
X89857142Y22190477D01*
X89761904Y22095239D01*
X89619047Y22047620D01*
X89523809Y22047620D01*
X86452380Y24595239D02*
X86595238Y24547620D01*
X86833333Y24547620D01*
X86928571Y24595239D01*
X86976190Y24642858D01*
X87023809Y24738096D01*
X87023809Y24833334D01*
X86976190Y24928572D01*
X86928571Y24976191D01*
X86833333Y25023810D01*
X86642857Y25071429D01*
X86547619Y25119048D01*
X86500000Y25166667D01*
X86452380Y25261905D01*
X86452380Y25357143D01*
X86500000Y25452381D01*
X86547619Y25500000D01*
X86642857Y25547620D01*
X86880952Y25547620D01*
X87023809Y25500000D01*
X87928571Y24547620D02*
X87452380Y24547620D01*
X87452380Y25547620D01*
X88119047Y25547620D02*
X88690476Y25547620D01*
X88404761Y24547620D02*
X88404761Y25547620D01*
X88928571Y25547620D02*
X89547619Y25547620D01*
X89214285Y25166667D01*
X89357142Y25166667D01*
X89452380Y25119048D01*
X89500000Y25071429D01*
X89547619Y24976191D01*
X89547619Y24738096D01*
X89500000Y24642858D01*
X89452380Y24595239D01*
X89357142Y24547620D01*
X89071428Y24547620D01*
X88976190Y24595239D01*
X88928571Y24642858D01*
X86261904Y28415000D02*
X87214285Y28415000D01*
X86452380Y27095239D02*
X86595238Y27047620D01*
X86833333Y27047620D01*
X86928571Y27095239D01*
X86976190Y27142858D01*
X87023809Y27238096D01*
X87023809Y27333334D01*
X86976190Y27428572D01*
X86928571Y27476191D01*
X86833333Y27523810D01*
X86642857Y27571429D01*
X86547619Y27619048D01*
X86500000Y27666667D01*
X86452380Y27761905D01*
X86452380Y27857143D01*
X86500000Y27952381D01*
X86547619Y28000000D01*
X86642857Y28047620D01*
X86880952Y28047620D01*
X87023809Y28000000D01*
X87214285Y28415000D02*
X88023809Y28415000D01*
X87928571Y27047620D02*
X87452380Y27047620D01*
X87452380Y28047620D01*
X88023809Y28415000D02*
X88785714Y28415000D01*
X88119047Y28047620D02*
X88690476Y28047620D01*
X88404761Y27047620D02*
X88404761Y28047620D01*
X88785714Y28415000D02*
X89738095Y28415000D01*
X88928571Y28047620D02*
X89547619Y28047620D01*
X89214285Y27666667D01*
X89357142Y27666667D01*
X89452380Y27619048D01*
X89500000Y27571429D01*
X89547619Y27476191D01*
X89547619Y27238096D01*
X89500000Y27142858D01*
X89452380Y27095239D01*
X89357142Y27047620D01*
X89071428Y27047620D01*
X88976190Y27095239D01*
X88928571Y27142858D01*
X86261904Y30915000D02*
X87214285Y30915000D01*
X86452380Y29595239D02*
X86595238Y29547620D01*
X86833333Y29547620D01*
X86928571Y29595239D01*
X86976190Y29642858D01*
X87023809Y29738096D01*
X87023809Y29833334D01*
X86976190Y29928572D01*
X86928571Y29976191D01*
X86833333Y30023810D01*
X86642857Y30071429D01*
X86547619Y30119048D01*
X86500000Y30166667D01*
X86452380Y30261905D01*
X86452380Y30357143D01*
X86500000Y30452381D01*
X86547619Y30500000D01*
X86642857Y30547620D01*
X86880952Y30547620D01*
X87023809Y30500000D01*
X87214285Y30915000D02*
X88023809Y30915000D01*
X87928571Y29547620D02*
X87452380Y29547620D01*
X87452380Y30547620D01*
X88023809Y30915000D02*
X88785714Y30915000D01*
X88119047Y30547620D02*
X88690476Y30547620D01*
X88404761Y29547620D02*
X88404761Y30547620D01*
X88785714Y30915000D02*
X89738095Y30915000D01*
X88976190Y30452381D02*
X89023809Y30500000D01*
X89119047Y30547620D01*
X89357142Y30547620D01*
X89452380Y30500000D01*
X89500000Y30452381D01*
X89547619Y30357143D01*
X89547619Y30261905D01*
X89500000Y30119048D01*
X88928571Y29547620D01*
X89547619Y29547620D01*
X86261904Y33915000D02*
X87214285Y33915000D01*
X86452380Y32595239D02*
X86595238Y32547620D01*
X86833333Y32547620D01*
X86928571Y32595239D01*
X86976190Y32642858D01*
X87023809Y32738096D01*
X87023809Y32833334D01*
X86976190Y32928572D01*
X86928571Y32976191D01*
X86833333Y33023810D01*
X86642857Y33071429D01*
X86547619Y33119048D01*
X86500000Y33166667D01*
X86452380Y33261905D01*
X86452380Y33357143D01*
X86500000Y33452381D01*
X86547619Y33500000D01*
X86642857Y33547620D01*
X86880952Y33547620D01*
X87023809Y33500000D01*
X87214285Y33915000D02*
X88023809Y33915000D01*
X87928571Y32547620D02*
X87452380Y32547620D01*
X87452380Y33547620D01*
X88023809Y33915000D02*
X88785714Y33915000D01*
X88119047Y33547620D02*
X88690476Y33547620D01*
X88404761Y32547620D02*
X88404761Y33547620D01*
X88785714Y33915000D02*
X89738095Y33915000D01*
X89214285Y33547620D02*
X89309523Y33547620D01*
X89404761Y33500000D01*
X89452380Y33452381D01*
X89500000Y33357143D01*
X89547619Y33166667D01*
X89547619Y32928572D01*
X89500000Y32738096D01*
X89452380Y32642858D01*
X89404761Y32595239D01*
X89309523Y32547620D01*
X89214285Y32547620D01*
X89119047Y32595239D01*
X89071428Y32642858D01*
X89023809Y32738096D01*
X88976190Y32928572D01*
X88976190Y33166667D01*
X89023809Y33357143D01*
X89071428Y33452381D01*
X89119047Y33500000D01*
X89214285Y33547620D01*
D13*
X42620000Y49830000D02*
X37560000Y49830000D01*
X37560000Y49830000D02*
X37560000Y14150000D01*
X37560000Y14150000D02*
X49680000Y14150000D01*
X49680000Y14150000D02*
X49680000Y49830000D01*
X49680000Y49830000D02*
X44620000Y49830000D01*
X34560000Y49890000D02*
X34560000Y14090000D01*
X34560000Y14090000D02*
X52680000Y14090000D01*
X52680000Y14090000D02*
X52680000Y49890000D01*
X52680000Y49890000D02*
X34560000Y49890000D01*
X44620000Y49830000D02*
G75*
G02*
X42620000Y49830000I-1000000J0D01*
G01*
X64620000Y49830000D02*
X59560000Y49830000D01*
X59560000Y49830000D02*
X59560000Y14150000D01*
X59560000Y14150000D02*
X71680000Y14150000D01*
X71680000Y14150000D02*
X71680000Y49830000D01*
X71680000Y49830000D02*
X66620000Y49830000D01*
X56560000Y49890000D02*
X56560000Y14090000D01*
X56560000Y14090000D02*
X74680000Y14090000D01*
X74680000Y14090000D02*
X74680000Y49890000D01*
X74680000Y49890000D02*
X56560000Y49890000D01*
X66620000Y49830000D02*
G75*
G02*
X64620000Y49830000I-1000000J0D01*
G01*
X25810000Y49830000D02*
X24560000Y49830000D01*
X24560000Y49830000D02*
X24560000Y31930000D01*
X24560000Y31930000D02*
X29060000Y31930000D01*
X29060000Y31930000D02*
X29060000Y49830000D01*
X29060000Y49830000D02*
X27810000Y49830000D01*
X21560000Y49890000D02*
X21560000Y31870000D01*
X21560000Y31870000D02*
X32060000Y31870000D01*
X32060000Y31870000D02*
X32060000Y49890000D01*
X32060000Y49890000D02*
X21560000Y49890000D01*
X27810000Y49830000D02*
G75*
G02*
X25810000Y49830000I-1000000J0D01*
G01*
X93440000Y34330000D02*
X93440000Y21510000D01*
X93440000Y21510000D02*
X96100000Y21510000D01*
X96100000Y21510000D02*
X96100000Y34330000D01*
X96100000Y34330000D02*
X93440000Y34330000D01*
X96100000Y33380000D02*
X102100000Y33380000D01*
X102100000Y33380000D02*
X102100000Y32620000D01*
X102100000Y32620000D02*
X96100000Y32620000D01*
X96100000Y33320000D02*
X102100000Y33320000D01*
X96100000Y33200000D02*
X102100000Y33200000D01*
X96100000Y33080000D02*
X102100000Y33080000D01*
X96100000Y32960000D02*
X102100000Y32960000D01*
X96100000Y32840000D02*
X102100000Y32840000D01*
X96100000Y32720000D02*
X102100000Y32720000D01*
X93110000Y33380000D02*
X93440000Y33380000D01*
X93110000Y32620000D02*
X93440000Y32620000D01*
X93440000Y31730000D02*
X96100000Y31730000D01*
X96100000Y30840000D02*
X102100000Y30840000D01*
X102100000Y30840000D02*
X102100000Y30080000D01*
X102100000Y30080000D02*
X96100000Y30080000D01*
X93042929Y30840000D02*
X93440000Y30840000D01*
X93042929Y30080000D02*
X93440000Y30080000D01*
X93440000Y29190000D02*
X96100000Y29190000D01*
X96100000Y28300000D02*
X102100000Y28300000D01*
X102100000Y28300000D02*
X102100000Y27540000D01*
X102100000Y27540000D02*
X96100000Y27540000D01*
X93042929Y28300000D02*
X93440000Y28300000D01*
X93042929Y27540000D02*
X93440000Y27540000D01*
X93440000Y26650000D02*
X96100000Y26650000D01*
X96100000Y25760000D02*
X102100000Y25760000D01*
X102100000Y25760000D02*
X102100000Y25000000D01*
X102100000Y25000000D02*
X96100000Y25000000D01*
X93042929Y25760000D02*
X93440000Y25760000D01*
X93042929Y25000000D02*
X93440000Y25000000D01*
X93440000Y24110000D02*
X96100000Y24110000D01*
X96100000Y23220000D02*
X102100000Y23220000D01*
X102100000Y23220000D02*
X102100000Y22460000D01*
X102100000Y22460000D02*
X96100000Y22460000D01*
X93042929Y23220000D02*
X93440000Y23220000D01*
X93042929Y22460000D02*
X93440000Y22460000D01*
X90730000Y33000000D02*
X90730000Y34270000D01*
X90730000Y34270000D02*
X92000000Y34270000D01*
X24670000Y66480000D02*
X75590000Y66480000D01*
X75590000Y66480000D02*
X75590000Y69140000D01*
X75590000Y69140000D02*
X24670000Y69140000D01*
X24670000Y69140000D02*
X24670000Y66480000D01*
X25620000Y69140000D02*
X25620000Y75140000D01*
X25620000Y75140000D02*
X26380000Y75140000D01*
X26380000Y75140000D02*
X26380000Y69140000D01*
X25680000Y69140000D02*
X25680000Y75140000D01*
X25800000Y69140000D02*
X25800000Y75140000D01*
X25920000Y69140000D02*
X25920000Y75140000D01*
X26040000Y69140000D02*
X26040000Y75140000D01*
X26160000Y69140000D02*
X26160000Y75140000D01*
X26280000Y69140000D02*
X26280000Y75140000D01*
X25620000Y66082929D02*
X25620000Y66480000D01*
X26380000Y66082929D02*
X26380000Y66480000D01*
X25620000Y63610000D02*
X25620000Y63997071D01*
X26380000Y63610000D02*
X26380000Y63997071D01*
X27270000Y66480000D02*
X27270000Y69140000D01*
X28160000Y69140000D02*
X28160000Y75140000D01*
X28160000Y75140000D02*
X28920000Y75140000D01*
X28920000Y75140000D02*
X28920000Y69140000D01*
X28160000Y66082929D02*
X28160000Y66480000D01*
X28920000Y66082929D02*
X28920000Y66480000D01*
X28160000Y63542929D02*
X28160000Y63997071D01*
X28920000Y63542929D02*
X28920000Y63997071D01*
X29810000Y66480000D02*
X29810000Y69140000D01*
X30700000Y69140000D02*
X30700000Y75140000D01*
X30700000Y75140000D02*
X31460000Y75140000D01*
X31460000Y75140000D02*
X31460000Y69140000D01*
X30700000Y66082929D02*
X30700000Y66480000D01*
X31460000Y66082929D02*
X31460000Y66480000D01*
X30700000Y63542929D02*
X30700000Y63997071D01*
X31460000Y63542929D02*
X31460000Y63997071D01*
X32350000Y66480000D02*
X32350000Y69140000D01*
X33240000Y69140000D02*
X33240000Y75140000D01*
X33240000Y75140000D02*
X34000000Y75140000D01*
X34000000Y75140000D02*
X34000000Y69140000D01*
X33240000Y66082929D02*
X33240000Y66480000D01*
X34000000Y66082929D02*
X34000000Y66480000D01*
X33240000Y63542929D02*
X33240000Y63997071D01*
X34000000Y63542929D02*
X34000000Y63997071D01*
X34890000Y66480000D02*
X34890000Y69140000D01*
X35780000Y69140000D02*
X35780000Y75140000D01*
X35780000Y75140000D02*
X36540000Y75140000D01*
X36540000Y75140000D02*
X36540000Y69140000D01*
X35780000Y66082929D02*
X35780000Y66480000D01*
X36540000Y66082929D02*
X36540000Y66480000D01*
X35780000Y63542929D02*
X35780000Y63997071D01*
X36540000Y63542929D02*
X36540000Y63997071D01*
X37430000Y66480000D02*
X37430000Y69140000D01*
X38320000Y69140000D02*
X38320000Y75140000D01*
X38320000Y75140000D02*
X39080000Y75140000D01*
X39080000Y75140000D02*
X39080000Y69140000D01*
X38320000Y66082929D02*
X38320000Y66480000D01*
X39080000Y66082929D02*
X39080000Y66480000D01*
X38320000Y63542929D02*
X38320000Y63997071D01*
X39080000Y63542929D02*
X39080000Y63997071D01*
X39970000Y66480000D02*
X39970000Y69140000D01*
X40860000Y69140000D02*
X40860000Y75140000D01*
X40860000Y75140000D02*
X41620000Y75140000D01*
X41620000Y75140000D02*
X41620000Y69140000D01*
X40860000Y66082929D02*
X40860000Y66480000D01*
X41620000Y66082929D02*
X41620000Y66480000D01*
X40860000Y63542929D02*
X40860000Y63997071D01*
X41620000Y63542929D02*
X41620000Y63997071D01*
X42510000Y66480000D02*
X42510000Y69140000D01*
X43400000Y69140000D02*
X43400000Y75140000D01*
X43400000Y75140000D02*
X44160000Y75140000D01*
X44160000Y75140000D02*
X44160000Y69140000D01*
X43400000Y66082929D02*
X43400000Y66480000D01*
X44160000Y66082929D02*
X44160000Y66480000D01*
X43400000Y63542929D02*
X43400000Y63997071D01*
X44160000Y63542929D02*
X44160000Y63997071D01*
X45050000Y66480000D02*
X45050000Y69140000D01*
X45940000Y69140000D02*
X45940000Y75140000D01*
X45940000Y75140000D02*
X46700000Y75140000D01*
X46700000Y75140000D02*
X46700000Y69140000D01*
X45940000Y66082929D02*
X45940000Y66480000D01*
X46700000Y66082929D02*
X46700000Y66480000D01*
X45940000Y63542929D02*
X45940000Y63997071D01*
X46700000Y63542929D02*
X46700000Y63997071D01*
X47590000Y66480000D02*
X47590000Y69140000D01*
X48480000Y69140000D02*
X48480000Y75140000D01*
X48480000Y75140000D02*
X49240000Y75140000D01*
X49240000Y75140000D02*
X49240000Y69140000D01*
X48480000Y66082929D02*
X48480000Y66480000D01*
X49240000Y66082929D02*
X49240000Y66480000D01*
X48480000Y63542929D02*
X48480000Y63997071D01*
X49240000Y63542929D02*
X49240000Y63997071D01*
X50130000Y66480000D02*
X50130000Y69140000D01*
X51020000Y69140000D02*
X51020000Y75140000D01*
X51020000Y75140000D02*
X51780000Y75140000D01*
X51780000Y75140000D02*
X51780000Y69140000D01*
X51020000Y66082929D02*
X51020000Y66480000D01*
X51780000Y66082929D02*
X51780000Y66480000D01*
X51020000Y63542929D02*
X51020000Y63997071D01*
X51780000Y63542929D02*
X51780000Y63997071D01*
X52670000Y66480000D02*
X52670000Y69140000D01*
X53560000Y69140000D02*
X53560000Y75140000D01*
X53560000Y75140000D02*
X54320000Y75140000D01*
X54320000Y75140000D02*
X54320000Y69140000D01*
X53560000Y66082929D02*
X53560000Y66480000D01*
X54320000Y66082929D02*
X54320000Y66480000D01*
X53560000Y63542929D02*
X53560000Y63997071D01*
X54320000Y63542929D02*
X54320000Y63997071D01*
X55210000Y66480000D02*
X55210000Y69140000D01*
X56100000Y69140000D02*
X56100000Y75140000D01*
X56100000Y75140000D02*
X56860000Y75140000D01*
X56860000Y75140000D02*
X56860000Y69140000D01*
X56100000Y66082929D02*
X56100000Y66480000D01*
X56860000Y66082929D02*
X56860000Y66480000D01*
X56100000Y63542929D02*
X56100000Y63997071D01*
X56860000Y63542929D02*
X56860000Y63997071D01*
X57750000Y66480000D02*
X57750000Y69140000D01*
X58640000Y69140000D02*
X58640000Y75140000D01*
X58640000Y75140000D02*
X59400000Y75140000D01*
X59400000Y75140000D02*
X59400000Y69140000D01*
X58640000Y66082929D02*
X58640000Y66480000D01*
X59400000Y66082929D02*
X59400000Y66480000D01*
X58640000Y63542929D02*
X58640000Y63997071D01*
X59400000Y63542929D02*
X59400000Y63997071D01*
X60290000Y66480000D02*
X60290000Y69140000D01*
X61180000Y69140000D02*
X61180000Y75140000D01*
X61180000Y75140000D02*
X61940000Y75140000D01*
X61940000Y75140000D02*
X61940000Y69140000D01*
X61180000Y66082929D02*
X61180000Y66480000D01*
X61940000Y66082929D02*
X61940000Y66480000D01*
X61180000Y63542929D02*
X61180000Y63997071D01*
X61940000Y63542929D02*
X61940000Y63997071D01*
X62830000Y66480000D02*
X62830000Y69140000D01*
X63720000Y69140000D02*
X63720000Y75140000D01*
X63720000Y75140000D02*
X64480000Y75140000D01*
X64480000Y75140000D02*
X64480000Y69140000D01*
X63720000Y66082929D02*
X63720000Y66480000D01*
X64480000Y66082929D02*
X64480000Y66480000D01*
X63720000Y63542929D02*
X63720000Y63997071D01*
X64480000Y63542929D02*
X64480000Y63997071D01*
X65370000Y66480000D02*
X65370000Y69140000D01*
X66260000Y69140000D02*
X66260000Y75140000D01*
X66260000Y75140000D02*
X67020000Y75140000D01*
X67020000Y75140000D02*
X67020000Y69140000D01*
X66260000Y66082929D02*
X66260000Y66480000D01*
X67020000Y66082929D02*
X67020000Y66480000D01*
X66260000Y63542929D02*
X66260000Y63997071D01*
X67020000Y63542929D02*
X67020000Y63997071D01*
X67910000Y66480000D02*
X67910000Y69140000D01*
X68800000Y69140000D02*
X68800000Y75140000D01*
X68800000Y75140000D02*
X69560000Y75140000D01*
X69560000Y75140000D02*
X69560000Y69140000D01*
X68800000Y66082929D02*
X68800000Y66480000D01*
X69560000Y66082929D02*
X69560000Y66480000D01*
X68800000Y63542929D02*
X68800000Y63997071D01*
X69560000Y63542929D02*
X69560000Y63997071D01*
X70450000Y66480000D02*
X70450000Y69140000D01*
X71340000Y69140000D02*
X71340000Y75140000D01*
X71340000Y75140000D02*
X72100000Y75140000D01*
X72100000Y75140000D02*
X72100000Y69140000D01*
X71340000Y66082929D02*
X71340000Y66480000D01*
X72100000Y66082929D02*
X72100000Y66480000D01*
X71340000Y63542929D02*
X71340000Y63997071D01*
X72100000Y63542929D02*
X72100000Y63997071D01*
X72990000Y66480000D02*
X72990000Y69140000D01*
X73880000Y69140000D02*
X73880000Y75140000D01*
X73880000Y75140000D02*
X74640000Y75140000D01*
X74640000Y75140000D02*
X74640000Y69140000D01*
X73880000Y66082929D02*
X73880000Y66480000D01*
X74640000Y66082929D02*
X74640000Y66480000D01*
X73880000Y63542929D02*
X73880000Y63997071D01*
X74640000Y63542929D02*
X74640000Y63997071D01*
X26000000Y61230000D02*
X24730000Y61230000D01*
X24730000Y61230000D02*
X24730000Y62500000D01*
X49621000Y52420000D02*
X50879000Y52420000D01*
X49621000Y50580000D02*
X50879000Y50580000D01*
X71621000Y52420000D02*
X72879000Y52420000D01*
X71621000Y50580000D02*
X72879000Y50580000D01*
X16120000Y63750000D02*
G75*
G03*
X16120000Y63750000I-2620000J0D01*
G01*
X10920000Y63750000D02*
X16080000Y63750000D01*
X10920000Y63790000D02*
X16080000Y63790000D01*
X10921000Y63830000D02*
X16079000Y63830000D01*
X10922000Y63870000D02*
X16078000Y63870000D01*
X10924000Y63910000D02*
X16076000Y63910000D01*
X10927000Y63950000D02*
X16073000Y63950000D01*
X10931000Y63990000D02*
X12460000Y63990000D01*
X14540000Y63990000D02*
X16069000Y63990000D01*
X10935000Y64030000D02*
X12460000Y64030000D01*
X14540000Y64030000D02*
X16065000Y64030000D01*
X10939000Y64070000D02*
X12460000Y64070000D01*
X14540000Y64070000D02*
X16061000Y64070000D01*
X10944000Y64110000D02*
X12460000Y64110000D01*
X14540000Y64110000D02*
X16056000Y64110000D01*
X10950000Y64150000D02*
X12460000Y64150000D01*
X14540000Y64150000D02*
X16050000Y64150000D01*
X10957000Y64190000D02*
X12460000Y64190000D01*
X14540000Y64190000D02*
X16043000Y64190000D01*
X10964000Y64230000D02*
X12460000Y64230000D01*
X14540000Y64230000D02*
X16036000Y64230000D01*
X10972000Y64270000D02*
X12460000Y64270000D01*
X14540000Y64270000D02*
X16028000Y64270000D01*
X10980000Y64310000D02*
X12460000Y64310000D01*
X14540000Y64310000D02*
X16020000Y64310000D01*
X10989000Y64350000D02*
X12460000Y64350000D01*
X14540000Y64350000D02*
X16011000Y64350000D01*
X10999000Y64390000D02*
X12460000Y64390000D01*
X14540000Y64390000D02*
X16001000Y64390000D01*
X11009000Y64430000D02*
X12460000Y64430000D01*
X14540000Y64430000D02*
X15991000Y64430000D01*
X11020000Y64471000D02*
X12460000Y64471000D01*
X14540000Y64471000D02*
X15980000Y64471000D01*
X11032000Y64511000D02*
X12460000Y64511000D01*
X14540000Y64511000D02*
X15968000Y64511000D01*
X11045000Y64551000D02*
X12460000Y64551000D01*
X14540000Y64551000D02*
X15955000Y64551000D01*
X11058000Y64591000D02*
X12460000Y64591000D01*
X14540000Y64591000D02*
X15942000Y64591000D01*
X11072000Y64631000D02*
X12460000Y64631000D01*
X14540000Y64631000D02*
X15928000Y64631000D01*
X11086000Y64671000D02*
X12460000Y64671000D01*
X14540000Y64671000D02*
X15914000Y64671000D01*
X11102000Y64711000D02*
X12460000Y64711000D01*
X14540000Y64711000D02*
X15898000Y64711000D01*
X11118000Y64751000D02*
X12460000Y64751000D01*
X14540000Y64751000D02*
X15882000Y64751000D01*
X11135000Y64791000D02*
X12460000Y64791000D01*
X14540000Y64791000D02*
X15865000Y64791000D01*
X11152000Y64831000D02*
X12460000Y64831000D01*
X14540000Y64831000D02*
X15848000Y64831000D01*
X11171000Y64871000D02*
X12460000Y64871000D01*
X14540000Y64871000D02*
X15829000Y64871000D01*
X11190000Y64911000D02*
X12460000Y64911000D01*
X14540000Y64911000D02*
X15810000Y64911000D01*
X11210000Y64951000D02*
X12460000Y64951000D01*
X14540000Y64951000D02*
X15790000Y64951000D01*
X11232000Y64991000D02*
X12460000Y64991000D01*
X14540000Y64991000D02*
X15768000Y64991000D01*
X11253000Y65031000D02*
X12460000Y65031000D01*
X14540000Y65031000D02*
X15747000Y65031000D01*
X11276000Y65071000D02*
X12460000Y65071000D01*
X14540000Y65071000D02*
X15724000Y65071000D01*
X11300000Y65111000D02*
X12460000Y65111000D01*
X14540000Y65111000D02*
X15700000Y65111000D01*
X11325000Y65151000D02*
X12460000Y65151000D01*
X14540000Y65151000D02*
X15675000Y65151000D01*
X11351000Y65191000D02*
X12460000Y65191000D01*
X14540000Y65191000D02*
X15649000Y65191000D01*
X11378000Y65231000D02*
X12460000Y65231000D01*
X14540000Y65231000D02*
X15622000Y65231000D01*
X11405000Y65271000D02*
X12460000Y65271000D01*
X14540000Y65271000D02*
X15595000Y65271000D01*
X11435000Y65311000D02*
X12460000Y65311000D01*
X14540000Y65311000D02*
X15565000Y65311000D01*
X11465000Y65351000D02*
X12460000Y65351000D01*
X14540000Y65351000D02*
X15535000Y65351000D01*
X11496000Y65391000D02*
X12460000Y65391000D01*
X14540000Y65391000D02*
X15504000Y65391000D01*
X11529000Y65431000D02*
X12460000Y65431000D01*
X14540000Y65431000D02*
X15471000Y65431000D01*
X11563000Y65471000D02*
X12460000Y65471000D01*
X14540000Y65471000D02*
X15437000Y65471000D01*
X11599000Y65511000D02*
X12460000Y65511000D01*
X14540000Y65511000D02*
X15401000Y65511000D01*
X11636000Y65551000D02*
X12460000Y65551000D01*
X14540000Y65551000D02*
X15364000Y65551000D01*
X11674000Y65591000D02*
X12460000Y65591000D01*
X14540000Y65591000D02*
X15326000Y65591000D01*
X11715000Y65631000D02*
X12460000Y65631000D01*
X14540000Y65631000D02*
X15285000Y65631000D01*
X11757000Y65671000D02*
X12460000Y65671000D01*
X14540000Y65671000D02*
X15243000Y65671000D01*
X11801000Y65711000D02*
X12460000Y65711000D01*
X14540000Y65711000D02*
X15199000Y65711000D01*
X11847000Y65751000D02*
X12460000Y65751000D01*
X14540000Y65751000D02*
X15153000Y65751000D01*
X11895000Y65791000D02*
X12460000Y65791000D01*
X14540000Y65791000D02*
X15105000Y65791000D01*
X11946000Y65831000D02*
X12460000Y65831000D01*
X14540000Y65831000D02*
X15054000Y65831000D01*
X12000000Y65871000D02*
X12460000Y65871000D01*
X14540000Y65871000D02*
X15000000Y65871000D01*
X12057000Y65911000D02*
X12460000Y65911000D01*
X14540000Y65911000D02*
X14943000Y65911000D01*
X12117000Y65951000D02*
X12460000Y65951000D01*
X14540000Y65951000D02*
X14883000Y65951000D01*
X12181000Y65991000D02*
X12460000Y65991000D01*
X14540000Y65991000D02*
X14819000Y65991000D01*
X12249000Y66031000D02*
X12460000Y66031000D01*
X14540000Y66031000D02*
X14751000Y66031000D01*
X12322000Y66071000D02*
X14678000Y66071000D01*
X12402000Y66111000D02*
X14598000Y66111000D01*
X12489000Y66151000D02*
X14511000Y66151000D01*
X12585000Y66191000D02*
X14415000Y66191000D01*
X12695000Y66231000D02*
X14305000Y66231000D01*
X12823000Y66271000D02*
X14177000Y66271000D01*
X12982000Y66311000D02*
X14018000Y66311000D01*
X13216000Y66351000D02*
X13784000Y66351000D01*
X12025000Y60945225D02*
X12025000Y61445225D01*
X11775000Y61195225D02*
X12275000Y61195225D01*
X29121000Y52420000D02*
X30379000Y52420000D01*
X29121000Y50580000D02*
X30379000Y50580000D01*
D11*
X42858095Y51377620D02*
X42858095Y50568096D01*
X42905714Y50472858D01*
X42953333Y50425239D01*
X43048571Y50377620D01*
X43239047Y50377620D01*
X43334285Y50425239D01*
X43381904Y50472858D01*
X43429523Y50568096D01*
X43429523Y51377620D01*
X43810476Y51377620D02*
X44429523Y51377620D01*
X44096190Y50996667D01*
X44239047Y50996667D01*
X44334285Y50949048D01*
X44381904Y50901429D01*
X44429523Y50806191D01*
X44429523Y50568096D01*
X44381904Y50472858D01*
X44334285Y50425239D01*
X44239047Y50377620D01*
X43953333Y50377620D01*
X43858095Y50425239D01*
X43810476Y50472858D01*
X64858095Y51377620D02*
X64858095Y50568096D01*
X64905714Y50472858D01*
X64953333Y50425239D01*
X65048571Y50377620D01*
X65239047Y50377620D01*
X65334285Y50425239D01*
X65381904Y50472858D01*
X65429523Y50568096D01*
X65429523Y51377620D01*
X65858095Y51282381D02*
X65905714Y51330000D01*
X66000952Y51377620D01*
X66239047Y51377620D01*
X66334285Y51330000D01*
X66381904Y51282381D01*
X66429523Y51187143D01*
X66429523Y51091905D01*
X66381904Y50949048D01*
X65810476Y50377620D01*
X66429523Y50377620D01*
X21738095Y51547620D02*
X21738095Y50738096D01*
X21785714Y50642858D01*
X21833333Y50595239D01*
X21928571Y50547620D01*
X22119047Y50547620D01*
X22214285Y50595239D01*
X22261904Y50642858D01*
X22309523Y50738096D01*
X22309523Y51547620D01*
X23309523Y50547620D02*
X22738095Y50547620D01*
X23023809Y50547620D02*
X23023809Y51547620D01*
X22928571Y51404762D01*
X22833333Y51309524D01*
X22738095Y51261905D01*
X96051666Y35817620D02*
X96051666Y35103334D01*
X96004047Y34960477D01*
X95908809Y34865239D01*
X95765952Y34817620D01*
X95670714Y34817620D01*
X96480238Y35722381D02*
X96527857Y35770000D01*
X96623095Y35817620D01*
X96861190Y35817620D01*
X96956428Y35770000D01*
X97004047Y35722381D01*
X97051666Y35627143D01*
X97051666Y35531905D01*
X97004047Y35389048D01*
X96432619Y34817620D01*
X97051666Y34817620D01*
X23182380Y67821667D02*
X23896666Y67821667D01*
X24039523Y67774048D01*
X24134761Y67678810D01*
X24182380Y67535953D01*
X24182380Y67440715D01*
X24182380Y68821667D02*
X24182380Y68250239D01*
X24182380Y68535953D02*
X23182380Y68535953D01*
X23325238Y68440715D01*
X23420476Y68345477D01*
X23468095Y68250239D01*
X50083333Y53192858D02*
X50035714Y53145239D01*
X49892857Y53097620D01*
X49797619Y53097620D01*
X49654761Y53145239D01*
X49559523Y53240477D01*
X49511904Y53335715D01*
X49464285Y53526191D01*
X49464285Y53669048D01*
X49511904Y53859524D01*
X49559523Y53954762D01*
X49654761Y54050000D01*
X49797619Y54097620D01*
X49892857Y54097620D01*
X50035714Y54050000D01*
X50083333Y54002381D01*
X50940476Y53764286D02*
X50940476Y53097620D01*
X50702380Y54145239D02*
X50464285Y53430953D01*
X51083333Y53430953D01*
X72083333Y53192858D02*
X72035714Y53145239D01*
X71892857Y53097620D01*
X71797619Y53097620D01*
X71654761Y53145239D01*
X71559523Y53240477D01*
X71511904Y53335715D01*
X71464285Y53526191D01*
X71464285Y53669048D01*
X71511904Y53859524D01*
X71559523Y53954762D01*
X71654761Y54050000D01*
X71797619Y54097620D01*
X71892857Y54097620D01*
X72035714Y54050000D01*
X72083333Y54002381D01*
X72416666Y54097620D02*
X73035714Y54097620D01*
X72702380Y53716667D01*
X72845238Y53716667D01*
X72940476Y53669048D01*
X72988095Y53621429D01*
X73035714Y53526191D01*
X73035714Y53288096D01*
X72988095Y53192858D01*
X72940476Y53145239D01*
X72845238Y53097620D01*
X72559523Y53097620D01*
X72464285Y53145239D01*
X72416666Y53192858D01*
X10107142Y63583334D02*
X10154761Y63535715D01*
X10202380Y63392858D01*
X10202380Y63297620D01*
X10154761Y63154762D01*
X10059523Y63059524D01*
X9964285Y63011905D01*
X9773809Y62964286D01*
X9630952Y62964286D01*
X9440476Y63011905D01*
X9345238Y63059524D01*
X9250000Y63154762D01*
X9202380Y63297620D01*
X9202380Y63392858D01*
X9250000Y63535715D01*
X9297619Y63583334D01*
X9297619Y63964286D02*
X9250000Y64011905D01*
X9202380Y64107143D01*
X9202380Y64345239D01*
X9250000Y64440477D01*
X9297619Y64488096D01*
X9392857Y64535715D01*
X9488095Y64535715D01*
X9630952Y64488096D01*
X10202380Y63916667D01*
X10202380Y64535715D01*
X29583333Y53192858D02*
X29535714Y53145239D01*
X29392857Y53097620D01*
X29297619Y53097620D01*
X29154761Y53145239D01*
X29059523Y53240477D01*
X29011904Y53335715D01*
X28964285Y53526191D01*
X28964285Y53669048D01*
X29011904Y53859524D01*
X29059523Y53954762D01*
X29154761Y54050000D01*
X29297619Y54097620D01*
X29392857Y54097620D01*
X29535714Y54050000D01*
X29583333Y54002381D01*
X30535714Y53097620D02*
X29964285Y53097620D01*
X30250000Y53097620D02*
X30250000Y54097620D01*
X30154761Y53954762D01*
X30059523Y53859524D01*
X29964285Y53811905D01*
%LPC*%
D14*
X51240000Y48500000D03*
X36000000Y15480000D03*
X51240000Y45960000D03*
X36000000Y18020000D03*
X51240000Y43420000D03*
X36000000Y20560000D03*
X51240000Y40880000D03*
X36000000Y23100000D03*
X51240000Y38340000D03*
X36000000Y25640000D03*
X51240000Y35800000D03*
X36000000Y28180000D03*
X51240000Y33260000D03*
X36000000Y30720000D03*
X51240000Y30720000D03*
X36000000Y33260000D03*
X51240000Y28180000D03*
X36000000Y35800000D03*
X51240000Y25640000D03*
X36000000Y38340000D03*
X51240000Y23100000D03*
X36000000Y40880000D03*
X51240000Y20560000D03*
X36000000Y43420000D03*
X51240000Y18020000D03*
X36000000Y45960000D03*
X51240000Y15480000D03*
G36*
G01*
X34749000Y47700000D02*
X34749000Y49300000D01*
G75*
G02*
X34800000Y49351000I51000J0D01*
G01*
X37200000Y49351000D01*
G75*
G02*
X37251000Y49300000I0J-51000D01*
G01*
X37251000Y47700000D01*
G75*
G02*
X37200000Y47649000I-51000J0D01*
G01*
X34800000Y47649000D01*
G75*
G02*
X34749000Y47700000I0J51000D01*
G01*
G37*
X73240000Y48500000D03*
X58000000Y15480000D03*
X73240000Y45960000D03*
X58000000Y18020000D03*
X73240000Y43420000D03*
X58000000Y20560000D03*
X73240000Y40880000D03*
X58000000Y23100000D03*
X73240000Y38340000D03*
X58000000Y25640000D03*
X73240000Y35800000D03*
X58000000Y28180000D03*
X73240000Y33260000D03*
X58000000Y30720000D03*
X73240000Y30720000D03*
X58000000Y33260000D03*
X73240000Y28180000D03*
X58000000Y35800000D03*
X73240000Y25640000D03*
X58000000Y38340000D03*
X73240000Y23100000D03*
X58000000Y40880000D03*
X73240000Y20560000D03*
X58000000Y43420000D03*
X73240000Y18020000D03*
X58000000Y45960000D03*
X73240000Y15480000D03*
G36*
G01*
X56749000Y47700000D02*
X56749000Y49300000D01*
G75*
G02*
X56800000Y49351000I51000J0D01*
G01*
X59200000Y49351000D01*
G75*
G02*
X59251000Y49300000I0J-51000D01*
G01*
X59251000Y47700000D01*
G75*
G02*
X59200000Y47649000I-51000J0D01*
G01*
X56800000Y47649000D01*
G75*
G02*
X56749000Y47700000I0J51000D01*
G01*
G37*
X30620000Y48500000D03*
X23000000Y33260000D03*
X30620000Y45960000D03*
X23000000Y35800000D03*
X30620000Y43420000D03*
X23000000Y38340000D03*
X30620000Y40880000D03*
X23000000Y40880000D03*
X30620000Y38340000D03*
X23000000Y43420000D03*
X30620000Y35800000D03*
X23000000Y45960000D03*
X30620000Y33260000D03*
G36*
G01*
X21749000Y47700000D02*
X21749000Y49300000D01*
G75*
G02*
X21800000Y49351000I51000J0D01*
G01*
X24200000Y49351000D01*
G75*
G02*
X24251000Y49300000I0J-51000D01*
G01*
X24251000Y47700000D01*
G75*
G02*
X24200000Y47649000I-51000J0D01*
G01*
X21800000Y47649000D01*
G75*
G02*
X21749000Y47700000I0J51000D01*
G01*
G37*
D15*
X94500000Y4500000D03*
X5500000Y4500000D03*
X94500000Y70500000D03*
X5500000Y70500000D03*
D16*
X92000000Y22840000D03*
X92000000Y25380000D03*
X92000000Y27920000D03*
X92000000Y30460000D03*
G36*
G01*
X91099000Y32150000D02*
X91099000Y33850000D01*
G75*
G02*
X91150000Y33901000I51000J0D01*
G01*
X92850000Y33901000D01*
G75*
G02*
X92901000Y33850000I0J-51000D01*
G01*
X92901000Y32150000D01*
G75*
G02*
X92850000Y32099000I-51000J0D01*
G01*
X91150000Y32099000D01*
G75*
G02*
X91099000Y32150000I0J51000D01*
G01*
G37*
X74260000Y65040000D03*
X74260000Y62500000D03*
X71720000Y65040000D03*
X71720000Y62500000D03*
X69180000Y65040000D03*
X69180000Y62500000D03*
X66640000Y65040000D03*
X66640000Y62500000D03*
X64100000Y65040000D03*
X64100000Y62500000D03*
X61560000Y65040000D03*
X61560000Y62500000D03*
X59020000Y65040000D03*
X59020000Y62500000D03*
X56480000Y65040000D03*
X56480000Y62500000D03*
X53940000Y65040000D03*
X53940000Y62500000D03*
X51400000Y65040000D03*
X51400000Y62500000D03*
X48860000Y65040000D03*
X48860000Y62500000D03*
X46320000Y65040000D03*
X46320000Y62500000D03*
X43780000Y65040000D03*
X43780000Y62500000D03*
X41240000Y65040000D03*
X41240000Y62500000D03*
X38700000Y65040000D03*
X38700000Y62500000D03*
X36160000Y65040000D03*
X36160000Y62500000D03*
X33620000Y65040000D03*
X33620000Y62500000D03*
X31080000Y65040000D03*
X31080000Y62500000D03*
X28540000Y65040000D03*
X28540000Y62500000D03*
X26000000Y65040000D03*
G36*
G01*
X26850000Y61599000D02*
X25150000Y61599000D01*
G75*
G02*
X25099000Y61650000I0J51000D01*
G01*
X25099000Y63350000D01*
G75*
G02*
X25150000Y63401000I51000J0D01*
G01*
X26850000Y63401000D01*
G75*
G02*
X26901000Y63350000I0J-51000D01*
G01*
X26901000Y61650000D01*
G75*
G02*
X26850000Y61599000I-51000J0D01*
G01*
G37*
D17*
X51500000Y51500000D03*
X49000000Y51500000D03*
X73500000Y51500000D03*
X71000000Y51500000D03*
X13500000Y65000000D03*
G36*
G01*
X14300000Y61649000D02*
X12700000Y61649000D01*
G75*
G02*
X12649000Y61700000I0J51000D01*
G01*
X12649000Y63300000D01*
G75*
G02*
X12700000Y63351000I51000J0D01*
G01*
X14300000Y63351000D01*
G75*
G02*
X14351000Y63300000I0J-51000D01*
G01*
X14351000Y61700000D01*
G75*
G02*
X14300000Y61649000I-51000J0D01*
G01*
G37*
X31000000Y51500000D03*
X28500000Y51500000D03*
D18*
X59360600Y54594100D03*
X59791400Y57633300D03*
X49744700Y26562100D03*
X43191000Y33376700D03*
M02*
