G04 #@! TF.GenerationSoftware,KiCad,Pcbnew,(6.0.4-0)*
G04 #@! TF.CreationDate,2022-11-05T10:22:40+09:00*
G04 #@! TF.ProjectId,KZ80-MSXMEM,4b5a3830-2d4d-4535-984d-454d2e6b6963,rev?*
G04 #@! TF.SameCoordinates,PX8f0d180PY7735940*
G04 #@! TF.FileFunction,Copper,L1,Top*
G04 #@! TF.FilePolarity,Positive*
%FSLAX46Y46*%
G04 Gerber Fmt 4.6, Leading zero omitted, Abs format (unit mm)*
G04 Created by KiCad (PCBNEW (6.0.4-0)) date 2022-11-05 10:22:40*
%MOMM*%
%LPD*%
G01*
G04 APERTURE LIST*
G04 Aperture macros list*
%AMFreePoly0*
4,1,22,0.550000,-0.750000,0.000000,-0.750000,0.000000,-0.745033,-0.079941,-0.743568,-0.215256,-0.701293,-0.333266,-0.622738,-0.424486,-0.514219,-0.481581,-0.384460,-0.499164,-0.250000,-0.500000,-0.250000,-0.500000,0.250000,-0.499164,0.250000,-0.499963,0.256109,-0.478152,0.396186,-0.417904,0.524511,-0.324060,0.630769,-0.204165,0.706417,-0.067858,0.745374,0.000000,0.744959,0.000000,0.750000,
0.550000,0.750000,0.550000,-0.750000,0.550000,-0.750000,$1*%
%AMFreePoly1*
4,1,20,0.000000,0.744959,0.073905,0.744508,0.209726,0.703889,0.328688,0.626782,0.421226,0.519385,0.479903,0.390333,0.500000,0.250000,0.500000,-0.250000,0.499851,-0.262216,0.476331,-0.402017,0.414519,-0.529596,0.319384,-0.634700,0.198574,-0.708877,0.061801,-0.746166,0.000000,-0.745033,0.000000,-0.750000,-0.550000,-0.750000,-0.550000,0.750000,0.000000,0.750000,0.000000,0.744959,
0.000000,0.744959,$1*%
G04 Aperture macros list end*
G04 #@! TA.AperFunction,ComponentPad*
%ADD10C,1.600000*%
G04 #@! TD*
G04 #@! TA.AperFunction,ComponentPad*
%ADD11R,1.600000X1.600000*%
G04 #@! TD*
G04 #@! TA.AperFunction,ComponentPad*
%ADD12R,1.700000X1.700000*%
G04 #@! TD*
G04 #@! TA.AperFunction,ComponentPad*
%ADD13O,1.700000X1.700000*%
G04 #@! TD*
G04 #@! TA.AperFunction,ComponentPad*
%ADD14R,2.400000X1.600000*%
G04 #@! TD*
G04 #@! TA.AperFunction,ComponentPad*
%ADD15O,2.400000X1.600000*%
G04 #@! TD*
G04 #@! TA.AperFunction,ComponentPad*
%ADD16O,1.600000X1.600000*%
G04 #@! TD*
G04 #@! TA.AperFunction,SMDPad,CuDef*
%ADD17FreePoly0,0.000000*%
G04 #@! TD*
G04 #@! TA.AperFunction,SMDPad,CuDef*
%ADD18R,1.000000X1.500000*%
G04 #@! TD*
G04 #@! TA.AperFunction,SMDPad,CuDef*
%ADD19FreePoly1,0.000000*%
G04 #@! TD*
G04 #@! TA.AperFunction,ViaPad*
%ADD20C,0.800000*%
G04 #@! TD*
G04 #@! TA.AperFunction,Conductor*
%ADD21C,0.600000*%
G04 #@! TD*
G04 #@! TA.AperFunction,Conductor*
%ADD22C,0.250000*%
G04 #@! TD*
G04 APERTURE END LIST*
G36*
X78840000Y48330000D02*
G01*
X78340000Y48330000D01*
X78340000Y48930000D01*
X78840000Y48930000D01*
X78840000Y48330000D01*
G37*
D10*
X28500000Y51500000D03*
X31000000Y51500000D03*
D11*
X13500000Y62500000D03*
D10*
X13500000Y65000000D03*
X71000000Y51500000D03*
X73500000Y51500000D03*
X49000000Y51500000D03*
X51500000Y51500000D03*
D12*
X26000000Y62500000D03*
D13*
X26000000Y65040000D03*
X28540000Y62500000D03*
X28540000Y65040000D03*
X31080000Y62500000D03*
X31080000Y65040000D03*
X33620000Y62500000D03*
X33620000Y65040000D03*
X36160000Y62500000D03*
X36160000Y65040000D03*
X38700000Y62500000D03*
X38700000Y65040000D03*
X41240000Y62500000D03*
X41240000Y65040000D03*
X43780000Y62500000D03*
X43780000Y65040000D03*
X46320000Y62500000D03*
X46320000Y65040000D03*
X48860000Y62500000D03*
X48860000Y65040000D03*
X51400000Y62500000D03*
X51400000Y65040000D03*
X53940000Y62500000D03*
X53940000Y65040000D03*
X56480000Y62500000D03*
X56480000Y65040000D03*
X59020000Y62500000D03*
X59020000Y65040000D03*
X61560000Y62500000D03*
X61560000Y65040000D03*
X64100000Y62500000D03*
X64100000Y65040000D03*
X66640000Y62500000D03*
X66640000Y65040000D03*
X69180000Y62500000D03*
X69180000Y65040000D03*
X71720000Y62500000D03*
X71720000Y65040000D03*
X74260000Y62500000D03*
X74260000Y65040000D03*
D12*
X92000000Y33000000D03*
D13*
X92000000Y30460000D03*
X92000000Y27920000D03*
X92000000Y25380000D03*
X92000000Y22840000D03*
D14*
X23000000Y48500000D03*
D15*
X23000000Y45960000D03*
X23000000Y43420000D03*
X23000000Y40880000D03*
X23000000Y38340000D03*
X23000000Y35800000D03*
X23000000Y33260000D03*
X30620000Y33260000D03*
X30620000Y35800000D03*
X30620000Y38340000D03*
X30620000Y40880000D03*
X30620000Y43420000D03*
X30620000Y45960000D03*
X30620000Y48500000D03*
D14*
X36000000Y48500000D03*
D15*
X36000000Y45960000D03*
X36000000Y43420000D03*
X36000000Y40880000D03*
X36000000Y38340000D03*
X36000000Y35800000D03*
X36000000Y33260000D03*
X36000000Y30720000D03*
X36000000Y28180000D03*
X36000000Y25640000D03*
X36000000Y23100000D03*
X36000000Y20560000D03*
X36000000Y18020000D03*
X36000000Y15480000D03*
X51240000Y15480000D03*
X51240000Y18020000D03*
X51240000Y20560000D03*
X51240000Y23100000D03*
X51240000Y25640000D03*
X51240000Y28180000D03*
X51240000Y30720000D03*
X51240000Y33260000D03*
X51240000Y35800000D03*
X51240000Y38340000D03*
X51240000Y40880000D03*
X51240000Y43420000D03*
X51240000Y45960000D03*
X51240000Y48500000D03*
D14*
X58955000Y48390000D03*
D15*
X58955000Y45850000D03*
X58955000Y43310000D03*
X58955000Y40770000D03*
X58955000Y38230000D03*
X58955000Y35690000D03*
X58955000Y33150000D03*
X58955000Y30610000D03*
X58955000Y28070000D03*
X58955000Y25530000D03*
X58955000Y22990000D03*
X58955000Y20450000D03*
X58955000Y17910000D03*
X58955000Y15370000D03*
X58955000Y12830000D03*
X58955000Y10290000D03*
X74195000Y10290000D03*
X74195000Y12830000D03*
X74195000Y15370000D03*
X74195000Y17910000D03*
X74195000Y20450000D03*
X74195000Y22990000D03*
X74195000Y25530000D03*
X74195000Y28070000D03*
X74195000Y30610000D03*
X74195000Y33150000D03*
X74195000Y35690000D03*
X74195000Y38230000D03*
X74195000Y40770000D03*
X74195000Y43310000D03*
X74195000Y45850000D03*
X74195000Y48390000D03*
D10*
X79130000Y33750000D03*
D16*
X79130000Y43910000D03*
D17*
X77940000Y48630000D03*
D18*
X79240000Y48630000D03*
D19*
X80540000Y48630000D03*
D20*
X62166500Y54451000D03*
X62923800Y57045500D03*
X59882000Y57043000D03*
X45329800Y23100000D03*
D21*
X13500000Y62500000D02*
X26000000Y62500000D01*
X26000000Y62500000D02*
X28540000Y62500000D01*
X51500000Y51500000D02*
X52814100Y52814100D01*
X72185900Y52814100D02*
X73500000Y51500000D01*
X79130000Y40075300D02*
X75895300Y43310000D01*
X52814100Y52814100D02*
X72185900Y52814100D01*
X79130000Y33750000D02*
X79130000Y40075300D01*
X31000000Y51500000D02*
X46539700Y51500000D01*
X46539700Y51500000D02*
X49539700Y48500000D01*
X74195000Y43310000D02*
X75895300Y43310000D01*
X51240000Y48500000D02*
X49539700Y48500000D01*
X57254700Y45850000D02*
X53304300Y49800400D01*
X50699600Y49800400D02*
X49000000Y51500000D01*
X37700300Y15480000D02*
X42890300Y10290000D01*
X65350000Y45850000D02*
X58955000Y45850000D01*
X29809100Y52809100D02*
X47690900Y52809100D01*
X26000000Y65040000D02*
X28540000Y65040000D01*
X42890300Y10290000D02*
X58955000Y10290000D01*
X71000000Y51500000D02*
X65350000Y45850000D01*
X28500000Y51500000D02*
X29809100Y52809100D01*
X47690900Y52809100D02*
X49000000Y51500000D01*
X36000000Y15480000D02*
X37700300Y15480000D01*
X58955000Y45850000D02*
X57254700Y45850000D01*
X53304300Y49800400D02*
X50699600Y49800400D01*
D22*
X80540000Y49103800D02*
X80540000Y48630000D01*
X76475200Y49730800D02*
X79913000Y49730800D01*
X28864800Y53514500D02*
X73141100Y53514500D01*
X73141100Y53514500D02*
X76475200Y50180400D01*
X76475200Y50180400D02*
X76475200Y49730800D01*
X79913000Y49730800D02*
X80540000Y49103800D01*
X74260000Y65040000D02*
X74260000Y63864700D01*
X75481700Y55855100D02*
X75481700Y63009200D01*
X74626200Y63864700D02*
X74260000Y63864700D01*
X30620000Y38340000D02*
X29094700Y38340000D01*
X27359600Y52009300D02*
X28864800Y53514500D01*
X76475200Y46604900D02*
X75720300Y45850000D01*
X27359600Y40075100D02*
X27359600Y52009300D01*
X76475200Y49730800D02*
X76475200Y46604900D01*
X73141100Y53514500D02*
X75481700Y55855100D01*
X74195000Y45850000D02*
X75720300Y45850000D01*
X75481700Y63009200D02*
X74626200Y63864700D01*
X29094700Y38340000D02*
X27359600Y40075100D01*
X37525300Y48500000D02*
X41251000Y44774300D01*
X73084700Y62500000D02*
X73084700Y62132700D01*
X55951200Y43310000D02*
X57429700Y43310000D01*
X73084700Y62132700D02*
X65403000Y54451000D01*
X41251000Y44774300D02*
X54486900Y44774300D01*
X74260000Y62500000D02*
X73084700Y62500000D01*
X65403000Y54451000D02*
X62166500Y54451000D01*
X54486900Y44774300D02*
X55951200Y43310000D01*
X58955000Y43310000D02*
X57429700Y43310000D01*
X36000000Y48500000D02*
X37525300Y48500000D01*
X74195000Y38230000D02*
X75720300Y38230000D01*
X78678300Y32606300D02*
X75720300Y35564300D01*
X71720000Y65040000D02*
X72895300Y65040000D01*
X73710200Y66222200D02*
X74741000Y66222200D01*
X57429600Y42040000D02*
X56817600Y42652000D01*
X75720300Y35564300D02*
X75720300Y38230000D01*
X72895300Y65040000D02*
X72895300Y65407300D01*
X74741000Y66222200D02*
X81365600Y59597600D01*
X79583500Y32606300D02*
X78678300Y32606300D01*
X56817600Y42652000D02*
X53533300Y42652000D01*
X72895300Y65407300D02*
X73710200Y66222200D01*
X81365600Y34388400D02*
X79583500Y32606300D01*
X72669700Y38230000D02*
X68859700Y42040000D01*
X53533300Y42652000D02*
X52765300Y43420000D01*
X51240000Y43420000D02*
X52765300Y43420000D01*
X74195000Y38230000D02*
X72669700Y38230000D01*
X68859700Y42040000D02*
X57429600Y42040000D01*
X81365600Y59597600D02*
X81365600Y34388400D01*
X65457500Y57045500D02*
X62923800Y57045500D01*
X56049700Y42150000D02*
X57429700Y40770000D01*
X41335300Y42150000D02*
X56049700Y42150000D01*
X70544700Y62500000D02*
X70544700Y62132700D01*
X71720000Y62500000D02*
X70544700Y62500000D01*
X36000000Y45960000D02*
X37525300Y45960000D01*
X70544700Y62132700D02*
X65457500Y57045500D01*
X58955000Y40770000D02*
X57429700Y40770000D01*
X37525300Y45960000D02*
X41335300Y42150000D01*
X74195000Y30610000D02*
X72669700Y30610000D01*
X70355300Y65040000D02*
X70355300Y65407300D01*
X68785800Y34493900D02*
X54844500Y34493900D01*
X74927400Y66672700D02*
X81816000Y59784100D01*
X72669700Y30610000D02*
X68785800Y34493900D01*
X81816000Y59784100D02*
X81816000Y34166500D01*
X71620700Y66672700D02*
X74927400Y66672700D01*
X70355300Y65407300D02*
X71620700Y66672700D01*
X69180000Y65040000D02*
X70355300Y65040000D01*
X54844500Y34493900D02*
X53538400Y35800000D01*
X81816000Y34166500D02*
X78259500Y30610000D01*
X78259500Y30610000D02*
X74195000Y30610000D01*
X53538400Y35800000D02*
X51240000Y35800000D01*
X53155200Y30720000D02*
X52765300Y30720000D01*
X74195000Y25530000D02*
X72669700Y25530000D01*
X51240000Y30720000D02*
X52765300Y30720000D01*
X54672800Y29202400D02*
X53155200Y30720000D01*
X72669700Y25530000D02*
X68997300Y29202400D01*
X68997300Y29202400D02*
X54672800Y29202400D01*
X51240000Y38340000D02*
X52765300Y38340000D01*
X54289500Y36815800D02*
X69003900Y36815800D01*
X52765300Y38340000D02*
X54289500Y36815800D01*
X69003900Y36815800D02*
X72669700Y33150000D01*
X74195000Y33150000D02*
X72669700Y33150000D01*
X74195000Y35690000D02*
X72669700Y35690000D01*
X54289500Y39355800D02*
X69003900Y39355800D01*
X51240000Y40880000D02*
X52765300Y40880000D01*
X52765300Y40880000D02*
X54289500Y39355800D01*
X69003900Y39355800D02*
X72669700Y35690000D01*
X41335300Y39610000D02*
X37525300Y43420000D01*
X58955000Y38230000D02*
X54285300Y38230000D01*
X54285300Y38230000D02*
X52905300Y39610000D01*
X52905300Y39610000D02*
X41335300Y39610000D01*
X36000000Y43420000D02*
X37525300Y43420000D01*
X36000000Y40880000D02*
X37525300Y40880000D01*
X41335300Y37070000D02*
X37525300Y40880000D01*
X54285300Y35690000D02*
X52905300Y37070000D01*
X52905300Y37070000D02*
X41335300Y37070000D01*
X58955000Y35690000D02*
X57429700Y35690000D01*
X57429700Y35690000D02*
X54285300Y35690000D01*
X58955000Y33150000D02*
X54340800Y33150000D01*
X41335300Y34530000D02*
X37525300Y38340000D01*
X54340800Y33150000D02*
X52960800Y34530000D01*
X61560000Y63864700D02*
X61192600Y63864700D01*
X61192600Y63864700D02*
X60384700Y63056800D01*
X52960800Y34530000D02*
X41335300Y34530000D01*
X60384700Y57545700D02*
X59882000Y57043000D01*
X36000000Y38340000D02*
X37525300Y38340000D01*
X61560000Y65040000D02*
X61560000Y63864700D01*
X60384700Y63056800D02*
X60384700Y57545700D01*
X36000000Y35800000D02*
X37525300Y35800000D01*
X56159800Y31879900D02*
X41445400Y31879900D01*
X58955000Y30610000D02*
X57429700Y30610000D01*
X57429700Y30610000D02*
X56159800Y31879900D01*
X41445400Y31879900D02*
X37525300Y35800000D01*
X36000000Y33260000D02*
X37525300Y33260000D01*
X58955000Y28070000D02*
X57429700Y28070000D01*
X55037000Y28070000D02*
X53657000Y29450000D01*
X57429700Y28070000D02*
X55037000Y28070000D01*
X53657000Y29450000D02*
X41335300Y29450000D01*
X41335300Y29450000D02*
X37525300Y33260000D01*
X58955000Y25530000D02*
X57429700Y25530000D01*
X41335300Y26910000D02*
X37525300Y30720000D01*
X36000000Y30720000D02*
X37525300Y30720000D01*
X56049700Y26910000D02*
X41335300Y26910000D01*
X57429700Y25530000D02*
X56049700Y26910000D01*
X52812300Y24463000D02*
X41242300Y24463000D01*
X58955000Y22990000D02*
X54285300Y22990000D01*
X54285300Y22990000D02*
X52812300Y24463000D01*
X36000000Y28180000D02*
X37525300Y28180000D01*
X41242300Y24463000D02*
X37525300Y28180000D01*
X39311600Y23853700D02*
X47686600Y23853700D01*
X52170200Y21830000D02*
X53550200Y20450000D01*
X47686600Y23853700D02*
X49710300Y21830000D01*
X49710300Y21830000D02*
X52170200Y21830000D01*
X53550200Y20450000D02*
X58955000Y20450000D01*
X37525300Y25640000D02*
X39311600Y23853700D01*
X36000000Y25640000D02*
X37525300Y25640000D01*
X68928100Y24191600D02*
X54213700Y24191600D01*
X72669700Y20450000D02*
X68928100Y24191600D01*
X74195000Y20450000D02*
X72669700Y20450000D01*
X51240000Y25640000D02*
X52765300Y25640000D01*
X54213700Y24191600D02*
X52765300Y25640000D01*
X51240000Y23100000D02*
X52765300Y23100000D01*
X74195000Y17910000D02*
X72669700Y17910000D01*
X72669700Y17910000D02*
X68859700Y21720000D01*
X68859700Y21720000D02*
X54145300Y21720000D01*
X54145300Y21720000D02*
X52765300Y23100000D01*
X51240000Y20560000D02*
X52765300Y20560000D01*
X71255100Y16784600D02*
X56540700Y16784600D01*
X74195000Y15370000D02*
X72669700Y15370000D01*
X72669700Y15370000D02*
X71255100Y16784600D01*
X56540700Y16784600D02*
X52765300Y20560000D01*
X74195000Y12830000D02*
X72669700Y12830000D01*
X51240000Y18020000D02*
X52765300Y18020000D01*
X52765300Y18020000D02*
X56540700Y14244600D01*
X56540700Y14244600D02*
X71255100Y14244600D01*
X71255100Y14244600D02*
X72669700Y12830000D01*
X74195000Y10290000D02*
X72669700Y10290000D01*
X56540700Y11704600D02*
X71255100Y11704600D01*
X71255100Y11704600D02*
X72669700Y10290000D01*
X51240000Y15480000D02*
X52765300Y15480000D01*
X52765300Y15480000D02*
X56540700Y11704600D01*
X38650700Y16894600D02*
X52395400Y16894600D01*
X56460000Y12830000D02*
X58955000Y12830000D01*
X36000000Y18020000D02*
X37525300Y18020000D01*
X37525300Y18020000D02*
X38650700Y16894600D01*
X52395400Y16894600D02*
X56460000Y12830000D01*
X37525300Y20560000D02*
X38650700Y19434600D01*
X38650700Y19434600D02*
X52442800Y19434600D01*
X56507400Y15370000D02*
X58955000Y15370000D01*
X36000000Y20560000D02*
X37525300Y20560000D01*
X52442800Y19434600D02*
X56507400Y15370000D01*
X36000000Y23100000D02*
X45329800Y23100000D01*
X29713500Y37070000D02*
X24525300Y42258200D01*
X35060500Y32134600D02*
X33454600Y33740500D01*
X31415300Y37070000D02*
X29713500Y37070000D01*
X33454600Y33740500D02*
X33454600Y35030700D01*
X51240000Y28180000D02*
X49714700Y28180000D01*
X33454600Y35030700D02*
X31415300Y37070000D01*
X36747600Y32134600D02*
X35060500Y32134600D01*
X23000000Y43420000D02*
X24525300Y43420000D01*
X49714700Y28180000D02*
X40702200Y28180000D01*
X40702200Y28180000D02*
X36747600Y32134600D01*
X24525300Y42258200D02*
X24525300Y43420000D01*
X21474700Y40397900D02*
X21474700Y45960000D01*
X23793300Y39610000D02*
X22262600Y39610000D01*
X23000000Y45960000D02*
X21474700Y45960000D01*
X29094700Y33260000D02*
X29094700Y34308600D01*
X30620000Y33260000D02*
X29094700Y33260000D01*
X22262600Y39610000D02*
X21474700Y40397900D01*
X29094700Y34308600D02*
X23793300Y39610000D01*
X79130000Y43910000D02*
X79130000Y45035300D01*
X77940000Y48630000D02*
X77940000Y46225300D01*
X77940000Y46225300D02*
X79130000Y45035300D01*
X80272100Y43414500D02*
X80272100Y44530100D01*
X32145300Y47147800D02*
X34622900Y49625400D01*
X80272100Y44530100D02*
X79240000Y45562200D01*
X77957600Y42767200D02*
X79624800Y42767200D01*
X79240000Y45562200D02*
X79240000Y48630000D01*
X32145300Y43420000D02*
X32145300Y47147800D01*
X48363000Y47374600D02*
X53755900Y47374600D01*
X56405800Y44724700D02*
X76000100Y44724700D01*
X46112200Y49625400D02*
X48363000Y47374600D01*
X53755900Y47374600D02*
X56405800Y44724700D01*
X76000100Y44724700D02*
X77957600Y42767200D01*
X79624800Y42767200D02*
X80272100Y43414500D01*
X34622900Y49625400D02*
X46112200Y49625400D01*
X30620000Y43420000D02*
X32145300Y43420000D01*
G04 #@! TA.AperFunction,Conductor*
G36*
X99433621Y74471498D02*
G01*
X99480114Y74417842D01*
X99491500Y74365500D01*
X99491500Y634500D01*
X99471498Y566379D01*
X99417842Y519886D01*
X99365500Y508500D01*
X634500Y508500D01*
X566379Y528502D01*
X519886Y582158D01*
X508500Y634500D01*
X508500Y4367297D01*
X3390743Y4367297D01*
X3428268Y4082266D01*
X3504129Y3804964D01*
X3616923Y3540524D01*
X3764561Y3293839D01*
X3944313Y3069472D01*
X4152851Y2871577D01*
X4386317Y2703814D01*
X4390112Y2701805D01*
X4390113Y2701804D01*
X4411869Y2690285D01*
X4640392Y2569288D01*
X4910373Y2470489D01*
X5191264Y2409245D01*
X5219841Y2406996D01*
X5414282Y2391693D01*
X5414291Y2391693D01*
X5416739Y2391500D01*
X5572271Y2391500D01*
X5574407Y2391646D01*
X5574418Y2391646D01*
X5782548Y2405835D01*
X5782554Y2405836D01*
X5786825Y2406127D01*
X5791020Y2406996D01*
X5791022Y2406996D01*
X5927584Y2435277D01*
X6068342Y2464426D01*
X6339343Y2560393D01*
X6594812Y2692250D01*
X6598313Y2694711D01*
X6598317Y2694713D01*
X6712418Y2774905D01*
X6830023Y2857559D01*
X7040622Y3053260D01*
X7222713Y3275732D01*
X7372927Y3520858D01*
X7488483Y3784102D01*
X7567244Y4060594D01*
X7607751Y4345216D01*
X7607845Y4363049D01*
X7607867Y4367297D01*
X92390743Y4367297D01*
X92428268Y4082266D01*
X92504129Y3804964D01*
X92616923Y3540524D01*
X92764561Y3293839D01*
X92944313Y3069472D01*
X93152851Y2871577D01*
X93386317Y2703814D01*
X93390112Y2701805D01*
X93390113Y2701804D01*
X93411869Y2690285D01*
X93640392Y2569288D01*
X93910373Y2470489D01*
X94191264Y2409245D01*
X94219841Y2406996D01*
X94414282Y2391693D01*
X94414291Y2391693D01*
X94416739Y2391500D01*
X94572271Y2391500D01*
X94574407Y2391646D01*
X94574418Y2391646D01*
X94782548Y2405835D01*
X94782554Y2405836D01*
X94786825Y2406127D01*
X94791020Y2406996D01*
X94791022Y2406996D01*
X94927584Y2435277D01*
X95068342Y2464426D01*
X95339343Y2560393D01*
X95594812Y2692250D01*
X95598313Y2694711D01*
X95598317Y2694713D01*
X95712418Y2774905D01*
X95830023Y2857559D01*
X96040622Y3053260D01*
X96222713Y3275732D01*
X96372927Y3520858D01*
X96488483Y3784102D01*
X96567244Y4060594D01*
X96607751Y4345216D01*
X96607845Y4363049D01*
X96609235Y4628417D01*
X96609235Y4628424D01*
X96609257Y4632703D01*
X96571732Y4917734D01*
X96495871Y5195036D01*
X96383077Y5459476D01*
X96235439Y5706161D01*
X96055687Y5930528D01*
X95847149Y6128423D01*
X95613683Y6296186D01*
X95591843Y6307750D01*
X95568654Y6320028D01*
X95359608Y6430712D01*
X95089627Y6529511D01*
X94808736Y6590755D01*
X94777685Y6593199D01*
X94585718Y6608307D01*
X94585709Y6608307D01*
X94583261Y6608500D01*
X94427729Y6608500D01*
X94425593Y6608354D01*
X94425582Y6608354D01*
X94217452Y6594165D01*
X94217446Y6594164D01*
X94213175Y6593873D01*
X94208980Y6593004D01*
X94208978Y6593004D01*
X94072417Y6564724D01*
X93931658Y6535574D01*
X93660657Y6439607D01*
X93405188Y6307750D01*
X93401687Y6305289D01*
X93401683Y6305287D01*
X93391594Y6298196D01*
X93169977Y6142441D01*
X92959378Y5946740D01*
X92777287Y5724268D01*
X92627073Y5479142D01*
X92511517Y5215898D01*
X92432756Y4939406D01*
X92392249Y4654784D01*
X92392227Y4650495D01*
X92392226Y4650488D01*
X92390765Y4371583D01*
X92390743Y4367297D01*
X7607867Y4367297D01*
X7609235Y4628417D01*
X7609235Y4628424D01*
X7609257Y4632703D01*
X7571732Y4917734D01*
X7495871Y5195036D01*
X7383077Y5459476D01*
X7235439Y5706161D01*
X7055687Y5930528D01*
X6847149Y6128423D01*
X6613683Y6296186D01*
X6591843Y6307750D01*
X6568654Y6320028D01*
X6359608Y6430712D01*
X6089627Y6529511D01*
X5808736Y6590755D01*
X5777685Y6593199D01*
X5585718Y6608307D01*
X5585709Y6608307D01*
X5583261Y6608500D01*
X5427729Y6608500D01*
X5425593Y6608354D01*
X5425582Y6608354D01*
X5217452Y6594165D01*
X5217446Y6594164D01*
X5213175Y6593873D01*
X5208980Y6593004D01*
X5208978Y6593004D01*
X5072417Y6564724D01*
X4931658Y6535574D01*
X4660657Y6439607D01*
X4405188Y6307750D01*
X4401687Y6305289D01*
X4401683Y6305287D01*
X4391594Y6298196D01*
X4169977Y6142441D01*
X3959378Y5946740D01*
X3777287Y5724268D01*
X3627073Y5479142D01*
X3511517Y5215898D01*
X3432756Y4939406D01*
X3392249Y4654784D01*
X3392227Y4650495D01*
X3392226Y4650488D01*
X3390765Y4371583D01*
X3390743Y4367297D01*
X508500Y4367297D01*
X508500Y10023478D01*
X57272273Y10023478D01*
X57319764Y9846239D01*
X57323510Y9835947D01*
X57415586Y9638489D01*
X57421069Y9628993D01*
X57546028Y9450533D01*
X57553084Y9442125D01*
X57707125Y9288084D01*
X57715533Y9281028D01*
X57893993Y9156069D01*
X57903489Y9150586D01*
X58100947Y9058510D01*
X58111239Y9054764D01*
X58321688Y8998375D01*
X58332481Y8996472D01*
X58495170Y8982238D01*
X58500635Y8982000D01*
X58682885Y8982000D01*
X58698124Y8986475D01*
X58699329Y8987865D01*
X58701000Y8995548D01*
X58701000Y9000115D01*
X59209000Y9000115D01*
X59213475Y8984876D01*
X59214865Y8983671D01*
X59222548Y8982000D01*
X59409365Y8982000D01*
X59414830Y8982238D01*
X59577519Y8996472D01*
X59588312Y8998375D01*
X59798761Y9054764D01*
X59809053Y9058510D01*
X60006511Y9150586D01*
X60016007Y9156069D01*
X60194467Y9281028D01*
X60202875Y9288084D01*
X60356916Y9442125D01*
X60363972Y9450533D01*
X60488931Y9628993D01*
X60494414Y9638489D01*
X60586490Y9835947D01*
X60590236Y9846239D01*
X60636394Y10018503D01*
X60636058Y10032599D01*
X60628116Y10036000D01*
X59227115Y10036000D01*
X59211876Y10031525D01*
X59210671Y10030135D01*
X59209000Y10022452D01*
X59209000Y9000115D01*
X58701000Y9000115D01*
X58701000Y10017885D01*
X58696525Y10033124D01*
X58695135Y10034329D01*
X58687452Y10036000D01*
X57287033Y10036000D01*
X57273502Y10032027D01*
X57272273Y10023478D01*
X508500Y10023478D01*
X508500Y15213478D01*
X34317273Y15213478D01*
X34364764Y15036239D01*
X34368510Y15025947D01*
X34460586Y14828489D01*
X34466069Y14818993D01*
X34591028Y14640533D01*
X34598084Y14632125D01*
X34752125Y14478084D01*
X34760533Y14471028D01*
X34938993Y14346069D01*
X34948489Y14340586D01*
X35145947Y14248510D01*
X35156239Y14244764D01*
X35366688Y14188375D01*
X35377481Y14186472D01*
X35540170Y14172238D01*
X35545635Y14172000D01*
X35727885Y14172000D01*
X35743124Y14176475D01*
X35744329Y14177865D01*
X35746000Y14185548D01*
X35746000Y14190115D01*
X36254000Y14190115D01*
X36258475Y14174876D01*
X36259865Y14173671D01*
X36267548Y14172000D01*
X36454365Y14172000D01*
X36459830Y14172238D01*
X36622519Y14186472D01*
X36633312Y14188375D01*
X36843761Y14244764D01*
X36854053Y14248510D01*
X37051511Y14340586D01*
X37061007Y14346069D01*
X37239467Y14471028D01*
X37247875Y14478084D01*
X37401916Y14632125D01*
X37408972Y14640533D01*
X37533931Y14818993D01*
X37539414Y14828489D01*
X37631490Y15025947D01*
X37635236Y15036239D01*
X37681394Y15208503D01*
X37681058Y15222599D01*
X37673116Y15226000D01*
X36272115Y15226000D01*
X36256876Y15221525D01*
X36255671Y15220135D01*
X36254000Y15212452D01*
X36254000Y14190115D01*
X35746000Y14190115D01*
X35746000Y15207885D01*
X35741525Y15223124D01*
X35740135Y15224329D01*
X35732452Y15226000D01*
X34332033Y15226000D01*
X34318502Y15222027D01*
X34317273Y15213478D01*
X508500Y15213478D01*
X508500Y32993478D01*
X21317273Y32993478D01*
X21364764Y32816239D01*
X21368510Y32805947D01*
X21460586Y32608489D01*
X21466069Y32598993D01*
X21591028Y32420533D01*
X21598084Y32412125D01*
X21752125Y32258084D01*
X21760533Y32251028D01*
X21938993Y32126069D01*
X21948489Y32120586D01*
X22145947Y32028510D01*
X22156239Y32024764D01*
X22366688Y31968375D01*
X22377481Y31966472D01*
X22540170Y31952238D01*
X22545635Y31952000D01*
X22727885Y31952000D01*
X22743124Y31956475D01*
X22744329Y31957865D01*
X22746000Y31965548D01*
X22746000Y31970115D01*
X23254000Y31970115D01*
X23258475Y31954876D01*
X23259865Y31953671D01*
X23267548Y31952000D01*
X23454365Y31952000D01*
X23459830Y31952238D01*
X23622519Y31966472D01*
X23633312Y31968375D01*
X23843761Y32024764D01*
X23854053Y32028510D01*
X24051511Y32120586D01*
X24061007Y32126069D01*
X24239467Y32251028D01*
X24247875Y32258084D01*
X24401916Y32412125D01*
X24408972Y32420533D01*
X24533931Y32598993D01*
X24539414Y32608489D01*
X24631490Y32805947D01*
X24635236Y32816239D01*
X24681394Y32988503D01*
X24681058Y33002599D01*
X24673116Y33006000D01*
X23272115Y33006000D01*
X23256876Y33001525D01*
X23255671Y33000135D01*
X23254000Y32992452D01*
X23254000Y31970115D01*
X22746000Y31970115D01*
X22746000Y32987885D01*
X22741525Y33003124D01*
X22740135Y33004329D01*
X22732452Y33006000D01*
X21332033Y33006000D01*
X21318502Y33002027D01*
X21317273Y32993478D01*
X508500Y32993478D01*
X508500Y61651866D01*
X12191500Y61651866D01*
X12198255Y61589684D01*
X12249385Y61453295D01*
X12336739Y61336739D01*
X12453295Y61249385D01*
X12589684Y61198255D01*
X12651866Y61191500D01*
X14348134Y61191500D01*
X14410316Y61198255D01*
X14546705Y61249385D01*
X14663261Y61336739D01*
X14750615Y61453295D01*
X14790199Y61558885D01*
X14798972Y61582286D01*
X14798973Y61582289D01*
X14801745Y61589684D01*
X14802372Y61595453D01*
X14837126Y61656291D01*
X14900081Y61689113D01*
X14924493Y61691500D01*
X24518709Y61691500D01*
X24586830Y61671498D01*
X24633323Y61617842D01*
X24643972Y61579108D01*
X24648255Y61539684D01*
X24699385Y61403295D01*
X24786739Y61286739D01*
X24903295Y61199385D01*
X25039684Y61148255D01*
X25101866Y61141500D01*
X26898134Y61141500D01*
X26960316Y61148255D01*
X27096705Y61199385D01*
X27213261Y61286739D01*
X27300615Y61403295D01*
X27316665Y61446109D01*
X27344598Y61520618D01*
X27387240Y61577382D01*
X27453802Y61602082D01*
X27523150Y61586874D01*
X27557817Y61558886D01*
X27586250Y61526062D01*
X27758126Y61383368D01*
X27951000Y61270662D01*
X28159692Y61190970D01*
X28164760Y61189939D01*
X28164763Y61189938D01*
X28253959Y61171791D01*
X28378597Y61146433D01*
X28383772Y61146243D01*
X28383774Y61146243D01*
X28596673Y61138436D01*
X28596677Y61138436D01*
X28601837Y61138247D01*
X28606957Y61138903D01*
X28606959Y61138903D01*
X28818288Y61165975D01*
X28818289Y61165975D01*
X28823416Y61166632D01*
X28840612Y61171791D01*
X29032429Y61229339D01*
X29032434Y61229341D01*
X29037384Y61230826D01*
X29237994Y61329104D01*
X29419860Y61458827D01*
X29578096Y61616511D01*
X29708453Y61797923D01*
X29709776Y61796972D01*
X29756645Y61840143D01*
X29826580Y61852375D01*
X29892026Y61824856D01*
X29919875Y61793006D01*
X29979987Y61694912D01*
X30126250Y61526062D01*
X30298126Y61383368D01*
X30491000Y61270662D01*
X30699692Y61190970D01*
X30704760Y61189939D01*
X30704763Y61189938D01*
X30793959Y61171791D01*
X30918597Y61146433D01*
X30923772Y61146243D01*
X30923774Y61146243D01*
X31136673Y61138436D01*
X31136677Y61138436D01*
X31141837Y61138247D01*
X31146957Y61138903D01*
X31146959Y61138903D01*
X31358288Y61165975D01*
X31358289Y61165975D01*
X31363416Y61166632D01*
X31380612Y61171791D01*
X31572429Y61229339D01*
X31572434Y61229341D01*
X31577384Y61230826D01*
X31777994Y61329104D01*
X31959860Y61458827D01*
X32118096Y61616511D01*
X32248453Y61797923D01*
X32249776Y61796972D01*
X32296645Y61840143D01*
X32366580Y61852375D01*
X32432026Y61824856D01*
X32459875Y61793006D01*
X32519987Y61694912D01*
X32666250Y61526062D01*
X32838126Y61383368D01*
X33031000Y61270662D01*
X33239692Y61190970D01*
X33244760Y61189939D01*
X33244763Y61189938D01*
X33333959Y61171791D01*
X33458597Y61146433D01*
X33463772Y61146243D01*
X33463774Y61146243D01*
X33676673Y61138436D01*
X33676677Y61138436D01*
X33681837Y61138247D01*
X33686957Y61138903D01*
X33686959Y61138903D01*
X33898288Y61165975D01*
X33898289Y61165975D01*
X33903416Y61166632D01*
X33920612Y61171791D01*
X34112429Y61229339D01*
X34112434Y61229341D01*
X34117384Y61230826D01*
X34317994Y61329104D01*
X34499860Y61458827D01*
X34658096Y61616511D01*
X34788453Y61797923D01*
X34789776Y61796972D01*
X34836645Y61840143D01*
X34906580Y61852375D01*
X34972026Y61824856D01*
X34999875Y61793006D01*
X35059987Y61694912D01*
X35206250Y61526062D01*
X35378126Y61383368D01*
X35571000Y61270662D01*
X35779692Y61190970D01*
X35784760Y61189939D01*
X35784763Y61189938D01*
X35873959Y61171791D01*
X35998597Y61146433D01*
X36003772Y61146243D01*
X36003774Y61146243D01*
X36216673Y61138436D01*
X36216677Y61138436D01*
X36221837Y61138247D01*
X36226957Y61138903D01*
X36226959Y61138903D01*
X36438288Y61165975D01*
X36438289Y61165975D01*
X36443416Y61166632D01*
X36460612Y61171791D01*
X36652429Y61229339D01*
X36652434Y61229341D01*
X36657384Y61230826D01*
X36857994Y61329104D01*
X37039860Y61458827D01*
X37198096Y61616511D01*
X37328453Y61797923D01*
X37329776Y61796972D01*
X37376645Y61840143D01*
X37446580Y61852375D01*
X37512026Y61824856D01*
X37539875Y61793006D01*
X37599987Y61694912D01*
X37746250Y61526062D01*
X37918126Y61383368D01*
X38111000Y61270662D01*
X38319692Y61190970D01*
X38324760Y61189939D01*
X38324763Y61189938D01*
X38413959Y61171791D01*
X38538597Y61146433D01*
X38543772Y61146243D01*
X38543774Y61146243D01*
X38756673Y61138436D01*
X38756677Y61138436D01*
X38761837Y61138247D01*
X38766957Y61138903D01*
X38766959Y61138903D01*
X38978288Y61165975D01*
X38978289Y61165975D01*
X38983416Y61166632D01*
X39000612Y61171791D01*
X39192429Y61229339D01*
X39192434Y61229341D01*
X39197384Y61230826D01*
X39397994Y61329104D01*
X39579860Y61458827D01*
X39738096Y61616511D01*
X39868453Y61797923D01*
X39869776Y61796972D01*
X39916645Y61840143D01*
X39986580Y61852375D01*
X40052026Y61824856D01*
X40079875Y61793006D01*
X40139987Y61694912D01*
X40286250Y61526062D01*
X40458126Y61383368D01*
X40651000Y61270662D01*
X40859692Y61190970D01*
X40864760Y61189939D01*
X40864763Y61189938D01*
X40953959Y61171791D01*
X41078597Y61146433D01*
X41083772Y61146243D01*
X41083774Y61146243D01*
X41296673Y61138436D01*
X41296677Y61138436D01*
X41301837Y61138247D01*
X41306957Y61138903D01*
X41306959Y61138903D01*
X41518288Y61165975D01*
X41518289Y61165975D01*
X41523416Y61166632D01*
X41540612Y61171791D01*
X41732429Y61229339D01*
X41732434Y61229341D01*
X41737384Y61230826D01*
X41937994Y61329104D01*
X42119860Y61458827D01*
X42278096Y61616511D01*
X42408453Y61797923D01*
X42409776Y61796972D01*
X42456645Y61840143D01*
X42526580Y61852375D01*
X42592026Y61824856D01*
X42619875Y61793006D01*
X42679987Y61694912D01*
X42826250Y61526062D01*
X42998126Y61383368D01*
X43191000Y61270662D01*
X43399692Y61190970D01*
X43404760Y61189939D01*
X43404763Y61189938D01*
X43493959Y61171791D01*
X43618597Y61146433D01*
X43623772Y61146243D01*
X43623774Y61146243D01*
X43836673Y61138436D01*
X43836677Y61138436D01*
X43841837Y61138247D01*
X43846957Y61138903D01*
X43846959Y61138903D01*
X44058288Y61165975D01*
X44058289Y61165975D01*
X44063416Y61166632D01*
X44080612Y61171791D01*
X44272429Y61229339D01*
X44272434Y61229341D01*
X44277384Y61230826D01*
X44477994Y61329104D01*
X44659860Y61458827D01*
X44818096Y61616511D01*
X44948453Y61797923D01*
X44949776Y61796972D01*
X44996645Y61840143D01*
X45066580Y61852375D01*
X45132026Y61824856D01*
X45159875Y61793006D01*
X45219987Y61694912D01*
X45366250Y61526062D01*
X45538126Y61383368D01*
X45731000Y61270662D01*
X45939692Y61190970D01*
X45944760Y61189939D01*
X45944763Y61189938D01*
X46033959Y61171791D01*
X46158597Y61146433D01*
X46163772Y61146243D01*
X46163774Y61146243D01*
X46376673Y61138436D01*
X46376677Y61138436D01*
X46381837Y61138247D01*
X46386957Y61138903D01*
X46386959Y61138903D01*
X46598288Y61165975D01*
X46598289Y61165975D01*
X46603416Y61166632D01*
X46620612Y61171791D01*
X46812429Y61229339D01*
X46812434Y61229341D01*
X46817384Y61230826D01*
X47017994Y61329104D01*
X47199860Y61458827D01*
X47358096Y61616511D01*
X47488453Y61797923D01*
X47489776Y61796972D01*
X47536645Y61840143D01*
X47606580Y61852375D01*
X47672026Y61824856D01*
X47699875Y61793006D01*
X47759987Y61694912D01*
X47906250Y61526062D01*
X48078126Y61383368D01*
X48271000Y61270662D01*
X48479692Y61190970D01*
X48484760Y61189939D01*
X48484763Y61189938D01*
X48573959Y61171791D01*
X48698597Y61146433D01*
X48703772Y61146243D01*
X48703774Y61146243D01*
X48916673Y61138436D01*
X48916677Y61138436D01*
X48921837Y61138247D01*
X48926957Y61138903D01*
X48926959Y61138903D01*
X49138288Y61165975D01*
X49138289Y61165975D01*
X49143416Y61166632D01*
X49160612Y61171791D01*
X49352429Y61229339D01*
X49352434Y61229341D01*
X49357384Y61230826D01*
X49557994Y61329104D01*
X49739860Y61458827D01*
X49898096Y61616511D01*
X50028453Y61797923D01*
X50029776Y61796972D01*
X50076645Y61840143D01*
X50146580Y61852375D01*
X50212026Y61824856D01*
X50239875Y61793006D01*
X50299987Y61694912D01*
X50446250Y61526062D01*
X50618126Y61383368D01*
X50811000Y61270662D01*
X51019692Y61190970D01*
X51024760Y61189939D01*
X51024763Y61189938D01*
X51113959Y61171791D01*
X51238597Y61146433D01*
X51243772Y61146243D01*
X51243774Y61146243D01*
X51456673Y61138436D01*
X51456677Y61138436D01*
X51461837Y61138247D01*
X51466957Y61138903D01*
X51466959Y61138903D01*
X51678288Y61165975D01*
X51678289Y61165975D01*
X51683416Y61166632D01*
X51700612Y61171791D01*
X51892429Y61229339D01*
X51892434Y61229341D01*
X51897384Y61230826D01*
X52097994Y61329104D01*
X52279860Y61458827D01*
X52438096Y61616511D01*
X52568453Y61797923D01*
X52569776Y61796972D01*
X52616645Y61840143D01*
X52686580Y61852375D01*
X52752026Y61824856D01*
X52779875Y61793006D01*
X52839987Y61694912D01*
X52986250Y61526062D01*
X53158126Y61383368D01*
X53351000Y61270662D01*
X53559692Y61190970D01*
X53564760Y61189939D01*
X53564763Y61189938D01*
X53653959Y61171791D01*
X53778597Y61146433D01*
X53783772Y61146243D01*
X53783774Y61146243D01*
X53996673Y61138436D01*
X53996677Y61138436D01*
X54001837Y61138247D01*
X54006957Y61138903D01*
X54006959Y61138903D01*
X54218288Y61165975D01*
X54218289Y61165975D01*
X54223416Y61166632D01*
X54240612Y61171791D01*
X54432429Y61229339D01*
X54432434Y61229341D01*
X54437384Y61230826D01*
X54637994Y61329104D01*
X54819860Y61458827D01*
X54978096Y61616511D01*
X55108453Y61797923D01*
X55109776Y61796972D01*
X55156645Y61840143D01*
X55226580Y61852375D01*
X55292026Y61824856D01*
X55319875Y61793006D01*
X55379987Y61694912D01*
X55526250Y61526062D01*
X55698126Y61383368D01*
X55891000Y61270662D01*
X56099692Y61190970D01*
X56104760Y61189939D01*
X56104763Y61189938D01*
X56193959Y61171791D01*
X56318597Y61146433D01*
X56323772Y61146243D01*
X56323774Y61146243D01*
X56536673Y61138436D01*
X56536677Y61138436D01*
X56541837Y61138247D01*
X56546957Y61138903D01*
X56546959Y61138903D01*
X56758288Y61165975D01*
X56758289Y61165975D01*
X56763416Y61166632D01*
X56780612Y61171791D01*
X56972429Y61229339D01*
X56972434Y61229341D01*
X56977384Y61230826D01*
X57177994Y61329104D01*
X57359860Y61458827D01*
X57518096Y61616511D01*
X57648453Y61797923D01*
X57649776Y61796972D01*
X57696645Y61840143D01*
X57766580Y61852375D01*
X57832026Y61824856D01*
X57859875Y61793006D01*
X57919987Y61694912D01*
X58066250Y61526062D01*
X58238126Y61383368D01*
X58431000Y61270662D01*
X58639692Y61190970D01*
X58644760Y61189939D01*
X58644763Y61189938D01*
X58733959Y61171791D01*
X58858597Y61146433D01*
X58863772Y61146243D01*
X58863774Y61146243D01*
X59076673Y61138436D01*
X59076677Y61138436D01*
X59081837Y61138247D01*
X59086957Y61138903D01*
X59086959Y61138903D01*
X59298288Y61165975D01*
X59298289Y61165975D01*
X59303416Y61166632D01*
X59320612Y61171791D01*
X59512429Y61229339D01*
X59512434Y61229341D01*
X59517384Y61230826D01*
X59569769Y61256489D01*
X59639741Y61268496D01*
X59705098Y61240766D01*
X59745088Y61182104D01*
X59751200Y61143338D01*
X59751200Y58046027D01*
X59731198Y57977906D01*
X59677542Y57931413D01*
X59651398Y57922780D01*
X59599712Y57911794D01*
X59593682Y57909109D01*
X59593681Y57909109D01*
X59431278Y57836803D01*
X59431276Y57836802D01*
X59425248Y57834118D01*
X59270747Y57721866D01*
X59266326Y57716956D01*
X59266325Y57716955D01*
X59234743Y57681879D01*
X59142960Y57579944D01*
X59139659Y57574226D01*
X59052221Y57422779D01*
X59047473Y57414556D01*
X58988458Y57232928D01*
X58968496Y57043000D01*
X58988458Y56853072D01*
X59047473Y56671444D01*
X59142960Y56506056D01*
X59147378Y56501149D01*
X59147379Y56501148D01*
X59229407Y56410047D01*
X59270747Y56364134D01*
X59425248Y56251882D01*
X59431276Y56249198D01*
X59431278Y56249197D01*
X59588066Y56179391D01*
X59599712Y56174206D01*
X59693113Y56154353D01*
X59780056Y56135872D01*
X59780061Y56135872D01*
X59786513Y56134500D01*
X59977487Y56134500D01*
X59983939Y56135872D01*
X59983944Y56135872D01*
X60070887Y56154353D01*
X60164288Y56174206D01*
X60175934Y56179391D01*
X60332722Y56249197D01*
X60332724Y56249198D01*
X60338752Y56251882D01*
X60493253Y56364134D01*
X60534593Y56410047D01*
X60616621Y56501148D01*
X60616622Y56501149D01*
X60621040Y56506056D01*
X60716527Y56671444D01*
X60775542Y56853072D01*
X60792815Y57017417D01*
X60819828Y57083074D01*
X60826276Y57090501D01*
X60838361Y57103370D01*
X60841115Y57106211D01*
X60860834Y57125930D01*
X60863312Y57129125D01*
X60871018Y57138147D01*
X60895858Y57164599D01*
X60901286Y57170379D01*
X60911046Y57188132D01*
X60921899Y57204655D01*
X60929453Y57214394D01*
X60934313Y57220659D01*
X60951876Y57261243D01*
X60957083Y57271873D01*
X60978395Y57310640D01*
X60980366Y57318317D01*
X60980368Y57318322D01*
X60983432Y57330258D01*
X60989838Y57348970D01*
X60994733Y57360281D01*
X60997881Y57367555D01*
X60999121Y57375383D01*
X60999123Y57375390D01*
X61004799Y57411224D01*
X61007205Y57422844D01*
X61016228Y57457989D01*
X61016228Y57457990D01*
X61018200Y57465670D01*
X61018200Y57485924D01*
X61019751Y57505635D01*
X61021680Y57517814D01*
X61022920Y57525643D01*
X61018759Y57569662D01*
X61018200Y57581519D01*
X61018200Y61070513D01*
X61038202Y61138634D01*
X61091858Y61185127D01*
X61162132Y61195231D01*
X61176878Y61192045D01*
X61179692Y61190970D01*
X61398597Y61146433D01*
X61403772Y61146243D01*
X61403774Y61146243D01*
X61616673Y61138436D01*
X61616677Y61138436D01*
X61621837Y61138247D01*
X61626957Y61138903D01*
X61626959Y61138903D01*
X61838288Y61165975D01*
X61838289Y61165975D01*
X61843416Y61166632D01*
X61860612Y61171791D01*
X62052429Y61229339D01*
X62052434Y61229341D01*
X62057384Y61230826D01*
X62257994Y61329104D01*
X62439860Y61458827D01*
X62598096Y61616511D01*
X62728453Y61797923D01*
X62729776Y61796972D01*
X62776645Y61840143D01*
X62846580Y61852375D01*
X62912026Y61824856D01*
X62939875Y61793006D01*
X62999987Y61694912D01*
X63146250Y61526062D01*
X63318126Y61383368D01*
X63511000Y61270662D01*
X63719692Y61190970D01*
X63724760Y61189939D01*
X63724763Y61189938D01*
X63813959Y61171791D01*
X63938597Y61146433D01*
X63943772Y61146243D01*
X63943774Y61146243D01*
X64156673Y61138436D01*
X64156677Y61138436D01*
X64161837Y61138247D01*
X64166957Y61138903D01*
X64166959Y61138903D01*
X64378288Y61165975D01*
X64378289Y61165975D01*
X64383416Y61166632D01*
X64400612Y61171791D01*
X64592429Y61229339D01*
X64592434Y61229341D01*
X64597384Y61230826D01*
X64797994Y61329104D01*
X64979860Y61458827D01*
X65138096Y61616511D01*
X65268453Y61797923D01*
X65269776Y61796972D01*
X65316645Y61840143D01*
X65386580Y61852375D01*
X65452026Y61824856D01*
X65479875Y61793006D01*
X65539987Y61694912D01*
X65686250Y61526062D01*
X65858126Y61383368D01*
X66051000Y61270662D01*
X66259692Y61190970D01*
X66264760Y61189939D01*
X66264763Y61189938D01*
X66353959Y61171791D01*
X66478597Y61146433D01*
X66483772Y61146243D01*
X66483774Y61146243D01*
X66696673Y61138436D01*
X66696677Y61138436D01*
X66701837Y61138247D01*
X66706957Y61138903D01*
X66706959Y61138903D01*
X66918288Y61165975D01*
X66918289Y61165975D01*
X66923416Y61166632D01*
X66940612Y61171791D01*
X67132429Y61229339D01*
X67132434Y61229341D01*
X67137384Y61230826D01*
X67337994Y61329104D01*
X67519860Y61458827D01*
X67678096Y61616511D01*
X67808453Y61797923D01*
X67809776Y61796972D01*
X67856645Y61840143D01*
X67926580Y61852375D01*
X67992026Y61824856D01*
X68019875Y61793006D01*
X68079987Y61694912D01*
X68226250Y61526062D01*
X68398126Y61383368D01*
X68487131Y61331358D01*
X68573548Y61280860D01*
X68622271Y61229221D01*
X68635342Y61159438D01*
X68608610Y61093666D01*
X68599072Y61082977D01*
X65232000Y57715905D01*
X65169688Y57681879D01*
X65142905Y57679000D01*
X63632000Y57679000D01*
X63563879Y57699002D01*
X63544653Y57715343D01*
X63544380Y57715040D01*
X63539468Y57719463D01*
X63535053Y57724366D01*
X63380552Y57836618D01*
X63374524Y57839302D01*
X63374522Y57839303D01*
X63212119Y57911609D01*
X63212118Y57911609D01*
X63206088Y57914294D01*
X63112687Y57934147D01*
X63025744Y57952628D01*
X63025739Y57952628D01*
X63019287Y57954000D01*
X62828313Y57954000D01*
X62821861Y57952628D01*
X62821856Y57952628D01*
X62734913Y57934147D01*
X62641512Y57914294D01*
X62635482Y57911609D01*
X62635481Y57911609D01*
X62473078Y57839303D01*
X62473076Y57839302D01*
X62467048Y57836618D01*
X62312547Y57724366D01*
X62308126Y57719456D01*
X62308125Y57719455D01*
X62274292Y57681879D01*
X62184760Y57582444D01*
X62089273Y57417056D01*
X62030258Y57235428D01*
X62029568Y57228867D01*
X62029568Y57228865D01*
X62023421Y57170379D01*
X62010296Y57045500D01*
X62030258Y56855572D01*
X62089273Y56673944D01*
X62092576Y56668222D01*
X62092577Y56668221D01*
X62118753Y56622884D01*
X62184760Y56508556D01*
X62189178Y56503649D01*
X62189179Y56503648D01*
X62271252Y56412497D01*
X62312547Y56366634D01*
X62467048Y56254382D01*
X62473076Y56251698D01*
X62473078Y56251697D01*
X62635481Y56179391D01*
X62641512Y56176706D01*
X62734912Y56156853D01*
X62821856Y56138372D01*
X62821861Y56138372D01*
X62828313Y56137000D01*
X63019287Y56137000D01*
X63025739Y56138372D01*
X63025744Y56138372D01*
X63112687Y56156853D01*
X63206088Y56176706D01*
X63212119Y56179391D01*
X63374522Y56251697D01*
X63374524Y56251698D01*
X63380552Y56254382D01*
X63535053Y56366634D01*
X63539468Y56371537D01*
X63544380Y56375960D01*
X63545505Y56374711D01*
X63598814Y56407551D01*
X63632000Y56412000D01*
X65378733Y56412000D01*
X65389916Y56411473D01*
X65397409Y56409798D01*
X65405335Y56410047D01*
X65405336Y56410047D01*
X65465486Y56411938D01*
X65469445Y56412000D01*
X65497356Y56412000D01*
X65501291Y56412497D01*
X65501356Y56412505D01*
X65513193Y56413438D01*
X65545451Y56414452D01*
X65549470Y56414578D01*
X65557389Y56414827D01*
X65576843Y56420479D01*
X65596200Y56424487D01*
X65608430Y56426032D01*
X65608431Y56426032D01*
X65616297Y56427026D01*
X65623668Y56429945D01*
X65623670Y56429945D01*
X65657412Y56443304D01*
X65668642Y56447149D01*
X65703483Y56457271D01*
X65703484Y56457271D01*
X65711093Y56459482D01*
X65717912Y56463515D01*
X65717917Y56463517D01*
X65728528Y56469793D01*
X65746276Y56478488D01*
X65765117Y56485948D01*
X65800887Y56511936D01*
X65810807Y56518452D01*
X65842035Y56536920D01*
X65842038Y56536922D01*
X65848862Y56540958D01*
X65863183Y56555279D01*
X65878217Y56568120D01*
X65888194Y56575369D01*
X65894607Y56580028D01*
X65922798Y56614105D01*
X65930788Y56622884D01*
X70722036Y61414132D01*
X70784348Y61448158D01*
X70855163Y61443093D01*
X70891616Y61421982D01*
X70938126Y61383368D01*
X71027131Y61331358D01*
X71113548Y61280860D01*
X71162271Y61229221D01*
X71175342Y61159438D01*
X71148610Y61093666D01*
X71139072Y61082977D01*
X65177500Y55121405D01*
X65115188Y55087379D01*
X65088405Y55084500D01*
X62874700Y55084500D01*
X62806579Y55104502D01*
X62787353Y55120843D01*
X62787080Y55120540D01*
X62782168Y55124963D01*
X62777753Y55129866D01*
X62623252Y55242118D01*
X62617224Y55244802D01*
X62617222Y55244803D01*
X62454819Y55317109D01*
X62454818Y55317109D01*
X62448788Y55319794D01*
X62355387Y55339647D01*
X62268444Y55358128D01*
X62268439Y55358128D01*
X62261987Y55359500D01*
X62071013Y55359500D01*
X62064561Y55358128D01*
X62064556Y55358128D01*
X61977613Y55339647D01*
X61884212Y55319794D01*
X61878182Y55317109D01*
X61878181Y55317109D01*
X61715778Y55244803D01*
X61715776Y55244802D01*
X61709748Y55242118D01*
X61555247Y55129866D01*
X61550826Y55124956D01*
X61550825Y55124955D01*
X61516992Y55087379D01*
X61427460Y54987944D01*
X61331973Y54822556D01*
X61272958Y54640928D01*
X61252996Y54451000D01*
X61253686Y54444435D01*
X61270215Y54287170D01*
X61257443Y54217332D01*
X61208941Y54165485D01*
X61144905Y54148000D01*
X28943567Y54148000D01*
X28932384Y54148527D01*
X28924891Y54150202D01*
X28916965Y54149953D01*
X28916964Y54149953D01*
X28856814Y54148062D01*
X28852855Y54148000D01*
X28824944Y54148000D01*
X28821010Y54147503D01*
X28821009Y54147503D01*
X28820944Y54147495D01*
X28809107Y54146562D01*
X28777290Y54145562D01*
X28772829Y54145422D01*
X28764910Y54145173D01*
X28747254Y54140044D01*
X28745458Y54139522D01*
X28726106Y54135514D01*
X28719035Y54134620D01*
X28706003Y54132974D01*
X28698634Y54130057D01*
X28698632Y54130056D01*
X28664897Y54116700D01*
X28653669Y54112855D01*
X28611207Y54100518D01*
X28604385Y54096484D01*
X28604379Y54096481D01*
X28593768Y54090206D01*
X28576018Y54081510D01*
X28564556Y54076972D01*
X28564551Y54076969D01*
X28557183Y54074052D01*
X28550768Y54069391D01*
X28521425Y54048073D01*
X28511507Y54041557D01*
X28492819Y54030505D01*
X28473437Y54019042D01*
X28459113Y54004718D01*
X28444081Y53991879D01*
X28427693Y53979972D01*
X28399512Y53945907D01*
X28391522Y53937127D01*
X26967347Y52512952D01*
X26959061Y52505412D01*
X26952582Y52501300D01*
X26947157Y52495523D01*
X26905957Y52451649D01*
X26903202Y52448807D01*
X26883465Y52429070D01*
X26880985Y52425873D01*
X26873282Y52416853D01*
X26843014Y52384621D01*
X26839195Y52377675D01*
X26839193Y52377672D01*
X26833252Y52366866D01*
X26822401Y52350347D01*
X26809986Y52334341D01*
X26806841Y52327072D01*
X26806838Y52327068D01*
X26792426Y52293763D01*
X26787209Y52283113D01*
X26765905Y52244360D01*
X26763934Y52236685D01*
X26763934Y52236684D01*
X26760867Y52224738D01*
X26754463Y52206034D01*
X26746419Y52187445D01*
X26745180Y52179622D01*
X26745177Y52179612D01*
X26739501Y52143776D01*
X26737095Y52132156D01*
X26726100Y52089330D01*
X26726100Y52069076D01*
X26724549Y52049366D01*
X26721380Y52029357D01*
X26725517Y51985598D01*
X26725541Y51985339D01*
X26726100Y51973481D01*
X26726100Y41257495D01*
X26706098Y41189374D01*
X26652442Y41142881D01*
X26582168Y41132777D01*
X26517588Y41162271D01*
X26511005Y41168400D01*
X25195705Y42483700D01*
X25161679Y42546012D01*
X25158800Y42572795D01*
X25158800Y43348207D01*
X25161032Y43371816D01*
X25161090Y43372119D01*
X25161090Y43372123D01*
X25162575Y43379906D01*
X25159049Y43435951D01*
X25158800Y43443862D01*
X25158800Y43459856D01*
X25156794Y43475730D01*
X25156051Y43483598D01*
X25153023Y43531737D01*
X25153023Y43531738D01*
X25152525Y43539650D01*
X25149979Y43547487D01*
X25144806Y43570631D01*
X25144768Y43570935D01*
X25144767Y43570940D01*
X25143774Y43578797D01*
X25140858Y43586162D01*
X25140857Y43586166D01*
X25123101Y43631011D01*
X25120429Y43638430D01*
X25103064Y43691875D01*
X25098814Y43698572D01*
X25098650Y43698831D01*
X25087885Y43719958D01*
X25087771Y43720246D01*
X25087768Y43720251D01*
X25084852Y43727617D01*
X25080196Y43734025D01*
X25080193Y43734031D01*
X25051842Y43773052D01*
X25047392Y43779599D01*
X25017300Y43827018D01*
X25011293Y43832659D01*
X24995612Y43850446D01*
X24995434Y43850691D01*
X24995432Y43850693D01*
X24990772Y43857107D01*
X24982521Y43863933D01*
X24947504Y43892903D01*
X24941570Y43898134D01*
X24906402Y43931158D01*
X24906399Y43931160D01*
X24900621Y43936586D01*
X24893397Y43940558D01*
X24873794Y43953881D01*
X24873554Y43954080D01*
X24873547Y43954084D01*
X24867444Y43959133D01*
X24816624Y43983047D01*
X24809592Y43986629D01*
X24760360Y44013695D01*
X24752685Y44015665D01*
X24752679Y44015668D01*
X24752381Y44015744D01*
X24730072Y44023776D01*
X24729797Y44023906D01*
X24729789Y44023909D01*
X24722618Y44027283D01*
X24667451Y44037806D01*
X24659742Y44039529D01*
X24605330Y44053500D01*
X24602773Y44053500D01*
X24539887Y44080928D01*
X24517545Y44105280D01*
X24513177Y44111519D01*
X24449884Y44201910D01*
X24409357Y44259789D01*
X24409355Y44259792D01*
X24406198Y44264300D01*
X24244300Y44426198D01*
X24239792Y44429355D01*
X24239789Y44429357D01*
X24161611Y44484098D01*
X24056749Y44557523D01*
X24051767Y44559846D01*
X24051762Y44559849D01*
X24017543Y44575805D01*
X23964258Y44622722D01*
X23944797Y44690999D01*
X23965339Y44758959D01*
X24017543Y44804195D01*
X24051762Y44820151D01*
X24051767Y44820154D01*
X24056749Y44822477D01*
X24161611Y44895902D01*
X24239789Y44950643D01*
X24239792Y44950645D01*
X24244300Y44953802D01*
X24406198Y45115700D01*
X24411449Y45123198D01*
X24472942Y45211020D01*
X24537523Y45303251D01*
X24539846Y45308233D01*
X24539849Y45308238D01*
X24631961Y45505775D01*
X24631961Y45505776D01*
X24634284Y45510757D01*
X24635907Y45516812D01*
X24692119Y45726598D01*
X24692119Y45726600D01*
X24693543Y45731913D01*
X24713498Y45960000D01*
X24693543Y46188087D01*
X24689814Y46202003D01*
X24635707Y46403933D01*
X24635706Y46403935D01*
X24634284Y46409243D01*
X24630948Y46416398D01*
X24539849Y46611762D01*
X24539846Y46611767D01*
X24537523Y46616749D01*
X24450451Y46741100D01*
X24409357Y46799789D01*
X24409355Y46799792D01*
X24406198Y46804300D01*
X24244300Y46966198D01*
X24239789Y46969357D01*
X24235576Y46972892D01*
X24236527Y46974026D01*
X24196529Y47024071D01*
X24189224Y47094690D01*
X24221258Y47158049D01*
X24282462Y47194030D01*
X24299517Y47197082D01*
X24310316Y47198255D01*
X24446705Y47249385D01*
X24563261Y47336739D01*
X24650615Y47453295D01*
X24701745Y47589684D01*
X24708500Y47651866D01*
X24708500Y49348134D01*
X24701745Y49410316D01*
X24650615Y49546705D01*
X24563261Y49663261D01*
X24446705Y49750615D01*
X24310316Y49801745D01*
X24248134Y49808500D01*
X21751866Y49808500D01*
X21689684Y49801745D01*
X21553295Y49750615D01*
X21436739Y49663261D01*
X21349385Y49546705D01*
X21298255Y49410316D01*
X21291500Y49348134D01*
X21291500Y47651866D01*
X21298255Y47589684D01*
X21349385Y47453295D01*
X21436739Y47336739D01*
X21553295Y47249385D01*
X21689684Y47198255D01*
X21700474Y47197083D01*
X21702606Y47196197D01*
X21705222Y47195575D01*
X21705121Y47195152D01*
X21766035Y47169845D01*
X21806463Y47111483D01*
X21808922Y47040529D01*
X21772629Y46979510D01*
X21763969Y46972511D01*
X21760207Y46969354D01*
X21755700Y46966198D01*
X21593802Y46804300D01*
X21590645Y46799792D01*
X21590643Y46799789D01*
X21480583Y46642607D01*
X21425126Y46598279D01*
X21385282Y46589127D01*
X21362963Y46587723D01*
X21362962Y46587723D01*
X21355050Y46587225D01*
X21347509Y46584775D01*
X21347213Y46584679D01*
X21324069Y46579506D01*
X21323765Y46579468D01*
X21323760Y46579467D01*
X21315903Y46578474D01*
X21308538Y46575558D01*
X21308534Y46575557D01*
X21263689Y46557801D01*
X21256270Y46555129D01*
X21202825Y46537764D01*
X21196129Y46533514D01*
X21196128Y46533514D01*
X21195869Y46533350D01*
X21174742Y46522585D01*
X21174454Y46522471D01*
X21174449Y46522468D01*
X21167083Y46519552D01*
X21160675Y46514896D01*
X21160669Y46514893D01*
X21121648Y46486542D01*
X21115111Y46482099D01*
X21067682Y46452000D01*
X21062256Y46446222D01*
X21062255Y46446221D01*
X21062041Y46445993D01*
X21044254Y46430312D01*
X21044009Y46430134D01*
X21044007Y46430132D01*
X21037593Y46425472D01*
X21032539Y46419363D01*
X21032538Y46419362D01*
X21001797Y46382204D01*
X20996566Y46376270D01*
X20963542Y46341102D01*
X20963540Y46341099D01*
X20958114Y46335321D01*
X20954145Y46328101D01*
X20940819Y46308494D01*
X20940620Y46308254D01*
X20940616Y46308247D01*
X20935567Y46302144D01*
X20930891Y46292207D01*
X20911653Y46251324D01*
X20908071Y46244292D01*
X20881005Y46195060D01*
X20879035Y46187385D01*
X20879032Y46187379D01*
X20878956Y46187081D01*
X20870924Y46164772D01*
X20870794Y46164497D01*
X20870791Y46164489D01*
X20867417Y46157318D01*
X20856895Y46102157D01*
X20855171Y46094442D01*
X20841200Y46040030D01*
X20841200Y46031793D01*
X20838968Y46008184D01*
X20837425Y46000094D01*
X20840292Y45954525D01*
X20840951Y45944049D01*
X20841200Y45936138D01*
X20841200Y40476667D01*
X20840673Y40465484D01*
X20838998Y40457991D01*
X20839247Y40450065D01*
X20839247Y40450064D01*
X20841138Y40389914D01*
X20841200Y40385955D01*
X20841200Y40358044D01*
X20841697Y40354110D01*
X20841697Y40354109D01*
X20841705Y40354044D01*
X20842638Y40342207D01*
X20844027Y40298011D01*
X20848190Y40283683D01*
X20849678Y40278561D01*
X20853687Y40259200D01*
X20854990Y40248890D01*
X20856226Y40239103D01*
X20859145Y40231732D01*
X20859145Y40231730D01*
X20872504Y40197988D01*
X20876349Y40186758D01*
X20888682Y40144307D01*
X20892715Y40137488D01*
X20892717Y40137483D01*
X20898993Y40126872D01*
X20907688Y40109124D01*
X20915148Y40090283D01*
X20919810Y40083867D01*
X20919810Y40083866D01*
X20941136Y40054513D01*
X20947652Y40044593D01*
X20952512Y40036376D01*
X20970158Y40006538D01*
X20984479Y39992217D01*
X20997319Y39977184D01*
X21009228Y39960793D01*
X21015333Y39955742D01*
X21015338Y39955737D01*
X21043298Y39932606D01*
X21052076Y39924618D01*
X21604003Y39372691D01*
X21638029Y39310379D01*
X21632964Y39239564D01*
X21604003Y39194501D01*
X21593802Y39184300D01*
X21590645Y39179792D01*
X21590643Y39179789D01*
X21555533Y39129646D01*
X21462477Y38996749D01*
X21460154Y38991767D01*
X21460151Y38991762D01*
X21380001Y38819877D01*
X21365716Y38789243D01*
X21364294Y38783935D01*
X21364293Y38783933D01*
X21323134Y38630327D01*
X21306457Y38568087D01*
X21286502Y38340000D01*
X21306457Y38111913D01*
X21307881Y38106600D01*
X21307881Y38106598D01*
X21335932Y38001913D01*
X21365716Y37890757D01*
X21368039Y37885776D01*
X21368039Y37885775D01*
X21460151Y37688238D01*
X21460154Y37688233D01*
X21462477Y37683251D01*
X21523221Y37596500D01*
X21574716Y37522958D01*
X21593802Y37495700D01*
X21755700Y37333802D01*
X21760208Y37330645D01*
X21760211Y37330643D01*
X21838389Y37275902D01*
X21943251Y37202477D01*
X21948233Y37200154D01*
X21948238Y37200151D01*
X21982457Y37184195D01*
X22035742Y37137278D01*
X22055203Y37069001D01*
X22034661Y37001041D01*
X21982457Y36955805D01*
X21948238Y36939849D01*
X21948233Y36939846D01*
X21943251Y36937523D01*
X21876868Y36891041D01*
X21760211Y36809357D01*
X21760208Y36809355D01*
X21755700Y36806198D01*
X21593802Y36644300D01*
X21590645Y36639792D01*
X21590643Y36639789D01*
X21555533Y36589646D01*
X21462477Y36456749D01*
X21460154Y36451767D01*
X21460151Y36451762D01*
X21379409Y36278608D01*
X21365716Y36249243D01*
X21364294Y36243935D01*
X21364293Y36243933D01*
X21307881Y36033402D01*
X21306457Y36028087D01*
X21286502Y35800000D01*
X21306457Y35571913D01*
X21307881Y35566600D01*
X21307881Y35566598D01*
X21356807Y35384007D01*
X21365716Y35350757D01*
X21368039Y35345776D01*
X21368039Y35345775D01*
X21460151Y35148238D01*
X21460154Y35148233D01*
X21462477Y35143251D01*
X21535686Y35038698D01*
X21577813Y34978535D01*
X21593802Y34955700D01*
X21755700Y34793802D01*
X21760208Y34790645D01*
X21760211Y34790643D01*
X21809404Y34756198D01*
X21943251Y34662477D01*
X21948233Y34660154D01*
X21948238Y34660151D01*
X21983049Y34643919D01*
X22036334Y34597002D01*
X22055795Y34528725D01*
X22035253Y34460765D01*
X21983049Y34415529D01*
X21948489Y34399414D01*
X21938993Y34393931D01*
X21760533Y34268972D01*
X21752125Y34261916D01*
X21598084Y34107875D01*
X21591028Y34099467D01*
X21466069Y33921007D01*
X21460586Y33911511D01*
X21368510Y33714053D01*
X21364764Y33703761D01*
X21318606Y33531497D01*
X21318942Y33517401D01*
X21326884Y33514000D01*
X24667967Y33514000D01*
X24681498Y33517973D01*
X24682727Y33526522D01*
X24635236Y33703761D01*
X24631490Y33714053D01*
X24539414Y33911511D01*
X24533931Y33921007D01*
X24408972Y34099467D01*
X24401916Y34107875D01*
X24247875Y34261916D01*
X24239467Y34268972D01*
X24061007Y34393931D01*
X24051511Y34399414D01*
X24016951Y34415529D01*
X23963666Y34462446D01*
X23944205Y34530723D01*
X23964747Y34598683D01*
X24016951Y34643919D01*
X24051762Y34660151D01*
X24051767Y34660154D01*
X24056749Y34662477D01*
X24190596Y34756198D01*
X24239789Y34790643D01*
X24239792Y34790645D01*
X24244300Y34793802D01*
X24406198Y34955700D01*
X24422188Y34978535D01*
X24464314Y35038698D01*
X24537523Y35143251D01*
X24539846Y35148233D01*
X24539849Y35148238D01*
X24631961Y35345775D01*
X24631961Y35345776D01*
X24634284Y35350757D01*
X24643194Y35384007D01*
X24692119Y35566598D01*
X24692119Y35566600D01*
X24693543Y35571913D01*
X24713498Y35800000D01*
X24693543Y36028087D01*
X24692119Y36033402D01*
X24635707Y36243933D01*
X24635706Y36243935D01*
X24634284Y36249243D01*
X24620591Y36278608D01*
X24539849Y36451762D01*
X24539846Y36451767D01*
X24537523Y36456749D01*
X24444467Y36589646D01*
X24409357Y36639789D01*
X24409355Y36639792D01*
X24406198Y36644300D01*
X24244300Y36806198D01*
X24239792Y36809355D01*
X24239789Y36809357D01*
X24123132Y36891041D01*
X24056749Y36937523D01*
X24051767Y36939846D01*
X24051762Y36939849D01*
X24017543Y36955805D01*
X23964258Y37002722D01*
X23944797Y37070999D01*
X23965339Y37138959D01*
X24017543Y37184195D01*
X24051762Y37200151D01*
X24051767Y37200154D01*
X24056749Y37202477D01*
X24161611Y37275902D01*
X24239789Y37330643D01*
X24239792Y37330645D01*
X24244300Y37333802D01*
X24406198Y37495700D01*
X24425285Y37522958D01*
X24476779Y37596500D01*
X24537523Y37683251D01*
X24549479Y37708890D01*
X24552626Y37715638D01*
X24599544Y37768922D01*
X24667822Y37788382D01*
X24735781Y37767839D01*
X24755915Y37751481D01*
X26594788Y35912607D01*
X28424295Y34083100D01*
X28458321Y34020788D01*
X28461200Y33994005D01*
X28461200Y33331793D01*
X28458968Y33308184D01*
X28457425Y33300094D01*
X28460292Y33254525D01*
X28460951Y33244049D01*
X28461200Y33236138D01*
X28461200Y33220144D01*
X28463206Y33204270D01*
X28463948Y33196410D01*
X28467475Y33140350D01*
X28469925Y33132809D01*
X28470021Y33132513D01*
X28475194Y33109369D01*
X28475232Y33109065D01*
X28475233Y33109060D01*
X28476226Y33101203D01*
X28479142Y33093838D01*
X28479143Y33093834D01*
X28496899Y33048989D01*
X28499571Y33041570D01*
X28516936Y32988125D01*
X28521186Y32981429D01*
X28521186Y32981428D01*
X28521350Y32981169D01*
X28532115Y32960042D01*
X28532229Y32959754D01*
X28532232Y32959749D01*
X28535148Y32952383D01*
X28539804Y32945975D01*
X28539807Y32945969D01*
X28568158Y32906948D01*
X28572601Y32900411D01*
X28602700Y32852982D01*
X28608478Y32847556D01*
X28608479Y32847555D01*
X28608707Y32847341D01*
X28624388Y32829554D01*
X28629228Y32822893D01*
X28635337Y32817839D01*
X28635338Y32817838D01*
X28672496Y32787097D01*
X28678430Y32781866D01*
X28713598Y32748842D01*
X28713601Y32748840D01*
X28719379Y32743414D01*
X28726603Y32739442D01*
X28746206Y32726119D01*
X28746446Y32725920D01*
X28746453Y32725916D01*
X28752556Y32720867D01*
X28784008Y32706067D01*
X28803376Y32696953D01*
X28810408Y32693371D01*
X28859640Y32666305D01*
X28867315Y32664335D01*
X28867321Y32664332D01*
X28867619Y32664256D01*
X28889928Y32656224D01*
X28890203Y32656094D01*
X28890211Y32656091D01*
X28897382Y32652717D01*
X28952549Y32642194D01*
X28960258Y32640471D01*
X29014670Y32626500D01*
X29017227Y32626500D01*
X29080113Y32599072D01*
X29102454Y32574721D01*
X29143221Y32516500D01*
X29186004Y32455400D01*
X29213802Y32415700D01*
X29375700Y32253802D01*
X29380208Y32250645D01*
X29380211Y32250643D01*
X29432467Y32214053D01*
X29563251Y32122477D01*
X29568233Y32120154D01*
X29568238Y32120151D01*
X29764765Y32028510D01*
X29770757Y32025716D01*
X29776065Y32024294D01*
X29776067Y32024293D01*
X29986598Y31967881D01*
X29986600Y31967881D01*
X29991913Y31966457D01*
X30090120Y31957865D01*
X30160149Y31951738D01*
X30160156Y31951738D01*
X30162873Y31951500D01*
X31077127Y31951500D01*
X31079844Y31951738D01*
X31079851Y31951738D01*
X31149880Y31957865D01*
X31248087Y31966457D01*
X31253400Y31967881D01*
X31253402Y31967881D01*
X31463933Y32024293D01*
X31463935Y32024294D01*
X31469243Y32025716D01*
X31475235Y32028510D01*
X31671762Y32120151D01*
X31671767Y32120154D01*
X31676749Y32122477D01*
X31807533Y32214053D01*
X31859789Y32250643D01*
X31859792Y32250645D01*
X31864300Y32253802D01*
X32026198Y32415700D01*
X32053997Y32455400D01*
X32096779Y32516500D01*
X32157523Y32603251D01*
X32159846Y32608233D01*
X32159849Y32608238D01*
X32251961Y32805775D01*
X32251961Y32805776D01*
X32254284Y32810757D01*
X32256182Y32817838D01*
X32312119Y33026598D01*
X32312119Y33026600D01*
X32313543Y33031913D01*
X32333498Y33260000D01*
X32313543Y33488087D01*
X32303244Y33526522D01*
X32255707Y33703933D01*
X32255706Y33703935D01*
X32254284Y33709243D01*
X32240591Y33738608D01*
X32159849Y33911762D01*
X32159846Y33911767D01*
X32157523Y33916749D01*
X32064467Y34049646D01*
X32029357Y34099789D01*
X32029355Y34099792D01*
X32026198Y34104300D01*
X31864300Y34266198D01*
X31859792Y34269355D01*
X31859789Y34269357D01*
X31748172Y34347512D01*
X31676749Y34397523D01*
X31671767Y34399846D01*
X31671762Y34399849D01*
X31637543Y34415805D01*
X31584258Y34462722D01*
X31564797Y34530999D01*
X31585339Y34598959D01*
X31637543Y34644195D01*
X31671762Y34660151D01*
X31671767Y34660154D01*
X31676749Y34662477D01*
X31810596Y34756198D01*
X31859789Y34790643D01*
X31859792Y34790645D01*
X31864300Y34793802D01*
X32026198Y34955700D01*
X32042188Y34978535D01*
X32084314Y35038698D01*
X32157523Y35143251D01*
X32169719Y35169405D01*
X32173262Y35177002D01*
X32220180Y35230286D01*
X32288457Y35249746D01*
X32356417Y35229203D01*
X32376551Y35212845D01*
X32784195Y34805201D01*
X32818221Y34742889D01*
X32821100Y34716106D01*
X32821100Y33819267D01*
X32820573Y33808084D01*
X32818898Y33800591D01*
X32819147Y33792665D01*
X32819147Y33792664D01*
X32821038Y33732514D01*
X32821100Y33728555D01*
X32821100Y33700644D01*
X32821597Y33696710D01*
X32821597Y33696709D01*
X32821605Y33696644D01*
X32822538Y33684807D01*
X32823927Y33640611D01*
X32829578Y33621161D01*
X32833587Y33601800D01*
X32836126Y33581703D01*
X32839045Y33574332D01*
X32839045Y33574330D01*
X32852404Y33540588D01*
X32856249Y33529358D01*
X32868582Y33486907D01*
X32872615Y33480088D01*
X32872617Y33480083D01*
X32878893Y33469472D01*
X32887588Y33451724D01*
X32895048Y33432883D01*
X32899710Y33426467D01*
X32899710Y33426466D01*
X32921036Y33397113D01*
X32927552Y33387193D01*
X32950058Y33349138D01*
X32964379Y33334817D01*
X32977219Y33319784D01*
X32989128Y33303393D01*
X32995234Y33298342D01*
X33023205Y33275202D01*
X33031984Y33267212D01*
X34556843Y31742353D01*
X34564387Y31734063D01*
X34568500Y31727582D01*
X34574277Y31722157D01*
X34579331Y31716048D01*
X34578014Y31714959D01*
X34609144Y31661975D01*
X34606305Y31591036D01*
X34590138Y31559068D01*
X34481394Y31403765D01*
X34462477Y31376749D01*
X34460154Y31371767D01*
X34460151Y31371762D01*
X34378256Y31196135D01*
X34365716Y31169243D01*
X34364294Y31163935D01*
X34364293Y31163933D01*
X34328755Y31031305D01*
X34306457Y30948087D01*
X34286502Y30720000D01*
X34306457Y30491913D01*
X34307881Y30486600D01*
X34307881Y30486598D01*
X34335932Y30381913D01*
X34365716Y30270757D01*
X34368039Y30265776D01*
X34368039Y30265775D01*
X34460151Y30068238D01*
X34460154Y30068233D01*
X34462477Y30063251D01*
X34522867Y29977005D01*
X34566004Y29915400D01*
X34593802Y29875700D01*
X34755700Y29713802D01*
X34760208Y29710645D01*
X34760211Y29710643D01*
X34806066Y29678535D01*
X34943251Y29582477D01*
X34948233Y29580154D01*
X34948238Y29580151D01*
X34982457Y29564195D01*
X35035742Y29517278D01*
X35055203Y29449001D01*
X35034661Y29381041D01*
X34982457Y29335805D01*
X34948238Y29319849D01*
X34948233Y29319846D01*
X34943251Y29317523D01*
X34838389Y29244098D01*
X34760211Y29189357D01*
X34760208Y29189355D01*
X34755700Y29186198D01*
X34593802Y29024300D01*
X34590645Y29019792D01*
X34590643Y29019789D01*
X34558487Y28973865D01*
X34462477Y28836749D01*
X34460154Y28831767D01*
X34460151Y28831762D01*
X34379409Y28658608D01*
X34365716Y28629243D01*
X34364294Y28623935D01*
X34364293Y28623933D01*
X34326065Y28481265D01*
X34306457Y28408087D01*
X34286502Y28180000D01*
X34306457Y27951913D01*
X34307881Y27946600D01*
X34307881Y27946598D01*
X34335932Y27841913D01*
X34365716Y27730757D01*
X34368039Y27725776D01*
X34368039Y27725775D01*
X34460151Y27528238D01*
X34460154Y27528233D01*
X34462477Y27523251D01*
X34523221Y27436500D01*
X34580616Y27354532D01*
X34593802Y27335700D01*
X34755700Y27173802D01*
X34760208Y27170645D01*
X34760211Y27170643D01*
X34833521Y27119311D01*
X34943251Y27042477D01*
X34948233Y27040154D01*
X34948238Y27040151D01*
X34982457Y27024195D01*
X35035742Y26977278D01*
X35055203Y26909001D01*
X35034661Y26841041D01*
X34982457Y26795805D01*
X34948238Y26779849D01*
X34948233Y26779846D01*
X34943251Y26777523D01*
X34838389Y26704098D01*
X34760211Y26649357D01*
X34760208Y26649355D01*
X34755700Y26646198D01*
X34593802Y26484300D01*
X34590645Y26479792D01*
X34590643Y26479789D01*
X34555533Y26429647D01*
X34462477Y26296749D01*
X34460154Y26291767D01*
X34460151Y26291762D01*
X34379994Y26119862D01*
X34365716Y26089243D01*
X34364294Y26083935D01*
X34364293Y26083933D01*
X34307881Y25873402D01*
X34306457Y25868087D01*
X34286502Y25640000D01*
X34306457Y25411913D01*
X34307881Y25406600D01*
X34307881Y25406598D01*
X34335932Y25301913D01*
X34365716Y25190757D01*
X34368039Y25185776D01*
X34368039Y25185775D01*
X34460151Y24988238D01*
X34460154Y24988233D01*
X34462477Y24983251D01*
X34523221Y24896500D01*
X34589648Y24801633D01*
X34593802Y24795700D01*
X34755700Y24633802D01*
X34760208Y24630645D01*
X34760211Y24630643D01*
X34827034Y24583853D01*
X34943251Y24502477D01*
X34948233Y24500154D01*
X34948238Y24500151D01*
X34982457Y24484195D01*
X35035742Y24437278D01*
X35055203Y24369001D01*
X35034661Y24301041D01*
X34982457Y24255805D01*
X34948238Y24239849D01*
X34948233Y24239846D01*
X34943251Y24237523D01*
X34838389Y24164098D01*
X34760211Y24109357D01*
X34760208Y24109355D01*
X34755700Y24106198D01*
X34593802Y23944300D01*
X34462477Y23756749D01*
X34460154Y23751767D01*
X34460151Y23751762D01*
X34368039Y23554225D01*
X34365716Y23549243D01*
X34364294Y23543935D01*
X34364293Y23543933D01*
X34325589Y23399488D01*
X34306457Y23328087D01*
X34286502Y23100000D01*
X34306457Y22871913D01*
X34307881Y22866600D01*
X34307881Y22866598D01*
X34343216Y22734729D01*
X34365716Y22650757D01*
X34368039Y22645776D01*
X34368039Y22645775D01*
X34460151Y22448238D01*
X34460154Y22448233D01*
X34462477Y22443251D01*
X34524930Y22354059D01*
X34587460Y22264758D01*
X34593802Y22255700D01*
X34755700Y22093802D01*
X34760208Y22090645D01*
X34760211Y22090643D01*
X34833521Y22039311D01*
X34943251Y21962477D01*
X34948233Y21960154D01*
X34948238Y21960151D01*
X34982457Y21944195D01*
X35035742Y21897278D01*
X35055203Y21829001D01*
X35034661Y21761041D01*
X34982457Y21715805D01*
X34948238Y21699849D01*
X34948233Y21699846D01*
X34943251Y21697523D01*
X34924344Y21684284D01*
X34760211Y21569357D01*
X34760208Y21569355D01*
X34755700Y21566198D01*
X34593802Y21404300D01*
X34590645Y21399792D01*
X34590643Y21399789D01*
X34556755Y21351392D01*
X34462477Y21216749D01*
X34460154Y21211767D01*
X34460151Y21211762D01*
X34381108Y21042252D01*
X34365716Y21009243D01*
X34364294Y21003935D01*
X34364293Y21003933D01*
X34307881Y20793402D01*
X34306457Y20788087D01*
X34286502Y20560000D01*
X34306457Y20331913D01*
X34307881Y20326600D01*
X34307881Y20326598D01*
X34335932Y20221913D01*
X34365716Y20110757D01*
X34368039Y20105776D01*
X34368039Y20105775D01*
X34460151Y19908238D01*
X34460154Y19908233D01*
X34462477Y19903251D01*
X34523221Y19816500D01*
X34566004Y19755400D01*
X34593802Y19715700D01*
X34755700Y19553802D01*
X34760208Y19550645D01*
X34760211Y19550643D01*
X34838389Y19495902D01*
X34943251Y19422477D01*
X34948233Y19420154D01*
X34948238Y19420151D01*
X34982457Y19404195D01*
X35035742Y19357278D01*
X35055203Y19289001D01*
X35034661Y19221041D01*
X34982457Y19175805D01*
X34948238Y19159849D01*
X34948233Y19159846D01*
X34943251Y19157523D01*
X34924344Y19144284D01*
X34760211Y19029357D01*
X34760208Y19029355D01*
X34755700Y19026198D01*
X34593802Y18864300D01*
X34590645Y18859792D01*
X34590643Y18859789D01*
X34549549Y18801100D01*
X34462477Y18676749D01*
X34460154Y18671767D01*
X34460151Y18671762D01*
X34379409Y18498608D01*
X34365716Y18469243D01*
X34364294Y18463935D01*
X34364293Y18463933D01*
X34307881Y18253402D01*
X34306457Y18248087D01*
X34286502Y18020000D01*
X34306457Y17791913D01*
X34307881Y17786600D01*
X34307881Y17786598D01*
X34364121Y17576711D01*
X34365716Y17570757D01*
X34368039Y17565776D01*
X34368039Y17565775D01*
X34460151Y17368238D01*
X34460154Y17368233D01*
X34462477Y17363251D01*
X34523221Y17276500D01*
X34586848Y17185632D01*
X34593802Y17175700D01*
X34755700Y17013802D01*
X34760208Y17010645D01*
X34760211Y17010643D01*
X34838389Y16955902D01*
X34943251Y16882477D01*
X34948233Y16880154D01*
X34948238Y16880151D01*
X34983049Y16863919D01*
X35036334Y16817002D01*
X35055795Y16748725D01*
X35035253Y16680765D01*
X34983049Y16635529D01*
X34948489Y16619414D01*
X34938993Y16613931D01*
X34760533Y16488972D01*
X34752125Y16481916D01*
X34598084Y16327875D01*
X34591028Y16319467D01*
X34466069Y16141007D01*
X34460586Y16131511D01*
X34368510Y15934053D01*
X34364764Y15923761D01*
X34318606Y15751497D01*
X34318942Y15737401D01*
X34326884Y15734000D01*
X37667967Y15734000D01*
X37681498Y15737973D01*
X37682727Y15746522D01*
X37635236Y15923761D01*
X37631490Y15934053D01*
X37539414Y16131511D01*
X37533931Y16141007D01*
X37408972Y16319467D01*
X37401916Y16327875D01*
X37247875Y16481916D01*
X37239467Y16488972D01*
X37061007Y16613931D01*
X37051511Y16619414D01*
X37016951Y16635529D01*
X36963666Y16682446D01*
X36944205Y16750723D01*
X36964747Y16818683D01*
X37016951Y16863919D01*
X37051762Y16880151D01*
X37051767Y16880154D01*
X37056749Y16882477D01*
X37161611Y16955902D01*
X37239789Y17010643D01*
X37239792Y17010645D01*
X37244300Y17013802D01*
X37350851Y17120353D01*
X37413163Y17154379D01*
X37483978Y17149314D01*
X37529041Y17120353D01*
X38147052Y16502342D01*
X38154587Y16494062D01*
X38158700Y16487582D01*
X38164734Y16481916D01*
X38208351Y16440957D01*
X38211193Y16438202D01*
X38230930Y16418465D01*
X38234127Y16415985D01*
X38243147Y16408282D01*
X38275379Y16378014D01*
X38282325Y16374195D01*
X38282328Y16374193D01*
X38293134Y16368252D01*
X38309653Y16357401D01*
X38325659Y16344986D01*
X38332928Y16341841D01*
X38332932Y16341838D01*
X38366237Y16327426D01*
X38376887Y16322209D01*
X38415640Y16300905D01*
X38423315Y16298934D01*
X38423316Y16298934D01*
X38435262Y16295867D01*
X38453967Y16289463D01*
X38472555Y16281419D01*
X38480378Y16280180D01*
X38480388Y16280177D01*
X38516224Y16274501D01*
X38527844Y16272095D01*
X38562989Y16263072D01*
X38570670Y16261100D01*
X38590924Y16261100D01*
X38610634Y16259549D01*
X38630643Y16256380D01*
X38638535Y16257126D01*
X38674661Y16260541D01*
X38686519Y16261100D01*
X49562682Y16261100D01*
X49630803Y16241098D01*
X49677296Y16187442D01*
X49687400Y16117168D01*
X49676877Y16081851D01*
X49640342Y16003500D01*
X49605716Y15929243D01*
X49604294Y15923935D01*
X49604293Y15923933D01*
X49558089Y15751497D01*
X49546457Y15708087D01*
X49526502Y15480000D01*
X49546457Y15251913D01*
X49547881Y15246600D01*
X49547881Y15246598D01*
X49604121Y15036711D01*
X49605716Y15030757D01*
X49608039Y15025776D01*
X49608039Y15025775D01*
X49700151Y14828238D01*
X49700154Y14828233D01*
X49702477Y14823251D01*
X49763221Y14736500D01*
X49826848Y14645632D01*
X49833802Y14635700D01*
X49995700Y14473802D01*
X50000208Y14470645D01*
X50000211Y14470643D01*
X50078389Y14415902D01*
X50183251Y14342477D01*
X50188233Y14340154D01*
X50188238Y14340151D01*
X50384765Y14248510D01*
X50390757Y14245716D01*
X50396065Y14244294D01*
X50396067Y14244293D01*
X50606598Y14187881D01*
X50606600Y14187881D01*
X50611913Y14186457D01*
X50710120Y14177865D01*
X50780149Y14171738D01*
X50780156Y14171738D01*
X50782873Y14171500D01*
X51697127Y14171500D01*
X51699844Y14171738D01*
X51699851Y14171738D01*
X51769880Y14177865D01*
X51868087Y14186457D01*
X51873400Y14187881D01*
X51873402Y14187881D01*
X52083933Y14244293D01*
X52083935Y14244294D01*
X52089243Y14245716D01*
X52095235Y14248510D01*
X52291762Y14340151D01*
X52291767Y14340154D01*
X52296749Y14342477D01*
X52401611Y14415902D01*
X52479789Y14470643D01*
X52479792Y14470645D01*
X52484300Y14473802D01*
X52590852Y14580354D01*
X52653164Y14614380D01*
X52723979Y14609315D01*
X52769042Y14580354D01*
X56037048Y11312347D01*
X56044588Y11304061D01*
X56048700Y11297582D01*
X56054477Y11292157D01*
X56098351Y11250957D01*
X56101193Y11248202D01*
X56120930Y11228465D01*
X56124127Y11225985D01*
X56133147Y11218282D01*
X56165379Y11188014D01*
X56172325Y11184195D01*
X56172328Y11184193D01*
X56183134Y11178252D01*
X56199653Y11167401D01*
X56215659Y11154986D01*
X56222928Y11151841D01*
X56222932Y11151838D01*
X56256237Y11137426D01*
X56266887Y11132209D01*
X56305640Y11110905D01*
X56313315Y11108934D01*
X56313316Y11108934D01*
X56325262Y11105867D01*
X56343967Y11099463D01*
X56362555Y11091419D01*
X56370378Y11090180D01*
X56370388Y11090177D01*
X56406224Y11084501D01*
X56417844Y11082095D01*
X56452989Y11073072D01*
X56460670Y11071100D01*
X56480924Y11071100D01*
X56500634Y11069549D01*
X56520643Y11066380D01*
X56528535Y11067126D01*
X56564661Y11070541D01*
X56576519Y11071100D01*
X57278234Y11071100D01*
X57346355Y11051098D01*
X57392848Y10997442D01*
X57402952Y10927168D01*
X57392429Y10891850D01*
X57323510Y10744053D01*
X57319764Y10733761D01*
X57273606Y10561497D01*
X57273942Y10547401D01*
X57281884Y10544000D01*
X60622967Y10544000D01*
X60636498Y10547973D01*
X60637727Y10556522D01*
X60590236Y10733761D01*
X60586490Y10744053D01*
X60517571Y10891850D01*
X60506910Y10962042D01*
X60535890Y11026854D01*
X60595310Y11065711D01*
X60631766Y11071100D01*
X70940506Y11071100D01*
X71008627Y11051098D01*
X71029601Y11034195D01*
X72166043Y9897753D01*
X72173587Y9889463D01*
X72177700Y9882982D01*
X72183477Y9877557D01*
X72227367Y9836342D01*
X72230209Y9833587D01*
X72249931Y9813865D01*
X72253055Y9811442D01*
X72253059Y9811438D01*
X72253124Y9811388D01*
X72262145Y9803683D01*
X72294379Y9773414D01*
X72301327Y9769595D01*
X72301329Y9769593D01*
X72312132Y9763654D01*
X72328659Y9752798D01*
X72338398Y9745243D01*
X72338400Y9745242D01*
X72344660Y9740386D01*
X72385240Y9722826D01*
X72395888Y9717609D01*
X72434640Y9696305D01*
X72442316Y9694334D01*
X72442319Y9694333D01*
X72454262Y9691267D01*
X72472967Y9684863D01*
X72491555Y9676819D01*
X72499378Y9675580D01*
X72499388Y9675577D01*
X72535224Y9669901D01*
X72546844Y9667495D01*
X72581989Y9658472D01*
X72589670Y9656500D01*
X72592223Y9656500D01*
X72655108Y9629075D01*
X72677454Y9604721D01*
X72788802Y9445700D01*
X72950700Y9283802D01*
X72955208Y9280645D01*
X72955211Y9280643D01*
X73033389Y9225902D01*
X73138251Y9152477D01*
X73143233Y9150154D01*
X73143238Y9150151D01*
X73339765Y9058510D01*
X73345757Y9055716D01*
X73351065Y9054294D01*
X73351067Y9054293D01*
X73561598Y8997881D01*
X73561600Y8997881D01*
X73566913Y8996457D01*
X73665120Y8987865D01*
X73735149Y8981738D01*
X73735156Y8981738D01*
X73737873Y8981500D01*
X74652127Y8981500D01*
X74654844Y8981738D01*
X74654851Y8981738D01*
X74724880Y8987865D01*
X74823087Y8996457D01*
X74828400Y8997881D01*
X74828402Y8997881D01*
X75038933Y9054293D01*
X75038935Y9054294D01*
X75044243Y9055716D01*
X75050235Y9058510D01*
X75246762Y9150151D01*
X75246767Y9150154D01*
X75251749Y9152477D01*
X75356611Y9225902D01*
X75434789Y9280643D01*
X75434792Y9280645D01*
X75439300Y9283802D01*
X75601198Y9445700D01*
X75732523Y9633251D01*
X75734846Y9638233D01*
X75734849Y9638238D01*
X75826961Y9835775D01*
X75826961Y9835776D01*
X75829284Y9840757D01*
X75877970Y10022452D01*
X75887119Y10056598D01*
X75887119Y10056600D01*
X75888543Y10061913D01*
X75908498Y10290000D01*
X75888543Y10518087D01*
X75829284Y10739243D01*
X75741654Y10927168D01*
X75734849Y10941762D01*
X75734846Y10941767D01*
X75732523Y10946749D01*
X75645451Y11071100D01*
X75604357Y11129789D01*
X75604355Y11129792D01*
X75601198Y11134300D01*
X75439300Y11296198D01*
X75434792Y11299355D01*
X75434789Y11299357D01*
X75356611Y11354098D01*
X75251749Y11427523D01*
X75246767Y11429846D01*
X75246762Y11429849D01*
X75212543Y11445805D01*
X75159258Y11492722D01*
X75139797Y11560999D01*
X75160339Y11628959D01*
X75212543Y11674195D01*
X75246762Y11690151D01*
X75246767Y11690154D01*
X75251749Y11692477D01*
X75356611Y11765902D01*
X75434789Y11820643D01*
X75434792Y11820645D01*
X75439300Y11823802D01*
X75601198Y11985700D01*
X75732523Y12173251D01*
X75734846Y12178233D01*
X75734849Y12178238D01*
X75826961Y12375775D01*
X75826961Y12375776D01*
X75829284Y12380757D01*
X75888543Y12601913D01*
X75908498Y12830000D01*
X75888543Y13058087D01*
X75829284Y13279243D01*
X75826959Y13284230D01*
X75734849Y13481762D01*
X75734846Y13481767D01*
X75732523Y13486749D01*
X75645451Y13611100D01*
X75604357Y13669789D01*
X75604355Y13669792D01*
X75601198Y13674300D01*
X75439300Y13836198D01*
X75434792Y13839355D01*
X75434789Y13839357D01*
X75356611Y13894098D01*
X75251749Y13967523D01*
X75246767Y13969846D01*
X75246762Y13969849D01*
X75212543Y13985805D01*
X75159258Y14032722D01*
X75139797Y14100999D01*
X75160339Y14168959D01*
X75212543Y14214195D01*
X75246762Y14230151D01*
X75246767Y14230154D01*
X75251749Y14232477D01*
X75405523Y14340151D01*
X75434789Y14360643D01*
X75434792Y14360645D01*
X75439300Y14363802D01*
X75601198Y14525700D01*
X75732523Y14713251D01*
X75734846Y14718233D01*
X75734849Y14718238D01*
X75826961Y14915775D01*
X75826961Y14915776D01*
X75829284Y14920757D01*
X75860182Y15036067D01*
X75887119Y15136598D01*
X75887119Y15136600D01*
X75888543Y15141913D01*
X75908498Y15370000D01*
X75888543Y15598087D01*
X75860537Y15702607D01*
X75830707Y15813933D01*
X75830706Y15813935D01*
X75829284Y15819243D01*
X75780467Y15923933D01*
X75734849Y16021762D01*
X75734846Y16021767D01*
X75732523Y16026749D01*
X75655500Y16136749D01*
X75604357Y16209789D01*
X75604355Y16209792D01*
X75601198Y16214300D01*
X75439300Y16376198D01*
X75434792Y16379355D01*
X75434789Y16379357D01*
X75288319Y16481916D01*
X75251749Y16507523D01*
X75246767Y16509846D01*
X75246762Y16509849D01*
X75212543Y16525805D01*
X75159258Y16572722D01*
X75139797Y16640999D01*
X75160339Y16708959D01*
X75212543Y16754195D01*
X75246762Y16770151D01*
X75246767Y16770154D01*
X75251749Y16772477D01*
X75356611Y16845902D01*
X75434789Y16900643D01*
X75434792Y16900645D01*
X75439300Y16903802D01*
X75601198Y17065700D01*
X75732523Y17253251D01*
X75734846Y17258233D01*
X75734849Y17258238D01*
X75826961Y17455775D01*
X75826961Y17455776D01*
X75829284Y17460757D01*
X75847568Y17528991D01*
X75887119Y17676598D01*
X75887119Y17676600D01*
X75888543Y17681913D01*
X75908498Y17910000D01*
X75888543Y18138087D01*
X75860537Y18242607D01*
X75830707Y18353933D01*
X75830706Y18353935D01*
X75829284Y18359243D01*
X75780467Y18463933D01*
X75734849Y18561762D01*
X75734846Y18561767D01*
X75732523Y18566749D01*
X75635522Y18705280D01*
X75604357Y18749789D01*
X75604355Y18749792D01*
X75601198Y18754300D01*
X75439300Y18916198D01*
X75434792Y18919355D01*
X75434789Y18919357D01*
X75346815Y18980957D01*
X75251749Y19047523D01*
X75246767Y19049846D01*
X75246762Y19049849D01*
X75212543Y19065805D01*
X75159258Y19112722D01*
X75139797Y19180999D01*
X75160339Y19248959D01*
X75212543Y19294195D01*
X75246762Y19310151D01*
X75246767Y19310154D01*
X75251749Y19312477D01*
X75408845Y19422477D01*
X75434789Y19440643D01*
X75434792Y19440645D01*
X75439300Y19443802D01*
X75601198Y19605700D01*
X75732523Y19793251D01*
X75734846Y19798233D01*
X75734849Y19798238D01*
X75826961Y19995775D01*
X75826961Y19995776D01*
X75829284Y20000757D01*
X75847568Y20068991D01*
X75887119Y20216598D01*
X75887119Y20216600D01*
X75888543Y20221913D01*
X75908498Y20450000D01*
X75888543Y20678087D01*
X75860537Y20782607D01*
X75830707Y20893933D01*
X75830706Y20893935D01*
X75829284Y20899243D01*
X75795149Y20972446D01*
X75734849Y21101762D01*
X75734846Y21101767D01*
X75732523Y21106749D01*
X75652343Y21221257D01*
X75604357Y21289789D01*
X75604355Y21289792D01*
X75601198Y21294300D01*
X75439300Y21456198D01*
X75434792Y21459355D01*
X75434789Y21459357D01*
X75329880Y21532815D01*
X75251749Y21587523D01*
X75246767Y21589846D01*
X75246762Y21589849D01*
X75212543Y21605805D01*
X75159258Y21652722D01*
X75139797Y21720999D01*
X75160339Y21788959D01*
X75212543Y21834195D01*
X75246762Y21850151D01*
X75246767Y21850154D01*
X75251749Y21852477D01*
X75405523Y21960151D01*
X75434789Y21980643D01*
X75434792Y21980645D01*
X75439300Y21983802D01*
X75601198Y22145700D01*
X75638211Y22198559D01*
X75681380Y22260211D01*
X75732523Y22333251D01*
X75734846Y22338233D01*
X75734849Y22338238D01*
X75826961Y22535775D01*
X75826961Y22535776D01*
X75829284Y22540757D01*
X75857279Y22645233D01*
X75887119Y22756598D01*
X75887119Y22756600D01*
X75888543Y22761913D01*
X75898289Y22873305D01*
X90637251Y22873305D01*
X90637548Y22868152D01*
X90637548Y22868149D01*
X90643011Y22773410D01*
X90650110Y22650285D01*
X90651247Y22645239D01*
X90651248Y22645233D01*
X90669768Y22563056D01*
X90699222Y22432361D01*
X90757218Y22289533D01*
X90779812Y22233891D01*
X90783266Y22225384D01*
X90799674Y22198608D01*
X90852593Y22112253D01*
X90899987Y22034912D01*
X91046250Y21866062D01*
X91218126Y21723368D01*
X91411000Y21610662D01*
X91619692Y21530970D01*
X91624760Y21529939D01*
X91624763Y21529938D01*
X91732017Y21508117D01*
X91838597Y21486433D01*
X91843772Y21486243D01*
X91843774Y21486243D01*
X92056673Y21478436D01*
X92056677Y21478436D01*
X92061837Y21478247D01*
X92066957Y21478903D01*
X92066959Y21478903D01*
X92278288Y21505975D01*
X92278289Y21505975D01*
X92283416Y21506632D01*
X92288366Y21508117D01*
X92492429Y21569339D01*
X92492434Y21569341D01*
X92497384Y21570826D01*
X92697994Y21669104D01*
X92879860Y21798827D01*
X93038096Y21956511D01*
X93057707Y21983802D01*
X93165435Y22133723D01*
X93168453Y22137923D01*
X93187469Y22176398D01*
X93265136Y22333547D01*
X93265137Y22333549D01*
X93267430Y22338189D01*
X93327460Y22535770D01*
X93330865Y22546977D01*
X93330865Y22546979D01*
X93332370Y22551931D01*
X93361529Y22773410D01*
X93363156Y22840000D01*
X93344852Y23062639D01*
X93290431Y23279298D01*
X93201354Y23484160D01*
X93099397Y23641762D01*
X93082822Y23667383D01*
X93082820Y23667386D01*
X93080014Y23671723D01*
X92929670Y23836949D01*
X92925619Y23840148D01*
X92925615Y23840152D01*
X92758414Y23972200D01*
X92758410Y23972202D01*
X92754359Y23975402D01*
X92713053Y23998204D01*
X92663084Y24048636D01*
X92648312Y24118079D01*
X92673428Y24184484D01*
X92700780Y24211091D01*
X92769348Y24260000D01*
X92879860Y24338827D01*
X93038096Y24496511D01*
X93049465Y24512332D01*
X93165435Y24673723D01*
X93168453Y24677923D01*
X93180499Y24702295D01*
X93265136Y24873547D01*
X93265137Y24873549D01*
X93267430Y24878189D01*
X93308515Y25013414D01*
X93330865Y25086977D01*
X93330865Y25086979D01*
X93332370Y25091931D01*
X93361529Y25313410D01*
X93363156Y25380000D01*
X93344852Y25602639D01*
X93290431Y25819298D01*
X93201354Y26024160D01*
X93139442Y26119862D01*
X93082822Y26207383D01*
X93082820Y26207386D01*
X93080014Y26211723D01*
X92929670Y26376949D01*
X92925619Y26380148D01*
X92925615Y26380152D01*
X92758414Y26512200D01*
X92758410Y26512202D01*
X92754359Y26515402D01*
X92713053Y26538204D01*
X92663084Y26588636D01*
X92648312Y26658079D01*
X92673428Y26724484D01*
X92700780Y26751091D01*
X92769348Y26800000D01*
X92879860Y26878827D01*
X93038096Y27036511D01*
X93057707Y27063802D01*
X93165435Y27213723D01*
X93168453Y27217923D01*
X93213622Y27309315D01*
X93265136Y27413547D01*
X93265137Y27413549D01*
X93267430Y27418189D01*
X93313138Y27568632D01*
X93330865Y27626977D01*
X93330865Y27626979D01*
X93332370Y27631931D01*
X93361529Y27853410D01*
X93363156Y27920000D01*
X93344852Y28142639D01*
X93290431Y28359298D01*
X93201354Y28564160D01*
X93140253Y28658608D01*
X93082822Y28747383D01*
X93082820Y28747386D01*
X93080014Y28751723D01*
X92929670Y28916949D01*
X92925619Y28920148D01*
X92925615Y28920152D01*
X92758414Y29052200D01*
X92758410Y29052202D01*
X92754359Y29055402D01*
X92713053Y29078204D01*
X92663084Y29128636D01*
X92648312Y29198079D01*
X92673428Y29264484D01*
X92700780Y29291091D01*
X92769348Y29340000D01*
X92879860Y29418827D01*
X93038096Y29576511D01*
X93057707Y29603802D01*
X93165435Y29753723D01*
X93168453Y29757923D01*
X93174212Y29769574D01*
X93265136Y29953547D01*
X93265137Y29953549D01*
X93267430Y29958189D01*
X93308515Y30093414D01*
X93330865Y30166977D01*
X93330865Y30166979D01*
X93332370Y30171931D01*
X93361529Y30393410D01*
X93363156Y30460000D01*
X93344852Y30682639D01*
X93290431Y30899298D01*
X93201354Y31104160D01*
X93141853Y31196135D01*
X93082822Y31287383D01*
X93082820Y31287386D01*
X93080014Y31291723D01*
X93065650Y31307509D01*
X92932798Y31453512D01*
X92901746Y31517358D01*
X92910141Y31587857D01*
X92955317Y31642625D01*
X92981761Y31656294D01*
X93088297Y31696233D01*
X93096705Y31699385D01*
X93213261Y31786739D01*
X93300615Y31903295D01*
X93351745Y32039684D01*
X93358500Y32101866D01*
X93358500Y33898134D01*
X93351745Y33960316D01*
X93300615Y34096705D01*
X93213261Y34213261D01*
X93096705Y34300615D01*
X92960316Y34351745D01*
X92898134Y34358500D01*
X91101866Y34358500D01*
X91039684Y34351745D01*
X90903295Y34300615D01*
X90786739Y34213261D01*
X90699385Y34096705D01*
X90648255Y33960316D01*
X90641500Y33898134D01*
X90641500Y32101866D01*
X90648255Y32039684D01*
X90699385Y31903295D01*
X90786739Y31786739D01*
X90903295Y31699385D01*
X90911704Y31696233D01*
X90911705Y31696232D01*
X91020451Y31655465D01*
X91077216Y31612824D01*
X91101916Y31546262D01*
X91086709Y31476913D01*
X91067316Y31450432D01*
X91044199Y31426242D01*
X90980413Y31359493D01*
X90940629Y31317862D01*
X90937715Y31313590D01*
X90937714Y31313589D01*
X90913915Y31278701D01*
X90814743Y31133320D01*
X90720688Y30930695D01*
X90660989Y30715430D01*
X90637251Y30493305D01*
X90637548Y30488152D01*
X90637548Y30488149D01*
X90643011Y30393410D01*
X90650110Y30270285D01*
X90651247Y30265239D01*
X90651248Y30265233D01*
X90666500Y30197557D01*
X90699222Y30052361D01*
X90751051Y29924720D01*
X90772746Y29871293D01*
X90783266Y29845384D01*
X90813470Y29796095D01*
X90881761Y29684655D01*
X90899987Y29654912D01*
X91046250Y29486062D01*
X91218126Y29343368D01*
X91231069Y29335805D01*
X91291445Y29300524D01*
X91340169Y29248886D01*
X91353240Y29179103D01*
X91326509Y29113331D01*
X91286055Y29079973D01*
X91273607Y29073493D01*
X91269474Y29070390D01*
X91269471Y29070388D01*
X91132769Y28967749D01*
X91094965Y28939365D01*
X91057716Y28900386D01*
X90972402Y28811110D01*
X90940629Y28777862D01*
X90937715Y28773590D01*
X90937714Y28773589D01*
X90895101Y28711121D01*
X90814743Y28593320D01*
X90799003Y28559410D01*
X90729783Y28410288D01*
X90720688Y28390695D01*
X90660989Y28175430D01*
X90637251Y27953305D01*
X90637548Y27948152D01*
X90637548Y27948149D01*
X90643011Y27853410D01*
X90650110Y27730285D01*
X90651247Y27725239D01*
X90651248Y27725233D01*
X90671119Y27637061D01*
X90699222Y27512361D01*
X90783266Y27305384D01*
X90899987Y27114912D01*
X91046250Y26946062D01*
X91218126Y26803368D01*
X91231069Y26795805D01*
X91291445Y26760524D01*
X91340169Y26708886D01*
X91353240Y26639103D01*
X91326509Y26573331D01*
X91286055Y26539973D01*
X91273607Y26533493D01*
X91269474Y26530390D01*
X91269471Y26530388D01*
X91099100Y26402470D01*
X91094965Y26399365D01*
X91062357Y26365243D01*
X91010777Y26311267D01*
X90940629Y26237862D01*
X90937715Y26233590D01*
X90937714Y26233589D01*
X90895101Y26171121D01*
X90814743Y26053320D01*
X90720688Y25850695D01*
X90660989Y25635430D01*
X90637251Y25413305D01*
X90637548Y25408152D01*
X90637548Y25408149D01*
X90643011Y25313410D01*
X90650110Y25190285D01*
X90651247Y25185239D01*
X90651248Y25185233D01*
X90666500Y25117557D01*
X90699222Y24972361D01*
X90737441Y24878238D01*
X90776731Y24781479D01*
X90783266Y24765384D01*
X90801053Y24736358D01*
X90882136Y24604043D01*
X90899987Y24574912D01*
X91046250Y24406062D01*
X91218126Y24263368D01*
X91231069Y24255805D01*
X91291445Y24220524D01*
X91340169Y24168886D01*
X91353240Y24099103D01*
X91326509Y24033331D01*
X91286055Y23999973D01*
X91273607Y23993493D01*
X91269474Y23990390D01*
X91269471Y23990388D01*
X91130816Y23886283D01*
X91094965Y23859365D01*
X90940629Y23697862D01*
X90937715Y23693590D01*
X90937714Y23693589D01*
X90852556Y23568751D01*
X90814743Y23513320D01*
X90720688Y23310695D01*
X90660989Y23095430D01*
X90637251Y22873305D01*
X75898289Y22873305D01*
X75908498Y22990000D01*
X75888543Y23218087D01*
X75873486Y23274280D01*
X75830707Y23433933D01*
X75830706Y23433935D01*
X75829284Y23439243D01*
X75794742Y23513320D01*
X75734849Y23641762D01*
X75734846Y23641767D01*
X75732523Y23646749D01*
X75618565Y23809498D01*
X75604357Y23829789D01*
X75604355Y23829792D01*
X75601198Y23834300D01*
X75439300Y23996198D01*
X75434792Y23999355D01*
X75434789Y23999357D01*
X75295850Y24096643D01*
X75251749Y24127523D01*
X75246767Y24129846D01*
X75246762Y24129849D01*
X75212543Y24145805D01*
X75159258Y24192722D01*
X75139797Y24260999D01*
X75160339Y24328959D01*
X75212543Y24374195D01*
X75246762Y24390151D01*
X75246767Y24390154D01*
X75251749Y24392477D01*
X75405523Y24500151D01*
X75434789Y24520643D01*
X75434792Y24520645D01*
X75439300Y24523802D01*
X75601198Y24685700D01*
X75619619Y24712007D01*
X75682375Y24801633D01*
X75732523Y24873251D01*
X75734846Y24878233D01*
X75734849Y24878238D01*
X75826961Y25075775D01*
X75826961Y25075776D01*
X75829284Y25080757D01*
X75833503Y25096500D01*
X75887119Y25296598D01*
X75887119Y25296600D01*
X75888543Y25301913D01*
X75908498Y25530000D01*
X75888543Y25758087D01*
X75873486Y25814280D01*
X75830707Y25973933D01*
X75830706Y25973935D01*
X75829284Y25979243D01*
X75794742Y26053320D01*
X75734849Y26181762D01*
X75734846Y26181767D01*
X75732523Y26186749D01*
X75652343Y26301257D01*
X75604357Y26369789D01*
X75604355Y26369792D01*
X75601198Y26374300D01*
X75439300Y26536198D01*
X75434792Y26539355D01*
X75434789Y26539357D01*
X75295850Y26636643D01*
X75251749Y26667523D01*
X75246767Y26669846D01*
X75246762Y26669849D01*
X75212543Y26685805D01*
X75159258Y26732722D01*
X75139797Y26800999D01*
X75160339Y26868959D01*
X75212543Y26914195D01*
X75246762Y26930151D01*
X75246767Y26930154D01*
X75251749Y26932477D01*
X75405523Y27040151D01*
X75434789Y27060643D01*
X75434792Y27060645D01*
X75439300Y27063802D01*
X75601198Y27225700D01*
X75656994Y27305384D01*
X75706019Y27375400D01*
X75732523Y27413251D01*
X75734846Y27418233D01*
X75734849Y27418238D01*
X75826961Y27615775D01*
X75826961Y27615776D01*
X75829284Y27620757D01*
X75857279Y27725233D01*
X75887119Y27836598D01*
X75887119Y27836600D01*
X75888543Y27841913D01*
X75908498Y28070000D01*
X75888543Y28298087D01*
X75873486Y28354280D01*
X75830707Y28513933D01*
X75830706Y28513935D01*
X75829284Y28519243D01*
X75823338Y28531995D01*
X75734849Y28721762D01*
X75734846Y28721767D01*
X75732523Y28726749D01*
X75601198Y28914300D01*
X75439300Y29076198D01*
X75434792Y29079355D01*
X75434789Y29079357D01*
X75295850Y29176643D01*
X75251749Y29207523D01*
X75246767Y29209846D01*
X75246762Y29209849D01*
X75212543Y29225805D01*
X75159258Y29272722D01*
X75139797Y29340999D01*
X75160339Y29408959D01*
X75212543Y29454195D01*
X75246762Y29470151D01*
X75246767Y29470154D01*
X75251749Y29472477D01*
X75405523Y29580151D01*
X75434789Y29600643D01*
X75434792Y29600645D01*
X75439300Y29603802D01*
X75601198Y29765700D01*
X75604357Y29770211D01*
X75711181Y29922771D01*
X75766638Y29967099D01*
X75814394Y29976500D01*
X78180733Y29976500D01*
X78191916Y29975973D01*
X78199409Y29974298D01*
X78207335Y29974547D01*
X78207336Y29974547D01*
X78267486Y29976438D01*
X78271445Y29976500D01*
X78299356Y29976500D01*
X78303291Y29976997D01*
X78303356Y29977005D01*
X78315193Y29977938D01*
X78347451Y29978952D01*
X78351470Y29979078D01*
X78359389Y29979327D01*
X78378843Y29984979D01*
X78398200Y29988987D01*
X78410430Y29990532D01*
X78410431Y29990532D01*
X78418297Y29991526D01*
X78425668Y29994445D01*
X78425670Y29994445D01*
X78459412Y30007804D01*
X78470642Y30011649D01*
X78505483Y30021771D01*
X78505484Y30021771D01*
X78513093Y30023982D01*
X78519912Y30028015D01*
X78519917Y30028017D01*
X78530528Y30034293D01*
X78548276Y30042988D01*
X78567117Y30050448D01*
X78602887Y30076436D01*
X78612807Y30082952D01*
X78644035Y30101420D01*
X78644038Y30101422D01*
X78650862Y30105458D01*
X78665183Y30119779D01*
X78680217Y30132620D01*
X78690194Y30139869D01*
X78696607Y30144528D01*
X78724798Y30178605D01*
X78732788Y30187384D01*
X82208247Y33662843D01*
X82216537Y33670387D01*
X82223018Y33674500D01*
X82243874Y33696709D01*
X82269658Y33724167D01*
X82272413Y33727009D01*
X82292135Y33746731D01*
X82294612Y33749924D01*
X82302317Y33758945D01*
X82313786Y33771159D01*
X82332586Y33791179D01*
X82340051Y33804758D01*
X82342346Y33808932D01*
X82353202Y33825459D01*
X82360757Y33835198D01*
X82360758Y33835200D01*
X82365614Y33841460D01*
X82383174Y33882040D01*
X82388391Y33892688D01*
X82405875Y33924491D01*
X82405876Y33924493D01*
X82409695Y33931440D01*
X82414733Y33951063D01*
X82421137Y33969766D01*
X82426033Y33981080D01*
X82426033Y33981081D01*
X82429181Y33988355D01*
X82430420Y33996178D01*
X82430423Y33996188D01*
X82436099Y34032024D01*
X82438505Y34043644D01*
X82447528Y34078789D01*
X82447528Y34078790D01*
X82449500Y34086470D01*
X82449500Y34106724D01*
X82451051Y34126435D01*
X82452980Y34138614D01*
X82454220Y34146443D01*
X82450059Y34190462D01*
X82449500Y34202319D01*
X82449500Y59705332D01*
X82450027Y59716515D01*
X82451702Y59724008D01*
X82449562Y59792099D01*
X82449500Y59796056D01*
X82449500Y59823956D01*
X82448996Y59827947D01*
X82448063Y59839789D01*
X82446923Y59876064D01*
X82446674Y59883989D01*
X82441021Y59903448D01*
X82437012Y59922807D01*
X82436846Y59924117D01*
X82434474Y59942897D01*
X82431558Y59950263D01*
X82431556Y59950269D01*
X82418200Y59984002D01*
X82414355Y59995232D01*
X82404230Y60030083D01*
X82404230Y60030084D01*
X82402019Y60037693D01*
X82391705Y60055134D01*
X82383008Y60072887D01*
X82378472Y60084342D01*
X82375552Y60091717D01*
X82349563Y60127488D01*
X82343047Y60137408D01*
X82324578Y60168637D01*
X82320542Y60175462D01*
X82306221Y60189783D01*
X82293380Y60204817D01*
X82286131Y60214794D01*
X82281472Y60221207D01*
X82247395Y60249398D01*
X82238616Y60257388D01*
X75431052Y67064953D01*
X75423512Y67073239D01*
X75419400Y67079718D01*
X75369748Y67126344D01*
X75366907Y67129098D01*
X75347170Y67148835D01*
X75343973Y67151315D01*
X75334951Y67159020D01*
X75321522Y67171631D01*
X75302721Y67189286D01*
X75295775Y67193105D01*
X75295772Y67193107D01*
X75284966Y67199048D01*
X75268447Y67209899D01*
X75267983Y67210259D01*
X75252441Y67222314D01*
X75245172Y67225459D01*
X75245168Y67225462D01*
X75211863Y67239874D01*
X75201213Y67245091D01*
X75162460Y67266395D01*
X75142837Y67271433D01*
X75124134Y67277837D01*
X75112820Y67282733D01*
X75112819Y67282733D01*
X75105545Y67285881D01*
X75097722Y67287120D01*
X75097712Y67287123D01*
X75061876Y67292799D01*
X75050256Y67295205D01*
X75015111Y67304228D01*
X75015110Y67304228D01*
X75007430Y67306200D01*
X74987176Y67306200D01*
X74967465Y67307751D01*
X74955286Y67309680D01*
X74947457Y67310920D01*
X74918186Y67308153D01*
X74903439Y67306759D01*
X74891581Y67306200D01*
X71699467Y67306200D01*
X71688284Y67306727D01*
X71680791Y67308402D01*
X71672865Y67308153D01*
X71672864Y67308153D01*
X71612701Y67306262D01*
X71608743Y67306200D01*
X71580844Y67306200D01*
X71576854Y67305696D01*
X71565020Y67304764D01*
X71520811Y67303374D01*
X71513197Y67301162D01*
X71513192Y67301161D01*
X71501359Y67297723D01*
X71481996Y67293712D01*
X71461903Y67291174D01*
X71454536Y67288257D01*
X71454531Y67288256D01*
X71420792Y67274898D01*
X71409565Y67271054D01*
X71367107Y67258718D01*
X71360281Y67254681D01*
X71349672Y67248407D01*
X71331924Y67239712D01*
X71313083Y67232252D01*
X71306667Y67227590D01*
X71306666Y67227590D01*
X71277313Y67206264D01*
X71267393Y67199748D01*
X71236165Y67181280D01*
X71236162Y67181278D01*
X71229338Y67177242D01*
X71215017Y67162921D01*
X71199984Y67150081D01*
X71183593Y67138172D01*
X71174917Y67127684D01*
X71155402Y67104095D01*
X71147412Y67095316D01*
X70177388Y66125292D01*
X70115076Y66091266D01*
X70044261Y66096331D01*
X70010200Y66115506D01*
X69938415Y66172199D01*
X69938413Y66172200D01*
X69934359Y66175402D01*
X69898028Y66195458D01*
X69825969Y66235236D01*
X69738789Y66283362D01*
X69733920Y66285086D01*
X69733916Y66285088D01*
X69533087Y66356205D01*
X69533083Y66356206D01*
X69528212Y66357931D01*
X69523119Y66358838D01*
X69523116Y66358839D01*
X69313373Y66396200D01*
X69313367Y66396201D01*
X69308284Y66397106D01*
X69234452Y66398008D01*
X69090081Y66399772D01*
X69090079Y66399772D01*
X69084911Y66399835D01*
X68864091Y66366045D01*
X68651756Y66296643D01*
X68453607Y66193493D01*
X68449474Y66190390D01*
X68449471Y66190388D01*
X68325744Y66097491D01*
X68274965Y66059365D01*
X68120629Y65897862D01*
X68013201Y65740379D01*
X67958293Y65695379D01*
X67887768Y65687208D01*
X67824021Y65718462D01*
X67803324Y65742946D01*
X67722822Y65867383D01*
X67722820Y65867386D01*
X67720014Y65871723D01*
X67569670Y66036949D01*
X67565619Y66040148D01*
X67565615Y66040152D01*
X67398414Y66172200D01*
X67398410Y66172202D01*
X67394359Y66175402D01*
X67358028Y66195458D01*
X67285969Y66235236D01*
X67198789Y66283362D01*
X67193920Y66285086D01*
X67193916Y66285088D01*
X66993087Y66356205D01*
X66993083Y66356206D01*
X66988212Y66357931D01*
X66983119Y66358838D01*
X66983116Y66358839D01*
X66773373Y66396200D01*
X66773367Y66396201D01*
X66768284Y66397106D01*
X66694452Y66398008D01*
X66550081Y66399772D01*
X66550079Y66399772D01*
X66544911Y66399835D01*
X66324091Y66366045D01*
X66111756Y66296643D01*
X65913607Y66193493D01*
X65909474Y66190390D01*
X65909471Y66190388D01*
X65785744Y66097491D01*
X65734965Y66059365D01*
X65580629Y65897862D01*
X65473201Y65740379D01*
X65418293Y65695379D01*
X65347768Y65687208D01*
X65284021Y65718462D01*
X65263324Y65742946D01*
X65182822Y65867383D01*
X65182820Y65867386D01*
X65180014Y65871723D01*
X65029670Y66036949D01*
X65025619Y66040148D01*
X65025615Y66040152D01*
X64858414Y66172200D01*
X64858410Y66172202D01*
X64854359Y66175402D01*
X64818028Y66195458D01*
X64745969Y66235236D01*
X64658789Y66283362D01*
X64653920Y66285086D01*
X64653916Y66285088D01*
X64453087Y66356205D01*
X64453083Y66356206D01*
X64448212Y66357931D01*
X64443119Y66358838D01*
X64443116Y66358839D01*
X64233373Y66396200D01*
X64233367Y66396201D01*
X64228284Y66397106D01*
X64154452Y66398008D01*
X64010081Y66399772D01*
X64010079Y66399772D01*
X64004911Y66399835D01*
X63784091Y66366045D01*
X63571756Y66296643D01*
X63373607Y66193493D01*
X63369474Y66190390D01*
X63369471Y66190388D01*
X63245744Y66097491D01*
X63194965Y66059365D01*
X63040629Y65897862D01*
X62933201Y65740379D01*
X62878293Y65695379D01*
X62807768Y65687208D01*
X62744021Y65718462D01*
X62723324Y65742946D01*
X62642822Y65867383D01*
X62642820Y65867386D01*
X62640014Y65871723D01*
X62489670Y66036949D01*
X62485619Y66040148D01*
X62485615Y66040152D01*
X62318414Y66172200D01*
X62318410Y66172202D01*
X62314359Y66175402D01*
X62278028Y66195458D01*
X62205969Y66235236D01*
X62118789Y66283362D01*
X62113920Y66285086D01*
X62113916Y66285088D01*
X61913087Y66356205D01*
X61913083Y66356206D01*
X61908212Y66357931D01*
X61903119Y66358838D01*
X61903116Y66358839D01*
X61693373Y66396200D01*
X61693367Y66396201D01*
X61688284Y66397106D01*
X61614452Y66398008D01*
X61470081Y66399772D01*
X61470079Y66399772D01*
X61464911Y66399835D01*
X61244091Y66366045D01*
X61031756Y66296643D01*
X60833607Y66193493D01*
X60829474Y66190390D01*
X60829471Y66190388D01*
X60705744Y66097491D01*
X60654965Y66059365D01*
X60500629Y65897862D01*
X60393201Y65740379D01*
X60338293Y65695379D01*
X60267768Y65687208D01*
X60204021Y65718462D01*
X60183324Y65742946D01*
X60102822Y65867383D01*
X60102820Y65867386D01*
X60100014Y65871723D01*
X59949670Y66036949D01*
X59945619Y66040148D01*
X59945615Y66040152D01*
X59778414Y66172200D01*
X59778410Y66172202D01*
X59774359Y66175402D01*
X59738028Y66195458D01*
X59665969Y66235236D01*
X59578789Y66283362D01*
X59573920Y66285086D01*
X59573916Y66285088D01*
X59373087Y66356205D01*
X59373083Y66356206D01*
X59368212Y66357931D01*
X59363119Y66358838D01*
X59363116Y66358839D01*
X59153373Y66396200D01*
X59153367Y66396201D01*
X59148284Y66397106D01*
X59074452Y66398008D01*
X58930081Y66399772D01*
X58930079Y66399772D01*
X58924911Y66399835D01*
X58704091Y66366045D01*
X58491756Y66296643D01*
X58293607Y66193493D01*
X58289474Y66190390D01*
X58289471Y66190388D01*
X58165744Y66097491D01*
X58114965Y66059365D01*
X57960629Y65897862D01*
X57853201Y65740379D01*
X57798293Y65695379D01*
X57727768Y65687208D01*
X57664021Y65718462D01*
X57643324Y65742946D01*
X57562822Y65867383D01*
X57562820Y65867386D01*
X57560014Y65871723D01*
X57409670Y66036949D01*
X57405619Y66040148D01*
X57405615Y66040152D01*
X57238414Y66172200D01*
X57238410Y66172202D01*
X57234359Y66175402D01*
X57198028Y66195458D01*
X57125969Y66235236D01*
X57038789Y66283362D01*
X57033920Y66285086D01*
X57033916Y66285088D01*
X56833087Y66356205D01*
X56833083Y66356206D01*
X56828212Y66357931D01*
X56823119Y66358838D01*
X56823116Y66358839D01*
X56613373Y66396200D01*
X56613367Y66396201D01*
X56608284Y66397106D01*
X56534452Y66398008D01*
X56390081Y66399772D01*
X56390079Y66399772D01*
X56384911Y66399835D01*
X56164091Y66366045D01*
X55951756Y66296643D01*
X55753607Y66193493D01*
X55749474Y66190390D01*
X55749471Y66190388D01*
X55625744Y66097491D01*
X55574965Y66059365D01*
X55420629Y65897862D01*
X55313201Y65740379D01*
X55258293Y65695379D01*
X55187768Y65687208D01*
X55124021Y65718462D01*
X55103324Y65742946D01*
X55022822Y65867383D01*
X55022820Y65867386D01*
X55020014Y65871723D01*
X54869670Y66036949D01*
X54865619Y66040148D01*
X54865615Y66040152D01*
X54698414Y66172200D01*
X54698410Y66172202D01*
X54694359Y66175402D01*
X54658028Y66195458D01*
X54585969Y66235236D01*
X54498789Y66283362D01*
X54493920Y66285086D01*
X54493916Y66285088D01*
X54293087Y66356205D01*
X54293083Y66356206D01*
X54288212Y66357931D01*
X54283119Y66358838D01*
X54283116Y66358839D01*
X54073373Y66396200D01*
X54073367Y66396201D01*
X54068284Y66397106D01*
X53994452Y66398008D01*
X53850081Y66399772D01*
X53850079Y66399772D01*
X53844911Y66399835D01*
X53624091Y66366045D01*
X53411756Y66296643D01*
X53213607Y66193493D01*
X53209474Y66190390D01*
X53209471Y66190388D01*
X53085744Y66097491D01*
X53034965Y66059365D01*
X52880629Y65897862D01*
X52773201Y65740379D01*
X52718293Y65695379D01*
X52647768Y65687208D01*
X52584021Y65718462D01*
X52563324Y65742946D01*
X52482822Y65867383D01*
X52482820Y65867386D01*
X52480014Y65871723D01*
X52329670Y66036949D01*
X52325619Y66040148D01*
X52325615Y66040152D01*
X52158414Y66172200D01*
X52158410Y66172202D01*
X52154359Y66175402D01*
X52118028Y66195458D01*
X52045969Y66235236D01*
X51958789Y66283362D01*
X51953920Y66285086D01*
X51953916Y66285088D01*
X51753087Y66356205D01*
X51753083Y66356206D01*
X51748212Y66357931D01*
X51743119Y66358838D01*
X51743116Y66358839D01*
X51533373Y66396200D01*
X51533367Y66396201D01*
X51528284Y66397106D01*
X51454452Y66398008D01*
X51310081Y66399772D01*
X51310079Y66399772D01*
X51304911Y66399835D01*
X51084091Y66366045D01*
X50871756Y66296643D01*
X50673607Y66193493D01*
X50669474Y66190390D01*
X50669471Y66190388D01*
X50545744Y66097491D01*
X50494965Y66059365D01*
X50340629Y65897862D01*
X50233201Y65740379D01*
X50178293Y65695379D01*
X50107768Y65687208D01*
X50044021Y65718462D01*
X50023324Y65742946D01*
X49942822Y65867383D01*
X49942820Y65867386D01*
X49940014Y65871723D01*
X49789670Y66036949D01*
X49785619Y66040148D01*
X49785615Y66040152D01*
X49618414Y66172200D01*
X49618410Y66172202D01*
X49614359Y66175402D01*
X49578028Y66195458D01*
X49505969Y66235236D01*
X49418789Y66283362D01*
X49413920Y66285086D01*
X49413916Y66285088D01*
X49213087Y66356205D01*
X49213083Y66356206D01*
X49208212Y66357931D01*
X49203119Y66358838D01*
X49203116Y66358839D01*
X48993373Y66396200D01*
X48993367Y66396201D01*
X48988284Y66397106D01*
X48914452Y66398008D01*
X48770081Y66399772D01*
X48770079Y66399772D01*
X48764911Y66399835D01*
X48544091Y66366045D01*
X48331756Y66296643D01*
X48133607Y66193493D01*
X48129474Y66190390D01*
X48129471Y66190388D01*
X48005744Y66097491D01*
X47954965Y66059365D01*
X47800629Y65897862D01*
X47693201Y65740379D01*
X47638293Y65695379D01*
X47567768Y65687208D01*
X47504021Y65718462D01*
X47483324Y65742946D01*
X47402822Y65867383D01*
X47402820Y65867386D01*
X47400014Y65871723D01*
X47249670Y66036949D01*
X47245619Y66040148D01*
X47245615Y66040152D01*
X47078414Y66172200D01*
X47078410Y66172202D01*
X47074359Y66175402D01*
X47038028Y66195458D01*
X46965969Y66235236D01*
X46878789Y66283362D01*
X46873920Y66285086D01*
X46873916Y66285088D01*
X46673087Y66356205D01*
X46673083Y66356206D01*
X46668212Y66357931D01*
X46663119Y66358838D01*
X46663116Y66358839D01*
X46453373Y66396200D01*
X46453367Y66396201D01*
X46448284Y66397106D01*
X46374452Y66398008D01*
X46230081Y66399772D01*
X46230079Y66399772D01*
X46224911Y66399835D01*
X46004091Y66366045D01*
X45791756Y66296643D01*
X45593607Y66193493D01*
X45589474Y66190390D01*
X45589471Y66190388D01*
X45465744Y66097491D01*
X45414965Y66059365D01*
X45260629Y65897862D01*
X45153201Y65740379D01*
X45098293Y65695379D01*
X45027768Y65687208D01*
X44964021Y65718462D01*
X44943324Y65742946D01*
X44862822Y65867383D01*
X44862820Y65867386D01*
X44860014Y65871723D01*
X44709670Y66036949D01*
X44705619Y66040148D01*
X44705615Y66040152D01*
X44538414Y66172200D01*
X44538410Y66172202D01*
X44534359Y66175402D01*
X44498028Y66195458D01*
X44425969Y66235236D01*
X44338789Y66283362D01*
X44333920Y66285086D01*
X44333916Y66285088D01*
X44133087Y66356205D01*
X44133083Y66356206D01*
X44128212Y66357931D01*
X44123119Y66358838D01*
X44123116Y66358839D01*
X43913373Y66396200D01*
X43913367Y66396201D01*
X43908284Y66397106D01*
X43834452Y66398008D01*
X43690081Y66399772D01*
X43690079Y66399772D01*
X43684911Y66399835D01*
X43464091Y66366045D01*
X43251756Y66296643D01*
X43053607Y66193493D01*
X43049474Y66190390D01*
X43049471Y66190388D01*
X42925744Y66097491D01*
X42874965Y66059365D01*
X42720629Y65897862D01*
X42613201Y65740379D01*
X42558293Y65695379D01*
X42487768Y65687208D01*
X42424021Y65718462D01*
X42403324Y65742946D01*
X42322822Y65867383D01*
X42322820Y65867386D01*
X42320014Y65871723D01*
X42169670Y66036949D01*
X42165619Y66040148D01*
X42165615Y66040152D01*
X41998414Y66172200D01*
X41998410Y66172202D01*
X41994359Y66175402D01*
X41958028Y66195458D01*
X41885969Y66235236D01*
X41798789Y66283362D01*
X41793920Y66285086D01*
X41793916Y66285088D01*
X41593087Y66356205D01*
X41593083Y66356206D01*
X41588212Y66357931D01*
X41583119Y66358838D01*
X41583116Y66358839D01*
X41373373Y66396200D01*
X41373367Y66396201D01*
X41368284Y66397106D01*
X41294452Y66398008D01*
X41150081Y66399772D01*
X41150079Y66399772D01*
X41144911Y66399835D01*
X40924091Y66366045D01*
X40711756Y66296643D01*
X40513607Y66193493D01*
X40509474Y66190390D01*
X40509471Y66190388D01*
X40385744Y66097491D01*
X40334965Y66059365D01*
X40180629Y65897862D01*
X40073201Y65740379D01*
X40018293Y65695379D01*
X39947768Y65687208D01*
X39884021Y65718462D01*
X39863324Y65742946D01*
X39782822Y65867383D01*
X39782820Y65867386D01*
X39780014Y65871723D01*
X39629670Y66036949D01*
X39625619Y66040148D01*
X39625615Y66040152D01*
X39458414Y66172200D01*
X39458410Y66172202D01*
X39454359Y66175402D01*
X39418028Y66195458D01*
X39345969Y66235236D01*
X39258789Y66283362D01*
X39253920Y66285086D01*
X39253916Y66285088D01*
X39053087Y66356205D01*
X39053083Y66356206D01*
X39048212Y66357931D01*
X39043119Y66358838D01*
X39043116Y66358839D01*
X38833373Y66396200D01*
X38833367Y66396201D01*
X38828284Y66397106D01*
X38754452Y66398008D01*
X38610081Y66399772D01*
X38610079Y66399772D01*
X38604911Y66399835D01*
X38384091Y66366045D01*
X38171756Y66296643D01*
X37973607Y66193493D01*
X37969474Y66190390D01*
X37969471Y66190388D01*
X37845744Y66097491D01*
X37794965Y66059365D01*
X37640629Y65897862D01*
X37533201Y65740379D01*
X37478293Y65695379D01*
X37407768Y65687208D01*
X37344021Y65718462D01*
X37323324Y65742946D01*
X37242822Y65867383D01*
X37242820Y65867386D01*
X37240014Y65871723D01*
X37089670Y66036949D01*
X37085619Y66040148D01*
X37085615Y66040152D01*
X36918414Y66172200D01*
X36918410Y66172202D01*
X36914359Y66175402D01*
X36878028Y66195458D01*
X36805969Y66235236D01*
X36718789Y66283362D01*
X36713920Y66285086D01*
X36713916Y66285088D01*
X36513087Y66356205D01*
X36513083Y66356206D01*
X36508212Y66357931D01*
X36503119Y66358838D01*
X36503116Y66358839D01*
X36293373Y66396200D01*
X36293367Y66396201D01*
X36288284Y66397106D01*
X36214452Y66398008D01*
X36070081Y66399772D01*
X36070079Y66399772D01*
X36064911Y66399835D01*
X35844091Y66366045D01*
X35631756Y66296643D01*
X35433607Y66193493D01*
X35429474Y66190390D01*
X35429471Y66190388D01*
X35305744Y66097491D01*
X35254965Y66059365D01*
X35100629Y65897862D01*
X34993201Y65740379D01*
X34938293Y65695379D01*
X34867768Y65687208D01*
X34804021Y65718462D01*
X34783324Y65742946D01*
X34702822Y65867383D01*
X34702820Y65867386D01*
X34700014Y65871723D01*
X34549670Y66036949D01*
X34545619Y66040148D01*
X34545615Y66040152D01*
X34378414Y66172200D01*
X34378410Y66172202D01*
X34374359Y66175402D01*
X34338028Y66195458D01*
X34265969Y66235236D01*
X34178789Y66283362D01*
X34173920Y66285086D01*
X34173916Y66285088D01*
X33973087Y66356205D01*
X33973083Y66356206D01*
X33968212Y66357931D01*
X33963119Y66358838D01*
X33963116Y66358839D01*
X33753373Y66396200D01*
X33753367Y66396201D01*
X33748284Y66397106D01*
X33674452Y66398008D01*
X33530081Y66399772D01*
X33530079Y66399772D01*
X33524911Y66399835D01*
X33304091Y66366045D01*
X33091756Y66296643D01*
X32893607Y66193493D01*
X32889474Y66190390D01*
X32889471Y66190388D01*
X32765744Y66097491D01*
X32714965Y66059365D01*
X32560629Y65897862D01*
X32453201Y65740379D01*
X32398293Y65695379D01*
X32327768Y65687208D01*
X32264021Y65718462D01*
X32243324Y65742946D01*
X32162822Y65867383D01*
X32162820Y65867386D01*
X32160014Y65871723D01*
X32009670Y66036949D01*
X32005619Y66040148D01*
X32005615Y66040152D01*
X31838414Y66172200D01*
X31838410Y66172202D01*
X31834359Y66175402D01*
X31798028Y66195458D01*
X31725969Y66235236D01*
X31638789Y66283362D01*
X31633920Y66285086D01*
X31633916Y66285088D01*
X31433087Y66356205D01*
X31433083Y66356206D01*
X31428212Y66357931D01*
X31423119Y66358838D01*
X31423116Y66358839D01*
X31213373Y66396200D01*
X31213367Y66396201D01*
X31208284Y66397106D01*
X31134452Y66398008D01*
X30990081Y66399772D01*
X30990079Y66399772D01*
X30984911Y66399835D01*
X30764091Y66366045D01*
X30551756Y66296643D01*
X30353607Y66193493D01*
X30349474Y66190390D01*
X30349471Y66190388D01*
X30225744Y66097491D01*
X30174965Y66059365D01*
X30020629Y65897862D01*
X30017720Y65893597D01*
X30017714Y65893589D01*
X30005404Y65875543D01*
X29913204Y65740382D01*
X29912898Y65739934D01*
X29857987Y65694931D01*
X29787462Y65686760D01*
X29723715Y65718014D01*
X29703018Y65742498D01*
X29622426Y65867074D01*
X29616136Y65875243D01*
X29472806Y66032760D01*
X29465273Y66039785D01*
X29298139Y66171778D01*
X29289552Y66177483D01*
X29103117Y66280401D01*
X29093705Y66284631D01*
X28892959Y66355720D01*
X28882988Y66358354D01*
X28811837Y66371028D01*
X28798540Y66369568D01*
X28794000Y66355011D01*
X28794000Y64912000D01*
X28773998Y64843879D01*
X28720342Y64797386D01*
X28668000Y64786000D01*
X24683225Y64786000D01*
X24669694Y64782027D01*
X24668257Y64772034D01*
X24698565Y64637554D01*
X24701645Y64627725D01*
X24781770Y64430397D01*
X24786413Y64421206D01*
X24897694Y64239612D01*
X24903777Y64231301D01*
X25043213Y64070333D01*
X25050577Y64063121D01*
X25055522Y64059015D01*
X25095156Y64000111D01*
X25096653Y63929130D01*
X25059537Y63868608D01*
X25019264Y63844090D01*
X24911705Y63803768D01*
X24911704Y63803767D01*
X24903295Y63800615D01*
X24786739Y63713261D01*
X24699385Y63596705D01*
X24648255Y63460316D01*
X24646733Y63446307D01*
X24643972Y63420892D01*
X24616730Y63355330D01*
X24558366Y63314904D01*
X24518709Y63308500D01*
X14924493Y63308500D01*
X14856372Y63328502D01*
X14809879Y63382158D01*
X14802457Y63403763D01*
X14801745Y63410316D01*
X14798972Y63417715D01*
X14753767Y63538297D01*
X14750615Y63546705D01*
X14663261Y63663261D01*
X14546705Y63750615D01*
X14410316Y63801745D01*
X14366748Y63806478D01*
X14351514Y63808133D01*
X14351511Y63808133D01*
X14348134Y63808500D01*
X14344815Y63808500D01*
X14277890Y63832153D01*
X14242196Y63878156D01*
X14240266Y63877141D01*
X14234558Y63888000D01*
X14234368Y63888245D01*
X14234347Y63888403D01*
X14214356Y63926434D01*
X13512812Y64627978D01*
X13498868Y64635592D01*
X13497035Y64635461D01*
X13490420Y64631210D01*
X12784923Y63925713D01*
X12762129Y63883971D01*
X12759953Y63873971D01*
X12709747Y63823773D01*
X12656186Y63808549D01*
X12655281Y63808500D01*
X12651866Y63808500D01*
X12648470Y63808131D01*
X12648468Y63808131D01*
X12636121Y63806790D01*
X12589684Y63801745D01*
X12453295Y63750615D01*
X12336739Y63663261D01*
X12249385Y63546705D01*
X12198255Y63410316D01*
X12191500Y63348134D01*
X12191500Y61651866D01*
X508500Y61651866D01*
X508500Y64994525D01*
X12187483Y64994525D01*
X12206472Y64777481D01*
X12208375Y64766688D01*
X12264764Y64556239D01*
X12268510Y64545947D01*
X12360586Y64348489D01*
X12366069Y64338994D01*
X12402509Y64286952D01*
X12412988Y64278576D01*
X12426434Y64285644D01*
X13127978Y64987188D01*
X13134356Y64998868D01*
X13864408Y64998868D01*
X13864539Y64997035D01*
X13868790Y64990420D01*
X14574287Y64284923D01*
X14586062Y64278493D01*
X14598077Y64287789D01*
X14633931Y64338994D01*
X14639414Y64348489D01*
X14731490Y64545947D01*
X14735236Y64556239D01*
X14791625Y64766688D01*
X14793528Y64777481D01*
X14812517Y64994525D01*
X14812517Y65005475D01*
X14793528Y65222519D01*
X14791625Y65233312D01*
X14772198Y65305817D01*
X24664389Y65305817D01*
X24665912Y65297393D01*
X24678292Y65294000D01*
X25727885Y65294000D01*
X25743124Y65298475D01*
X25744329Y65299865D01*
X25746000Y65307548D01*
X25746000Y65312115D01*
X26254000Y65312115D01*
X26258475Y65296876D01*
X26259865Y65295671D01*
X26267548Y65294000D01*
X28267885Y65294000D01*
X28283124Y65298475D01*
X28284329Y65299865D01*
X28286000Y65307548D01*
X28286000Y66356898D01*
X28282082Y66370242D01*
X28267806Y66372229D01*
X28229324Y66366340D01*
X28219288Y66363949D01*
X28016868Y66297788D01*
X28007359Y66293791D01*
X27818463Y66195458D01*
X27809738Y66189964D01*
X27639433Y66062095D01*
X27631726Y66055252D01*
X27484590Y65901283D01*
X27478104Y65893273D01*
X27373193Y65739479D01*
X27318282Y65694476D01*
X27247757Y65686305D01*
X27184010Y65717559D01*
X27163313Y65742043D01*
X27082427Y65867074D01*
X27076136Y65875243D01*
X26932806Y66032760D01*
X26925273Y66039785D01*
X26758139Y66171778D01*
X26749552Y66177483D01*
X26563117Y66280401D01*
X26553705Y66284631D01*
X26352959Y66355720D01*
X26342988Y66358354D01*
X26271837Y66371028D01*
X26258540Y66369568D01*
X26254000Y66355011D01*
X26254000Y65312115D01*
X25746000Y65312115D01*
X25746000Y66356898D01*
X25742082Y66370242D01*
X25727806Y66372229D01*
X25689324Y66366340D01*
X25679288Y66363949D01*
X25476868Y66297788D01*
X25467359Y66293791D01*
X25278463Y66195458D01*
X25269738Y66189964D01*
X25099433Y66062095D01*
X25091726Y66055252D01*
X24944590Y65901283D01*
X24938104Y65893273D01*
X24818098Y65717351D01*
X24813000Y65708377D01*
X24723338Y65515217D01*
X24719775Y65505530D01*
X24664389Y65305817D01*
X14772198Y65305817D01*
X14735236Y65443761D01*
X14731490Y65454053D01*
X14639414Y65651511D01*
X14633931Y65661006D01*
X14597491Y65713048D01*
X14587012Y65721424D01*
X14573566Y65714356D01*
X13872022Y65012812D01*
X13864408Y64998868D01*
X13134356Y64998868D01*
X13135592Y65001132D01*
X13135461Y65002965D01*
X13131210Y65009580D01*
X12425713Y65715077D01*
X12413938Y65721507D01*
X12401923Y65712211D01*
X12366069Y65661006D01*
X12360586Y65651511D01*
X12268510Y65454053D01*
X12264764Y65443761D01*
X12208375Y65233312D01*
X12206472Y65222519D01*
X12187483Y65005475D01*
X12187483Y64994525D01*
X508500Y64994525D01*
X508500Y66087012D01*
X12778576Y66087012D01*
X12785644Y66073566D01*
X13487188Y65372022D01*
X13501132Y65364408D01*
X13502965Y65364539D01*
X13509580Y65368790D01*
X14215077Y66074287D01*
X14221507Y66086062D01*
X14212211Y66098077D01*
X14161006Y66133931D01*
X14151511Y66139414D01*
X13954053Y66231490D01*
X13943761Y66235236D01*
X13733312Y66291625D01*
X13722519Y66293528D01*
X13505475Y66312517D01*
X13494525Y66312517D01*
X13277481Y66293528D01*
X13266688Y66291625D01*
X13056239Y66235236D01*
X13045947Y66231490D01*
X12848489Y66139414D01*
X12838994Y66133931D01*
X12786952Y66097491D01*
X12778576Y66087012D01*
X508500Y66087012D01*
X508500Y70367297D01*
X3390743Y70367297D01*
X3428268Y70082266D01*
X3504129Y69804964D01*
X3616923Y69540524D01*
X3764561Y69293839D01*
X3944313Y69069472D01*
X4152851Y68871577D01*
X4386317Y68703814D01*
X4390112Y68701805D01*
X4390113Y68701804D01*
X4411869Y68690285D01*
X4640392Y68569288D01*
X4910373Y68470489D01*
X5191264Y68409245D01*
X5219841Y68406996D01*
X5414282Y68391693D01*
X5414291Y68391693D01*
X5416739Y68391500D01*
X5572271Y68391500D01*
X5574407Y68391646D01*
X5574418Y68391646D01*
X5782548Y68405835D01*
X5782554Y68405836D01*
X5786825Y68406127D01*
X5791020Y68406996D01*
X5791022Y68406996D01*
X5927583Y68435276D01*
X6068342Y68464426D01*
X6339343Y68560393D01*
X6594812Y68692250D01*
X6598313Y68694711D01*
X6598317Y68694713D01*
X6712417Y68774904D01*
X6830023Y68857559D01*
X7040622Y69053260D01*
X7222713Y69275732D01*
X7372927Y69520858D01*
X7488483Y69784102D01*
X7567244Y70060594D01*
X7607751Y70345216D01*
X7607845Y70363049D01*
X7607867Y70367297D01*
X92390743Y70367297D01*
X92428268Y70082266D01*
X92504129Y69804964D01*
X92616923Y69540524D01*
X92764561Y69293839D01*
X92944313Y69069472D01*
X93152851Y68871577D01*
X93386317Y68703814D01*
X93390112Y68701805D01*
X93390113Y68701804D01*
X93411869Y68690285D01*
X93640392Y68569288D01*
X93910373Y68470489D01*
X94191264Y68409245D01*
X94219841Y68406996D01*
X94414282Y68391693D01*
X94414291Y68391693D01*
X94416739Y68391500D01*
X94572271Y68391500D01*
X94574407Y68391646D01*
X94574418Y68391646D01*
X94782548Y68405835D01*
X94782554Y68405836D01*
X94786825Y68406127D01*
X94791020Y68406996D01*
X94791022Y68406996D01*
X94927583Y68435276D01*
X95068342Y68464426D01*
X95339343Y68560393D01*
X95594812Y68692250D01*
X95598313Y68694711D01*
X95598317Y68694713D01*
X95712417Y68774904D01*
X95830023Y68857559D01*
X96040622Y69053260D01*
X96222713Y69275732D01*
X96372927Y69520858D01*
X96488483Y69784102D01*
X96567244Y70060594D01*
X96607751Y70345216D01*
X96607845Y70363049D01*
X96609235Y70628417D01*
X96609235Y70628424D01*
X96609257Y70632703D01*
X96571732Y70917734D01*
X96495871Y71195036D01*
X96383077Y71459476D01*
X96235439Y71706161D01*
X96055687Y71930528D01*
X95847149Y72128423D01*
X95613683Y72296186D01*
X95591843Y72307750D01*
X95568654Y72320028D01*
X95359608Y72430712D01*
X95089627Y72529511D01*
X94808736Y72590755D01*
X94777685Y72593199D01*
X94585718Y72608307D01*
X94585709Y72608307D01*
X94583261Y72608500D01*
X94427729Y72608500D01*
X94425593Y72608354D01*
X94425582Y72608354D01*
X94217452Y72594165D01*
X94217446Y72594164D01*
X94213175Y72593873D01*
X94208980Y72593004D01*
X94208978Y72593004D01*
X94072417Y72564724D01*
X93931658Y72535574D01*
X93660657Y72439607D01*
X93405188Y72307750D01*
X93401687Y72305289D01*
X93401683Y72305287D01*
X93391594Y72298196D01*
X93169977Y72142441D01*
X92959378Y71946740D01*
X92777287Y71724268D01*
X92627073Y71479142D01*
X92511517Y71215898D01*
X92432756Y70939406D01*
X92392249Y70654784D01*
X92392227Y70650495D01*
X92392226Y70650488D01*
X92390765Y70371583D01*
X92390743Y70367297D01*
X7607867Y70367297D01*
X7609235Y70628417D01*
X7609235Y70628424D01*
X7609257Y70632703D01*
X7571732Y70917734D01*
X7495871Y71195036D01*
X7383077Y71459476D01*
X7235439Y71706161D01*
X7055687Y71930528D01*
X6847149Y72128423D01*
X6613683Y72296186D01*
X6591843Y72307750D01*
X6568654Y72320028D01*
X6359608Y72430712D01*
X6089627Y72529511D01*
X5808736Y72590755D01*
X5777685Y72593199D01*
X5585718Y72608307D01*
X5585709Y72608307D01*
X5583261Y72608500D01*
X5427729Y72608500D01*
X5425593Y72608354D01*
X5425582Y72608354D01*
X5217452Y72594165D01*
X5217446Y72594164D01*
X5213175Y72593873D01*
X5208980Y72593004D01*
X5208978Y72593004D01*
X5072417Y72564724D01*
X4931658Y72535574D01*
X4660657Y72439607D01*
X4405188Y72307750D01*
X4401687Y72305289D01*
X4401683Y72305287D01*
X4391594Y72298196D01*
X4169977Y72142441D01*
X3959378Y71946740D01*
X3777287Y71724268D01*
X3627073Y71479142D01*
X3511517Y71215898D01*
X3432756Y70939406D01*
X3392249Y70654784D01*
X3392227Y70650495D01*
X3392226Y70650488D01*
X3390765Y70371583D01*
X3390743Y70367297D01*
X508500Y70367297D01*
X508500Y74365500D01*
X528502Y74433621D01*
X582158Y74480114D01*
X634500Y74491500D01*
X99365500Y74491500D01*
X99433621Y74471498D01*
G37*
G04 #@! TD.AperFunction*
G04 #@! TA.AperFunction,Conductor*
G36*
X30365160Y52860998D02*
G01*
X30411653Y52807342D01*
X30421757Y52737068D01*
X30392263Y52672488D01*
X30352900Y52642775D01*
X30353002Y52642599D01*
X30351574Y52641775D01*
X30350291Y52640806D01*
X30343251Y52637523D01*
X30286080Y52597491D01*
X30160211Y52509357D01*
X30160208Y52509355D01*
X30155700Y52506198D01*
X29993802Y52344300D01*
X29990645Y52339792D01*
X29990643Y52339789D01*
X29937823Y52264354D01*
X29862477Y52156749D01*
X29860153Y52151765D01*
X29858829Y52149472D01*
X29807447Y52100479D01*
X29737733Y52087043D01*
X29671822Y52113429D01*
X29640591Y52149472D01*
X29633934Y52161002D01*
X29597491Y52213048D01*
X29587012Y52221424D01*
X29573566Y52214356D01*
X28872022Y51512812D01*
X28864408Y51498868D01*
X28864539Y51497035D01*
X28868790Y51490420D01*
X29574287Y50784923D01*
X29586062Y50778493D01*
X29598077Y50787789D01*
X29633934Y50838998D01*
X29640591Y50850528D01*
X29691973Y50899521D01*
X29761687Y50912958D01*
X29827598Y50886571D01*
X29858829Y50850528D01*
X29860153Y50848235D01*
X29862477Y50843251D01*
X29993802Y50655700D01*
X30155700Y50493802D01*
X30160208Y50490645D01*
X30160211Y50490643D01*
X30216215Y50451429D01*
X30343251Y50362477D01*
X30348233Y50360154D01*
X30348238Y50360151D01*
X30544765Y50268510D01*
X30550757Y50265716D01*
X30556065Y50264294D01*
X30556067Y50264293D01*
X30766598Y50207881D01*
X30766600Y50207881D01*
X30771913Y50206457D01*
X31000000Y50186502D01*
X31228087Y50206457D01*
X31233400Y50207881D01*
X31233402Y50207881D01*
X31443933Y50264293D01*
X31443935Y50264294D01*
X31449243Y50265716D01*
X31455235Y50268510D01*
X31651762Y50360151D01*
X31651767Y50360154D01*
X31656749Y50362477D01*
X31783785Y50451429D01*
X31839789Y50490643D01*
X31839792Y50490645D01*
X31844300Y50493802D01*
X32005093Y50654595D01*
X32067405Y50688621D01*
X32094188Y50691500D01*
X46152618Y50691500D01*
X46220739Y50671498D01*
X46241713Y50654595D01*
X46465520Y50430788D01*
X46499546Y50368476D01*
X46494481Y50297661D01*
X46451934Y50240825D01*
X46385414Y50216014D01*
X46345092Y50219652D01*
X46327633Y50224134D01*
X46308934Y50230537D01*
X46297620Y50235433D01*
X46297619Y50235433D01*
X46290345Y50238581D01*
X46282522Y50239820D01*
X46282512Y50239823D01*
X46246676Y50245499D01*
X46235056Y50247905D01*
X46199911Y50256928D01*
X46199910Y50256928D01*
X46192230Y50258900D01*
X46171976Y50258900D01*
X46152265Y50260451D01*
X46140086Y50262380D01*
X46132257Y50263620D01*
X46102986Y50260853D01*
X46088239Y50259459D01*
X46076381Y50258900D01*
X34701668Y50258900D01*
X34690485Y50259427D01*
X34682992Y50261102D01*
X34675066Y50260853D01*
X34675065Y50260853D01*
X34614902Y50258962D01*
X34610944Y50258900D01*
X34583044Y50258900D01*
X34579054Y50258396D01*
X34567220Y50257464D01*
X34523011Y50256074D01*
X34515395Y50253861D01*
X34515393Y50253861D01*
X34503552Y50250421D01*
X34484193Y50246412D01*
X34482883Y50246246D01*
X34464103Y50243874D01*
X34456737Y50240958D01*
X34456731Y50240956D01*
X34422998Y50227600D01*
X34411768Y50223755D01*
X34395728Y50219095D01*
X34369307Y50211419D01*
X34362484Y50207384D01*
X34351866Y50201105D01*
X34334113Y50192408D01*
X34326468Y50189381D01*
X34315283Y50184952D01*
X34308868Y50180291D01*
X34279512Y50158963D01*
X34269595Y50152449D01*
X34231538Y50129942D01*
X34217217Y50115621D01*
X34202184Y50102781D01*
X34185793Y50090872D01*
X34180742Y50084766D01*
X34157602Y50056795D01*
X34149612Y50048016D01*
X32546132Y48444537D01*
X32483820Y48410511D01*
X32413004Y48415576D01*
X32356169Y48458123D01*
X32331516Y48522651D01*
X32314023Y48722606D01*
X32314022Y48722611D01*
X32313543Y48728087D01*
X32296175Y48792906D01*
X32255707Y48943933D01*
X32255706Y48943935D01*
X32254284Y48949243D01*
X32241744Y48976135D01*
X32159849Y49151762D01*
X32159846Y49151767D01*
X32157523Y49156749D01*
X32026198Y49344300D01*
X31864300Y49506198D01*
X31859792Y49509355D01*
X31859789Y49509357D01*
X31781611Y49564098D01*
X31676749Y49637523D01*
X31671767Y49639846D01*
X31671762Y49639849D01*
X31474225Y49731961D01*
X31474224Y49731961D01*
X31469243Y49734284D01*
X31463935Y49735706D01*
X31463933Y49735707D01*
X31253402Y49792119D01*
X31253400Y49792119D01*
X31248087Y49793543D01*
X31144645Y49802593D01*
X31079851Y49808262D01*
X31079844Y49808262D01*
X31077127Y49808500D01*
X30162873Y49808500D01*
X30160156Y49808262D01*
X30160149Y49808262D01*
X30095355Y49802593D01*
X29991913Y49793543D01*
X29986600Y49792119D01*
X29986598Y49792119D01*
X29776067Y49735707D01*
X29776065Y49735706D01*
X29770757Y49734284D01*
X29765776Y49731961D01*
X29765775Y49731961D01*
X29568238Y49639849D01*
X29568233Y49639846D01*
X29563251Y49637523D01*
X29458389Y49564098D01*
X29380211Y49509357D01*
X29380208Y49509355D01*
X29375700Y49506198D01*
X29213802Y49344300D01*
X29082477Y49156749D01*
X29080154Y49151767D01*
X29080151Y49151762D01*
X28998256Y48976135D01*
X28985716Y48949243D01*
X28984294Y48943935D01*
X28984293Y48943933D01*
X28943825Y48792906D01*
X28926457Y48728087D01*
X28906502Y48500000D01*
X28926457Y48271913D01*
X28927881Y48266600D01*
X28927881Y48266598D01*
X28971746Y48102895D01*
X28985716Y48050757D01*
X28988039Y48045776D01*
X28988039Y48045775D01*
X29080151Y47848238D01*
X29080154Y47848233D01*
X29082477Y47843251D01*
X29213802Y47655700D01*
X29375700Y47493802D01*
X29380208Y47490645D01*
X29380211Y47490643D01*
X29406429Y47472285D01*
X29563251Y47362477D01*
X29568233Y47360154D01*
X29568238Y47360151D01*
X29602457Y47344195D01*
X29655742Y47297278D01*
X29675203Y47229001D01*
X29654661Y47161041D01*
X29602457Y47115805D01*
X29568238Y47099849D01*
X29568233Y47099846D01*
X29563251Y47097523D01*
X29458389Y47024098D01*
X29380211Y46969357D01*
X29380208Y46969355D01*
X29375700Y46966198D01*
X29213802Y46804300D01*
X29210645Y46799792D01*
X29210643Y46799789D01*
X29169549Y46741100D01*
X29082477Y46616749D01*
X29080154Y46611767D01*
X29080151Y46611762D01*
X28989052Y46416398D01*
X28985716Y46409243D01*
X28984294Y46403935D01*
X28984293Y46403933D01*
X28930186Y46202003D01*
X28926457Y46188087D01*
X28906502Y45960000D01*
X28926457Y45731913D01*
X28927881Y45726600D01*
X28927881Y45726598D01*
X28984094Y45516812D01*
X28985716Y45510757D01*
X28988039Y45505776D01*
X28988039Y45505775D01*
X29080151Y45308238D01*
X29080154Y45308233D01*
X29082477Y45303251D01*
X29147058Y45211020D01*
X29208552Y45123198D01*
X29213802Y45115700D01*
X29375700Y44953802D01*
X29380208Y44950645D01*
X29380211Y44950643D01*
X29458389Y44895902D01*
X29563251Y44822477D01*
X29568233Y44820154D01*
X29568238Y44820151D01*
X29602457Y44804195D01*
X29655742Y44757278D01*
X29675203Y44689001D01*
X29654661Y44621041D01*
X29602457Y44575805D01*
X29568238Y44559849D01*
X29568233Y44559846D01*
X29563251Y44557523D01*
X29458389Y44484098D01*
X29380211Y44429357D01*
X29380208Y44429355D01*
X29375700Y44426198D01*
X29213802Y44264300D01*
X29210645Y44259792D01*
X29210643Y44259789D01*
X29170116Y44201910D01*
X29082477Y44076749D01*
X29080154Y44071767D01*
X29080151Y44071762D01*
X28999409Y43898608D01*
X28985716Y43869243D01*
X28984294Y43863935D01*
X28984293Y43863933D01*
X28938190Y43691875D01*
X28926457Y43648087D01*
X28906502Y43420000D01*
X28926457Y43191913D01*
X28927881Y43186600D01*
X28927881Y43186598D01*
X28983616Y42978596D01*
X28985716Y42970757D01*
X28988039Y42965776D01*
X28988039Y42965775D01*
X29080151Y42768238D01*
X29080154Y42768233D01*
X29082477Y42763251D01*
X29144687Y42674406D01*
X29207460Y42584758D01*
X29213802Y42575700D01*
X29375700Y42413802D01*
X29380208Y42410645D01*
X29380211Y42410643D01*
X29391025Y42403071D01*
X29563251Y42282477D01*
X29568233Y42280154D01*
X29568238Y42280151D01*
X29602457Y42264195D01*
X29655742Y42217278D01*
X29675203Y42149001D01*
X29654661Y42081041D01*
X29602457Y42035805D01*
X29568238Y42019849D01*
X29568233Y42019846D01*
X29563251Y42017523D01*
X29499269Y41972722D01*
X29380211Y41889357D01*
X29380208Y41889355D01*
X29375700Y41886198D01*
X29213802Y41724300D01*
X29210645Y41719792D01*
X29210643Y41719789D01*
X29174204Y41667749D01*
X29082477Y41536749D01*
X29080154Y41531767D01*
X29080151Y41531762D01*
X29001108Y41362252D01*
X28985716Y41329243D01*
X28984294Y41323935D01*
X28984293Y41323933D01*
X28935780Y41142881D01*
X28926457Y41108087D01*
X28906502Y40880000D01*
X28926457Y40651913D01*
X28927881Y40646600D01*
X28927881Y40646598D01*
X28980543Y40450064D01*
X28985716Y40430757D01*
X28988039Y40425776D01*
X28988039Y40425775D01*
X29080151Y40228238D01*
X29080154Y40228233D01*
X29082477Y40223251D01*
X29155902Y40118389D01*
X29194716Y40062958D01*
X29213802Y40035700D01*
X29375700Y39873802D01*
X29380208Y39870645D01*
X29380211Y39870643D01*
X29458389Y39815902D01*
X29563251Y39742477D01*
X29568233Y39740154D01*
X29568238Y39740151D01*
X29602457Y39724195D01*
X29655742Y39677278D01*
X29675203Y39609001D01*
X29654661Y39541041D01*
X29602457Y39495805D01*
X29568238Y39479849D01*
X29568233Y39479846D01*
X29563251Y39477523D01*
X29544344Y39464284D01*
X29380211Y39349357D01*
X29380208Y39349355D01*
X29375700Y39346198D01*
X29269148Y39239646D01*
X29206836Y39205620D01*
X29136021Y39210685D01*
X29090958Y39239646D01*
X28588128Y39742477D01*
X28030005Y40300600D01*
X27995979Y40362912D01*
X27993100Y40389695D01*
X27993100Y50117476D01*
X28013102Y50185597D01*
X28066758Y50232090D01*
X28137032Y50242194D01*
X28151712Y50239183D01*
X28266691Y50208374D01*
X28277481Y50206472D01*
X28494525Y50187483D01*
X28505475Y50187483D01*
X28722519Y50206472D01*
X28733312Y50208375D01*
X28943761Y50264764D01*
X28954053Y50268510D01*
X29151511Y50360586D01*
X29161006Y50366069D01*
X29213048Y50402509D01*
X29221424Y50412988D01*
X29214356Y50426434D01*
X28229885Y51410905D01*
X28195859Y51473217D01*
X28200924Y51544032D01*
X28229885Y51589095D01*
X29215077Y52574287D01*
X29221507Y52586062D01*
X29212211Y52598077D01*
X29161006Y52633931D01*
X29151506Y52639417D01*
X29148526Y52640806D01*
X29147435Y52641767D01*
X29146747Y52642164D01*
X29146827Y52642302D01*
X29095242Y52687723D01*
X29075781Y52756000D01*
X29096323Y52823960D01*
X29150346Y52870026D01*
X29201777Y52881000D01*
X30297039Y52881000D01*
X30365160Y52860998D01*
G37*
G04 #@! TD.AperFunction*
G04 #@! TA.AperFunction,Conductor*
G36*
X48366344Y52860998D02*
G01*
X48412837Y52807342D01*
X48422941Y52737068D01*
X48393447Y52672488D01*
X48351474Y52640806D01*
X48348494Y52639417D01*
X48338994Y52633931D01*
X48286952Y52597491D01*
X48278576Y52587012D01*
X48285644Y52573566D01*
X48987188Y51872022D01*
X49001132Y51864408D01*
X49002965Y51864539D01*
X49009580Y51868790D01*
X49715077Y52574287D01*
X49721507Y52586062D01*
X49712211Y52598077D01*
X49661006Y52633931D01*
X49651506Y52639417D01*
X49648526Y52640806D01*
X49647435Y52641767D01*
X49646747Y52642164D01*
X49646827Y52642302D01*
X49595242Y52687723D01*
X49575781Y52756000D01*
X49596323Y52823960D01*
X49650346Y52870026D01*
X49701777Y52881000D01*
X50797039Y52881000D01*
X50865160Y52860998D01*
X50911653Y52807342D01*
X50921757Y52737068D01*
X50892263Y52672488D01*
X50852900Y52642775D01*
X50853002Y52642599D01*
X50851574Y52641775D01*
X50850291Y52640806D01*
X50843251Y52637523D01*
X50786080Y52597491D01*
X50660211Y52509357D01*
X50660208Y52509355D01*
X50655700Y52506198D01*
X50493802Y52344300D01*
X50490645Y52339792D01*
X50490643Y52339789D01*
X50437823Y52264354D01*
X50362477Y52156749D01*
X50360153Y52151765D01*
X50358829Y52149472D01*
X50307447Y52100479D01*
X50237733Y52087043D01*
X50171822Y52113429D01*
X50140591Y52149472D01*
X50133934Y52161002D01*
X50097491Y52213048D01*
X50087012Y52221424D01*
X50073566Y52214356D01*
X49372022Y51512812D01*
X49364408Y51498868D01*
X49364539Y51497035D01*
X49368790Y51490420D01*
X50074287Y50784923D01*
X50086062Y50778493D01*
X50098077Y50787789D01*
X50133934Y50838998D01*
X50140591Y50850528D01*
X50191973Y50899521D01*
X50261687Y50912958D01*
X50327598Y50886571D01*
X50358829Y50850528D01*
X50360153Y50848235D01*
X50362477Y50843251D01*
X50493802Y50655700D01*
X50655700Y50493802D01*
X50660208Y50490645D01*
X50660211Y50490643D01*
X50716215Y50451429D01*
X50843251Y50362477D01*
X50848233Y50360154D01*
X50848238Y50360151D01*
X51044765Y50268510D01*
X51050757Y50265716D01*
X51056065Y50264294D01*
X51056067Y50264293D01*
X51266598Y50207881D01*
X51266600Y50207881D01*
X51271913Y50206457D01*
X51500000Y50186502D01*
X51728087Y50206457D01*
X51733400Y50207881D01*
X51733402Y50207881D01*
X51943933Y50264293D01*
X51943935Y50264294D01*
X51949243Y50265716D01*
X51955235Y50268510D01*
X52151762Y50360151D01*
X52151767Y50360154D01*
X52156749Y50362477D01*
X52230243Y50413938D01*
X70278493Y50413938D01*
X70287789Y50401923D01*
X70338994Y50366069D01*
X70348489Y50360586D01*
X70545947Y50268510D01*
X70556239Y50264764D01*
X70766688Y50208375D01*
X70777481Y50206472D01*
X70994525Y50187483D01*
X71005475Y50187483D01*
X71222519Y50206472D01*
X71233312Y50208375D01*
X71443761Y50264764D01*
X71454053Y50268510D01*
X71651511Y50360586D01*
X71661006Y50366069D01*
X71713048Y50402509D01*
X71721424Y50412988D01*
X71714356Y50426434D01*
X71012812Y51127978D01*
X70998868Y51135592D01*
X70997035Y51135461D01*
X70990420Y51131210D01*
X70284923Y50425713D01*
X70278493Y50413938D01*
X52230243Y50413938D01*
X52283785Y50451429D01*
X52339789Y50490643D01*
X52339792Y50490645D01*
X52344300Y50493802D01*
X52506198Y50655700D01*
X52637523Y50843251D01*
X52639846Y50848233D01*
X52639849Y50848238D01*
X52731961Y51045775D01*
X52731961Y51045776D01*
X52734284Y51050757D01*
X52754976Y51127978D01*
X52792119Y51266598D01*
X52792119Y51266600D01*
X52793543Y51271913D01*
X52813498Y51500000D01*
X52809646Y51544032D01*
X52804934Y51597892D01*
X52818924Y51667497D01*
X52841360Y51697968D01*
X53112087Y51968695D01*
X53174399Y52002721D01*
X53201182Y52005600D01*
X69617127Y52005600D01*
X69685248Y51985598D01*
X69731741Y51931942D01*
X69741845Y51861668D01*
X69738834Y51846989D01*
X69708375Y51733313D01*
X69706472Y51722519D01*
X69687483Y51505475D01*
X69687483Y51494525D01*
X69706472Y51277481D01*
X69708375Y51266688D01*
X69764764Y51056239D01*
X69768510Y51045947D01*
X69860586Y50848489D01*
X69866069Y50838994D01*
X69902509Y50786952D01*
X69912988Y50778576D01*
X69926434Y50785644D01*
X70910905Y51770115D01*
X70973217Y51804141D01*
X71044032Y51799076D01*
X71089095Y51770115D01*
X72074287Y50784923D01*
X72086062Y50778493D01*
X72098077Y50787789D01*
X72133934Y50838998D01*
X72140591Y50850528D01*
X72191973Y50899521D01*
X72261687Y50912958D01*
X72327598Y50886571D01*
X72358829Y50850528D01*
X72360153Y50848235D01*
X72362477Y50843251D01*
X72493802Y50655700D01*
X72655700Y50493802D01*
X72660208Y50490645D01*
X72660211Y50490643D01*
X72716215Y50451429D01*
X72843251Y50362477D01*
X72848233Y50360154D01*
X72848238Y50360151D01*
X73044765Y50268510D01*
X73050757Y50265716D01*
X73056065Y50264294D01*
X73056067Y50264293D01*
X73266598Y50207881D01*
X73266600Y50207881D01*
X73271913Y50206457D01*
X73500000Y50186502D01*
X73728087Y50206457D01*
X73733400Y50207881D01*
X73733402Y50207881D01*
X73943933Y50264293D01*
X73943935Y50264294D01*
X73949243Y50265716D01*
X73955235Y50268510D01*
X74151762Y50360151D01*
X74151767Y50360154D01*
X74156749Y50362477D01*
X74283785Y50451429D01*
X74339789Y50490643D01*
X74339792Y50490645D01*
X74344300Y50493802D01*
X74506198Y50655700D01*
X74637523Y50843251D01*
X74639846Y50848232D01*
X74639852Y50848243D01*
X74650177Y50870386D01*
X74697094Y50923670D01*
X74765371Y50943131D01*
X74833331Y50922589D01*
X74853466Y50906230D01*
X75804795Y49954901D01*
X75838821Y49892589D01*
X75841700Y49865806D01*
X75841700Y49802593D01*
X75839468Y49778984D01*
X75837925Y49770894D01*
X75841451Y49714849D01*
X75841700Y49706938D01*
X75841700Y49290449D01*
X75821698Y49222328D01*
X75768042Y49175835D01*
X75697768Y49165731D01*
X75633188Y49195225D01*
X75612488Y49218177D01*
X75604359Y49229786D01*
X75604357Y49229788D01*
X75601198Y49234300D01*
X75439300Y49396198D01*
X75434792Y49399355D01*
X75434789Y49399357D01*
X75356611Y49454098D01*
X75251749Y49527523D01*
X75246767Y49529846D01*
X75246762Y49529849D01*
X75049225Y49621961D01*
X75049224Y49621961D01*
X75044243Y49624284D01*
X75038935Y49625706D01*
X75038933Y49625707D01*
X74828402Y49682119D01*
X74828400Y49682119D01*
X74823087Y49683543D01*
X74723520Y49692254D01*
X74654851Y49698262D01*
X74654844Y49698262D01*
X74652127Y49698500D01*
X73737873Y49698500D01*
X73735156Y49698262D01*
X73735149Y49698262D01*
X73666480Y49692254D01*
X73566913Y49683543D01*
X73561600Y49682119D01*
X73561598Y49682119D01*
X73351067Y49625707D01*
X73351065Y49625706D01*
X73345757Y49624284D01*
X73340776Y49621961D01*
X73340775Y49621961D01*
X73143238Y49529849D01*
X73143233Y49529846D01*
X73138251Y49527523D01*
X73033389Y49454098D01*
X72955211Y49399357D01*
X72955208Y49399355D01*
X72950700Y49396198D01*
X72788802Y49234300D01*
X72785645Y49229792D01*
X72785643Y49229789D01*
X72761441Y49195225D01*
X72657477Y49046749D01*
X72655154Y49041767D01*
X72655151Y49041762D01*
X72592320Y48907018D01*
X72560716Y48839243D01*
X72559294Y48833935D01*
X72559293Y48833933D01*
X72529463Y48722607D01*
X72501457Y48618087D01*
X72481502Y48390000D01*
X72501457Y48161913D01*
X72502881Y48156600D01*
X72502881Y48156598D01*
X72554360Y47964479D01*
X72560716Y47940757D01*
X72563039Y47935776D01*
X72563039Y47935775D01*
X72655151Y47738238D01*
X72655154Y47738233D01*
X72657477Y47733251D01*
X72660634Y47728743D01*
X72777513Y47561823D01*
X72788802Y47545700D01*
X72950700Y47383802D01*
X72955208Y47380645D01*
X72955211Y47380643D01*
X73008550Y47343295D01*
X73138251Y47252477D01*
X73143233Y47250154D01*
X73143238Y47250151D01*
X73177457Y47234195D01*
X73230742Y47187278D01*
X73250203Y47119001D01*
X73229661Y47051041D01*
X73177457Y47005805D01*
X73143238Y46989849D01*
X73143233Y46989846D01*
X73138251Y46987523D01*
X73102025Y46962157D01*
X72955211Y46859357D01*
X72955208Y46859355D01*
X72950700Y46856198D01*
X72788802Y46694300D01*
X72657477Y46506749D01*
X72655154Y46501767D01*
X72655151Y46501762D01*
X72573141Y46325889D01*
X72560716Y46299243D01*
X72559294Y46293935D01*
X72559293Y46293933D01*
X72507664Y46101253D01*
X72501457Y46078087D01*
X72481502Y45850000D01*
X72501457Y45621913D01*
X72502881Y45616600D01*
X72502881Y45616598D01*
X72529619Y45516811D01*
X72527929Y45445835D01*
X72488135Y45387039D01*
X72422871Y45359091D01*
X72407912Y45358200D01*
X60741570Y45358200D01*
X60673449Y45378202D01*
X60626956Y45431858D01*
X60616852Y45502132D01*
X60619863Y45516812D01*
X60636394Y45578504D01*
X60636058Y45592599D01*
X60628116Y45596000D01*
X57287033Y45596000D01*
X57273502Y45592027D01*
X57272273Y45583479D01*
X57290137Y45516812D01*
X57288447Y45445835D01*
X57248653Y45387039D01*
X57183389Y45359091D01*
X57168430Y45358200D01*
X56720394Y45358200D01*
X56652273Y45378202D01*
X56631299Y45395105D01*
X55456372Y46570033D01*
X54484539Y47541866D01*
X57246500Y47541866D01*
X57253255Y47479684D01*
X57304385Y47343295D01*
X57391739Y47226739D01*
X57508295Y47139385D01*
X57644684Y47088255D01*
X57656229Y47087001D01*
X57658910Y47085887D01*
X57660222Y47085575D01*
X57660172Y47085363D01*
X57721790Y47059762D01*
X57762218Y47001401D01*
X57764677Y46930447D01*
X57728384Y46869428D01*
X57717775Y46860853D01*
X57707125Y46851916D01*
X57553084Y46697875D01*
X57546028Y46689467D01*
X57421069Y46511007D01*
X57415586Y46501511D01*
X57323510Y46304053D01*
X57319764Y46293761D01*
X57273606Y46121497D01*
X57273942Y46107401D01*
X57281884Y46104000D01*
X60622967Y46104000D01*
X60636498Y46107973D01*
X60637727Y46116522D01*
X60590236Y46293761D01*
X60586490Y46304053D01*
X60494414Y46501511D01*
X60488931Y46511007D01*
X60363972Y46689467D01*
X60356916Y46697875D01*
X60202875Y46851916D01*
X60190254Y46862507D01*
X60191108Y46863525D01*
X60150776Y46913984D01*
X60143468Y46984603D01*
X60175500Y47047963D01*
X60236702Y47083947D01*
X60253762Y47087000D01*
X60265316Y47088255D01*
X60401705Y47139385D01*
X60518261Y47226739D01*
X60605615Y47343295D01*
X60656745Y47479684D01*
X60663500Y47541866D01*
X60663500Y49238134D01*
X60656745Y49300316D01*
X60605615Y49436705D01*
X60518261Y49553261D01*
X60401705Y49640615D01*
X60265316Y49691745D01*
X60203134Y49698500D01*
X57706866Y49698500D01*
X57644684Y49691745D01*
X57508295Y49640615D01*
X57391739Y49553261D01*
X57304385Y49436705D01*
X57253255Y49300316D01*
X57246500Y49238134D01*
X57246500Y47541866D01*
X54484539Y47541866D01*
X54259552Y47766853D01*
X54252012Y47775139D01*
X54247900Y47781618D01*
X54198248Y47828244D01*
X54195407Y47830998D01*
X54175670Y47850735D01*
X54172473Y47853215D01*
X54163451Y47860920D01*
X54137000Y47885759D01*
X54131221Y47891186D01*
X54124275Y47895005D01*
X54124272Y47895007D01*
X54113466Y47900948D01*
X54096947Y47911799D01*
X54096483Y47912159D01*
X54080941Y47924214D01*
X54073672Y47927359D01*
X54073668Y47927362D01*
X54040363Y47941774D01*
X54029713Y47946991D01*
X53990960Y47968295D01*
X53971337Y47973333D01*
X53952634Y47979737D01*
X53941320Y47984633D01*
X53941319Y47984633D01*
X53934045Y47987781D01*
X53926222Y47989020D01*
X53926212Y47989023D01*
X53890376Y47994699D01*
X53878756Y47997105D01*
X53843611Y48006128D01*
X53843610Y48006128D01*
X53835930Y48008100D01*
X53815676Y48008100D01*
X53795965Y48009651D01*
X53783786Y48011580D01*
X53775957Y48012820D01*
X53768065Y48012074D01*
X53731939Y48008659D01*
X53720081Y48008100D01*
X53027061Y48008100D01*
X52958940Y48028102D01*
X52912447Y48081758D01*
X52902343Y48152032D01*
X52905354Y48166711D01*
X52932119Y48266598D01*
X52932119Y48266600D01*
X52933543Y48271913D01*
X52953498Y48500000D01*
X52933543Y48728087D01*
X52916175Y48792906D01*
X52875707Y48943933D01*
X52875706Y48943935D01*
X52874284Y48949243D01*
X52861744Y48976135D01*
X52779849Y49151762D01*
X52779846Y49151767D01*
X52777523Y49156749D01*
X52646198Y49344300D01*
X52484300Y49506198D01*
X52479792Y49509355D01*
X52479789Y49509357D01*
X52401611Y49564098D01*
X52296749Y49637523D01*
X52291767Y49639846D01*
X52291762Y49639849D01*
X52094225Y49731961D01*
X52094224Y49731961D01*
X52089243Y49734284D01*
X52083935Y49735706D01*
X52083933Y49735707D01*
X51873402Y49792119D01*
X51873400Y49792119D01*
X51868087Y49793543D01*
X51764645Y49802593D01*
X51699851Y49808262D01*
X51699844Y49808262D01*
X51697127Y49808500D01*
X50782873Y49808500D01*
X50780156Y49808262D01*
X50780149Y49808262D01*
X50715355Y49802593D01*
X50611913Y49793543D01*
X50606600Y49792119D01*
X50606598Y49792119D01*
X50396067Y49735707D01*
X50396065Y49735706D01*
X50390757Y49734284D01*
X50385776Y49731961D01*
X50385775Y49731961D01*
X50188238Y49639849D01*
X50188233Y49639846D01*
X50183251Y49637523D01*
X50078389Y49564098D01*
X50000211Y49509357D01*
X50000208Y49509355D01*
X49995700Y49506198D01*
X49925392Y49435890D01*
X49863080Y49401864D01*
X49792265Y49406929D01*
X49747202Y49435890D01*
X49183683Y49999409D01*
X49149657Y50061721D01*
X49154722Y50132536D01*
X49197269Y50189372D01*
X49240167Y50210211D01*
X49443761Y50264764D01*
X49454053Y50268510D01*
X49651511Y50360586D01*
X49661006Y50366069D01*
X49713048Y50402509D01*
X49721424Y50412988D01*
X49714356Y50426434D01*
X47925713Y52215077D01*
X47913938Y52221507D01*
X47901923Y52212211D01*
X47866069Y52161006D01*
X47860586Y52151511D01*
X47768510Y51954053D01*
X47764764Y51943761D01*
X47710211Y51740167D01*
X47673259Y51679544D01*
X47609398Y51648523D01*
X47538904Y51656951D01*
X47499409Y51683683D01*
X47117934Y52065158D01*
X47117006Y52066095D01*
X47058857Y52125475D01*
X47058856Y52125476D01*
X47053929Y52130507D01*
X47017479Y52153998D01*
X47007154Y52161417D01*
X46973257Y52188476D01*
X46960341Y52194720D01*
X46943063Y52203072D01*
X46929645Y52210602D01*
X46901462Y52228765D01*
X46894845Y52231173D01*
X46894840Y52231176D01*
X46860727Y52243592D01*
X46848984Y52248553D01*
X46816297Y52264354D01*
X46816292Y52264356D01*
X46809951Y52267421D01*
X46803093Y52269004D01*
X46803091Y52269005D01*
X46777274Y52274965D01*
X46762531Y52279332D01*
X46731015Y52290803D01*
X46724025Y52291686D01*
X46724017Y52291688D01*
X46687999Y52296238D01*
X46675447Y52298474D01*
X46640086Y52306638D01*
X46640083Y52306638D01*
X46633215Y52308224D01*
X46626169Y52308249D01*
X46626166Y52308249D01*
X46592644Y52308366D01*
X46591762Y52308395D01*
X46590931Y52308500D01*
X46554281Y52308500D01*
X46553841Y52308501D01*
X46455357Y52308845D01*
X46455352Y52308845D01*
X46451830Y52308857D01*
X46450630Y52308589D01*
X46448993Y52308500D01*
X32094188Y52308500D01*
X32026067Y52328502D01*
X32005093Y52345405D01*
X31844300Y52506198D01*
X31839792Y52509355D01*
X31839789Y52509357D01*
X31713920Y52597491D01*
X31656749Y52637523D01*
X31649710Y52640806D01*
X31648958Y52641468D01*
X31646998Y52642599D01*
X31647225Y52642993D01*
X31596425Y52687724D01*
X31576965Y52756001D01*
X31597508Y52823961D01*
X31651531Y52870026D01*
X31702961Y52881000D01*
X48298223Y52881000D01*
X48366344Y52860998D01*
G37*
G04 #@! TD.AperFunction*
M02*
