G04 #@! TF.GenerationSoftware,KiCad,Pcbnew,(6.0.4-0)*
G04 #@! TF.CreationDate,2022-11-05T10:22:40+09:00*
G04 #@! TF.ProjectId,KZ80-MSXMEM,4b5a3830-2d4d-4535-984d-454d2e6b6963,rev?*
G04 #@! TF.SameCoordinates,PX8f0d180PY7735940*
G04 #@! TF.FileFunction,Legend,Top*
G04 #@! TF.FilePolarity,Positive*
%FSLAX46Y46*%
G04 Gerber Fmt 4.6, Leading zero omitted, Abs format (unit mm)*
G04 Created by KiCad (PCBNEW (6.0.4-0)) date 2022-11-05 10:22:40*
%MOMM*%
%LPD*%
G01*
G04 APERTURE LIST*
G04 Aperture macros list*
%AMRoundRect*
0 Rectangle with rounded corners*
0 $1 Rounding radius*
0 $2 $3 $4 $5 $6 $7 $8 $9 X,Y pos of 4 corners*
0 Add a 4 corners polygon primitive as box body*
4,1,4,$2,$3,$4,$5,$6,$7,$8,$9,$2,$3,0*
0 Add four circle primitives for the rounded corners*
1,1,$1+$1,$2,$3*
1,1,$1+$1,$4,$5*
1,1,$1+$1,$6,$7*
1,1,$1+$1,$8,$9*
0 Add four rect primitives between the rounded corners*
20,1,$1+$1,$2,$3,$4,$5,0*
20,1,$1+$1,$4,$5,$6,$7,0*
20,1,$1+$1,$6,$7,$8,$9,0*
20,1,$1+$1,$8,$9,$2,$3,0*%
%AMFreePoly0*
4,1,37,0.586062,0.786062,0.601000,0.750000,0.601000,-0.750000,0.586062,-0.786062,0.550000,-0.801000,0.000000,-0.801000,-0.012525,-0.795812,-0.080875,-0.794559,-0.095149,-0.792248,-0.230464,-0.749973,-0.243516,-0.743747,-0.361526,-0.665192,-0.372306,-0.655554,-0.463526,-0.547035,-0.471167,-0.534759,-0.528262,-0.405000,-0.532150,-0.391073,-0.549733,-0.256613,-0.548336,-0.256430,-0.551000,-0.250000,
-0.551000,0.250000,-0.550512,0.251179,-0.550356,0.263956,-0.528545,0.404033,-0.524317,0.417860,-0.464069,0.546185,-0.456130,0.558271,-0.362286,0.664529,-0.351274,0.673901,-0.231379,0.749549,-0.218180,0.755454,-0.081873,0.794411,-0.067546,0.796373,-0.011990,0.796033,0.000000,0.801000,0.550000,0.801000,0.586062,0.786062,0.586062,0.786062,$1*%
%AMFreePoly1*
4,1,37,0.012349,0.795885,0.074216,0.795507,0.088518,0.793370,0.224339,0.752751,0.237465,0.746685,0.356427,0.669578,0.367324,0.660073,0.459862,0.552676,0.467652,0.540494,0.526329,0.411442,0.530388,0.397563,0.550485,0.257230,0.551000,0.250000,0.551000,-0.250000,0.550996,-0.250622,0.550847,-0.262838,0.550144,-0.270677,0.526624,-0.410478,0.522228,-0.424254,0.460416,-0.551833,
0.452330,-0.563821,0.357195,-0.668925,0.346069,-0.678161,0.225259,-0.752338,0.211989,-0.758081,0.075216,-0.795370,0.060866,-0.797157,0.011464,-0.796251,0.000000,-0.801000,-0.550000,-0.801000,-0.586062,-0.786062,-0.601000,-0.750000,-0.601000,0.750000,-0.586062,0.786062,-0.550000,0.801000,0.000000,0.801000,0.012349,0.795885,0.012349,0.795885,$1*%
G04 Aperture macros list end*
%ADD10C,0.150000*%
%ADD11C,0.200000*%
%ADD12C,0.250000*%
%ADD13C,0.120000*%
%ADD14C,1.702000*%
%ADD15RoundRect,0.051000X0.800000X-0.800000X0.800000X0.800000X-0.800000X0.800000X-0.800000X-0.800000X0*%
%ADD16RoundRect,0.051000X0.850000X-0.850000X0.850000X0.850000X-0.850000X0.850000X-0.850000X-0.850000X0*%
%ADD17O,1.802000X1.802000*%
%ADD18RoundRect,0.051000X-0.850000X-0.850000X0.850000X-0.850000X0.850000X0.850000X-0.850000X0.850000X0*%
%ADD19C,3.302000*%
%ADD20RoundRect,0.051000X-1.200000X-0.800000X1.200000X-0.800000X1.200000X0.800000X-1.200000X0.800000X0*%
%ADD21O,2.502000X1.702000*%
%ADD22O,1.702000X1.702000*%
%ADD23FreePoly0,0.000000*%
%ADD24RoundRect,0.051000X-0.500000X-0.750000X0.500000X-0.750000X0.500000X0.750000X-0.500000X0.750000X0*%
%ADD25FreePoly1,0.000000*%
G04 APERTURE END LIST*
D10*
X86261904Y30830000D02*
X87214285Y30830000D01*
X86452380Y29595239D02*
X86595238Y29547620D01*
X86833333Y29547620D01*
X86928571Y29595239D01*
X86976190Y29642858D01*
X87023809Y29738096D01*
X87023809Y29833334D01*
X86976190Y29928572D01*
X86928571Y29976191D01*
X86833333Y30023810D01*
X86642857Y30071429D01*
X86547619Y30119048D01*
X86500000Y30166667D01*
X86452380Y30261905D01*
X86452380Y30357143D01*
X86500000Y30452381D01*
X86547619Y30500000D01*
X86642857Y30547620D01*
X86880952Y30547620D01*
X87023809Y30500000D01*
X87214285Y30830000D02*
X88023809Y30830000D01*
X87928571Y29547620D02*
X87452380Y29547620D01*
X87452380Y30547620D01*
X88023809Y30830000D02*
X88785714Y30830000D01*
X88119047Y30547620D02*
X88690476Y30547620D01*
X88404761Y29547620D02*
X88404761Y30547620D01*
X88785714Y30830000D02*
X89738095Y30830000D01*
X88976190Y30452381D02*
X89023809Y30500000D01*
X89119047Y30547620D01*
X89357142Y30547620D01*
X89452380Y30500000D01*
X89500000Y30452381D01*
X89547619Y30357143D01*
X89547619Y30261905D01*
X89500000Y30119048D01*
X88928571Y29547620D01*
X89547619Y29547620D01*
X86095238Y22047620D02*
X86095238Y23047620D01*
X86571428Y22047620D02*
X86571428Y23047620D01*
X87142857Y22047620D01*
X87142857Y23047620D01*
X87476190Y23047620D02*
X88047619Y23047620D01*
X87761904Y22047620D02*
X87761904Y23047620D01*
X88380952Y22428572D02*
X89142857Y22428572D01*
X89904761Y23047620D02*
X89904761Y22333334D01*
X89857142Y22190477D01*
X89761904Y22095239D01*
X89619047Y22047620D01*
X89523809Y22047620D01*
D11*
X44654761Y41833334D02*
X44750000Y41738096D01*
X44845238Y41547620D01*
X44845238Y41071429D01*
X44750000Y40880953D01*
X44654761Y40785715D01*
X44464285Y40690477D01*
X44273809Y40690477D01*
X43988095Y40785715D01*
X42845238Y41928572D01*
X42845238Y40690477D01*
X43988095Y39547620D02*
X44083333Y39738096D01*
X44178571Y39833334D01*
X44369047Y39928572D01*
X44464285Y39928572D01*
X44654761Y39833334D01*
X44750000Y39738096D01*
X44845238Y39547620D01*
X44845238Y39166667D01*
X44750000Y38976191D01*
X44654761Y38880953D01*
X44464285Y38785715D01*
X44369047Y38785715D01*
X44178571Y38880953D01*
X44083333Y38976191D01*
X43988095Y39166667D01*
X43988095Y39547620D01*
X43892857Y39738096D01*
X43797619Y39833334D01*
X43607142Y39928572D01*
X43226190Y39928572D01*
X43035714Y39833334D01*
X42940476Y39738096D01*
X42845238Y39547620D01*
X42845238Y39166667D01*
X42940476Y38976191D01*
X43035714Y38880953D01*
X43226190Y38785715D01*
X43607142Y38785715D01*
X43797619Y38880953D01*
X43892857Y38976191D01*
X43988095Y39166667D01*
X43035714Y36785715D02*
X42940476Y36880953D01*
X42845238Y37166667D01*
X42845238Y37357143D01*
X42940476Y37642858D01*
X43130952Y37833334D01*
X43321428Y37928572D01*
X43702380Y38023810D01*
X43988095Y38023810D01*
X44369047Y37928572D01*
X44559523Y37833334D01*
X44750000Y37642858D01*
X44845238Y37357143D01*
X44845238Y37166667D01*
X44750000Y36880953D01*
X44654761Y36785715D01*
X44654761Y36023810D02*
X44750000Y35928572D01*
X44845238Y35738096D01*
X44845238Y35261905D01*
X44750000Y35071429D01*
X44654761Y34976191D01*
X44464285Y34880953D01*
X44273809Y34880953D01*
X43988095Y34976191D01*
X42845238Y36119048D01*
X42845238Y34880953D01*
X44845238Y33071429D02*
X44845238Y34023810D01*
X43892857Y34119048D01*
X43988095Y34023810D01*
X44083333Y33833334D01*
X44083333Y33357143D01*
X43988095Y33166667D01*
X43892857Y33071429D01*
X43702380Y32976191D01*
X43226190Y32976191D01*
X43035714Y33071429D01*
X42940476Y33166667D01*
X42845238Y33357143D01*
X42845238Y33833334D01*
X42940476Y34023810D01*
X43035714Y34119048D01*
X44845238Y31261905D02*
X44845238Y31642858D01*
X44750000Y31833334D01*
X44654761Y31928572D01*
X44369047Y32119048D01*
X43988095Y32214286D01*
X43226190Y32214286D01*
X43035714Y32119048D01*
X42940476Y32023810D01*
X42845238Y31833334D01*
X42845238Y31452381D01*
X42940476Y31261905D01*
X43035714Y31166667D01*
X43226190Y31071429D01*
X43702380Y31071429D01*
X43892857Y31166667D01*
X43988095Y31261905D01*
X44083333Y31452381D01*
X44083333Y31833334D01*
X43988095Y32023810D01*
X43892857Y32119048D01*
X43702380Y32214286D01*
X42845238Y27547620D02*
X43797619Y28214286D01*
X42845238Y28690477D02*
X44845238Y28690477D01*
X44845238Y27928572D01*
X44750000Y27738096D01*
X44654761Y27642858D01*
X44464285Y27547620D01*
X44178571Y27547620D01*
X43988095Y27642858D01*
X43892857Y27738096D01*
X43797619Y27928572D01*
X43797619Y28690477D01*
X44845238Y26309524D02*
X44845238Y25928572D01*
X44750000Y25738096D01*
X44559523Y25547620D01*
X44178571Y25452381D01*
X43511904Y25452381D01*
X43130952Y25547620D01*
X42940476Y25738096D01*
X42845238Y25928572D01*
X42845238Y26309524D01*
X42940476Y26500000D01*
X43130952Y26690477D01*
X43511904Y26785715D01*
X44178571Y26785715D01*
X44559523Y26690477D01*
X44750000Y26500000D01*
X44845238Y26309524D01*
X42845238Y24595239D02*
X44845238Y24595239D01*
X43416666Y23928572D01*
X44845238Y23261905D01*
X42845238Y23261905D01*
X66180476Y36181429D02*
X66085238Y35895715D01*
X66085238Y35419524D01*
X66180476Y35229048D01*
X66275714Y35133810D01*
X66466190Y35038572D01*
X66656666Y35038572D01*
X66847142Y35133810D01*
X66942380Y35229048D01*
X67037619Y35419524D01*
X67132857Y35800477D01*
X67228095Y35990953D01*
X67323333Y36086191D01*
X67513809Y36181429D01*
X67704285Y36181429D01*
X67894761Y36086191D01*
X67990000Y35990953D01*
X68085238Y35800477D01*
X68085238Y35324286D01*
X67990000Y35038572D01*
X66085238Y33038572D02*
X67037619Y33705239D01*
X66085238Y34181429D02*
X68085238Y34181429D01*
X68085238Y33419524D01*
X67990000Y33229048D01*
X67894761Y33133810D01*
X67704285Y33038572D01*
X67418571Y33038572D01*
X67228095Y33133810D01*
X67132857Y33229048D01*
X67037619Y33419524D01*
X67037619Y34181429D01*
X66656666Y32276667D02*
X66656666Y31324286D01*
X66085238Y32467143D02*
X68085238Y31800477D01*
X66085238Y31133810D01*
X66085238Y30467143D02*
X68085238Y30467143D01*
X66656666Y29800477D01*
X68085238Y29133810D01*
X66085238Y29133810D01*
D10*
X78904761Y62678572D02*
X78952380Y62821429D01*
X78952380Y63059524D01*
X78904761Y63154762D01*
X78857142Y63202381D01*
X78761904Y63250000D01*
X78666666Y63250000D01*
X78571428Y63202381D01*
X78523809Y63154762D01*
X78476190Y63059524D01*
X78428571Y62869048D01*
X78380952Y62773810D01*
X78333333Y62726191D01*
X78238095Y62678572D01*
X78142857Y62678572D01*
X78047619Y62726191D01*
X78000000Y62773810D01*
X77952380Y62869048D01*
X77952380Y63107143D01*
X78000000Y63250000D01*
X78428571Y64011905D02*
X78476190Y64154762D01*
X78523809Y64202381D01*
X78619047Y64250000D01*
X78761904Y64250000D01*
X78857142Y64202381D01*
X78904761Y64154762D01*
X78952380Y64059524D01*
X78952380Y63678572D01*
X77952380Y63678572D01*
X77952380Y64011905D01*
X78000000Y64107143D01*
X78047619Y64154762D01*
X78142857Y64202381D01*
X78238095Y64202381D01*
X78333333Y64154762D01*
X78380952Y64107143D01*
X78428571Y64011905D01*
X78428571Y63678572D01*
X78857142Y65250000D02*
X78904761Y65202381D01*
X78952380Y65059524D01*
X78952380Y64964286D01*
X78904761Y64821429D01*
X78809523Y64726191D01*
X78714285Y64678572D01*
X78523809Y64630953D01*
X78380952Y64630953D01*
X78190476Y64678572D01*
X78095238Y64726191D01*
X78000000Y64821429D01*
X77952380Y64964286D01*
X77952380Y65059524D01*
X78000000Y65202381D01*
X78047619Y65250000D01*
X78380952Y65821429D02*
X78333333Y65726191D01*
X78285714Y65678572D01*
X78190476Y65630953D01*
X78142857Y65630953D01*
X78047619Y65678572D01*
X78000000Y65726191D01*
X77952380Y65821429D01*
X77952380Y66011905D01*
X78000000Y66107143D01*
X78047619Y66154762D01*
X78142857Y66202381D01*
X78190476Y66202381D01*
X78285714Y66154762D01*
X78333333Y66107143D01*
X78380952Y66011905D01*
X78380952Y65821429D01*
X78428571Y65726191D01*
X78476190Y65678572D01*
X78571428Y65630953D01*
X78761904Y65630953D01*
X78857142Y65678572D01*
X78904761Y65726191D01*
X78952380Y65821429D01*
X78952380Y66011905D01*
X78904761Y66107143D01*
X78857142Y66154762D01*
X78761904Y66202381D01*
X78571428Y66202381D01*
X78476190Y66154762D01*
X78428571Y66107143D01*
X78380952Y66011905D01*
X77952380Y66821429D02*
X77952380Y66916667D01*
X78000000Y67011905D01*
X78047619Y67059524D01*
X78142857Y67107143D01*
X78333333Y67154762D01*
X78571428Y67154762D01*
X78761904Y67107143D01*
X78857142Y67059524D01*
X78904761Y67011905D01*
X78952380Y66916667D01*
X78952380Y66821429D01*
X78904761Y66726191D01*
X78857142Y66678572D01*
X78761904Y66630953D01*
X78571428Y66583334D01*
X78333333Y66583334D01*
X78142857Y66630953D01*
X78047619Y66678572D01*
X78000000Y66726191D01*
X77952380Y66821429D01*
X78380952Y67726191D02*
X78333333Y67630953D01*
X78285714Y67583334D01*
X78190476Y67535715D01*
X78142857Y67535715D01*
X78047619Y67583334D01*
X78000000Y67630953D01*
X77952380Y67726191D01*
X77952380Y67916667D01*
X78000000Y68011905D01*
X78047619Y68059524D01*
X78142857Y68107143D01*
X78190476Y68107143D01*
X78285714Y68059524D01*
X78333333Y68011905D01*
X78380952Y67916667D01*
X78380952Y67726191D01*
X78428571Y67630953D01*
X78476190Y67583334D01*
X78571428Y67535715D01*
X78761904Y67535715D01*
X78857142Y67583334D01*
X78904761Y67630953D01*
X78952380Y67726191D01*
X78952380Y67916667D01*
X78904761Y68011905D01*
X78857142Y68059524D01*
X78761904Y68107143D01*
X78571428Y68107143D01*
X78476190Y68059524D01*
X78428571Y68011905D01*
X78380952Y67916667D01*
X77952380Y68726191D02*
X77952380Y68821429D01*
X78000000Y68916667D01*
X78047619Y68964286D01*
X78142857Y69011905D01*
X78333333Y69059524D01*
X78571428Y69059524D01*
X78761904Y69011905D01*
X78857142Y68964286D01*
X78904761Y68916667D01*
X78952380Y68821429D01*
X78952380Y68726191D01*
X78904761Y68630953D01*
X78857142Y68583334D01*
X78761904Y68535715D01*
X78571428Y68488096D01*
X78333333Y68488096D01*
X78142857Y68535715D01*
X78047619Y68583334D01*
X78000000Y68630953D01*
X77952380Y68726191D01*
X78428571Y70583334D02*
X78476190Y70726191D01*
X78523809Y70773810D01*
X78619047Y70821429D01*
X78761904Y70821429D01*
X78857142Y70773810D01*
X78904761Y70726191D01*
X78952380Y70630953D01*
X78952380Y70250000D01*
X77952380Y70250000D01*
X77952380Y70583334D01*
X78000000Y70678572D01*
X78047619Y70726191D01*
X78142857Y70773810D01*
X78238095Y70773810D01*
X78333333Y70726191D01*
X78380952Y70678572D01*
X78428571Y70583334D01*
X78428571Y70250000D01*
X77952380Y71250000D02*
X78761904Y71250000D01*
X78857142Y71297620D01*
X78904761Y71345239D01*
X78952380Y71440477D01*
X78952380Y71630953D01*
X78904761Y71726191D01*
X78857142Y71773810D01*
X78761904Y71821429D01*
X77952380Y71821429D01*
X78904761Y72250000D02*
X78952380Y72392858D01*
X78952380Y72630953D01*
X78904761Y72726191D01*
X78857142Y72773810D01*
X78761904Y72821429D01*
X78666666Y72821429D01*
X78571428Y72773810D01*
X78523809Y72726191D01*
X78476190Y72630953D01*
X78428571Y72440477D01*
X78380952Y72345239D01*
X78333333Y72297620D01*
X78238095Y72250000D01*
X78142857Y72250000D01*
X78047619Y72297620D01*
X78000000Y72345239D01*
X77952380Y72440477D01*
X77952380Y72678572D01*
X78000000Y72821429D01*
D12*
X28948214Y4278929D02*
X28591071Y4278929D01*
X28591071Y6421786D01*
X28948214Y6421786D01*
X29519642Y4778929D02*
X29519642Y6278929D01*
X30376785Y4778929D02*
X29733928Y5636072D01*
X30376785Y6278929D02*
X29519642Y5421786D01*
X30876785Y6278929D02*
X31876785Y6278929D01*
X30876785Y4778929D01*
X31876785Y4778929D01*
X32662500Y5636072D02*
X32519642Y5707500D01*
X32448214Y5778929D01*
X32376785Y5921786D01*
X32376785Y5993215D01*
X32448214Y6136072D01*
X32519642Y6207500D01*
X32662500Y6278929D01*
X32948214Y6278929D01*
X33091071Y6207500D01*
X33162500Y6136072D01*
X33233928Y5993215D01*
X33233928Y5921786D01*
X33162500Y5778929D01*
X33091071Y5707500D01*
X32948214Y5636072D01*
X32662500Y5636072D01*
X32519642Y5564643D01*
X32448214Y5493215D01*
X32376785Y5350358D01*
X32376785Y5064643D01*
X32448214Y4921786D01*
X32519642Y4850358D01*
X32662500Y4778929D01*
X32948214Y4778929D01*
X33091071Y4850358D01*
X33162500Y4921786D01*
X33233928Y5064643D01*
X33233928Y5350358D01*
X33162500Y5493215D01*
X33091071Y5564643D01*
X32948214Y5636072D01*
X34162500Y6278929D02*
X34305357Y6278929D01*
X34448214Y6207500D01*
X34519642Y6136072D01*
X34591071Y5993215D01*
X34662500Y5707500D01*
X34662500Y5350358D01*
X34591071Y5064643D01*
X34519642Y4921786D01*
X34448214Y4850358D01*
X34305357Y4778929D01*
X34162500Y4778929D01*
X34019642Y4850358D01*
X33948214Y4921786D01*
X33876785Y5064643D01*
X33805357Y5350358D01*
X33805357Y5707500D01*
X33876785Y5993215D01*
X33948214Y6136072D01*
X34019642Y6207500D01*
X34162500Y6278929D01*
X35305357Y5350358D02*
X36448214Y5350358D01*
X37162500Y4778929D02*
X37162500Y6278929D01*
X37662500Y5207500D01*
X38162500Y6278929D01*
X38162500Y4778929D01*
X38805357Y4850358D02*
X39019642Y4778929D01*
X39376785Y4778929D01*
X39519642Y4850358D01*
X39591071Y4921786D01*
X39662500Y5064643D01*
X39662500Y5207500D01*
X39591071Y5350358D01*
X39519642Y5421786D01*
X39376785Y5493215D01*
X39091071Y5564643D01*
X38948214Y5636072D01*
X38876785Y5707500D01*
X38805357Y5850358D01*
X38805357Y5993215D01*
X38876785Y6136072D01*
X38948214Y6207500D01*
X39091071Y6278929D01*
X39448214Y6278929D01*
X39662500Y6207500D01*
X40162500Y6278929D02*
X41162500Y4778929D01*
X41162500Y6278929D02*
X40162500Y4778929D01*
X41733928Y4778929D02*
X41733928Y6278929D01*
X42233928Y5207500D01*
X42733928Y6278929D01*
X42733928Y4778929D01*
X43448214Y5564643D02*
X43948214Y5564643D01*
X44162500Y4778929D02*
X43448214Y4778929D01*
X43448214Y6278929D01*
X44162500Y6278929D01*
X44805357Y4778929D02*
X44805357Y6278929D01*
X45305357Y5207500D01*
X45805357Y6278929D01*
X45805357Y4778929D01*
X46376785Y4278929D02*
X46733928Y4278929D01*
X46733928Y6421786D01*
X46376785Y6421786D01*
X48662500Y4778929D02*
X48662500Y6278929D01*
X49162500Y5207500D01*
X49662500Y6278929D01*
X49662500Y4778929D01*
X50305357Y4850358D02*
X50519642Y4778929D01*
X50876785Y4778929D01*
X51019642Y4850358D01*
X51091071Y4921786D01*
X51162500Y5064643D01*
X51162500Y5207500D01*
X51091071Y5350358D01*
X51019642Y5421786D01*
X50876785Y5493215D01*
X50591071Y5564643D01*
X50448214Y5636072D01*
X50376785Y5707500D01*
X50305357Y5850358D01*
X50305357Y5993215D01*
X50376785Y6136072D01*
X50448214Y6207500D01*
X50591071Y6278929D01*
X50948214Y6278929D01*
X51162500Y6207500D01*
X51662500Y6278929D02*
X52662500Y4778929D01*
X52662500Y6278929D02*
X51662500Y4778929D01*
X54376785Y4778929D02*
X54376785Y6278929D01*
X54876785Y5207500D01*
X55376785Y6278929D01*
X55376785Y4778929D01*
X56662500Y4850358D02*
X56519642Y4778929D01*
X56233928Y4778929D01*
X56091071Y4850358D01*
X56019642Y4993215D01*
X56019642Y5564643D01*
X56091071Y5707500D01*
X56233928Y5778929D01*
X56519642Y5778929D01*
X56662500Y5707500D01*
X56733928Y5564643D01*
X56733928Y5421786D01*
X56019642Y5278929D01*
X57376785Y4778929D02*
X57376785Y5778929D01*
X57376785Y5636072D02*
X57448214Y5707500D01*
X57591071Y5778929D01*
X57805357Y5778929D01*
X57948214Y5707500D01*
X58019642Y5564643D01*
X58019642Y4778929D01*
X58019642Y5564643D02*
X58091071Y5707500D01*
X58233928Y5778929D01*
X58448214Y5778929D01*
X58591071Y5707500D01*
X58662500Y5564643D01*
X58662500Y4778929D01*
X59591071Y4778929D02*
X59448214Y4850358D01*
X59376785Y4921786D01*
X59305357Y5064643D01*
X59305357Y5493215D01*
X59376785Y5636072D01*
X59448214Y5707500D01*
X59591071Y5778929D01*
X59805357Y5778929D01*
X59948214Y5707500D01*
X60019642Y5636072D01*
X60091071Y5493215D01*
X60091071Y5064643D01*
X60019642Y4921786D01*
X59948214Y4850358D01*
X59805357Y4778929D01*
X59591071Y4778929D01*
X60733928Y4778929D02*
X60733928Y5778929D01*
X60733928Y5493215D02*
X60805357Y5636072D01*
X60876785Y5707500D01*
X61019642Y5778929D01*
X61162500Y5778929D01*
X61519642Y5778929D02*
X61876785Y4778929D01*
X62233928Y5778929D02*
X61876785Y4778929D01*
X61733928Y4421786D01*
X61662500Y4350358D01*
X61519642Y4278929D01*
X64448214Y5564643D02*
X64662500Y5493215D01*
X64733928Y5421786D01*
X64805357Y5278929D01*
X64805357Y5064643D01*
X64733928Y4921786D01*
X64662500Y4850358D01*
X64519642Y4778929D01*
X63948214Y4778929D01*
X63948214Y6278929D01*
X64448214Y6278929D01*
X64591071Y6207500D01*
X64662500Y6136072D01*
X64733928Y5993215D01*
X64733928Y5850358D01*
X64662500Y5707500D01*
X64591071Y5636072D01*
X64448214Y5564643D01*
X63948214Y5564643D01*
X65662500Y4778929D02*
X65519642Y4850358D01*
X65448214Y4921786D01*
X65376785Y5064643D01*
X65376785Y5493215D01*
X65448214Y5636072D01*
X65519642Y5707500D01*
X65662500Y5778929D01*
X65876785Y5778929D01*
X66019642Y5707500D01*
X66091071Y5636072D01*
X66162500Y5493215D01*
X66162500Y5064643D01*
X66091071Y4921786D01*
X66019642Y4850358D01*
X65876785Y4778929D01*
X65662500Y4778929D01*
X67448214Y4778929D02*
X67448214Y5564643D01*
X67376785Y5707500D01*
X67233928Y5778929D01*
X66948214Y5778929D01*
X66805357Y5707500D01*
X67448214Y4850358D02*
X67305357Y4778929D01*
X66948214Y4778929D01*
X66805357Y4850358D01*
X66733928Y4993215D01*
X66733928Y5136072D01*
X66805357Y5278929D01*
X66948214Y5350358D01*
X67305357Y5350358D01*
X67448214Y5421786D01*
X68162500Y4778929D02*
X68162500Y5778929D01*
X68162500Y5493215D02*
X68233928Y5636072D01*
X68305357Y5707500D01*
X68448214Y5778929D01*
X68591071Y5778929D01*
X69733928Y4778929D02*
X69733928Y6278929D01*
X69733928Y4850358D02*
X69591071Y4778929D01*
X69305357Y4778929D01*
X69162500Y4850358D01*
X69091071Y4921786D01*
X69019642Y5064643D01*
X69019642Y5493215D01*
X69091071Y5636072D01*
X69162500Y5707500D01*
X69305357Y5778929D01*
X69591071Y5778929D01*
X69733928Y5707500D01*
X72448214Y4778929D02*
X71948214Y5493215D01*
X71591071Y4778929D02*
X71591071Y6278929D01*
X72162500Y6278929D01*
X72305357Y6207500D01*
X72376785Y6136072D01*
X72448214Y5993215D01*
X72448214Y5778929D01*
X72376785Y5636072D01*
X72305357Y5564643D01*
X72162500Y5493215D01*
X71591071Y5493215D01*
X73091071Y5564643D02*
X73591071Y5564643D01*
X73805357Y4778929D02*
X73091071Y4778929D01*
X73091071Y6278929D01*
X73805357Y6278929D01*
X74233928Y6278929D02*
X74733928Y4778929D01*
X75233928Y6278929D01*
X75662500Y6136072D02*
X75733928Y6207500D01*
X75876785Y6278929D01*
X76233928Y6278929D01*
X76376785Y6207500D01*
X76448214Y6136072D01*
X76519642Y5993215D01*
X76519642Y5850358D01*
X76448214Y5636072D01*
X75591071Y4778929D01*
X76519642Y4778929D01*
X29162500Y3863929D02*
X28876785Y3863929D01*
X28733928Y3792500D01*
X28662500Y3721072D01*
X28519642Y3506786D01*
X28448214Y3221072D01*
X28448214Y2649643D01*
X28519642Y2506786D01*
X28591071Y2435358D01*
X28733928Y2363929D01*
X29019642Y2363929D01*
X29162500Y2435358D01*
X29233928Y2506786D01*
X29305357Y2649643D01*
X29305357Y3006786D01*
X29233928Y3149643D01*
X29162500Y3221072D01*
X29019642Y3292500D01*
X28733928Y3292500D01*
X28591071Y3221072D01*
X28519642Y3149643D01*
X28448214Y3006786D01*
X30591071Y3363929D02*
X30591071Y2363929D01*
X30233928Y3935358D02*
X29876785Y2863929D01*
X30805357Y2863929D01*
X31376785Y2363929D02*
X31376785Y3863929D01*
X31519642Y2935358D02*
X31948214Y2363929D01*
X31948214Y3363929D02*
X31376785Y2792500D01*
X33091071Y3149643D02*
X33305357Y3078215D01*
X33376785Y3006786D01*
X33448214Y2863929D01*
X33448214Y2649643D01*
X33376785Y2506786D01*
X33305357Y2435358D01*
X33162500Y2363929D01*
X32591071Y2363929D01*
X32591071Y3863929D01*
X33091071Y3863929D01*
X33233928Y3792500D01*
X33305357Y3721072D01*
X33376785Y3578215D01*
X33376785Y3435358D01*
X33305357Y3292500D01*
X33233928Y3221072D01*
X33091071Y3149643D01*
X32591071Y3149643D01*
X35019642Y3863929D02*
X35519642Y2363929D01*
X36019642Y3863929D01*
X37091071Y2435358D02*
X36948214Y2363929D01*
X36662500Y2363929D01*
X36519642Y2435358D01*
X36448214Y2578215D01*
X36448214Y3149643D01*
X36519642Y3292500D01*
X36662500Y3363929D01*
X36948214Y3363929D01*
X37091071Y3292500D01*
X37162500Y3149643D01*
X37162500Y3006786D01*
X36448214Y2863929D01*
X37805357Y2363929D02*
X37805357Y3363929D01*
X37805357Y3078215D02*
X37876785Y3221072D01*
X37948214Y3292500D01*
X38091071Y3363929D01*
X38233928Y3363929D01*
X38662500Y2435358D02*
X38805357Y2363929D01*
X39091071Y2363929D01*
X39233928Y2435358D01*
X39305357Y2578215D01*
X39305357Y2649643D01*
X39233928Y2792500D01*
X39091071Y2863929D01*
X38876785Y2863929D01*
X38733928Y2935358D01*
X38662500Y3078215D01*
X38662500Y3149643D01*
X38733928Y3292500D01*
X38876785Y3363929D01*
X39091071Y3363929D01*
X39233928Y3292500D01*
X39948214Y2363929D02*
X39948214Y3363929D01*
X39948214Y3863929D02*
X39876785Y3792500D01*
X39948214Y3721072D01*
X40019642Y3792500D01*
X39948214Y3863929D01*
X39948214Y3721072D01*
X40876785Y2363929D02*
X40733928Y2435358D01*
X40662500Y2506786D01*
X40591071Y2649643D01*
X40591071Y3078215D01*
X40662500Y3221072D01*
X40733928Y3292500D01*
X40876785Y3363929D01*
X41091071Y3363929D01*
X41233928Y3292500D01*
X41305357Y3221072D01*
X41376785Y3078215D01*
X41376785Y2649643D01*
X41305357Y2506786D01*
X41233928Y2435358D01*
X41091071Y2363929D01*
X40876785Y2363929D01*
X42019642Y3363929D02*
X42019642Y2363929D01*
X42019642Y3221072D02*
X42091071Y3292500D01*
X42233928Y3363929D01*
X42448214Y3363929D01*
X42591071Y3292500D01*
X42662500Y3149643D01*
X42662500Y2363929D01*
X45591071Y3935358D02*
X44305357Y2006786D01*
X47233928Y2363929D02*
X47233928Y3863929D01*
X48091071Y2363929D02*
X47448214Y3221072D01*
X48091071Y3863929D02*
X47233928Y3006786D01*
X48733928Y3863929D02*
X48733928Y2649643D01*
X48805357Y2506786D01*
X48876785Y2435358D01*
X49019642Y2363929D01*
X49305357Y2363929D01*
X49448214Y2435358D01*
X49519642Y2506786D01*
X49591071Y2649643D01*
X49591071Y3863929D01*
X50305357Y2363929D02*
X50305357Y3863929D01*
X51162500Y2363929D01*
X51162500Y3863929D01*
X51876785Y2363929D02*
X51876785Y3863929D01*
X52591071Y2935358D02*
X53733928Y2935358D01*
X54448214Y2363929D02*
X54448214Y3863929D01*
X55305357Y2363929D01*
X55305357Y3863929D01*
X56019642Y3149643D02*
X56519642Y3149643D01*
X56733928Y2363929D02*
X56019642Y2363929D01*
X56019642Y3863929D01*
X56733928Y3863929D01*
X57162500Y3863929D02*
X58019642Y3863929D01*
X57591071Y2363929D02*
X57591071Y3863929D01*
X59591071Y3721072D02*
X59662500Y3792500D01*
X59805357Y3863929D01*
X60162500Y3863929D01*
X60305357Y3792500D01*
X60376785Y3721072D01*
X60448214Y3578215D01*
X60448214Y3435358D01*
X60376785Y3221072D01*
X59519642Y2363929D01*
X60448214Y2363929D01*
X61376785Y3863929D02*
X61519642Y3863929D01*
X61662500Y3792500D01*
X61733928Y3721072D01*
X61805357Y3578215D01*
X61876785Y3292500D01*
X61876785Y2935358D01*
X61805357Y2649643D01*
X61733928Y2506786D01*
X61662500Y2435358D01*
X61519642Y2363929D01*
X61376785Y2363929D01*
X61233928Y2435358D01*
X61162500Y2506786D01*
X61091071Y2649643D01*
X61019642Y2935358D01*
X61019642Y3292500D01*
X61091071Y3578215D01*
X61162500Y3721072D01*
X61233928Y3792500D01*
X61376785Y3863929D01*
X62448214Y3721072D02*
X62519642Y3792500D01*
X62662500Y3863929D01*
X63019642Y3863929D01*
X63162500Y3792500D01*
X63233928Y3721072D01*
X63305357Y3578215D01*
X63305357Y3435358D01*
X63233928Y3221072D01*
X62376785Y2363929D01*
X63305357Y2363929D01*
X63876785Y3721072D02*
X63948214Y3792500D01*
X64091071Y3863929D01*
X64448214Y3863929D01*
X64591071Y3792500D01*
X64662500Y3721072D01*
X64733928Y3578215D01*
X64733928Y3435358D01*
X64662500Y3221072D01*
X63805357Y2363929D01*
X64733928Y2363929D01*
D10*
X86261904Y33830000D02*
X87214285Y33830000D01*
X86452380Y32595239D02*
X86595238Y32547620D01*
X86833333Y32547620D01*
X86928571Y32595239D01*
X86976190Y32642858D01*
X87023809Y32738096D01*
X87023809Y32833334D01*
X86976190Y32928572D01*
X86928571Y32976191D01*
X86833333Y33023810D01*
X86642857Y33071429D01*
X86547619Y33119048D01*
X86500000Y33166667D01*
X86452380Y33261905D01*
X86452380Y33357143D01*
X86500000Y33452381D01*
X86547619Y33500000D01*
X86642857Y33547620D01*
X86880952Y33547620D01*
X87023809Y33500000D01*
X87214285Y33830000D02*
X88023809Y33830000D01*
X87928571Y32547620D02*
X87452380Y32547620D01*
X87452380Y33547620D01*
X88023809Y33830000D02*
X88785714Y33830000D01*
X88119047Y33547620D02*
X88690476Y33547620D01*
X88404761Y32547620D02*
X88404761Y33547620D01*
X88785714Y33830000D02*
X89738095Y33830000D01*
X89214285Y33547620D02*
X89309523Y33547620D01*
X89404761Y33500000D01*
X89452380Y33452381D01*
X89500000Y33357143D01*
X89547619Y33166667D01*
X89547619Y32928572D01*
X89500000Y32738096D01*
X89452380Y32642858D01*
X89404761Y32595239D01*
X89309523Y32547620D01*
X89214285Y32547620D01*
X89119047Y32595239D01*
X89071428Y32642858D01*
X89023809Y32738096D01*
X88976190Y32928572D01*
X88976190Y33166667D01*
X89023809Y33357143D01*
X89071428Y33452381D01*
X89119047Y33500000D01*
X89214285Y33547620D01*
X86452380Y24595239D02*
X86595238Y24547620D01*
X86833333Y24547620D01*
X86928571Y24595239D01*
X86976190Y24642858D01*
X87023809Y24738096D01*
X87023809Y24833334D01*
X86976190Y24928572D01*
X86928571Y24976191D01*
X86833333Y25023810D01*
X86642857Y25071429D01*
X86547619Y25119048D01*
X86500000Y25166667D01*
X86452380Y25261905D01*
X86452380Y25357143D01*
X86500000Y25452381D01*
X86547619Y25500000D01*
X86642857Y25547620D01*
X86880952Y25547620D01*
X87023809Y25500000D01*
X87928571Y24547620D02*
X87452380Y24547620D01*
X87452380Y25547620D01*
X88119047Y25547620D02*
X88690476Y25547620D01*
X88404761Y24547620D02*
X88404761Y25547620D01*
X88928571Y25547620D02*
X89547619Y25547620D01*
X89214285Y25166667D01*
X89357142Y25166667D01*
X89452380Y25119048D01*
X89500000Y25071429D01*
X89547619Y24976191D01*
X89547619Y24738096D01*
X89500000Y24642858D01*
X89452380Y24595239D01*
X89357142Y24547620D01*
X89071428Y24547620D01*
X88976190Y24595239D01*
X88928571Y24642858D01*
X86261904Y28330000D02*
X87214285Y28330000D01*
X86452380Y27095239D02*
X86595238Y27047620D01*
X86833333Y27047620D01*
X86928571Y27095239D01*
X86976190Y27142858D01*
X87023809Y27238096D01*
X87023809Y27333334D01*
X86976190Y27428572D01*
X86928571Y27476191D01*
X86833333Y27523810D01*
X86642857Y27571429D01*
X86547619Y27619048D01*
X86500000Y27666667D01*
X86452380Y27761905D01*
X86452380Y27857143D01*
X86500000Y27952381D01*
X86547619Y28000000D01*
X86642857Y28047620D01*
X86880952Y28047620D01*
X87023809Y28000000D01*
X87214285Y28330000D02*
X88023809Y28330000D01*
X87928571Y27047620D02*
X87452380Y27047620D01*
X87452380Y28047620D01*
X88023809Y28330000D02*
X88785714Y28330000D01*
X88119047Y28047620D02*
X88690476Y28047620D01*
X88404761Y27047620D02*
X88404761Y28047620D01*
X88785714Y28330000D02*
X89738095Y28330000D01*
X88928571Y28047620D02*
X89547619Y28047620D01*
X89214285Y27666667D01*
X89357142Y27666667D01*
X89452380Y27619048D01*
X89500000Y27571429D01*
X89547619Y27476191D01*
X89547619Y27238096D01*
X89500000Y27142858D01*
X89452380Y27095239D01*
X89357142Y27047620D01*
X89071428Y27047620D01*
X88976190Y27095239D01*
X88928571Y27142858D01*
D11*
X27845238Y46821429D02*
X27845238Y45488096D01*
X25845238Y46345239D01*
X27178571Y43869048D02*
X25845238Y43869048D01*
X27940476Y44345239D02*
X26511904Y44821429D01*
X26511904Y43583334D01*
X25845238Y42821429D02*
X27845238Y42821429D01*
X26892857Y42821429D02*
X26892857Y41678572D01*
X25845238Y41678572D02*
X27845238Y41678572D01*
X26035714Y39583334D02*
X25940476Y39678572D01*
X25845238Y39964286D01*
X25845238Y40154762D01*
X25940476Y40440477D01*
X26130952Y40630953D01*
X26321428Y40726191D01*
X26702380Y40821429D01*
X26988095Y40821429D01*
X27369047Y40726191D01*
X27559523Y40630953D01*
X27750000Y40440477D01*
X27845238Y40154762D01*
X27845238Y39964286D01*
X27750000Y39678572D01*
X27654761Y39583334D01*
X27845238Y38345239D02*
X27845238Y38154762D01*
X27750000Y37964286D01*
X27654761Y37869048D01*
X27464285Y37773810D01*
X27083333Y37678572D01*
X26607142Y37678572D01*
X26226190Y37773810D01*
X26035714Y37869048D01*
X25940476Y37964286D01*
X25845238Y38154762D01*
X25845238Y38345239D01*
X25940476Y38535715D01*
X26035714Y38630953D01*
X26226190Y38726191D01*
X26607142Y38821429D01*
X27083333Y38821429D01*
X27464285Y38726191D01*
X27654761Y38630953D01*
X27750000Y38535715D01*
X27845238Y38345239D01*
X27845238Y36440477D02*
X27845238Y36250000D01*
X27750000Y36059524D01*
X27654761Y35964286D01*
X27464285Y35869048D01*
X27083333Y35773810D01*
X26607142Y35773810D01*
X26226190Y35869048D01*
X26035714Y35964286D01*
X25940476Y36059524D01*
X25845238Y36250000D01*
X25845238Y36440477D01*
X25940476Y36630953D01*
X26035714Y36726191D01*
X26226190Y36821429D01*
X26607142Y36916667D01*
X27083333Y36916667D01*
X27464285Y36821429D01*
X27654761Y36726191D01*
X27750000Y36630953D01*
X27845238Y36440477D01*
D10*
X29583333Y53192858D02*
X29535714Y53145239D01*
X29392857Y53097620D01*
X29297619Y53097620D01*
X29154761Y53145239D01*
X29059523Y53240477D01*
X29011904Y53335715D01*
X28964285Y53526191D01*
X28964285Y53669048D01*
X29011904Y53859524D01*
X29059523Y53954762D01*
X29154761Y54050000D01*
X29297619Y54097620D01*
X29392857Y54097620D01*
X29535714Y54050000D01*
X29583333Y54002381D01*
X30535714Y53097620D02*
X29964285Y53097620D01*
X30250000Y53097620D02*
X30250000Y54097620D01*
X30154761Y53954762D01*
X30059523Y53859524D01*
X29964285Y53811905D01*
X10107142Y63583334D02*
X10154761Y63535715D01*
X10202380Y63392858D01*
X10202380Y63297620D01*
X10154761Y63154762D01*
X10059523Y63059524D01*
X9964285Y63011905D01*
X9773809Y62964286D01*
X9630952Y62964286D01*
X9440476Y63011905D01*
X9345238Y63059524D01*
X9250000Y63154762D01*
X9202380Y63297620D01*
X9202380Y63392858D01*
X9250000Y63535715D01*
X9297619Y63583334D01*
X9297619Y63964286D02*
X9250000Y64011905D01*
X9202380Y64107143D01*
X9202380Y64345239D01*
X9250000Y64440477D01*
X9297619Y64488096D01*
X9392857Y64535715D01*
X9488095Y64535715D01*
X9630952Y64488096D01*
X10202380Y63916667D01*
X10202380Y64535715D01*
X72083333Y53192858D02*
X72035714Y53145239D01*
X71892857Y53097620D01*
X71797619Y53097620D01*
X71654761Y53145239D01*
X71559523Y53240477D01*
X71511904Y53335715D01*
X71464285Y53526191D01*
X71464285Y53669048D01*
X71511904Y53859524D01*
X71559523Y53954762D01*
X71654761Y54050000D01*
X71797619Y54097620D01*
X71892857Y54097620D01*
X72035714Y54050000D01*
X72083333Y54002381D01*
X72416666Y54097620D02*
X73035714Y54097620D01*
X72702380Y53716667D01*
X72845238Y53716667D01*
X72940476Y53669048D01*
X72988095Y53621429D01*
X73035714Y53526191D01*
X73035714Y53288096D01*
X72988095Y53192858D01*
X72940476Y53145239D01*
X72845238Y53097620D01*
X72559523Y53097620D01*
X72464285Y53145239D01*
X72416666Y53192858D01*
X50083333Y53192858D02*
X50035714Y53145239D01*
X49892857Y53097620D01*
X49797619Y53097620D01*
X49654761Y53145239D01*
X49559523Y53240477D01*
X49511904Y53335715D01*
X49464285Y53526191D01*
X49464285Y53669048D01*
X49511904Y53859524D01*
X49559523Y53954762D01*
X49654761Y54050000D01*
X49797619Y54097620D01*
X49892857Y54097620D01*
X50035714Y54050000D01*
X50083333Y54002381D01*
X50940476Y53764286D02*
X50940476Y53097620D01*
X50702380Y54145239D02*
X50464285Y53430953D01*
X51083333Y53430953D01*
X23182380Y67821667D02*
X23896666Y67821667D01*
X24039523Y67774048D01*
X24134761Y67678810D01*
X24182380Y67535953D01*
X24182380Y67440715D01*
X24182380Y68821667D02*
X24182380Y68250239D01*
X24182380Y68535953D02*
X23182380Y68535953D01*
X23325238Y68440715D01*
X23420476Y68345477D01*
X23468095Y68250239D01*
X96051666Y35817620D02*
X96051666Y35103334D01*
X96004047Y34960477D01*
X95908809Y34865239D01*
X95765952Y34817620D01*
X95670714Y34817620D01*
X96480238Y35722381D02*
X96527857Y35770000D01*
X96623095Y35817620D01*
X96861190Y35817620D01*
X96956428Y35770000D01*
X97004047Y35722381D01*
X97051666Y35627143D01*
X97051666Y35531905D01*
X97004047Y35389048D01*
X96432619Y34817620D01*
X97051666Y34817620D01*
X21738095Y51547620D02*
X21738095Y50738096D01*
X21785714Y50642858D01*
X21833333Y50595239D01*
X21928571Y50547620D01*
X22119047Y50547620D01*
X22214285Y50595239D01*
X22261904Y50642858D01*
X22309523Y50738096D01*
X22309523Y51547620D01*
X23309523Y50547620D02*
X22738095Y50547620D01*
X23023809Y50547620D02*
X23023809Y51547620D01*
X22928571Y51404762D01*
X22833333Y51309524D01*
X22738095Y51261905D01*
X42858095Y51377620D02*
X42858095Y50568096D01*
X42905714Y50472858D01*
X42953333Y50425239D01*
X43048571Y50377620D01*
X43239047Y50377620D01*
X43334285Y50425239D01*
X43381904Y50472858D01*
X43429523Y50568096D01*
X43429523Y51377620D01*
X43810476Y51377620D02*
X44429523Y51377620D01*
X44096190Y50996667D01*
X44239047Y50996667D01*
X44334285Y50949048D01*
X44381904Y50901429D01*
X44429523Y50806191D01*
X44429523Y50568096D01*
X44381904Y50472858D01*
X44334285Y50425239D01*
X44239047Y50377620D01*
X43953333Y50377620D01*
X43858095Y50425239D01*
X43810476Y50472858D01*
X65813095Y51267620D02*
X65813095Y50458096D01*
X65860714Y50362858D01*
X65908333Y50315239D01*
X66003571Y50267620D01*
X66194047Y50267620D01*
X66289285Y50315239D01*
X66336904Y50362858D01*
X66384523Y50458096D01*
X66384523Y51267620D01*
X66813095Y51172381D02*
X66860714Y51220000D01*
X66955952Y51267620D01*
X67194047Y51267620D01*
X67289285Y51220000D01*
X67336904Y51172381D01*
X67384523Y51077143D01*
X67384523Y50981905D01*
X67336904Y50839048D01*
X66765476Y50267620D01*
X67384523Y50267620D01*
X79692380Y38563334D02*
X79216190Y38230000D01*
X79692380Y37991905D02*
X78692380Y37991905D01*
X78692380Y38372858D01*
X78740000Y38468096D01*
X78787619Y38515715D01*
X78882857Y38563334D01*
X79025714Y38563334D01*
X79120952Y38515715D01*
X79168571Y38468096D01*
X79216190Y38372858D01*
X79216190Y37991905D01*
X79692380Y39515715D02*
X79692380Y38944286D01*
X79692380Y39230000D02*
X78692380Y39230000D01*
X78835238Y39134762D01*
X78930476Y39039524D01*
X78978095Y38944286D01*
X78406666Y50977620D02*
X78406666Y50263334D01*
X78359047Y50120477D01*
X78263809Y50025239D01*
X78120952Y49977620D01*
X78025714Y49977620D01*
X78882857Y49977620D02*
X78882857Y50977620D01*
X79263809Y50977620D01*
X79359047Y50930000D01*
X79406666Y50882381D01*
X79454285Y50787143D01*
X79454285Y50644286D01*
X79406666Y50549048D01*
X79359047Y50501429D01*
X79263809Y50453810D01*
X78882857Y50453810D01*
X80406666Y49977620D02*
X79835238Y49977620D01*
X80120952Y49977620D02*
X80120952Y50977620D01*
X80025714Y50834762D01*
X79930476Y50739524D01*
X79835238Y50691905D01*
D13*
X29121000Y52420000D02*
X30379000Y52420000D01*
X29121000Y50580000D02*
X30379000Y50580000D01*
X14540000Y65271000D02*
X15595000Y65271000D01*
X14540000Y64551000D02*
X15955000Y64551000D01*
X11378000Y65231000D02*
X12460000Y65231000D01*
X14540000Y64190000D02*
X16043000Y64190000D01*
X14540000Y65591000D02*
X15326000Y65591000D01*
X11496000Y65391000D02*
X12460000Y65391000D01*
X11715000Y65631000D02*
X12460000Y65631000D01*
X11599000Y65511000D02*
X12460000Y65511000D01*
X14540000Y64751000D02*
X15882000Y64751000D01*
X14540000Y66031000D02*
X14751000Y66031000D01*
X14540000Y65231000D02*
X15622000Y65231000D01*
X10931000Y63990000D02*
X12460000Y63990000D01*
X11171000Y64871000D02*
X12460000Y64871000D01*
X14540000Y64471000D02*
X15980000Y64471000D01*
X14540000Y65351000D02*
X15535000Y65351000D01*
X11351000Y65191000D02*
X12460000Y65191000D01*
X10950000Y64150000D02*
X12460000Y64150000D01*
X11801000Y65711000D02*
X12460000Y65711000D01*
X14540000Y64430000D02*
X15991000Y64430000D01*
X11152000Y64831000D02*
X12460000Y64831000D01*
X14540000Y64310000D02*
X16020000Y64310000D01*
X11636000Y65551000D02*
X12460000Y65551000D01*
X10957000Y64190000D02*
X12460000Y64190000D01*
X14540000Y64991000D02*
X15768000Y64991000D01*
X11563000Y65471000D02*
X12460000Y65471000D01*
X14540000Y64390000D02*
X16001000Y64390000D01*
X10999000Y64390000D02*
X12460000Y64390000D01*
X14540000Y65151000D02*
X15675000Y65151000D01*
X14540000Y64070000D02*
X16061000Y64070000D01*
X11118000Y64751000D02*
X12460000Y64751000D01*
X13216000Y66351000D02*
X13784000Y66351000D01*
X14540000Y65951000D02*
X14883000Y65951000D01*
X14540000Y65071000D02*
X15724000Y65071000D01*
X10972000Y64270000D02*
X12460000Y64270000D01*
X11086000Y64671000D02*
X12460000Y64671000D01*
X12057000Y65911000D02*
X12460000Y65911000D01*
X10980000Y64310000D02*
X12460000Y64310000D01*
X14540000Y63990000D02*
X16069000Y63990000D01*
X11435000Y65311000D02*
X12460000Y65311000D01*
X14540000Y64671000D02*
X15914000Y64671000D01*
X11757000Y65671000D02*
X12460000Y65671000D01*
X14540000Y65791000D02*
X15105000Y65791000D01*
X12249000Y66031000D02*
X12460000Y66031000D01*
X11300000Y65111000D02*
X12460000Y65111000D01*
X14540000Y65471000D02*
X15437000Y65471000D01*
X14540000Y65391000D02*
X15504000Y65391000D01*
X14540000Y65031000D02*
X15747000Y65031000D01*
X12000000Y65871000D02*
X12460000Y65871000D01*
X12489000Y66151000D02*
X14511000Y66151000D01*
X10939000Y64070000D02*
X12460000Y64070000D01*
X11045000Y64551000D02*
X12460000Y64551000D01*
X10944000Y64110000D02*
X12460000Y64110000D01*
X14540000Y65311000D02*
X15565000Y65311000D01*
X14540000Y64871000D02*
X15829000Y64871000D01*
X11072000Y64631000D02*
X12460000Y64631000D01*
X11775000Y61195225D02*
X12275000Y61195225D01*
X14540000Y65871000D02*
X15000000Y65871000D01*
X14540000Y65631000D02*
X15285000Y65631000D01*
X11058000Y64591000D02*
X12460000Y64591000D01*
X14540000Y64791000D02*
X15865000Y64791000D01*
X11032000Y64511000D02*
X12460000Y64511000D01*
X12402000Y66111000D02*
X14598000Y66111000D01*
X14540000Y65911000D02*
X14943000Y65911000D01*
X10924000Y63910000D02*
X16076000Y63910000D01*
X11465000Y65351000D02*
X12460000Y65351000D01*
X14540000Y64711000D02*
X15898000Y64711000D01*
X12117000Y65951000D02*
X12460000Y65951000D01*
X12982000Y66311000D02*
X14018000Y66311000D01*
X11253000Y65031000D02*
X12460000Y65031000D01*
X12181000Y65991000D02*
X12460000Y65991000D01*
X14540000Y65191000D02*
X15649000Y65191000D01*
X14540000Y64911000D02*
X15810000Y64911000D01*
X11009000Y64430000D02*
X12460000Y64430000D01*
X10935000Y64030000D02*
X12460000Y64030000D01*
X11276000Y65071000D02*
X12460000Y65071000D01*
X14540000Y65991000D02*
X14819000Y65991000D01*
X14540000Y65751000D02*
X15153000Y65751000D01*
X11135000Y64791000D02*
X12460000Y64791000D01*
X11674000Y65591000D02*
X12460000Y65591000D01*
X12322000Y66071000D02*
X14678000Y66071000D01*
X11190000Y64911000D02*
X12460000Y64911000D01*
X11405000Y65271000D02*
X12460000Y65271000D01*
X11210000Y64951000D02*
X12460000Y64951000D01*
X14540000Y65831000D02*
X15054000Y65831000D01*
X11946000Y65831000D02*
X12460000Y65831000D01*
X14540000Y65551000D02*
X15364000Y65551000D01*
X14540000Y64831000D02*
X15848000Y64831000D01*
X11102000Y64711000D02*
X12460000Y64711000D01*
X14540000Y64230000D02*
X16036000Y64230000D01*
X14540000Y65111000D02*
X15700000Y65111000D01*
X10989000Y64350000D02*
X12460000Y64350000D01*
X12025000Y60945225D02*
X12025000Y61445225D01*
X14540000Y64030000D02*
X16065000Y64030000D01*
X14540000Y65671000D02*
X15243000Y65671000D01*
X12823000Y66271000D02*
X14177000Y66271000D01*
X10964000Y64230000D02*
X12460000Y64230000D01*
X14540000Y64150000D02*
X16050000Y64150000D01*
X10920000Y63790000D02*
X16080000Y63790000D01*
X11895000Y65791000D02*
X12460000Y65791000D01*
X11232000Y64991000D02*
X12460000Y64991000D01*
X14540000Y65431000D02*
X15471000Y65431000D01*
X12695000Y66231000D02*
X14305000Y66231000D01*
X14540000Y64951000D02*
X15790000Y64951000D01*
X10921000Y63830000D02*
X16079000Y63830000D01*
X11325000Y65151000D02*
X12460000Y65151000D01*
X11847000Y65751000D02*
X12460000Y65751000D01*
X11529000Y65431000D02*
X12460000Y65431000D01*
X14540000Y64270000D02*
X16028000Y64270000D01*
X10927000Y63950000D02*
X16073000Y63950000D01*
X14540000Y64110000D02*
X16056000Y64110000D01*
X14540000Y64631000D02*
X15928000Y64631000D01*
X14540000Y64511000D02*
X15968000Y64511000D01*
X14540000Y65711000D02*
X15199000Y65711000D01*
X14540000Y64591000D02*
X15942000Y64591000D01*
X14540000Y65511000D02*
X15401000Y65511000D01*
X14540000Y64350000D02*
X16011000Y64350000D01*
X11020000Y64471000D02*
X12460000Y64471000D01*
X10920000Y63750000D02*
X16080000Y63750000D01*
X10922000Y63870000D02*
X16078000Y63870000D01*
X12585000Y66191000D02*
X14415000Y66191000D01*
X16120000Y63750000D02*
G75*
G03*
X16120000Y63750000I-2620000J0D01*
G01*
X71621000Y50580000D02*
X72879000Y50580000D01*
X71621000Y52420000D02*
X72879000Y52420000D01*
X49621000Y50580000D02*
X50879000Y50580000D01*
X49621000Y52420000D02*
X50879000Y52420000D01*
X40860000Y75140000D02*
X41620000Y75140000D01*
X72100000Y63542929D02*
X72100000Y63997071D01*
X64480000Y63542929D02*
X64480000Y63997071D01*
X26380000Y66082929D02*
X26380000Y66480000D01*
X55210000Y66480000D02*
X55210000Y69140000D01*
X26280000Y69140000D02*
X26280000Y75140000D01*
X44160000Y63542929D02*
X44160000Y63997071D01*
X36540000Y66082929D02*
X36540000Y66480000D01*
X68800000Y69140000D02*
X68800000Y75140000D01*
X56860000Y66082929D02*
X56860000Y66480000D01*
X63720000Y63542929D02*
X63720000Y63997071D01*
X51780000Y66082929D02*
X51780000Y66480000D01*
X48480000Y69140000D02*
X48480000Y75140000D01*
X58640000Y75140000D02*
X59400000Y75140000D01*
X56100000Y66082929D02*
X56100000Y66480000D01*
X50130000Y66480000D02*
X50130000Y69140000D01*
X71340000Y66082929D02*
X71340000Y66480000D01*
X25920000Y69140000D02*
X25920000Y75140000D01*
X47590000Y66480000D02*
X47590000Y69140000D01*
X49240000Y63542929D02*
X49240000Y63997071D01*
X59400000Y75140000D02*
X59400000Y69140000D01*
X53560000Y69140000D02*
X53560000Y75140000D01*
X72100000Y75140000D02*
X72100000Y69140000D01*
X34000000Y75140000D02*
X34000000Y69140000D01*
X61180000Y69140000D02*
X61180000Y75140000D01*
X30700000Y69140000D02*
X30700000Y75140000D01*
X31460000Y63542929D02*
X31460000Y63997071D01*
X43400000Y66082929D02*
X43400000Y66480000D01*
X28160000Y75140000D02*
X28920000Y75140000D01*
X67020000Y66082929D02*
X67020000Y66480000D01*
X35780000Y63542929D02*
X35780000Y63997071D01*
X30700000Y63542929D02*
X30700000Y63997071D01*
X40860000Y66082929D02*
X40860000Y66480000D01*
X25800000Y69140000D02*
X25800000Y75140000D01*
X26380000Y75140000D02*
X26380000Y69140000D01*
X51020000Y69140000D02*
X51020000Y75140000D01*
X66260000Y69140000D02*
X66260000Y75140000D01*
X63720000Y69140000D02*
X63720000Y75140000D01*
X64480000Y75140000D02*
X64480000Y69140000D01*
X39970000Y66480000D02*
X39970000Y69140000D01*
X73880000Y69140000D02*
X73880000Y75140000D01*
X72100000Y66082929D02*
X72100000Y66480000D01*
X30700000Y66082929D02*
X30700000Y66480000D01*
X56860000Y75140000D02*
X56860000Y69140000D01*
X26040000Y69140000D02*
X26040000Y75140000D01*
X51780000Y63542929D02*
X51780000Y63997071D01*
X58640000Y66082929D02*
X58640000Y66480000D01*
X35780000Y66082929D02*
X35780000Y66480000D01*
X71340000Y75140000D02*
X72100000Y75140000D01*
X36540000Y63542929D02*
X36540000Y63997071D01*
X32350000Y66480000D02*
X32350000Y69140000D01*
X33240000Y66082929D02*
X33240000Y66480000D01*
X26380000Y63610000D02*
X26380000Y63997071D01*
X33240000Y69140000D02*
X33240000Y75140000D01*
X34000000Y63542929D02*
X34000000Y63997071D01*
X35780000Y69140000D02*
X35780000Y75140000D01*
X28920000Y66082929D02*
X28920000Y66480000D01*
X46700000Y63542929D02*
X46700000Y63997071D01*
X42510000Y66480000D02*
X42510000Y69140000D01*
X73880000Y66082929D02*
X73880000Y66480000D01*
X31460000Y75140000D02*
X31460000Y69140000D01*
X73880000Y63542929D02*
X73880000Y63997071D01*
X36540000Y75140000D02*
X36540000Y69140000D01*
X51020000Y63542929D02*
X51020000Y63997071D01*
X44160000Y75140000D02*
X44160000Y69140000D01*
X46700000Y75140000D02*
X46700000Y69140000D01*
X69560000Y66082929D02*
X69560000Y66480000D01*
X30700000Y75140000D02*
X31460000Y75140000D01*
X68800000Y63542929D02*
X68800000Y63997071D01*
X67020000Y63542929D02*
X67020000Y63997071D01*
X53560000Y75140000D02*
X54320000Y75140000D01*
X72990000Y66480000D02*
X72990000Y69140000D01*
X40860000Y63542929D02*
X40860000Y63997071D01*
X68800000Y75140000D02*
X69560000Y75140000D01*
X28160000Y66082929D02*
X28160000Y66480000D01*
X59400000Y63542929D02*
X59400000Y63997071D01*
X53560000Y66082929D02*
X53560000Y66480000D01*
X41620000Y63542929D02*
X41620000Y63997071D01*
X25620000Y63610000D02*
X25620000Y63997071D01*
X49240000Y66082929D02*
X49240000Y66480000D01*
X56860000Y63542929D02*
X56860000Y63997071D01*
X28920000Y63542929D02*
X28920000Y63997071D01*
X63720000Y66082929D02*
X63720000Y66480000D01*
X39080000Y63542929D02*
X39080000Y63997071D01*
X61180000Y63542929D02*
X61180000Y63997071D01*
X61180000Y66082929D02*
X61180000Y66480000D01*
X27270000Y66480000D02*
X27270000Y69140000D01*
X38320000Y69140000D02*
X38320000Y75140000D01*
X25680000Y69140000D02*
X25680000Y75140000D01*
X51020000Y75140000D02*
X51780000Y75140000D01*
X71340000Y69140000D02*
X71340000Y75140000D01*
X70450000Y66480000D02*
X70450000Y69140000D01*
X40860000Y69140000D02*
X40860000Y75140000D01*
X34890000Y66480000D02*
X34890000Y69140000D01*
X25620000Y66082929D02*
X25620000Y66480000D01*
X45940000Y69140000D02*
X45940000Y75140000D01*
X48480000Y75140000D02*
X49240000Y75140000D01*
X69560000Y75140000D02*
X69560000Y69140000D01*
X37430000Y66480000D02*
X37430000Y69140000D01*
X60290000Y66480000D02*
X60290000Y69140000D01*
X44160000Y66082929D02*
X44160000Y66480000D01*
X34000000Y66082929D02*
X34000000Y66480000D01*
X29810000Y66480000D02*
X29810000Y69140000D01*
X45940000Y63542929D02*
X45940000Y63997071D01*
X28160000Y69140000D02*
X28160000Y75140000D01*
X43400000Y63542929D02*
X43400000Y63997071D01*
X61940000Y63542929D02*
X61940000Y63997071D01*
X66260000Y66082929D02*
X66260000Y66480000D01*
X24730000Y61230000D02*
X24730000Y62500000D01*
X38320000Y75140000D02*
X39080000Y75140000D01*
X54320000Y75140000D02*
X54320000Y69140000D01*
X59400000Y66082929D02*
X59400000Y66480000D01*
X45940000Y75140000D02*
X46700000Y75140000D01*
X26000000Y61230000D02*
X24730000Y61230000D01*
X43400000Y75140000D02*
X44160000Y75140000D01*
X54320000Y63542929D02*
X54320000Y63997071D01*
X56100000Y75140000D02*
X56860000Y75140000D01*
X63720000Y75140000D02*
X64480000Y75140000D01*
X25620000Y75140000D02*
X26380000Y75140000D01*
X25620000Y69140000D02*
X25620000Y75140000D01*
X56100000Y69140000D02*
X56100000Y75140000D01*
X31460000Y66082929D02*
X31460000Y66480000D01*
X73880000Y75140000D02*
X74640000Y75140000D01*
X39080000Y66082929D02*
X39080000Y66480000D01*
X28920000Y75140000D02*
X28920000Y69140000D01*
X38320000Y63542929D02*
X38320000Y63997071D01*
X66260000Y75140000D02*
X67020000Y75140000D01*
X54320000Y66082929D02*
X54320000Y66480000D01*
X67020000Y75140000D02*
X67020000Y69140000D01*
X75590000Y69140000D02*
X24670000Y69140000D01*
X58640000Y63542929D02*
X58640000Y63997071D01*
X26160000Y69140000D02*
X26160000Y75140000D01*
X33240000Y75140000D02*
X34000000Y75140000D01*
X41620000Y75140000D02*
X41620000Y69140000D01*
X24670000Y66480000D02*
X75590000Y66480000D01*
X61940000Y75140000D02*
X61940000Y69140000D01*
X58640000Y69140000D02*
X58640000Y75140000D01*
X35780000Y75140000D02*
X36540000Y75140000D01*
X75590000Y66480000D02*
X75590000Y69140000D01*
X69560000Y63542929D02*
X69560000Y63997071D01*
X74640000Y63542929D02*
X74640000Y63997071D01*
X65370000Y66480000D02*
X65370000Y69140000D01*
X45050000Y66480000D02*
X45050000Y69140000D01*
X56100000Y63542929D02*
X56100000Y63997071D01*
X61940000Y66082929D02*
X61940000Y66480000D01*
X64480000Y66082929D02*
X64480000Y66480000D01*
X33240000Y63542929D02*
X33240000Y63997071D01*
X45940000Y66082929D02*
X45940000Y66480000D01*
X49240000Y75140000D02*
X49240000Y69140000D01*
X48480000Y66082929D02*
X48480000Y66480000D01*
X52670000Y66480000D02*
X52670000Y69140000D01*
X43400000Y69140000D02*
X43400000Y75140000D01*
X74640000Y66082929D02*
X74640000Y66480000D01*
X48480000Y63542929D02*
X48480000Y63997071D01*
X57750000Y66480000D02*
X57750000Y69140000D01*
X41620000Y66082929D02*
X41620000Y66480000D01*
X68800000Y66082929D02*
X68800000Y66480000D01*
X24670000Y69140000D02*
X24670000Y66480000D01*
X28160000Y63542929D02*
X28160000Y63997071D01*
X39080000Y75140000D02*
X39080000Y69140000D01*
X51780000Y75140000D02*
X51780000Y69140000D01*
X38320000Y66082929D02*
X38320000Y66480000D01*
X67910000Y66480000D02*
X67910000Y69140000D01*
X51020000Y66082929D02*
X51020000Y66480000D01*
X53560000Y63542929D02*
X53560000Y63997071D01*
X66260000Y63542929D02*
X66260000Y63997071D01*
X62830000Y66480000D02*
X62830000Y69140000D01*
X46700000Y66082929D02*
X46700000Y66480000D01*
X74640000Y75140000D02*
X74640000Y69140000D01*
X71340000Y63542929D02*
X71340000Y63997071D01*
X61180000Y75140000D02*
X61940000Y75140000D01*
X96100000Y34330000D02*
X93440000Y34330000D01*
X102100000Y30840000D02*
X102100000Y30080000D01*
X93440000Y31730000D02*
X96100000Y31730000D01*
X102100000Y32620000D02*
X96100000Y32620000D01*
X102100000Y25000000D02*
X96100000Y25000000D01*
X96100000Y33200000D02*
X102100000Y33200000D01*
X102100000Y25760000D02*
X102100000Y25000000D01*
X93440000Y34330000D02*
X93440000Y21510000D01*
X96100000Y33320000D02*
X102100000Y33320000D01*
X96100000Y33080000D02*
X102100000Y33080000D01*
X93042929Y30840000D02*
X93440000Y30840000D01*
X96100000Y23220000D02*
X102100000Y23220000D01*
X93110000Y33380000D02*
X93440000Y33380000D01*
X93440000Y29190000D02*
X96100000Y29190000D01*
X90730000Y33000000D02*
X90730000Y34270000D01*
X96100000Y32840000D02*
X102100000Y32840000D01*
X102100000Y33380000D02*
X102100000Y32620000D01*
X96100000Y32960000D02*
X102100000Y32960000D01*
X96100000Y30840000D02*
X102100000Y30840000D01*
X93042929Y30080000D02*
X93440000Y30080000D01*
X93440000Y24110000D02*
X96100000Y24110000D01*
X96100000Y32720000D02*
X102100000Y32720000D01*
X90730000Y34270000D02*
X92000000Y34270000D01*
X93440000Y21510000D02*
X96100000Y21510000D01*
X102100000Y30080000D02*
X96100000Y30080000D01*
X93042929Y23220000D02*
X93440000Y23220000D01*
X93110000Y32620000D02*
X93440000Y32620000D01*
X93042929Y27540000D02*
X93440000Y27540000D01*
X102100000Y28300000D02*
X102100000Y27540000D01*
X96100000Y21510000D02*
X96100000Y34330000D01*
X96100000Y33380000D02*
X102100000Y33380000D01*
X93042929Y25000000D02*
X93440000Y25000000D01*
X93440000Y26650000D02*
X96100000Y26650000D01*
X96100000Y25760000D02*
X102100000Y25760000D01*
X102100000Y22460000D02*
X96100000Y22460000D01*
X93042929Y22460000D02*
X93440000Y22460000D01*
X93042929Y25760000D02*
X93440000Y25760000D01*
X93042929Y28300000D02*
X93440000Y28300000D01*
X96100000Y28300000D02*
X102100000Y28300000D01*
X102100000Y23220000D02*
X102100000Y22460000D01*
X102100000Y27540000D02*
X96100000Y27540000D01*
X25810000Y49830000D02*
X24560000Y49830000D01*
X21560000Y31870000D02*
X32060000Y31870000D01*
X24560000Y31930000D02*
X29060000Y31930000D01*
X24560000Y49830000D02*
X24560000Y31930000D01*
X29060000Y31930000D02*
X29060000Y49830000D01*
X32060000Y49890000D02*
X21560000Y49890000D01*
X29060000Y49830000D02*
X27810000Y49830000D01*
X32060000Y31870000D02*
X32060000Y49890000D01*
X21560000Y49890000D02*
X21560000Y31870000D01*
X25810000Y49830000D02*
G75*
G03*
X27810000Y49830000I1000000J0D01*
G01*
X42620000Y49830000D02*
X37560000Y49830000D01*
X49680000Y49830000D02*
X44620000Y49830000D01*
X34560000Y14090000D02*
X52680000Y14090000D01*
X37560000Y49830000D02*
X37560000Y14150000D01*
X49680000Y14150000D02*
X49680000Y49830000D01*
X52680000Y49890000D02*
X34560000Y49890000D01*
X52680000Y14090000D02*
X52680000Y49890000D01*
X34560000Y49890000D02*
X34560000Y14090000D01*
X37560000Y14150000D02*
X49680000Y14150000D01*
X42620000Y49830000D02*
G75*
G03*
X44620000Y49830000I1000000J0D01*
G01*
X57515000Y49780000D02*
X57515000Y8900000D01*
X60515000Y49720000D02*
X60515000Y8960000D01*
X60515000Y8960000D02*
X72635000Y8960000D01*
X57515000Y8900000D02*
X75635000Y8900000D01*
X75635000Y49780000D02*
X57515000Y49780000D01*
X72635000Y49720000D02*
X67575000Y49720000D01*
X65575000Y49720000D02*
X60515000Y49720000D01*
X72635000Y8960000D02*
X72635000Y49720000D01*
X75635000Y8900000D02*
X75635000Y49780000D01*
X65575000Y49720000D02*
G75*
G03*
X67575000Y49720000I1000000J0D01*
G01*
X77760000Y42100000D02*
X77760000Y35560000D01*
X77760000Y35560000D02*
X80500000Y35560000D01*
X80500000Y35560000D02*
X80500000Y42100000D01*
X79130000Y34790000D02*
X79130000Y35560000D01*
X79130000Y42870000D02*
X79130000Y42100000D01*
X80500000Y42100000D02*
X77760000Y42100000D01*
X80640000Y47630000D02*
X77840000Y47630000D01*
X77190000Y48330000D02*
X77190000Y48930000D01*
X81290000Y48930000D02*
X81290000Y48330000D01*
X78040000Y47430000D02*
X78340000Y47130000D01*
X77840000Y49630000D02*
X80640000Y49630000D01*
X77740000Y47130000D02*
X78340000Y47130000D01*
X78040000Y47430000D02*
X77740000Y47130000D01*
X81290000Y48930000D02*
G75*
G03*
X80590000Y49630000I-700000J0D01*
G01*
X77890000Y49630000D02*
G75*
G03*
X77190000Y48930000I-1J-699999D01*
G01*
X77190000Y48330000D02*
G75*
G03*
X77890000Y47630000I699999J-1D01*
G01*
X80590000Y47630000D02*
G75*
G03*
X81290000Y48330000I0J700000D01*
G01*
%LPC*%
D14*
X28500000Y51500000D03*
X31000000Y51500000D03*
D15*
X13500000Y62500000D03*
D14*
X13500000Y65000000D03*
X71000000Y51500000D03*
X73500000Y51500000D03*
X49000000Y51500000D03*
X51500000Y51500000D03*
D16*
X26000000Y62500000D03*
D17*
X26000000Y65040000D03*
X28540000Y62500000D03*
X28540000Y65040000D03*
X31080000Y62500000D03*
X31080000Y65040000D03*
X33620000Y62500000D03*
X33620000Y65040000D03*
X36160000Y62500000D03*
X36160000Y65040000D03*
X38700000Y62500000D03*
X38700000Y65040000D03*
X41240000Y62500000D03*
X41240000Y65040000D03*
X43780000Y62500000D03*
X43780000Y65040000D03*
X46320000Y62500000D03*
X46320000Y65040000D03*
X48860000Y62500000D03*
X48860000Y65040000D03*
X51400000Y62500000D03*
X51400000Y65040000D03*
X53940000Y62500000D03*
X53940000Y65040000D03*
X56480000Y62500000D03*
X56480000Y65040000D03*
X59020000Y62500000D03*
X59020000Y65040000D03*
X61560000Y62500000D03*
X61560000Y65040000D03*
X64100000Y62500000D03*
X64100000Y65040000D03*
X66640000Y62500000D03*
X66640000Y65040000D03*
X69180000Y62500000D03*
X69180000Y65040000D03*
X71720000Y62500000D03*
X71720000Y65040000D03*
X74260000Y62500000D03*
X74260000Y65040000D03*
D18*
X92000000Y33000000D03*
D17*
X92000000Y30460000D03*
X92000000Y27920000D03*
X92000000Y25380000D03*
X92000000Y22840000D03*
D19*
X5500000Y70500000D03*
X94500000Y70500000D03*
X5500000Y4500000D03*
D20*
X23000000Y48500000D03*
D21*
X23000000Y45960000D03*
X23000000Y43420000D03*
X23000000Y40880000D03*
X23000000Y38340000D03*
X23000000Y35800000D03*
X23000000Y33260000D03*
X30620000Y33260000D03*
X30620000Y35800000D03*
X30620000Y38340000D03*
X30620000Y40880000D03*
X30620000Y43420000D03*
X30620000Y45960000D03*
X30620000Y48500000D03*
D20*
X36000000Y48500000D03*
D21*
X36000000Y45960000D03*
X36000000Y43420000D03*
X36000000Y40880000D03*
X36000000Y38340000D03*
X36000000Y35800000D03*
X36000000Y33260000D03*
X36000000Y30720000D03*
X36000000Y28180000D03*
X36000000Y25640000D03*
X36000000Y23100000D03*
X36000000Y20560000D03*
X36000000Y18020000D03*
X36000000Y15480000D03*
X51240000Y15480000D03*
X51240000Y18020000D03*
X51240000Y20560000D03*
X51240000Y23100000D03*
X51240000Y25640000D03*
X51240000Y28180000D03*
X51240000Y30720000D03*
X51240000Y33260000D03*
X51240000Y35800000D03*
X51240000Y38340000D03*
X51240000Y40880000D03*
X51240000Y43420000D03*
X51240000Y45960000D03*
X51240000Y48500000D03*
D19*
X94500000Y4500000D03*
D20*
X58955000Y48390000D03*
D21*
X58955000Y45850000D03*
X58955000Y43310000D03*
X58955000Y40770000D03*
X58955000Y38230000D03*
X58955000Y35690000D03*
X58955000Y33150000D03*
X58955000Y30610000D03*
X58955000Y28070000D03*
X58955000Y25530000D03*
X58955000Y22990000D03*
X58955000Y20450000D03*
X58955000Y17910000D03*
X58955000Y15370000D03*
X58955000Y12830000D03*
X58955000Y10290000D03*
X74195000Y10290000D03*
X74195000Y12830000D03*
X74195000Y15370000D03*
X74195000Y17910000D03*
X74195000Y20450000D03*
X74195000Y22990000D03*
X74195000Y25530000D03*
X74195000Y28070000D03*
X74195000Y30610000D03*
X74195000Y33150000D03*
X74195000Y35690000D03*
X74195000Y38230000D03*
X74195000Y40770000D03*
X74195000Y43310000D03*
X74195000Y45850000D03*
X74195000Y48390000D03*
D14*
X79130000Y33750000D03*
D22*
X79130000Y43910000D03*
D23*
X77940000Y48630000D03*
D24*
X79240000Y48630000D03*
D25*
X80540000Y48630000D03*
M02*
